<svg xmlns="http://www.w3.org/2000/svg" width="380.431" height="505.84" viewBox="0 0 380.431 505.84"><g transform="translate(372.495 14884.238)"><path d="M504.945,855.312l20.071-29.18-32.11-36.518-31.438,36.518,19.383,29.18-13.774,64.8H518.7Z" transform="translate(-679.486 -15298.509)" fill="#0a3d38"/><path d="M773.791,873.195c0-39.887-33.178-72.221-74.1-72.221h-232.2c-40.924,0-74.129,32.334-74.129,72.221v32.5H773.791Z" transform="translate(-765.855 -15284.104)" fill="#f7d5c3"/><path d="M604.249,812.592V770.956c0-13.316-15.362-24.124-34.314-24.124H533.9c-18.977,0-34.339,10.808-34.339,24.124v41.636s-10.29,57.356-84.955,61.586C423.2,906.149,515.877,921.8,551.91,918.2c36.04,3.6,128.722-14.813,137.293-46.793-74.639-4.205-84.954-58.819-84.954-58.819" transform="translate(-738.917 -15352.76)" fill="#f7d5c3"/><path d="M699.2,941.851c0-34.369-24.67-63.085-57.649-70.389v-.045a1.793,1.793,0,0,1-.308-.034,76.608,76.608,0,0,0-15.167-1.71c-60.615-10.286-69.477-57.089-69.477-57.089V770.96c0-13.325-15.362-24.128-34.319-24.128H486.245a47.014,47.014,0,0,0-13.622,1.976l-20.56,20.03a2.2,2.2,0,0,1-.023.388L662.516,974.356H699.2Z" transform="translate(-691.442 -15352.76)" fill="#d6b9aa"/><path d="M636.109,782.123c0,78.127-46.149,141.467-103.108,141.467-56.975,0-103.149-63.339-103.149-141.467S476.026,640.67,533,640.67c56.959,0,103.108,63.339,103.108,141.453" transform="translate(-719.581 -15487.386)" fill="#f7d5c3"/><path d="M475.33,640.67V923.592c56.961,0,103.108-63.339,103.108-141.469,0-78.114-46.147-141.453-103.108-141.453" transform="translate(-661.91 -15487.386)" fill="#eac9b7"/><path d="M632.387,675.426c-23.935-44.242-157.852-98.835-200.671,23.153,0,0-14.244,54.235,2.833,108.468,2.744-35.977,7.056-66.669,21.611-90.511,37.551,25.21,112.328,65.979,180.739,46.712,1.876,6.591,6.094,25.215,2.9,51.008,0,0,10.944-26.893,8.6-54.85,2.923-1.118,5.829-2.348,8.684-3.736,28-16.042,42.171-48.978,42.171-48.978-21.407,9.635-50.833-1.619-66.866-31.266" transform="translate(-724.276 -15508.365)" fill="#18988b"/><path d="M468.982,819.819h-1.492a75.264,75.264,0,0,0-25.591,4.516c-.132.007-.243.018-.356.027a.122.122,0,0,1,.02.079c-28.127,10.247-48.2,36.605-48.2,67.6v32.5H773.791v-32.5c0-34.362-24.645-63.085-57.646-70.389a.049.049,0,0,1,.02-.045,1.845,1.845,0,0,1-.333-.034,76.581,76.581,0,0,0-15.137-1.71c-.674-.111-1.341-.218-1.967-.347-.962-.172-1.914-.354-2.833-.56-1.139-.224-2.236-.476-3.332-.751-.692-.163-1.336-.3-1.985-.476-1.474-.377-2.923-.8-4.332-1.229-.245-.081-.492-.138-.692-.206-22.125-6.909-35.407-19.152-43.334-30.179l-62.947,7.936-63-7.936C508.1,798.5,493.743,812.6,468.982,819.819" transform="translate(-765.855 -15302.949)" fill="#fff"/><path d="M441.9,805.487c-.134.011-.243.023-.356.032a.125.125,0,0,1,.018.075c-28.129,10.252-48.2,36.609-48.2,67.6V905.7H516.9L467.487,800.974a75.287,75.287,0,0,0-25.587,4.513" transform="translate(-765.855 -15284.104)" fill="#18988b"/><path d="M575.944,804.447a.071.071,0,0,1,.02-.059,2.438,2.438,0,0,1-.333-.025,77.108,77.108,0,0,0-15.137-1.715c-.674-.107-1.338-.213-1.967-.343-.962-.177-1.917-.352-2.835-.558-1.136-.231-2.232-.476-3.33-.751-.687-.163-1.336-.3-1.985-.477-1.03-.265-1.987-.562-2.971-.837L503.918,907.341H633.591V874.829c0-34.364-24.645-63.078-57.646-70.382" transform="translate(-625.655 -15285.738)" fill="#18988b"/></g></svg>