<svg xmlns="http://www.w3.org/2000/svg" width="219.05" height="74.186" viewBox="0 0 219.05 74.186"><g transform="translate(-5671.997 23427.59)"><line y2="3.057" transform="translate(5683.055 -23415.896)" fill="none" stroke="#1a1818" stroke-miterlimit="10" stroke-width="1.019"/><line y2="46.263" transform="translate(5683.055 -23406.672)" fill="none" stroke="#1a1818" stroke-miterlimit="10" stroke-width="1.019" stroke-dasharray="6.169 6.169"/><line y2="3.057" transform="translate(5683.055 -23357.324)" fill="none" stroke="#1a1818" stroke-miterlimit="10" stroke-width="1.019"/><line y2="3.057" transform="translate(5707.5 -23415.896)" fill="none" stroke="#1a1818" stroke-miterlimit="10" stroke-width="1.019"/><line y2="46.263" transform="translate(5707.5 -23406.672)" fill="none" stroke="#1a1818" stroke-miterlimit="10" stroke-width="1.019" stroke-dasharray="6.169 6.169"/><line y2="3.057" transform="translate(5707.5 -23357.324)" fill="none" stroke="#1a1818" stroke-miterlimit="10" stroke-width="1.019"/><line y2="3.057" transform="translate(5732.541 -23415.896)" fill="none" stroke="#1a1818" stroke-miterlimit="10" stroke-width="1.019"/><line y2="46.263" transform="translate(5732.541 -23406.672)" fill="none" stroke="#1a1818" stroke-miterlimit="10" stroke-width="1.019" stroke-dasharray="6.169 6.169"/><line y2="3.057" transform="translate(5732.541 -23357.324)" fill="none" stroke="#1a1818" stroke-miterlimit="10" stroke-width="1.019"/><line y2="3.057" transform="translate(5757.051 -23415.896)" fill="none" stroke="#1a1818" stroke-miterlimit="10" stroke-width="1.019"/><line y2="46.263" transform="translate(5757.051 -23406.672)" fill="none" stroke="#1a1818" stroke-miterlimit="10" stroke-width="1.019" stroke-dasharray="6.169 6.169"/><line y2="3.057" transform="translate(5757.051 -23357.324)" fill="none" stroke="#1a1818" stroke-miterlimit="10" stroke-width="1.019"/><line y2="3.057" transform="translate(5781.495 -23415.896)" fill="none" stroke="#1a1818" stroke-miterlimit="10" stroke-width="1.019"/><line y2="46.263" transform="translate(5781.495 -23406.672)" fill="none" stroke="#1a1818" stroke-miterlimit="10" stroke-width="1.019" stroke-dasharray="6.169 6.169"/><line y2="3.057" transform="translate(5781.495 -23357.324)" fill="none" stroke="#1a1818" stroke-miterlimit="10" stroke-width="1.019"/><line y2="3.057" transform="translate(5806.536 -23415.896)" fill="none" stroke="#1a1818" stroke-miterlimit="10" stroke-width="1.019"/><line y2="46.263" transform="translate(5806.536 -23406.672)" fill="none" stroke="#1a1818" stroke-miterlimit="10" stroke-width="1.019" stroke-dasharray="6.169 6.169"/><line y2="3.057" transform="translate(5806.536 -23357.324)" fill="none" stroke="#1a1818" stroke-miterlimit="10" stroke-width="1.019"/><line y2="3.057" transform="translate(5830.74 -23415.896)" fill="none" stroke="#1a1818" stroke-miterlimit="10" stroke-width="1.019"/><line y2="46.263" transform="translate(5830.74 -23406.672)" fill="none" stroke="#1a1818" stroke-miterlimit="10" stroke-width="1.019" stroke-dasharray="6.169 6.169"/><line y2="3.057" transform="translate(5830.74 -23357.324)" fill="none" stroke="#1a1818" stroke-miterlimit="10" stroke-width="1.019"/><line y2="3.057" transform="translate(5855.184 -23415.896)" fill="none" stroke="#1a1818" stroke-miterlimit="10" stroke-width="1.019"/><line y2="46.263" transform="translate(5855.184 -23406.672)" fill="none" stroke="#1a1818" stroke-miterlimit="10" stroke-width="1.019" stroke-dasharray="6.169 6.169"/><line y2="3.057" transform="translate(5855.184 -23357.324)" fill="none" stroke="#1a1818" stroke-miterlimit="10" stroke-width="1.019"/><line y2="3.057" transform="translate(5880.225 -23415.896)" fill="none" stroke="#1a1818" stroke-miterlimit="10" stroke-width="1.019"/><line y2="46.263" transform="translate(5880.225 -23406.672)" fill="none" stroke="#1a1818" stroke-miterlimit="10" stroke-width="1.019" stroke-dasharray="6.169 6.169"/><line y2="3.057" transform="translate(5880.225 -23357.324)" fill="none" stroke="#1a1818" stroke-miterlimit="10" stroke-width="1.019"/><text transform="translate(5685.664 -23396.404) rotate(90)" fill="#1a1818" font-size="5.417" font-family="CenturyGothic, Century Gothic"><tspan x="0" y="0" letter-spacing="-0.01em">T</tspan><tspan y="0">ype omg</tspan><tspan y="0" letter-spacing="-0.009em">e</tspan><tspan y="0">ving </tspan></text><text transform="translate(5709.443 -23401.93) rotate(90)" fill="#1a1818" font-size="5.417" font-family="CenturyGothic, Century Gothic"><tspan x="0" y="0" letter-spacing="-0.042em">V</tspan><tspan y="0">erblijf</tspan><tspan y="0" letter-spacing="0.007em">s</tspan><tspan y="0">aanleiding</tspan></text><text transform="translate(5734.491 -23396.785) rotate(90)" fill="#1a1818" font-size="5.417" font-family="CenturyGothic, Century Gothic"><tspan x="0" y="0" letter-spacing="-0.007em">F</tspan><tspan y="0">un</tspan><tspan y="0" letter-spacing="0.01em">c</tspan><tspan y="0">tie</tspan><tspan y="0" letter-spacing="-0.016em"> </tspan><tspan y="0" letter-spacing="-0.019em">w</tspan><tspan y="0">anden</tspan></text><text transform="translate(5759.456 -23386.932) rotate(90)" fill="#1a1818" font-size="5.417" font-family="CenturyGothic, Century Gothic"><tspan x="0" y="0">Au</tspan><tspan y="0" letter-spacing="-0.007em">t</tspan><tspan y="0">o en fi</tspan><tspan y="0" letter-spacing="-0.006em">e</tspan><tspan y="0">ts</tspan></text><text transform="translate(5808.683 -23393.887) rotate(90)" fill="#1a1818" font-size="5.417" font-family="CenturyGothic, Century Gothic"><tspan x="0" y="0" letter-spacing="-0.042em">V</tspan><tspan y="0">er</tspan><tspan y="0" letter-spacing="-0.026em">k</tspan><tspan y="0">eerslic</tspan><tspan y="0" letter-spacing="-0.005em">h</tspan><tspan y="0" letter-spacing="-0.007em">t</tspan><tspan y="0">en</tspan></text><text transform="translate(5857.021 -23370.893) rotate(90)" fill="#1a1818" font-size="5.417" font-family="CenturyGothic, Century Gothic"><tspan x="0" y="0">G</tspan><tspan y="0" letter-spacing="-0.015em">r</tspan><tspan y="0">oen</tspan></text><text transform="translate(5832.749 -23403.154) rotate(90)" fill="#1a1818" font-size="5.417" font-family="CenturyGothic, Century Gothic"><tspan x="0" y="0">Openbaa</tspan></text><text transform="translate(5832.75 -23376.834) rotate(90)" fill="#1a1818" font-size="5.417" font-family="CenturyGothic, Century Gothic"><tspan x="0" y="0" letter-spacing="-0.024em">r</tspan><tspan y="0"> </tspan></text><text transform="translate(5832.749 -23373.975) rotate(90)" fill="#1a1818" font-size="5.417" font-family="CenturyGothic, Century Gothic"><tspan x="0" y="0" letter-spacing="-0.012em">v</tspan><tspan y="0">er</tspan><tspan y="0" letter-spacing="-0.012em">v</tspan><tspan y="0">oer</tspan></text><path d="M614.834,729.369a11.512,11.512,0,1,0-11.142-11.507,11.328,11.328,0,0,0,11.142,11.507" transform="translate(5141.865 -24133.945)" fill="#3a5121"/><text transform="translate(5751.627 -23407.555)" fill="#fff" font-size="2.318" font-family="DaxOT, Dax OT"><tspan x="0" y="0">Gemengd</tspan></text><path d="M619.314,717.6a.2.2,0,0,0-.2.2v2.9a.2.2,0,1,0,.394,0v-2.9a.2.2,0,0,0-.2-.2" transform="translate(5141.865 -24133.945)" fill="#fff"/><text transform="translate(5882.615 -23400.371) rotate(90)" fill="#1a1818" font-size="5.417" font-family="CenturyGothic, Century Gothic"><tspan x="0" y="0">Speciaal ka</tspan><tspan y="0" letter-spacing="-0.01em">r</tspan><tspan y="0">ak</tspan><tspan y="0" letter-spacing="-0.007em">t</tspan><tspan y="0">er</tspan></text><path d="M619.2,716.926h-.622a2.818,2.818,0,0,0-.233,1.534c.006.178.012.361.009.553a.255.255,0,0,0,.251.259h0a.255.255,0,0,0,.255-.251c0-.205,0-.394-.01-.578a1.935,1.935,0,0,1,.346-1.517" transform="translate(5141.865 -24133.945)" fill="#fff"/><path d="M620.065,716.926h-.549a5.51,5.51,0,0,1,.262,2.582.254.254,0,0,0,.235.273h.019a.255.255,0,0,0,.255-.235,8.122,8.122,0,0,0-.082-2.078,4.038,4.038,0,0,0-.14-.542" transform="translate(5141.865 -24133.945)" fill="#fff"/><path d="M620.258,716.358h-1.889a4.467,4.467,0,0,1,.187-1.534c.019-.053.038-.1.058-.152v1.459h0v.075H620v-.075h0v-1.48c.024.056.048.115.069.177a4.4,4.4,0,0,1,.19,1.53m.651,0h-.17c.035-1.315-.31-2.313-.934-2.687a.941.941,0,0,0-.991,0c-.619.37-.962,1.369-.926,2.687h-.17a.2.2,0,0,0,0,.393h3.191a.2.2,0,1,0,0-.393" transform="translate(5141.865 -24133.945)" fill="#fff"/><path d="M619.314,711.957a.7.7,0,1,1-.7.7.7.7,0,0,1,.7-.7" transform="translate(5141.865 -24133.945)" fill="#fff"/><path d="M608.443,719.169c0,.011,0,.022,0,.034v1.06a.449.449,0,0,0,.447.447h.369a.45.45,0,0,0,.448-.447v-.33h-.945c-.106,0-.227-.337-.318-.764" transform="translate(5141.865 -24133.945)" fill="#fff"/><path d="M615.889,719.168c-.091.427-.212.765-.318.765h-.945v.329a.449.449,0,0,0,.448.447h.369a.448.448,0,0,0,.447-.447v-1.094" transform="translate(5141.865 -24133.945)" fill="#fff"/><path d="M612.165,714.635h0c-1.407,0-1.91.027-2.27.249a4.572,4.572,0,0,0-.821,1.173l-.012.012a.2.2,0,0,0-.182-.125h-.665c-.248,0-.282.243-.282.376a.637.637,0,0,0,.005.084.213.213,0,0,0,.2.178h.287l.03,0h0c.134,0,.257.062.21.248a5.021,5.021,0,0,0-.328.792,4.471,4.471,0,0,0,.1,1.55c.091.427.213.764.319.764h6.809c.107,0,.228-.338.319-.764a4.444,4.444,0,0,0,.1-1.55,4.968,4.968,0,0,0-.328-.793c-.047-.185.076-.247.211-.247h0l.029,0h.288a.213.213,0,0,0,.2-.178s0-.03.005-.075v-.019c0-.134-.04-.366-.282-.366h-.665a.194.194,0,0,0-.181.125l-.012-.011a4.53,4.53,0,0,0-.823-1.174c-.358-.222-.862-.249-2.27-.249m-.33.448h.66a3.883,3.883,0,0,1,1.7.182,5.936,5.936,0,0,1,.748,1.151,18.187,18.187,0,0,1-5.563,0,5.831,5.831,0,0,1,.759-1.161,3.958,3.958,0,0,1,1.692-.174m2.694,3.009a.855.855,0,0,1-.4-.053c-.077-.086.068-.562.556-.873a1.133,1.133,0,0,1,.474-.155.184.184,0,0,1,.142.049c.118.135.211.729.02.892a1.68,1.68,0,0,1-.8.14m-4.726,0a1.682,1.682,0,0,1-.8-.14c-.191-.163-.1-.757.02-.892a.184.184,0,0,1,.142-.049,1.133,1.133,0,0,1,.475.155c.487.311.633.787.556.873a.861.861,0,0,1-.4.053m1.532,1.059c-.339,0-.537-.1-.577-.224s.05-.223.2-.223h2.417c.15,0,.24.1.2.223s-.229.224-.577.224Z" transform="translate(5141.865 -24133.945)" fill="#fff"/><text transform="translate(5783.291 -23377.158) rotate(90)" fill="#1a1818" font-size="5.417" font-family="CenturyGothic, Century Gothic"><tspan x="0" y="0" letter-spacing="-0.017em">P</tspan><tspan y="0">ar</tspan><tspan y="0" letter-spacing="-0.026em">k</tspan><tspan y="0">e</tspan><tspan y="0" letter-spacing="-0.016em">r</tspan><tspan y="0">en</tspan></text><path d="M541.274,729.369a11.512,11.512,0,1,0-11.142-11.507,11.328,11.328,0,0,0,11.142,11.507" transform="translate(5141.865 -24133.945)" fill="#3a5121"/><path d="M548.134,720.978h-.576l-.008-.007v-.9l.008-.008h.576l.008.008v.9Zm-1.762,0h-.577l-.008-.007v-.9l.008-.008h.577l.008.008v.9Zm-.843,0h-.579l-.007-.007v-.9l.007-.008h.579l.007.008v.9Zm-2.192-2.479h-.553l-.007-.007v-.649a.292.292,0,0,1,.237-.294.279.279,0,0,1,.323.27Zm-1.047,0h-.551l-.008-.007v-.653a.289.289,0,0,1,.24-.291.277.277,0,0,1,.318.271v.68Zm-1.9,2.479h-.577l-.007-.007v-.907h.584l.008.008v.9Zm-1.746-2.586h-.584l-.007-.008v-.9l.007-.008h.577l.007.008Zm0,1.128h-.584l-.007-.008v-.9l.007-.007h.577l.007.007Zm-.851-1.128h-.576l-.008-.008v-.9l.008-.008h.576l.008.008v.9Zm0,1.128h-.576l-.008-.008v-.9l.008-.007h.576l.008.007v.9Zm-1.945,0h-.586l-.007-.008v-.9l.007-.007h.578l.008.007Zm-.851,0h-.578l-.008-.008v-.9l.008-.007H535l.007.007v.9Zm12.414-1.021h-1.751l0,0-1.291,1.048-.012-.005V717.15h-.03l-1.493-4.876v-.915l.007-.008h.278a.056.056,0,1,0,0-.112h-.278l-.007-.007v-.308a.058.058,0,0,0-.115,0v.308l-.007.007h-.278a.056.056,0,1,0,0,.112h.278l.007.008v.915l-1.492,4.875v.769l-.007.008h-1.205l-.006,0-.676,1.152-.014,0V717.39l0-.005-1.462-1.78-.005,0h-2.554l-.006,0-1.462,1.78v5.15l.007.008h8.129l.008-.007v-2.1a.687.687,0,0,1,.653-.678h0a.687.687,0,0,1,.654.678v2.1l.007.007h5.429l.008-.007v-2.972l0-.006-1.3-1.056Z" transform="translate(5141.865 -24133.945)" fill="#fff"/><text transform="translate(5680.457 -23407.607)" fill="#fff" font-size="2.318" font-family="DaxOT, Dax OT"><tspan x="0" y="0">Dorps</tspan></text><path d="M689.261,729.369a11.512,11.512,0,1,0-11.142-11.507,11.328,11.328,0,0,0,11.142,11.507" transform="translate(5141.865 -24133.945)" fill="#3a5121"/><path d="M682.969,716.9a.379.379,0,0,0-.387.386v1.159a.379.379,0,0,0,.387.387h12.584a.378.378,0,0,0,.386-.387v-1.159a.378.378,0,0,0-.386-.386Z" transform="translate(5141.865 -24133.945)" fill="#fff"/><text transform="translate(5828.523 -23409.322)" fill="#fff" font-size="2.318" font-family="DaxOT, Dax OT"><tspan x="0" y="0">Ni</tspan><tspan y="0" letter-spacing="-0.003em">e</tspan><tspan y="0">t</tspan></text><path d="M664.179,729.369a11.512,11.512,0,1,0-11.142-11.507,11.328,11.328,0,0,0,11.142,11.507" transform="translate(5141.865 -24133.945)" fill="#3a5121"/><path d="M658.191,717.147a.378.378,0,0,0-.386.386v1.159a.378.378,0,0,0,.386.386h12.585a.378.378,0,0,0,.386-.386v-1.159a.378.378,0,0,0-.386-.386Z" transform="translate(5141.865 -24133.945)" fill="#fff"/><path d="M713.5,729.369a11.512,11.512,0,1,0-11.142-11.507A11.328,11.328,0,0,0,713.5,729.369" transform="translate(5141.865 -24133.945)" fill="#3a5121"/><text transform="translate(5803.664 -23407.607)" fill="#fff" font-size="2.318" font-family="DaxOT, Dax OT"><tspan x="0" y="0">Ni</tspan><tspan y="0" letter-spacing="-0.003em">e</tspan><tspan y="0">t</tspan></text><text transform="translate(5851.676 -23407.607)" fill="#fff" font-size="2.318" font-family="DaxOT, Dax OT"><tspan x="0" y="0">Bomen</tspan></text><path d="M718.385,720.878h-1.937v-2.02h.761a1.374,1.374,0,0,0,1.381-1.367,1.357,1.357,0,0,1-.115-1.368,5.968,5.968,0,0,0-2.456-2.165l-.06,0a2.318,2.318,0,0,1,.405,1.312,2.36,2.36,0,0,1-2.37,2.346h-.733a1.377,1.377,0,0,0,1.376,1.239h.851v2.02h-3.012v-3.564h1.518a2.054,2.054,0,0,0,2.062-2.041,2.016,2.016,0,0,0-.437-1.257,2.134,2.134,0,0,0-.375-.366l-.053-.041-.007-.065a2.042,2.042,0,0,0-1.252-1.676l-.091-.037,0-.1a2.043,2.043,0,0,0-2.06-1.974,2.066,2.066,0,0,0-1.883,1.21l-.036.077-.084.012a2.054,2.054,0,0,0-1.783,2.021,2,2,0,0,0,.2.875l.038.08-.051.072a2.02,2.02,0,0,0-.371,1.167,2.054,2.054,0,0,0,2.062,2.041h1.375v3.564h-3.231a.2.2,0,1,0,0,.407h10.372a.2.2,0,1,0,0-.407" transform="translate(5141.865 -24133.945)" fill="#fff"/><path d="M716.846,721.548h-7.295a.2.2,0,1,0,0,.407h7.295a.2.2,0,1,0,0-.407" transform="translate(5141.865 -24133.945)" fill="#fff"/><path d="M590.9,729.369a11.512,11.512,0,1,0-11.142-11.507A11.328,11.328,0,0,0,590.9,729.369" transform="translate(5141.865 -24133.945)" fill="#3a5121"/><path d="M586.729,712h8.307a.249.249,0,0,0,.249-.243V711.1a.248.248,0,0,0-.249-.243h-8.307a.248.248,0,0,0-.249.243v.656a.257.257,0,0,0,.249.243" transform="translate(5141.865 -24133.945)" fill="#fff"/><path d="M594.692,715.7a.651.651,0,0,1-.615-.5l-.033-.169-.323-1.471h1.014l.324,1.471.032.169a.39.39,0,0,1-.4.5m-1.392-.5a.415.415,0,0,1-.432.5.606.606,0,0,1-.582-.5l-.022-.169-.215-1.471h1.014l.215,1.471Zm-1.91.01a.507.507,0,0,1-1.014,0v-1.65h1.014v1.65Zm-1.661-1.65-.216,1.471-.021.169a.608.608,0,0,1-.583.5.42.42,0,0,1-.432-.5l.022-.169.215-1.471Zm-1.559,3.367h2.407a.4.4,0,0,1,.4.392v1.525a.4.4,0,0,1-.4.39H588.17a.4.4,0,0,1-.4-.39v-1.525a.4.4,0,0,1,.4-.392m-.146-3.367-.323,1.471-.033.169a.652.652,0,0,1-.615.5.39.39,0,0,1-.4-.5l.033-.169.324-1.471Zm7.941,1.449-.669-1.822a.178.178,0,0,1-.011-.061v-.5a.249.249,0,0,0-.248-.243H586.73a.249.249,0,0,0-.249.243v.541a.2.2,0,0,1-.01.06l-.648,1.78a.388.388,0,0,0,.27.477.474.474,0,0,0,.231.024.184.184,0,0,1,.222.174v4.679a.248.248,0,0,0,.248.244h5.1a.181.181,0,0,0,.183-.179v-3.579a.18.18,0,0,1,.183-.178h1.619a.18.18,0,0,1,.183.178v3.579a.181.181,0,0,0,.182.179h.8a.249.249,0,0,0,.248-.244v-4.674a.182.182,0,0,1,.207-.176.5.5,0,0,0,.2-.027.381.381,0,0,0,.259-.477" transform="translate(5141.865 -24133.945)" fill="#fff"/><text transform="translate(5728.787 -23407.555)" fill="#fff" font-size="2.318" font-family="DaxOT, Dax OT"><tspan x="0" y="0" letter-spacing="-0.011em">W</tspan><tspan y="0" letter-spacing="-0.012em">in</tspan><tspan y="0" letter-spacing="-0.011em">kel</tspan><tspan y="0">s</tspan></text><path d="M738.04,729.369A11.512,11.512,0,1,0,726.9,717.862a11.328,11.328,0,0,0,11.142,11.507" transform="translate(5141.865 -24133.945)" fill="#3a5121"/><path d="M729.758,718.026a.264.264,0,1,1,.259-.264.26.26,0,0,1-.259.264m1.809-3.36a.7.7,0,1,1,.689-.7.7.7,0,0,1-.689.7m2.5,1.774h0a.264.264,0,0,1,0,.528h-1.056a.4.4,0,0,1-.278-.139l-.538-.692c-.06-.076-.109-.056-.109.039v1.056c0,.106.8,2.045.8,2.045a.841.841,0,0,1,.047.336l-.155,1.508a.258.258,0,1,1-.516-.011v-1.495a.918.918,0,0,0-.077-.336l-.45-.921c-.042-.086-.089-.08-.108.017l-.194,1.064a.771.771,0,0,1-.146.3l-1.319,1.529-.021.024a.254.254,0,0,1-.365,0,.268.268,0,0,1-.028-.339l1.059-1.553a.922.922,0,0,0,.127-.32,11.02,11.02,0,0,0,.144-1.587v-1.32c0-.1-.062-.128-.135-.068l-.594.485a.408.408,0,0,0-.135.284l0,.883H729.5v-1.237a.462.462,0,0,1,.125-.291s.957-.9,1.08-1.027a.871.871,0,0,1,.775-.353c.775,0,.827.229.947.353s.763,1.087.763,1.087a.366.366,0,0,0,.27.146Z" transform="translate(5141.865 -24133.945)" fill="#fff"/><path d="M745.39,718.206a.19.19,0,0,0-.19.189v2.79a.189.189,0,0,0,.379,0V718.4a.189.189,0,0,0-.189-.189" transform="translate(5141.865 -24133.945)" fill="#fff"/><path d="M745.276,717.561h-.6a2.716,2.716,0,0,0-.224,1.477c.006.17.012.346.009.531a.246.246,0,0,0,.241.249h0a.245.245,0,0,0,.245-.242c0-.2,0-.379-.008-.556a1.86,1.86,0,0,1,.332-1.459" transform="translate(5141.865 -24133.945)" fill="#fff"/><path d="M746.113,717.561h-.528a5.318,5.318,0,0,1,.252,2.484.246.246,0,0,0,.226.263h.019a.245.245,0,0,0,.244-.227,7.8,7.8,0,0,0-.078-2,4.03,4.03,0,0,0-.135-.521" transform="translate(5141.865 -24133.945)" fill="#fff"/><text transform="translate(5873.515 -23407.555)" fill="#fff" font-size="2.318" font-family="DaxOT, Dax OT"><tspan x="0" y="0">Sha</tspan><tspan y="0" letter-spacing="-0.012em">r</tspan><tspan y="0">ed spa</tspan><tspan y="0" letter-spacing="-0.015em">c</tspan><tspan y="0">e</tspan></text><path d="M746.3,717.015h-1.817a4.277,4.277,0,0,1,.18-1.476c.017-.05.036-.1.056-.146v1.4h0v.072h1.327V716.8h0v-1.424c.024.054.046.111.067.17a4.26,4.26,0,0,1,.183,1.472m.626,0h-.164a2.876,2.876,0,0,0-.9-2.585.91.91,0,0,0-.954,0,2.879,2.879,0,0,0-.89,2.585h-.164a.189.189,0,0,0,0,.379h3.07a.189.189,0,0,0,0-.379" transform="translate(5141.865 -24133.945)" fill="#fff"/><path d="M745.39,712.781a.674.674,0,1,1-.675.675.674.674,0,0,1,.675-.675" transform="translate(5141.865 -24133.945)" fill="#fff"/><path d="M734.714,719.636c0,.013,0,.025,0,.038v1.185a.5.5,0,0,0,.5.5h.412a.5.5,0,0,0,.5-.5v-.368H735.07c-.119,0-.255-.377-.356-.855" transform="translate(5141.865 -24133.945)" fill="#fff"/><path d="M743.043,719.635c-.1.478-.237.855-.357.855h-1.055v.369a.5.5,0,0,0,.5.5h.412a.5.5,0,0,0,.5-.5v-1.185c0-.013,0-.026,0-.039" transform="translate(5141.865 -24133.945)" fill="#fff"/><path d="M738.878,714.566h0c-1.573,0-2.136.03-2.539.279a5.085,5.085,0,0,0-.919,1.312l-.014.013a.217.217,0,0,0-.2-.139h-.742c-.278,0-.315.27-.315.418h0a.8.8,0,0,0,.005.094.236.236,0,0,0,.227.2h.322l.032,0h0c.151,0,.289.069.237.277a5.559,5.559,0,0,0-.369.885,5.056,5.056,0,0,0,.114,1.734c.1.477.237.855.356.855h7.617c.118,0,.254-.378.355-.856a4.95,4.95,0,0,0,.114-1.733,5.642,5.642,0,0,0-.367-.887c-.052-.206.086-.275.235-.275h0l.034,0h.322a.238.238,0,0,0,.227-.2.619.619,0,0,0,.005-.084v-.02c0-.15-.044-.409-.315-.409h-.744a.22.22,0,0,0-.2.139l-.012-.013a5.08,5.08,0,0,0-.92-1.312c-.4-.249-.964-.279-2.539-.279m-.37.5h.739a4.32,4.32,0,0,1,1.9.2,6.667,6.667,0,0,1,.838,1.288,20.327,20.327,0,0,1-6.222,0,6.609,6.609,0,0,1,.847-1.3,4.406,4.406,0,0,1,1.893-.2m3.013,3.365a.966.966,0,0,1-.442-.059c-.087-.1.077-.63.622-.976a1.241,1.241,0,0,1,.531-.175.208.208,0,0,1,.159.056c.13.15.235.814.02,1a1.873,1.873,0,0,1-.89.157m-5.286,0a1.874,1.874,0,0,1-.889-.157c-.215-.183-.111-.847.021-1a.2.2,0,0,1,.159-.056,1.261,1.261,0,0,1,.531.175c.545.346.707.879.621.976a.974.974,0,0,1-.443.059m1.715,1.184c-.38,0-.6-.113-.645-.25s.054-.25.222-.25h2.7c.168,0,.267.112.223.25s-.257.25-.646.25Z" transform="translate(5141.865 -24133.945)" fill="#fff"/><path d="M565.814,729.369a11.512,11.512,0,1,0-11.142-11.507,11.328,11.328,0,0,0,11.142,11.507" transform="translate(5141.865 -24133.945)" fill="#3a5121"/><path d="M565.994,713.068c0,.1,0,.177,0,.257s-.017.161-.029.241c-.007.045-.04.108-.021.13a.192.192,0,0,0,.145.068c.04-.005.086-.065.105-.11a1.252,1.252,0,0,0,.058-.228c.058-.268.058-.269-.256-.358m-.378.006a1,1,0,0,0-.206.089.179.179,0,0,0-.076.128,2.667,2.667,0,0,0,.092.412.145.145,0,0,0,.107.087.21.21,0,0,0,.142-.08c.022-.031.005-.093,0-.139-.015-.087-.042-.174-.054-.262a1.992,1.992,0,0,1,0-.235m-7.7,3.414c-.291.083-.291.083-.317.343-.011.1-.03.2-.033.3a.524.524,0,0,0,.038.151.8.8,0,0,0,.163-.079.217.217,0,0,0,.07-.121c.03-.191.052-.384.079-.592m5.169-1.65c.242-.076.388-.443.354-.822-.183.028-.3.113-.3.314,0,.088-.04.175-.05.263a2.172,2.172,0,0,0,0,.245m-4.1,1.185c-.295.1-.295.1-.262.371a.878.878,0,0,0,.033.2.724.724,0,0,0,.114.156c.058-.057.164-.114.166-.173a4.209,4.209,0,0,0-.051-.555M568.144,714c.051.229.1.443.148.654a.216.216,0,0,0,.089.108.432.432,0,0,0,.129.04.354.354,0,0,0,.029-.114c-.018-.135-.056-.269-.064-.4-.011-.193-.129-.254-.331-.283m-10.766,2.7c-.146.082-.29.074-.316.231s-.056.288-.074.434a.646.646,0,0,0,.025.171,1.921,1.921,0,0,0,.184-.1.134.134,0,0,0,.047-.08c.044-.2.084-.408.134-.655m6.63-2.922c-.3.095-.3.095-.323.351-.007.089-.029.178-.029.266a.912.912,0,0,0,.04.189c.064-.042.13-.081.191-.126a.117.117,0,0,0,.035-.07c.029-.2.056-.394.086-.61m3.6-.014c.028.21.046.4.085.593a.348.348,0,0,0,.129.173c.076.06.146.045.142-.069s-.022-.24-.034-.36c-.022-.244-.04-.264-.322-.337m-1.065-.467a3.548,3.548,0,0,0-.069.537.269.269,0,0,0,.175.182c.116.027.115-.087.126-.171.013-.109.042-.217.045-.326a.193.193,0,0,0-.072-.14.856.856,0,0,0-.205-.082m-1.464.026c-.291.085-.292.085-.263.341a.9.9,0,0,0,.035.216.8.8,0,0,0,.118.171c.06-.064.17-.127.171-.193a3.424,3.424,0,0,0-.061-.535m-5.563,2.488c-.3.083-.3.083-.24.355a1.334,1.334,0,0,0,.05.229c.019.048.065.11.107.117a.175.175,0,0,0,.144-.072.3.3,0,0,0,.038-.191c-.022-.144-.064-.285-.1-.438m7.56-2.275c0,.186-.007.368,0,.549a.279.279,0,0,0,.088.16.178.178,0,0,0,.139.045c.029,0,.057-.072.061-.114.009-.1.005-.2.006-.3,0-.265,0-.265-.3-.341m-2.528.023c-.281.052-.3.077-.3.326a2.412,2.412,0,0,0,0,.283c.007.05.045.135.07.136a.239.239,0,0,0,.16-.071.293.293,0,0,0,.067-.171c.008-.167,0-.334,0-.5m-6.1,2.715c-.289.064-.29.067-.29.332,0,.095-.007.19,0,.283.005.047.032.123.06.128a.207.207,0,0,0,.225-.183c.008-.186,0-.373,0-.56m7.376-3.851a2.277,2.277,0,0,1-.213.121c-.77.33-1.541.657-2.311.989a.969.969,0,0,0-.168.122l.028.035c.049-.02.1-.038.148-.059l2.3-.981a.55.55,0,0,1,.466,0c.763.334,1.53.657,2.3.983a1.305,1.305,0,0,0,.125.043c.008-.013.015-.027.023-.042a1.338,1.338,0,0,0-.173-.111q-1.162-.5-2.325-1c-.067-.029-.131-.067-.192-.1m7.471,4.845c0,.433,0,.831,0,1.229a.112.112,0,0,0,.054.084c.133.064.27.12.422.187,0-.422,0-.821,0-1.221a.117.117,0,0,0-.045-.091c-.132-.064-.268-.118-.432-.188M570,715.8c0,.445,0,.849,0,1.253a.114.114,0,0,0,.051.085c.138.065.279.122.428.186,0-.409,0-.8,0-1.186,0-.052-.018-.129-.054-.149-.123-.069-.258-.117-.424-.189m-8.393.053c-.156.066-.284.113-.406.174a.152.152,0,0,0-.076.108c-.005.407,0,.815,0,1.241.15-.068.284-.12.408-.188a.178.178,0,0,0,.074-.131c.006-.279,0-.559,0-.837Zm-1.54.683h0c0,.1,0,.2,0,.3,0,.122.075.158.184.118.124-.046.245-.1.369-.155a.326.326,0,0,0,.211-.293,5.143,5.143,0,0,0,0-.569c-.005-.118-.074-.172-.2-.124-.079.032-.154.075-.236.1a.423.423,0,0,0-.337.512,1.035,1.035,0,0,1,0,.111m14.756,1.418h0a1.02,1.02,0,0,0-.006-.3.521.521,0,0,0-.172-.262,2.349,2.349,0,0,0-.408-.181c-.1-.046-.153.007-.175.1a.746.746,0,0,0,.528,1.035l.046.017c.127.044.179.013.187-.123.006-.094,0-.189,0-.283m-3.285-1.465c.088-.376-.094-.58-.446-.675a.931.931,0,0,1-.1-.044c-.147-.058-.212-.019-.215.137a2.73,2.73,0,0,0,.007.535.5.5,0,0,0,.185.288,1.834,1.834,0,0,0,.392.176c.118.05.174,0,.178-.117s0-.2,0-.3m-1.809-.776a.949.949,0,0,0-.005-.267.541.541,0,0,0-.158-.273,1.784,1.784,0,0,0-.421-.19c-.1-.039-.181-.007-.181.12a5.713,5.713,0,0,0,.008.6.345.345,0,0,0,.142.23,2.226,2.226,0,0,0,.436.2c.11.039.175-.015.179-.131,0-.1,0-.19,0-.285m2.519,1.127c-.1.393.1.6.464.7.036.009.068.032.1.044.13.042.2,0,.2-.137a3.091,3.091,0,0,0-.006-.536.473.473,0,0,0-.167-.282,1.631,1.631,0,0,0-.406-.185c-.115-.042-.188,0-.186.131,0,.09,0,.179,0,.269M561.884,715.8a1.065,1.065,0,0,0,.007.267c.011.05.106.129.136.118a2.452,2.452,0,0,0,.494-.22.324.324,0,0,0,.12-.225,5.16,5.16,0,0,0,.005-.584c0-.131-.066-.173-.187-.121-.538.23-.594.177-.575.765m2.9-.082c.2-.089.367-.164.533-.245a.135.135,0,0,0,.066-.093c0-.371,0-.743,0-1.14-.193.083-.365.15-.531.232a.17.17,0,0,0-.068.127c0,.363,0,.725,0,1.119m2.048.013c0-.407,0-.789,0-1.172a.122.122,0,0,0-.046-.093c-.174-.083-.352-.159-.554-.248,0,.42,0,.8,0,1.176a.134.134,0,0,0,.058.1c.171.081.347.153.542.238M558.7,718.48c.2-.089.375-.168.552-.252a.1.1,0,0,0,.045-.074c0-.389,0-.778,0-1.2-.2.086-.374.159-.546.241a.133.133,0,0,0-.052.1c0,.385,0,.77,0,1.181m5.717-3.737c-.336.145-.63.271-.922.4a.1.1,0,0,0-.057.069c-.005.233,0,.466,0,.725.318-.136.608-.258.894-.386a.16.16,0,0,0,.084-.106c.007-.219,0-.438,0-.7m2.788.006c0,.236-.007.451.005.665,0,.046.066.108.117.131.247.114.5.218.75.323a.5.5,0,0,0,.117.015c0-.21,0-.4,0-.6a.181.181,0,0,0-.128-.194c-.242-.1-.482-.205-.723-.306a1.353,1.353,0,0,0-.139-.036m-8.888,2.711c-.278.119-.513.232-.759.319a.3.3,0,0,0-.236.352,2.69,2.69,0,0,1,0,.27c0,.073.01.148.017.249.322-.139.611-.261.9-.389a.135.135,0,0,0,.075-.093c.007-.224,0-.448,0-.708m4.649-3.581-3.277,1.4c.018.087.032.156.047.231.048-.026.088-.051.132-.07.99-.425,1.978-.853,2.972-1.267.16-.067.151-.155.126-.3m-6.049,3.734c-.241-.008-.252-.031-.2-.248.064-.259.106-.524.18-.781a.358.358,0,0,1,.186-.187c.714-.313,1.432-.616,2.149-.923.057-.024.113-.051.17-.077,0-.02-.009-.04-.013-.058a.863.863,0,0,0-.16.036c-.693.294-1.385.591-2.079.885a1.479,1.479,0,0,1-.222.059.968.968,0,0,1-.032-.258.229.229,0,0,1,.116-.148c.872-.378,1.746-.749,2.617-1.125a.4.4,0,0,0,.157-.119c.477-.623.954-1.248,1.422-1.878a.235.235,0,0,1,.35-.086c.235.123.481.224.768.356v-.323a.438.438,0,0,1,.426-.421c.116,0,.116.095.117.173.005.232,0,.464.005.7a.6.6,0,0,0,.033.147,3.449,3.449,0,0,1,.338-.2c.769-.333,1.541-.657,2.309-.99a.645.645,0,0,1,.559,0c.771.341,1.549.666,2.324,1,.053.023.1.053.155.08l.111.059a.469.469,0,0,0,.038-.128c.005-.227,0-.454,0-.681,0-.2.06-.238.243-.163.289.119.308.147.309.46,0,.065.005.131.011.236l.386-.179c.131-.06.268-.11.391-.182.14-.081.224-.037.31.079q.617.82,1.239,1.638c.083.109.165.221.252.328a.285.285,0,0,0,.088.054c.018-.034.052-.067.052-.1.006-.231,0-.464.005-.7s.053-.249.258-.176a.373.373,0,0,1,.294.44,1.632,1.632,0,0,0,.01.249c.158-.071.287-.128.415-.187s.257-.109.377-.177c.137-.078.215-.021.295.085.379.505.762,1.007,1.143,1.511.208.275.421.547.622.827a.941.941,0,0,1,.086.244l-.059.051-6.817-2.993v.248c1.031.441,2.076.85,3.084,1.335.524.251,1.06.47,1.588.71s1.076.472,1.62.694a.391.391,0,0,1,.278.423c-.01.669,0,1.339,0,2.01,0,.211-.034.224-.235.156-1.551-.526-3.008-1.27-4.512-1.906s-3-1.3-4.494-1.961a.448.448,0,0,0-.4,0q-4.355,1.98-8.712,3.951c-.08.036-.17.106-.2-.051l.019-.026c.219-.057.243-.209.237-.407-.015-.458-.005-.916-.005-1.385" transform="translate(5141.865 -24133.945)" fill="#fff"/><path d="M640.241,729.369A11.512,11.512,0,1,0,629.1,717.862a11.328,11.328,0,0,0,11.142,11.507" transform="translate(5141.865 -24133.945)" fill="#3a5121"/><text transform="translate(5705.277 -23407.607)" fill="#fff" font-size="2.318" font-family="DaxOT, Dax OT"><tspan x="0" y="0" letter-spacing="0.006em">P</tspan><tspan y="0">lein</tspan></text><path d="M634,716.9a.378.378,0,0,0-.386.386v1.159a.379.379,0,0,0,.386.387h12.585a.378.378,0,0,0,.386-.387v-1.159a.378.378,0,0,0-.386-.386Z" transform="translate(5141.865 -24133.945)" fill="#fff"/><text transform="translate(5779.866 -23407.607)" fill="#fff" font-size="2.318" font-family="DaxOT, Dax OT"><tspan x="0" y="0">Ni</tspan><tspan y="0" letter-spacing="-0.003em">e</tspan><tspan y="0">t</tspan></text></g></svg>