<svg xmlns="http://www.w3.org/2000/svg" width="218.546" height="100.656" viewBox="0 0 218.546 100.656"><g transform="translate(-4114.325 11591.357)"><line y2="3.057" transform="translate(4125.082 -11569.062)" fill="none" stroke="#1a1818" stroke-miterlimit="10" stroke-width="1.019"/><line y2="62.396" transform="translate(4125.082 -11559.437)" fill="none" stroke="#1a1818" stroke-miterlimit="10" stroke-width="1.019" stroke-dasharray="6.568 6.568"/><line y2="3.057" transform="translate(4125.082 -11493.757)" fill="none" stroke="#1a1818" stroke-miterlimit="10" stroke-width="1.019"/><line y2="3.057" transform="translate(4149.526 -11569.062)" fill="none" stroke="#1a1818" stroke-miterlimit="10" stroke-width="1.019"/><line y2="62.396" transform="translate(4149.526 -11559.437)" fill="none" stroke="#1a1818" stroke-miterlimit="10" stroke-width="1.019" stroke-dasharray="6.568 6.568"/><line y2="3.057" transform="translate(4149.526 -11493.757)" fill="none" stroke="#1a1818" stroke-miterlimit="10" stroke-width="1.019"/><line y2="3.057" transform="translate(4174.567 -11569.062)" fill="none" stroke="#1a1818" stroke-miterlimit="10" stroke-width="1.019"/><line y2="62.396" transform="translate(4174.567 -11559.437)" fill="none" stroke="#1a1818" stroke-miterlimit="10" stroke-width="1.019" stroke-dasharray="6.568 6.568"/><line y2="3.057" transform="translate(4174.567 -11493.757)" fill="none" stroke="#1a1818" stroke-miterlimit="10" stroke-width="1.019"/><line y2="3.057" transform="translate(4199.077 -11569.062)" fill="none" stroke="#1a1818" stroke-miterlimit="10" stroke-width="1.019"/><line y2="62.396" transform="translate(4199.077 -11559.437)" fill="none" stroke="#1a1818" stroke-miterlimit="10" stroke-width="1.019" stroke-dasharray="6.568 6.568"/><line y2="3.057" transform="translate(4199.077 -11493.757)" fill="none" stroke="#1a1818" stroke-miterlimit="10" stroke-width="1.019"/><line y2="3.057" transform="translate(4223.521 -11569.062)" fill="none" stroke="#1a1818" stroke-miterlimit="10" stroke-width="1.019"/><line y2="62.396" transform="translate(4223.521 -11559.437)" fill="none" stroke="#1a1818" stroke-miterlimit="10" stroke-width="1.019" stroke-dasharray="6.568 6.568"/><line y2="3.057" transform="translate(4223.521 -11493.757)" fill="none" stroke="#1a1818" stroke-miterlimit="10" stroke-width="1.019"/><line y2="3.057" transform="translate(4248.563 -11569.062)" fill="none" stroke="#1a1818" stroke-miterlimit="10" stroke-width="1.019"/><line y2="62.396" transform="translate(4248.563 -11559.437)" fill="none" stroke="#1a1818" stroke-miterlimit="10" stroke-width="1.019" stroke-dasharray="6.568 6.568"/><line y2="3.057" transform="translate(4248.563 -11493.757)" fill="none" stroke="#1a1818" stroke-miterlimit="10" stroke-width="1.019"/><line y2="3.057" transform="translate(4272.766 -11569.062)" fill="none" stroke="#1a1818" stroke-miterlimit="10" stroke-width="1.019"/><line y2="62.396" transform="translate(4272.766 -11559.437)" fill="none" stroke="#1a1818" stroke-miterlimit="10" stroke-width="1.019" stroke-dasharray="6.568 6.568"/><line y2="3.057" transform="translate(4272.766 -11493.757)" fill="none" stroke="#1a1818" stroke-miterlimit="10" stroke-width="1.019"/><line y2="3.057" transform="translate(4297.21 -11569.062)" fill="none" stroke="#1a1818" stroke-miterlimit="10" stroke-width="1.019"/><line y2="62.396" transform="translate(4297.21 -11559.437)" fill="none" stroke="#1a1818" stroke-miterlimit="10" stroke-width="1.019" stroke-dasharray="6.568 6.568"/><line y2="3.057" transform="translate(4297.21 -11493.757)" fill="none" stroke="#1a1818" stroke-miterlimit="10" stroke-width="1.019"/><line y2="3.057" transform="translate(4322.251 -11569.062)" fill="none" stroke="#1a1818" stroke-miterlimit="10" stroke-width="1.019"/><line y2="62.396" transform="translate(4322.251 -11559.437)" fill="none" stroke="#1a1818" stroke-miterlimit="10" stroke-width="1.019" stroke-dasharray="6.568 6.568"/><line y2="3.057" transform="translate(4322.251 -11493.757)" fill="none" stroke="#1a1818" stroke-miterlimit="10" stroke-width="1.019"/><text transform="translate(4127.69 -11535.997) rotate(90)" fill="#1a1818" font-size="5.417" font-family="CenturyGothic, Century Gothic"><tspan x="0" y="0" letter-spacing="-0.01em">T</tspan><tspan y="0">ype omg</tspan><tspan y="0" letter-spacing="-0.009em">e</tspan><tspan y="0">ving </tspan></text><text transform="translate(4151.471 -11541.977) rotate(90)" fill="#1a1818" font-size="5.417" font-family="CenturyGothic, Century Gothic"><tspan x="0" y="0" letter-spacing="-0.042em">V</tspan><tspan y="0">erblijf</tspan><tspan y="0" letter-spacing="0.007em">s</tspan><tspan y="0">aanleiding</tspan></text><text transform="translate(4176.517 -11536.408) rotate(90)" fill="#1a1818" font-size="5.417" font-family="CenturyGothic, Century Gothic"><tspan x="0" y="0" letter-spacing="-0.007em">F</tspan><tspan y="0">un</tspan><tspan y="0" letter-spacing="0.01em">c</tspan><tspan y="0">tie</tspan><tspan y="0" letter-spacing="-0.016em"> </tspan><tspan y="0" letter-spacing="-0.019em">w</tspan><tspan y="0">anden</tspan></text><text transform="translate(4201.483 -11525.746) rotate(90)" fill="#1a1818" font-size="5.417" font-family="CenturyGothic, Century Gothic"><tspan x="0" y="0">Au</tspan><tspan y="0" letter-spacing="-0.007em">t</tspan><tspan y="0">o en fi</tspan><tspan y="0" letter-spacing="-0.006em">e</tspan><tspan y="0">ts</tspan></text><text transform="translate(4250.709 -11533.277) rotate(90)" fill="#1a1818" font-size="5.417" font-family="CenturyGothic, Century Gothic"><tspan x="0" y="0" letter-spacing="-0.042em">V</tspan><tspan y="0">er</tspan><tspan y="0" letter-spacing="-0.026em">k</tspan><tspan y="0">eerslic</tspan><tspan y="0" letter-spacing="-0.005em">h</tspan><tspan y="0" letter-spacing="-0.007em">t</tspan><tspan y="0">en</tspan></text><text transform="translate(4299.049 -11508.396) rotate(90)" fill="#1a1818" font-size="5.417" font-family="CenturyGothic, Century Gothic"><tspan x="0" y="0">G</tspan><tspan y="0" letter-spacing="-0.015em">r</tspan><tspan y="0">oen</tspan></text><text transform="translate(4274.775 -11543.307) rotate(90)" fill="#1a1818" font-size="5.417" font-family="CenturyGothic, Century Gothic"><tspan x="0" y="0">Openbaa</tspan></text><text transform="translate(4274.776 -11514.825) rotate(90)" fill="#1a1818" font-size="5.417" font-family="CenturyGothic, Century Gothic"><tspan x="0" y="0" letter-spacing="-0.024em">r</tspan><tspan y="0"> </tspan></text><text transform="translate(4274.776 -11511.73) rotate(90)" fill="#1a1818" font-size="5.417" font-family="CenturyGothic, Century Gothic"><tspan x="0" y="0" letter-spacing="-0.012em">v</tspan><tspan y="0">er</tspan><tspan y="0" letter-spacing="-0.012em">v</tspan><tspan y="0">oer</tspan></text><text transform="translate(4324.642 -11540.294) rotate(90)" fill="#1a1818" font-size="5.417" font-family="CenturyGothic, Century Gothic"><tspan x="0" y="0">Speciaal ka</tspan><tspan y="0" letter-spacing="-0.01em">r</tspan><tspan y="0">ak</tspan><tspan y="0" letter-spacing="-0.007em">t</tspan><tspan y="0">er</tspan></text><text transform="translate(4225.321 -11515.166) rotate(90)" fill="#1a1818" font-size="5.417" font-family="CenturyGothic, Century Gothic"><tspan x="0" y="0" letter-spacing="-0.017em">P</tspan><tspan y="0">ar</tspan><tspan y="0" letter-spacing="-0.026em">k</tspan><tspan y="0">e</tspan><tspan y="0" letter-spacing="-0.016em">r</tspan><tspan y="0">en</tspan></text><path d="M590.622,729.172a11.512,11.512,0,1,0-11.142-11.506,11.328,11.328,0,0,0,11.142,11.506" transform="translate(3583.865 -12286.914)" fill="#3a5121"/><path d="M593.981,718.178a.508.508,0,0,1-.506.506H592.32a.508.508,0,0,1-.507-.506V716.9a.508.508,0,0,1,.507-.506h1.155a.508.508,0,0,1,.506.506Zm-4.966,0a.508.508,0,0,1-.506.506h-1.155a.508.508,0,0,1-.507-.506V716.9a.508.508,0,0,1,.507-.506h1.155a.508.508,0,0,1,.506.506Zm5.952,2.109v-5.079a.374.374,0,0,0-.374-.375h-8.308a.375.375,0,0,0-.374.375v5.079a.374.374,0,0,0,.374.374h3.047a.374.374,0,0,0,.374-.374v-2.753a.117.117,0,0,1,.117-.118h1.151a.118.118,0,0,1,.118.118v2.753a.373.373,0,0,0,.374.374h3.127a.373.373,0,0,0,.374-.374m-8.725-7.484v-2.018a.382.382,0,0,1,.379-.385h.685a.381.381,0,0,1,.379.385v.742a.12.12,0,0,0,.191.1l2.371-1.8a.261.261,0,0,1,.316,0l5.2,3.938a.266.266,0,0,1-.148.483h-9.689c-.249,0-.709-.607-.509-.759l.777-.586a.123.123,0,0,0,.048-.1" transform="translate(3583.865 -12286.914)" fill="#fff"/><text transform="translate(4170.326 -11560.773)" fill="#fff" font-size="2.318" font-family="DaxOT, Dax OT"><tspan x="0" y="0" letter-spacing="0.005em">W</tspan><tspan y="0" letter-spacing="0.006em">one</tspan><tspan y="0">n</tspan></text><path d="M664.205,729.1a11.512,11.512,0,1,0-11.142-11.506A11.328,11.328,0,0,0,664.205,729.1" transform="translate(3583.865 -12286.914)" fill="#3a5121"/><path d="M658.218,716.877a.379.379,0,0,0-.387.386v1.159a.378.378,0,0,0,.387.386H670.8a.378.378,0,0,0,.386-.386v-1.159a.378.378,0,0,0-.386-.386Z" transform="translate(3583.865 -12286.914)" fill="#fff"/><path d="M713.526,718.57a11.512,11.512,0,1,0-11.142-11.506,11.328,11.328,0,0,0,11.142,11.506" transform="translate(3583.865 -12286.914)" fill="#3a5121"/><text transform="translate(4245.691 -11560.847)" fill="#fff" font-size="2.318" font-family="DaxOT, Dax OT"><tspan x="0" y="0">Ni</tspan><tspan y="0" letter-spacing="-0.003em">e</tspan><tspan y="0">t</tspan></text><text transform="translate(4293.702 -11571.376)" fill="#fff" font-size="2.318" font-family="DaxOT, Dax OT"><tspan x="0" y="0">Bomen</tspan></text><path d="M718.412,710.079h-1.938v-2.02h.761a1.374,1.374,0,0,0,1.382-1.367,1.357,1.357,0,0,1-.115-1.368,5.969,5.969,0,0,0-2.456-2.165c-.021,0-.04,0-.061,0a2.308,2.308,0,0,1,.406,1.312,2.36,2.36,0,0,1-2.37,2.346h-.733a1.377,1.377,0,0,0,1.376,1.239h.851v2.02H712.5v-3.564h1.518a2.054,2.054,0,0,0,2.062-2.041,2.011,2.011,0,0,0-.437-1.256,2.135,2.135,0,0,0-.375-.367l-.054-.04-.006-.066a2.042,2.042,0,0,0-1.251-1.676l-.092-.037,0-.1a2.044,2.044,0,0,0-2.06-1.974,2.067,2.067,0,0,0-1.883,1.21l-.036.077-.084.012a2.054,2.054,0,0,0-1.783,2.022,2.011,2.011,0,0,0,.2.874l.039.08-.051.073a2.013,2.013,0,0,0-.371,1.166,2.055,2.055,0,0,0,2.062,2.041h1.375v3.564h-3.232a.2.2,0,1,0,0,.407h10.373a.2.2,0,1,0,0-.407" transform="translate(3583.865 -12286.914)" fill="#fff"/><path d="M716.873,710.749h-7.295a.2.2,0,1,0,0,.407h7.295a.2.2,0,1,0,0-.407" transform="translate(3583.865 -12286.914)" fill="#fff"/><path d="M541.6,729.172a11.512,11.512,0,1,0-11.142-11.506A11.328,11.328,0,0,0,541.6,729.172" transform="translate(3583.865 -12286.914)" fill="#3a5121"/><path d="M548.536,720.721h-.342v-1.192h.342Zm-.685,0h-.342v-1.192h.342Zm-5.306-5.107h-1.027v-1.021h1.027Zm0,2.043h-1.027v-1.021h1.027Zm-2.568-2.043H538.95v-1.021h1.027Zm0,2.043H538.95v-1.021h1.027Zm8.37-.445-1.694,1.694v-3.633h-2.567V718h-.857v-4.086h-4.963v4.252l0-.034-2.106-2.566-2.684,2.668v3.511h1.883v-1.873h1.027v1.873h13.522v-2.971Z" transform="translate(3583.865 -12286.914)" fill="#fff"/><path d="M713.827,741.568a11.512,11.512,0,1,0-11.142-11.506,11.328,11.328,0,0,0,11.142,11.506" transform="translate(3583.865 -12286.914)" fill="#3a5121"/><text transform="translate(4121.41 -11560.721)" fill="#fff" font-size="2.318" font-family="DaxOT, Dax OT"><tspan x="0" y="0" letter-spacing="-0.015em">S</tspan><tspan y="0" letter-spacing="-0.007em">t</tspan><tspan y="0">edelijk</tspan></text><path d="M714.622,731.864a1.479,1.479,0,0,0-.534-.044c.98-3.468,2.245-4.942,4.312-6.287a7.76,7.76,0,0,0-3.454,3.129c-.511-3.565,1.8-2.831,3.972-3.669-.8,2.05-.036,5.135-3.227,4.024a5.368,5.368,0,0,0-1.069,2.847m-1.991-3.306c-3.9-.115-2.793-1.708-3.894-3.6,2.549-.325,4.937.29,4.332,3.367a9.26,9.26,0,0,1,.986,3.5,1.212,1.212,0,0,0-.472.013c-.044-2.125-.691-3.175-.952-3.28m-.042,4.228c-1.047.02-1.477.281-1.837,1.127h6.956c.147-.906-.962-1.382-1.536-.381-.294-1.918-3.376-1.878-3.583-.746" transform="translate(3583.865 -12286.914)" fill="#fff"/><path d="M565.841,718.684A11.512,11.512,0,1,0,554.7,707.178a11.328,11.328,0,0,0,11.142,11.506" transform="translate(3583.865 -12286.914)" fill="#3a5121"/><text transform="translate(4292.235 -11548.325)" fill="#fff" font-size="2.318" font-family="DaxOT, Dax OT"><tspan x="0" y="0">Bepla</tspan><tspan y="0" letter-spacing="-0.005em">n</tspan><tspan y="0">ting</tspan></text><path d="M566.02,702.383c0,.1,0,.178,0,.257s-.017.161-.029.241c-.007.045-.041.108-.022.13a.2.2,0,0,0,.146.068c.04-.006.086-.065.105-.11a1.252,1.252,0,0,0,.058-.228c.058-.268.058-.268-.256-.358m-.378.005a1.048,1.048,0,0,0-.206.09c-.038.028-.082.088-.076.127a2.516,2.516,0,0,0,.092.413.145.145,0,0,0,.107.087.205.205,0,0,0,.141-.081c.023-.03.006-.091,0-.138-.015-.087-.042-.174-.054-.261a2.023,2.023,0,0,1,0-.237m-7.7,3.415c-.292.083-.291.083-.317.343-.01.1-.03.2-.033.3a.522.522,0,0,0,.038.152.878.878,0,0,0,.163-.079.217.217,0,0,0,.07-.121c.03-.192.052-.384.079-.592m5.169-1.65c.242-.076.388-.443.354-.822-.183.028-.3.113-.3.314,0,.088-.039.175-.049.263a2.172,2.172,0,0,0,0,.245m-4.1,1.185c-.295.1-.295.1-.262.371a.836.836,0,0,0,.033.2.724.724,0,0,0,.114.156c.057-.058.164-.114.166-.173a4.209,4.209,0,0,0-.051-.555m9.159-2.026c.05.229.094.443.147.654a.218.218,0,0,0,.09.108.432.432,0,0,0,.129.04.356.356,0,0,0,.029-.114c-.018-.135-.056-.269-.064-.405-.011-.193-.129-.254-.331-.283m-10.766,2.7c-.147.081-.29.074-.316.23s-.056.289-.074.434a.648.648,0,0,0,.025.172c.062-.033.126-.062.184-.1a.14.14,0,0,0,.047-.081c.043-.2.084-.408.134-.655m6.63-2.922c-.3.095-.3.095-.323.351-.007.089-.029.178-.029.266a.912.912,0,0,0,.04.189c.064-.042.129-.081.191-.127a.112.112,0,0,0,.035-.069c.029-.2.056-.394.086-.61m3.6-.015c.028.211.045.405.085.6a.35.35,0,0,0,.129.172c.076.06.146.046.142-.069s-.023-.24-.034-.36c-.023-.244-.04-.264-.322-.338m-1.066-.467a3.562,3.562,0,0,0-.068.538c0,.064.1.164.175.181.116.028.115-.086.125-.171a3.26,3.26,0,0,0,.046-.325.2.2,0,0,0-.072-.141.939.939,0,0,0-.206-.082m-1.463.027c-.291.085-.292.085-.263.341a.91.91,0,0,0,.035.216.835.835,0,0,0,.118.172c.06-.065.169-.128.171-.194a3.525,3.525,0,0,0-.061-.535m-5.563,2.488c-.3.083-.3.083-.24.355a1.334,1.334,0,0,0,.05.229c.019.047.065.11.107.117a.178.178,0,0,0,.144-.072.294.294,0,0,0,.037-.191c-.021-.144-.063-.285-.1-.438m7.559-2.274c0,.185-.006.367.005.548a.282.282,0,0,0,.088.16.177.177,0,0,0,.139.045c.028-.005.057-.072.061-.114.009-.1.005-.2.006-.3,0-.266,0-.266-.3-.34m-2.527.021c-.281.052-.3.078-.3.327a2.415,2.415,0,0,0,0,.283c.006.05.045.135.07.135a.237.237,0,0,0,.16-.07.293.293,0,0,0,.067-.171c.008-.167,0-.334,0-.5m-6.1,2.715c-.289.065-.29.068-.29.333,0,.095-.007.19,0,.283.005.047.032.124.059.128a.213.213,0,0,0,.153-.048.206.206,0,0,0,.072-.135c.008-.186,0-.373,0-.561m7.376-3.849a2.137,2.137,0,0,1-.214.119c-.769.331-1.541.658-2.31.99a.874.874,0,0,0-.168.122l.028.034c.049-.019.1-.037.147-.058l2.3-.981a.547.547,0,0,1,.465,0c.762.334,1.53.657,2.3.983.04.018.083.029.125.043l.023-.042a1.338,1.338,0,0,0-.173-.111q-1.162-.5-2.325-1c-.068-.029-.131-.067-.192-.1m7.471,4.844c0,.433,0,.831,0,1.229a.114.114,0,0,0,.055.083c.132.065.27.121.422.188,0-.422,0-.821,0-1.221a.117.117,0,0,0-.045-.091c-.132-.064-.268-.118-.432-.188m-3.286-1.459c0,.444,0,.849,0,1.253a.111.111,0,0,0,.051.085c.137.065.279.122.428.186,0-.41,0-.8,0-1.186,0-.052-.018-.129-.054-.149a4.479,4.479,0,0,0-.425-.189m-8.392.053c-.156.065-.284.113-.406.174a.152.152,0,0,0-.076.108c-.005.407,0,.815,0,1.241.15-.068.284-.12.408-.188a.182.182,0,0,0,.074-.131c.006-.279,0-.558,0-.837Zm-1.54.683h0c0,.1,0,.2,0,.3,0,.122.076.158.184.118.125-.047.246-.1.369-.155a.325.325,0,0,0,.212-.294,5.125,5.125,0,0,0,0-.568c-.005-.119-.074-.173-.2-.124-.079.031-.154.076-.236.1a.423.423,0,0,0-.337.512,1.035,1.035,0,0,1,0,.111m14.756,1.417h0a1.059,1.059,0,0,0-.006-.3.524.524,0,0,0-.173-.261,2.449,2.449,0,0,0-.407-.181c-.1-.045-.153.007-.175.1a.744.744,0,0,0,.528,1.034.424.424,0,0,0,.046.017c.127.045.179.014.187-.122.005-.094,0-.189,0-.284m-3.285-1.464c.088-.376-.094-.58-.447-.676a.819.819,0,0,1-.1-.043c-.147-.058-.212-.019-.216.137a2.65,2.65,0,0,0,.008.535.5.5,0,0,0,.184.288,1.864,1.864,0,0,0,.393.176c.118.05.173,0,.179-.117s0-.2,0-.3m-1.809-.776a.949.949,0,0,0-.005-.267.548.548,0,0,0-.158-.273,1.75,1.75,0,0,0-.422-.19c-.105-.039-.181-.006-.181.12a5.712,5.712,0,0,0,.009.6.347.347,0,0,0,.141.23,2.175,2.175,0,0,0,.437.2c.11.04.175-.014.178-.131,0-.094,0-.189,0-.284m2.519,1.127c-.1.393.1.6.464.7.035.009.067.032.1.044.13.042.194,0,.2-.137a3.09,3.09,0,0,0-.007-.536.465.465,0,0,0-.166-.282,1.669,1.669,0,0,0-.406-.185c-.116-.042-.188,0-.187.131,0,.09,0,.18,0,.269M561.91,705.12a1.056,1.056,0,0,0,.007.266c.011.051.1.13.136.119a2.483,2.483,0,0,0,.494-.219.332.332,0,0,0,.12-.226,5.16,5.16,0,0,0,.005-.584c0-.131-.067-.173-.187-.121-.538.23-.594.177-.575.765m2.9-.082c.2-.089.367-.164.533-.245a.133.133,0,0,0,.065-.093c.005-.372,0-.743,0-1.14-.193.083-.365.151-.531.232a.167.167,0,0,0-.068.127c0,.363,0,.725,0,1.119m2.048.013c0-.406,0-.789,0-1.171a.124.124,0,0,0-.046-.094c-.174-.083-.352-.159-.554-.248,0,.42,0,.8,0,1.177a.133.133,0,0,0,.057.1c.172.082.348.154.543.239m-8.135,2.744c.2-.089.375-.168.552-.252a.1.1,0,0,0,.045-.074c0-.39,0-.779,0-1.2-.2.086-.374.158-.546.241a.133.133,0,0,0-.052.1c0,.385,0,.77,0,1.181m5.717-3.737c-.337.145-.63.27-.922.4a.1.1,0,0,0-.057.069c-.005.233,0,.466,0,.725.318-.136.608-.258.894-.387a.156.156,0,0,0,.084-.105c.007-.219,0-.438,0-.7m2.788.006c0,.235-.007.451.005.665,0,.046.066.108.117.131.247.114.5.218.75.323a.5.5,0,0,0,.117.015c0-.209,0-.4,0-.6a.181.181,0,0,0-.128-.193c-.242-.1-.482-.205-.723-.306a1.353,1.353,0,0,0-.139-.036m-8.889,2.712c-.277.118-.513.231-.758.318a.3.3,0,0,0-.237.353,2.392,2.392,0,0,1,0,.268c0,.074.011.149.018.25.322-.139.611-.261.9-.389a.135.135,0,0,0,.075-.094c.007-.223,0-.447,0-.706m4.65-3.582-3.277,1.4c.018.087.032.156.047.231.048-.026.088-.051.131-.07.991-.425,1.979-.853,2.973-1.267.16-.067.151-.155.126-.3m-6.049,3.734c-.241-.009-.252-.031-.2-.248.064-.259.1-.524.179-.781a.356.356,0,0,1,.187-.187c.714-.313,1.432-.616,2.149-.922.057-.025.113-.052.17-.078,0-.02-.009-.039-.013-.059a.929.929,0,0,0-.16.037c-.693.294-1.385.592-2.079.885a1.381,1.381,0,0,1-.223.058,1,1,0,0,1-.032-.257.231.231,0,0,1,.117-.148c.872-.378,1.745-.749,2.617-1.125a.41.41,0,0,0,.157-.119c.477-.623.953-1.248,1.422-1.878a.235.235,0,0,1,.35-.086c.235.123.481.224.768.356v-.323a.44.44,0,0,1,.426-.422c.116,0,.116.1.117.174,0,.231,0,.464.005.7a.628.628,0,0,0,.032.148,3.3,3.3,0,0,1,.339-.2c.769-.332,1.541-.657,2.309-.99a.645.645,0,0,1,.559,0c.77.34,1.549.666,2.324,1,.053.023.1.053.155.08l.111.059a.468.468,0,0,0,.038-.128c0-.227,0-.454,0-.681,0-.2.06-.238.243-.163.289.119.308.147.309.459,0,.066.005.132.01.237l.387-.179a4.206,4.206,0,0,0,.391-.183c.14-.081.224-.036.31.079.41.548.825,1.092,1.239,1.639.083.109.164.22.251.328a.334.334,0,0,0,.088.054c.019-.034.053-.067.053-.1.005-.231,0-.464,0-.7s.053-.249.259-.176a.373.373,0,0,1,.294.44,1.772,1.772,0,0,0,.009.25c.159-.072.288-.129.416-.188s.256-.109.377-.177c.137-.078.215-.021.295.085q.569.758,1.143,1.51c.208.276.42.548.621.827a.927.927,0,0,1,.087.245l-.059.051-6.817-2.994v.249c1.03.441,2.075.85,3.084,1.335.524.25,1.06.47,1.588.71s1.076.473,1.62.694a.389.389,0,0,1,.278.422c-.011.67,0,1.34,0,2.011,0,.211-.034.224-.235.156-1.551-.526-3.008-1.27-4.512-1.907s-3-1.3-4.494-1.96a.45.45,0,0,0-.406,0q-4.353,1.98-8.711,3.952c-.08.037-.17.107-.2-.051l.018-.026c.22-.057.244-.209.237-.407-.014-.458,0-.916,0-1.385" transform="translate(3583.865 -12286.914)" fill="#fff"/><path d="M565.661,741.7a11.512,11.512,0,1,0-11.142-11.507A11.328,11.328,0,0,0,565.661,741.7" transform="translate(3583.865 -12286.914)" fill="#3a5121"/><text transform="translate(4147.305 -11571.262)" fill="#fff" font-size="2.318" font-family="DaxOT, Dax OT"><tspan x="0" y="0" letter-spacing="0.006em">P</tspan><tspan y="0">lein</tspan></text><path d="M563.131,729.838h5.137v.353h-5.137Zm0-2.118h5.137v.353h-5.137Zm8.734,2.471H569.3v-.353h1.542c.283,0,.513-.158.513-.353v-1.059c0-.2-.23-.353-.513-.353H569.3v-.353h1.542c.283,0,.513-.158.513-.353v-1.06c0-.194-.23-.352-.513-.352H569.3c0-.2-.23-.353-.514-.353s-.513.158-.513.353h-5.138c0-.2-.23-.353-.513-.353s-.514.158-.514.353h-1.541c-.284,0-.514.158-.514.352v1.06c0,.2.23.353.514.353H562.1v.353h-1.541c-.284,0-.514.158-.514.353v1.059c0,.2.23.353.514.353H562.1v.353h-2.569c-.284,0-.514.158-.514.353s.23.353.514.353h.514v1.412c0,.2.23.353.514.353s.513-.158.513-.353V730.9h9.248v1.412c0,.2.23.353.514.353s.513-.158.513-.353V730.9h.514c.284,0,.513-.158.513-.353s-.229-.353-.513-.353" transform="translate(3583.865 -12286.914)" fill="#fff"/><text transform="translate(4142.217 -11550.224)" fill="#fff" font-size="2.318" font-family="DaxOT, Dax OT"><tspan x="0" y="0">Zitmogelijkheid</tspan></text><path d="M689.588,729.1a11.512,11.512,0,1,0-11.142-11.506A11.328,11.328,0,0,0,689.588,729.1" transform="translate(3583.865 -12286.914)" fill="#3a5121"/><text transform="translate(4271.11 -11560.847)" fill="#fff" font-size="2.318" font-family="DaxOT, Dax OT"><tspan x="0" y="0">Bus</tspan></text><path d="M683.027,714.167v2.106a.265.265,0,0,1-.265.264h-.742a.266.266,0,0,1-.267-.264v-1.9a1.041,1.041,0,0,1,1.155-1H684.2v.8Z" transform="translate(3583.865 -12286.914)" fill="#fff"/><path d="M695.377,714.167v2.106a.265.265,0,0,0,.266.264h.742a.266.266,0,0,0,.266-.264v-1.9a1.041,1.041,0,0,0-1.155-1H694.2v.8Z" transform="translate(3583.865 -12286.914)" fill="#fff"/><path d="M694.379,720.159a.265.265,0,0,1-.266.264h-1.64a.265.265,0,0,1-.265-.264V719.5a.265.265,0,0,1,.265-.264h1.64a.265.265,0,0,1,.266.264Zm-3.1-.065a.558.558,0,0,1-.512.329h-3.138a.558.558,0,0,1-.512-.329c-.06-.182.072-.33.294-.33h3.574c.221,0,.354.148.294.33m-5.087.065a.265.265,0,0,1-.265.264H684.29a.265.265,0,0,1-.265-.264V719.5a.265.265,0,0,1,.265-.264h1.641a.265.265,0,0,1,.265.264Zm-1.262-7.619c.523-.378,2.782-.4,4.268-.4s3.744.019,4.268.4.537,4.457,0,4.846-2.783.4-4.268.4-3.745-.019-4.268-.4c-.538-.389-.538-4.457,0-4.846m3.294-2.012h1.946a.371.371,0,1,1,0,.742h-1.946a.371.371,0,1,1,0-.742m6.544,6.74v-5.62a1.921,1.921,0,0,0-1.495-1.81,23.925,23.925,0,0,0-8.149,0,1.922,1.922,0,0,0-1.5,1.81v5.62a.652.652,0,0,0-.342.564v3.106a.676.676,0,0,0,.687.66h10.448a.678.678,0,0,0,.689-.66v-3.106a.652.652,0,0,0-.342-.564" transform="translate(3583.865 -12286.914)" fill="#fff"/><path d="M684.012,720.913v1.479a.662.662,0,0,0,.662.658h.546a.663.663,0,0,0,.663-.658v-1.479Z" transform="translate(3583.865 -12286.914)" fill="#fff"/><path d="M692.523,720.913v1.479a.662.662,0,0,0,.662.658h.546a.661.661,0,0,0,.661-.658v-1.479Z" transform="translate(3583.865 -12286.914)" fill="#fff"/><path d="M640.268,729.172a11.512,11.512,0,1,0-11.142-11.506,11.327,11.327,0,0,0,11.142,11.506" transform="translate(3583.865 -12286.914)" fill="#3a5121"/><path d="M634.024,716.7a.378.378,0,0,0-.386.386v1.159a.378.378,0,0,0,.386.386h12.584a.379.379,0,0,0,.387-.386v-1.159a.378.378,0,0,0-.387-.386Z" transform="translate(3583.865 -12286.914)" fill="#fff"/><path d="M615.162,729.172a11.512,11.512,0,1,0-11.142-11.506,11.328,11.328,0,0,0,11.142,11.506" transform="translate(3583.865 -12286.914)" fill="#3a5121"/><text transform="translate(4221.894 -11560.774)" fill="#fff" font-size="2.318" font-family="DaxOT, Dax OT"><tspan x="0" y="0">Ni</tspan><tspan y="0" letter-spacing="-0.003em">e</tspan><tspan y="0">t</tspan></text><text transform="translate(4193.061 -11560.774)" fill="#fff" font-size="2.318" font-family="DaxOT, Dax OT"><tspan x="0" y="0">Gescheiden</tspan></text><path d="M609.725,718.874c0,.01,0,.02,0,.031v.949a.4.4,0,0,0,.4.4h.33a.4.4,0,0,0,.4-.4v-.295h-.847c-.1,0-.2-.3-.285-.685" transform="translate(3583.865 -12286.914)" fill="#fff"/><path d="M616.4,718.874c-.081.382-.19.686-.286.686h-.846v.294a.4.4,0,0,0,.4.4H616a.4.4,0,0,0,.4-.4v-.98" transform="translate(3583.865 -12286.914)" fill="#fff"/><path d="M613.061,714.811h0c-1.261,0-1.712.024-2.034.224a4.07,4.07,0,0,0-.737,1.051l-.01.011a.175.175,0,0,0-.163-.112h-.6c-.222,0-.252.217-.252.336a.651.651,0,0,0,0,.076.191.191,0,0,0,.183.159h.257l.026,0h0c.12,0,.231.055.189.222a4.458,4.458,0,0,0-.294.71,3.98,3.98,0,0,0,.091,1.389c.081.382.19.685.286.685h6.1c.1,0,.205-.3.286-.686a3.969,3.969,0,0,0,.09-1.388,4.317,4.317,0,0,0-.294-.71c-.042-.167.069-.222.189-.222h0l.027,0h.257a.192.192,0,0,0,.183-.159s0-.028,0-.067v-.017c0-.121-.036-.328-.253-.328h-.6a.177.177,0,0,0-.164.112l-.01-.011a4.067,4.067,0,0,0-.737-1.051c-.322-.2-.773-.224-2.034-.224m-.3.4h.592a3.459,3.459,0,0,1,1.527.163,5.32,5.32,0,0,1,.671,1.031,16.235,16.235,0,0,1-4.985,0,5.282,5.282,0,0,1,.679-1.039,3.543,3.543,0,0,1,1.516-.156m2.415,2.7a.76.76,0,0,1-.355-.048c-.069-.077.061-.5.5-.782a1.016,1.016,0,0,1,.426-.139.167.167,0,0,1,.127.044c.1.121.188.653.017.8a1.5,1.5,0,0,1-.713.126m-4.235,0a1.5,1.5,0,0,1-.713-.126c-.172-.146-.089-.678.017-.8a.166.166,0,0,1,.127-.044,1.006,1.006,0,0,1,.425.139c.437.279.568.705.5.782a.751.751,0,0,1-.354.048m1.373.949c-.3,0-.481-.09-.517-.2s.045-.2.179-.2h2.165c.134,0,.215.091.178.2s-.205.2-.517.2Z" transform="translate(3583.865 -12286.914)" fill="#fff"/><path d="M620.358,717.465a.176.176,0,0,0-.177.176v2.6a.176.176,0,0,0,.353,0v-2.6a.176.176,0,0,0-.176-.176" transform="translate(3583.865 -12286.914)" fill="#fff"/><path d="M620.251,716.864h-.558a2.53,2.53,0,0,0-.208,1.375c.005.159.01.324.008.5a.228.228,0,0,0,.225.231h0a.228.228,0,0,0,.228-.224c0-.184,0-.354-.008-.518a1.73,1.73,0,0,1,.309-1.36" transform="translate(3583.865 -12286.914)" fill="#fff"/><path d="M621.031,716.864h-.492a4.955,4.955,0,0,1,.233,2.314.23.23,0,0,0,.212.245H621a.229.229,0,0,0,.228-.211,7.26,7.26,0,0,0-.073-1.862,3.713,3.713,0,0,0-.125-.486" transform="translate(3583.865 -12286.914)" fill="#fff"/><path d="M621.2,716.355h-1.693a3.993,3.993,0,0,1,.167-1.374c.017-.048.034-.094.053-.137v1.308h0v.067h1.237v-.067h0v-1.327c.022.051.043.1.061.159a3.929,3.929,0,0,1,.171,1.371m.583,0h-.152a2.68,2.68,0,0,0-.837-2.407.837.837,0,0,0-.888,0,2.682,2.682,0,0,0-.83,2.408h-.153a.176.176,0,1,0,0,.352h2.86a.176.176,0,1,0,0-.352" transform="translate(3583.865 -12286.914)" fill="#fff"/><path d="M618.313,721.607v-.066H607.876V711.17h10.371v10.437h.066v0h.065V711.039H607.745v10.634h10.633v-.066Z" transform="translate(3583.865 -12286.914)" fill="#fff"/><path d="M622.4,721.607v-.066h-4.024V711.17h3.958v10.437h.066v0h.065V711.039h-4.22v10.634h4.22v-.066Z" transform="translate(3583.865 -12286.914)" fill="#fff"/><path d="M621,712.963a.642.642,0,1,1-.643-.643.643.643,0,0,1,.643.643" transform="translate(3583.865 -12286.914)" fill="#fff"/><path d="M737.865,729.172a11.512,11.512,0,1,0-11.143-11.507,11.328,11.328,0,0,0,11.143,11.507" transform="translate(3583.865 -12286.914)" fill="#3a5121"/><text transform="translate(4317.196 -11562.489)" fill="#fff" font-size="2.318" font-family="DaxOT, Dax OT"><tspan x="0" y="0">Materiaal</tspan></text><path d="M.615,0H3.33a.616.616,0,0,1,.616.616V1.634a.616.616,0,0,1-.616.616H.615A.615.615,0,0,1,0,1.635V.615A.615.615,0,0,1,.615,0Z" transform="translate(4315.541 -11574.12)" fill="none" stroke="#fff" stroke-miterlimit="10" stroke-width="0.255"/><path d="M.615,0H3.331a.615.615,0,0,1,.615.615V1.634a.616.616,0,0,1-.616.616H.615A.615.615,0,0,1,0,1.635V.615A.615.615,0,0,1,.615,0Z" transform="translate(4319.487 -11574.12)" fill="none" stroke="#fff" stroke-miterlimit="10" stroke-width="0.255"/><path d="M.615,0H3.33a.616.616,0,0,1,.616.616V1.634a.616.616,0,0,1-.616.616H.615A.615.615,0,0,1,0,1.635V.615A.615.615,0,0,1,.615,0Z" transform="translate(4323.434 -11574.12)" fill="none" stroke="#fff" stroke-miterlimit="10" stroke-width="0.255"/><path d="M.615,0H3.33a.616.616,0,0,1,.616.616V1.635a.616.616,0,0,1-.616.616H.615A.615.615,0,0,1,0,1.636V.615A.615.615,0,0,1,.615,0Z" transform="translate(4317.613 -11571.871)" fill="none" stroke="#fff" stroke-miterlimit="10" stroke-width="0.255"/><path d="M.615,0H3.331a.615.615,0,0,1,.615.615v1.02a.616.616,0,0,1-.616.616H.615A.615.615,0,0,1,0,1.636V.615A.615.615,0,0,1,.615,0Z" transform="translate(4321.56 -11571.871)" fill="none" stroke="#fff" stroke-miterlimit="10" stroke-width="0.255"/><path d="M.615,0H3.33a.616.616,0,0,1,.616.616V1.635a.616.616,0,0,1-.616.616H.615A.615.615,0,0,1,0,1.636V.615A.615.615,0,0,1,.615,0Z" transform="translate(4325.506 -11571.871)" fill="none" stroke="#fff" stroke-miterlimit="10" stroke-width="0.255"/><path d="M.615,0H3.33a.616.616,0,0,1,.616.616V1.635a.616.616,0,0,1-.616.616H.615A.615.615,0,0,1,0,1.636V.615A.615.615,0,0,1,.615,0Z" transform="translate(4313.666 -11571.871)" fill="none" stroke="#fff" stroke-miterlimit="10" stroke-width="0.255"/><path d="M.615,0H3.33a.616.616,0,0,1,.616.616V1.634a.616.616,0,0,1-.616.616H.615A.615.615,0,0,1,0,1.635V.615A.615.615,0,0,1,.615,0Z" transform="translate(4315.541 -11569.619)" fill="none" stroke="#fff" stroke-miterlimit="10" stroke-width="0.255"/><path d="M.615,0H3.331a.615.615,0,0,1,.615.615V1.634a.616.616,0,0,1-.616.616H.615A.615.615,0,0,1,0,1.635V.615A.615.615,0,0,1,.615,0Z" transform="translate(4319.487 -11569.619)" fill="none" stroke="#fff" stroke-miterlimit="10" stroke-width="0.255"/><path d="M.615,0H3.33a.616.616,0,0,1,.616.616V1.634a.616.616,0,0,1-.616.616H.615A.615.615,0,0,1,0,1.635V.615A.615.615,0,0,1,.615,0Z" transform="translate(4323.434 -11569.619)" fill="none" stroke="#fff" stroke-miterlimit="10" stroke-width="0.255"/></g></svg>