<svg xmlns="http://www.w3.org/2000/svg" width="219.049" height="74.258" viewBox="0 0 219.049 74.258"><g transform="translate(1499.382 16881.892)"><line y2="3.057" transform="translate(-1488.324 -16870.127)" fill="none" stroke="#1a1818" stroke-miterlimit="10" stroke-width="1.019"/><line y2="46.263" transform="translate(-1488.324 -16860.9)" fill="none" stroke="#1a1818" stroke-miterlimit="10" stroke-width="1.019" stroke-dasharray="6.169 6.169"/><line y2="3.057" transform="translate(-1488.324 -16811.555)" fill="none" stroke="#1a1818" stroke-miterlimit="10" stroke-width="1.019"/><line y2="3.057" transform="translate(-1463.88 -16870.127)" fill="none" stroke="#1a1818" stroke-miterlimit="10" stroke-width="1.019"/><line y2="46.263" transform="translate(-1463.88 -16860.9)" fill="none" stroke="#1a1818" stroke-miterlimit="10" stroke-width="1.019" stroke-dasharray="6.169 6.169"/><line y2="3.057" transform="translate(-1463.88 -16811.555)" fill="none" stroke="#1a1818" stroke-miterlimit="10" stroke-width="1.019"/><line y2="3.057" transform="translate(-1438.839 -16870.127)" fill="none" stroke="#1a1818" stroke-miterlimit="10" stroke-width="1.019"/><line y2="46.263" transform="translate(-1438.839 -16860.9)" fill="none" stroke="#1a1818" stroke-miterlimit="10" stroke-width="1.019" stroke-dasharray="6.169 6.169"/><line y2="3.057" transform="translate(-1438.839 -16811.555)" fill="none" stroke="#1a1818" stroke-miterlimit="10" stroke-width="1.019"/><line y2="3.057" transform="translate(-1414.329 -16870.127)" fill="none" stroke="#1a1818" stroke-miterlimit="10" stroke-width="1.019"/><line y2="46.263" transform="translate(-1414.329 -16860.9)" fill="none" stroke="#1a1818" stroke-miterlimit="10" stroke-width="1.019" stroke-dasharray="6.169 6.169"/><line y2="3.057" transform="translate(-1414.329 -16811.555)" fill="none" stroke="#1a1818" stroke-miterlimit="10" stroke-width="1.019"/><line y2="3.057" transform="translate(-1389.884 -16870.127)" fill="none" stroke="#1a1818" stroke-miterlimit="10" stroke-width="1.019"/><line y2="46.263" transform="translate(-1389.884 -16860.9)" fill="none" stroke="#1a1818" stroke-miterlimit="10" stroke-width="1.019" stroke-dasharray="6.169 6.169"/><line y2="3.057" transform="translate(-1389.884 -16811.555)" fill="none" stroke="#1a1818" stroke-miterlimit="10" stroke-width="1.019"/><line y2="3.057" transform="translate(-1364.844 -16870.127)" fill="none" stroke="#1a1818" stroke-miterlimit="10" stroke-width="1.019"/><line y2="46.263" transform="translate(-1364.844 -16860.9)" fill="none" stroke="#1a1818" stroke-miterlimit="10" stroke-width="1.019" stroke-dasharray="6.169 6.169"/><line y2="3.057" transform="translate(-1364.844 -16811.555)" fill="none" stroke="#1a1818" stroke-miterlimit="10" stroke-width="1.019"/><line y2="3.057" transform="translate(-1340.64 -16870.127)" fill="none" stroke="#1a1818" stroke-miterlimit="10" stroke-width="1.019"/><line y2="46.263" transform="translate(-1340.64 -16860.9)" fill="none" stroke="#1a1818" stroke-miterlimit="10" stroke-width="1.019" stroke-dasharray="6.169 6.169"/><line y2="3.057" transform="translate(-1340.64 -16811.555)" fill="none" stroke="#1a1818" stroke-miterlimit="10" stroke-width="1.019"/><line y2="3.057" transform="translate(-1316.196 -16870.127)" fill="none" stroke="#1a1818" stroke-miterlimit="10" stroke-width="1.019"/><line y2="46.263" transform="translate(-1316.196 -16860.9)" fill="none" stroke="#1a1818" stroke-miterlimit="10" stroke-width="1.019" stroke-dasharray="6.169 6.169"/><line y2="3.057" transform="translate(-1316.196 -16811.555)" fill="none" stroke="#1a1818" stroke-miterlimit="10" stroke-width="1.019"/><line y2="3.057" transform="translate(-1291.155 -16870.127)" fill="none" stroke="#1a1818" stroke-miterlimit="10" stroke-width="1.019"/><line y2="46.263" transform="translate(-1291.155 -16860.9)" fill="none" stroke="#1a1818" stroke-miterlimit="10" stroke-width="1.019" stroke-dasharray="6.169 6.169"/><line y2="3.057" transform="translate(-1291.155 -16811.555)" fill="none" stroke="#1a1818" stroke-miterlimit="10" stroke-width="1.019"/><text transform="translate(-1485.715 -16850.635) rotate(90)" fill="#1a1818" font-size="5.417" font-family="CenturyGothic, Century Gothic"><tspan x="0" y="0" letter-spacing="-0.01em">T</tspan><tspan y="0">ype omg</tspan><tspan y="0" letter-spacing="-0.009em">e</tspan><tspan y="0">ving </tspan></text><text transform="translate(-1461.935 -16856.16) rotate(90)" fill="#1a1818" font-size="5.417" font-family="CenturyGothic, Century Gothic"><tspan x="0" y="0" letter-spacing="-0.042em">V</tspan><tspan y="0">erblijf</tspan><tspan y="0" letter-spacing="0.007em">s</tspan><tspan y="0">aanleiding</tspan></text><text transform="translate(-1436.891 -16851.016) rotate(90)" fill="#1a1818" font-size="5.417" font-family="CenturyGothic, Century Gothic"><tspan x="0" y="0" letter-spacing="-0.007em">F</tspan><tspan y="0">un</tspan><tspan y="0" letter-spacing="0.01em">c</tspan><tspan y="0">tie</tspan><tspan y="0" letter-spacing="-0.016em"> </tspan><tspan y="0" letter-spacing="-0.019em">w</tspan><tspan y="0">anden</tspan></text><text transform="translate(-1411.923 -16841.162) rotate(90)" fill="#1a1818" font-size="5.417" font-family="CenturyGothic, Century Gothic"><tspan x="0" y="0">Au</tspan><tspan y="0" letter-spacing="-0.007em">t</tspan><tspan y="0">o en fi</tspan><tspan y="0" letter-spacing="-0.006em">e</tspan><tspan y="0">ts</tspan></text><text transform="translate(-1362.696 -16848.117) rotate(90)" fill="#1a1818" font-size="5.417" font-family="CenturyGothic, Century Gothic"><tspan x="0" y="0" letter-spacing="-0.042em">V</tspan><tspan y="0">er</tspan><tspan y="0" letter-spacing="-0.026em">k</tspan><tspan y="0">eerslic</tspan><tspan y="0" letter-spacing="-0.005em">h</tspan><tspan y="0" letter-spacing="-0.007em">t</tspan><tspan y="0">en</tspan></text><text transform="translate(-1314.358 -16825.123) rotate(90)" fill="#1a1818" font-size="5.417" font-family="CenturyGothic, Century Gothic"><tspan x="0" y="0">G</tspan><tspan y="0" letter-spacing="-0.015em">r</tspan><tspan y="0">oen</tspan></text><text transform="translate(-1338.63 -16857.385) rotate(90)" fill="#1a1818" font-size="5.417" font-family="CenturyGothic, Century Gothic"><tspan x="0" y="0">Openbaa</tspan></text><text transform="translate(-1338.631 -16831.064) rotate(90)" fill="#1a1818" font-size="5.417" font-family="CenturyGothic, Century Gothic"><tspan x="0" y="0" letter-spacing="-0.024em">r</tspan><tspan y="0"> </tspan></text><text transform="translate(-1338.63 -16828.205) rotate(90)" fill="#1a1818" font-size="5.417" font-family="CenturyGothic, Century Gothic"><tspan x="0" y="0" letter-spacing="-0.012em">v</tspan><tspan y="0">er</tspan><tspan y="0" letter-spacing="-0.012em">v</tspan><tspan y="0">oer</tspan></text><path d="M614.857,729.106A11.512,11.512,0,1,0,603.715,717.6a11.328,11.328,0,0,0,11.142,11.506" transform="translate(-2029.537 -17587.912)" fill="#3a5121"/><text transform="translate(-1419.753 -16861.785)" fill="#fff" font-size="2.318" font-family="DaxOT, Dax OT"><tspan x="0" y="0">Gemengd</tspan></text><path d="M619.337,717.333a.2.2,0,0,0-.2.2v2.9a.2.2,0,0,0,.394,0v-2.9a.2.2,0,0,0-.2-.2" transform="translate(-2029.537 -17587.912)" fill="#fff"/><text transform="translate(-1288.764 -16854.602) rotate(90)" fill="#1a1818" font-size="5.417" font-family="CenturyGothic, Century Gothic"><tspan x="0" y="0">Speciaal ka</tspan><tspan y="0" letter-spacing="-0.01em">r</tspan><tspan y="0">ak</tspan><tspan y="0" letter-spacing="-0.007em">t</tspan><tspan y="0">er</tspan></text><path d="M619.219,716.663H618.6a2.819,2.819,0,0,0-.233,1.534c.006.178.012.361.009.553a.255.255,0,0,0,.251.259h.005a.255.255,0,0,0,.254-.251c0-.205,0-.394-.01-.578a1.931,1.931,0,0,1,.347-1.517" transform="translate(-2029.537 -17587.912)" fill="#fff"/><path d="M620.088,716.663h-.549a5.51,5.51,0,0,1,.262,2.582.254.254,0,0,0,.235.273h.019a.255.255,0,0,0,.255-.235,8.074,8.074,0,0,0-.082-2.078,4.038,4.038,0,0,0-.14-.542" transform="translate(-2029.537 -17587.912)" fill="#fff"/><path d="M620.281,716.095h-1.889a4.469,4.469,0,0,1,.187-1.534c.019-.053.038-.1.059-.152v1.459h0v.075h1.379v-.075h0v-1.48c.024.056.048.115.069.177a4.4,4.4,0,0,1,.19,1.53m.651,0h-.17c.035-1.315-.31-2.314-.934-2.687a.941.941,0,0,0-.991,0c-.619.37-.962,1.369-.926,2.687h-.17a.2.2,0,0,0,0,.393h3.191a.2.2,0,1,0,0-.393" transform="translate(-2029.537 -17587.912)" fill="#fff"/><path d="M619.337,711.694a.7.7,0,1,1-.7.7.7.7,0,0,1,.7-.7" transform="translate(-2029.537 -17587.912)" fill="#fff"/><path d="M608.466,718.906c0,.011,0,.023,0,.034V720a.449.449,0,0,0,.447.447h.369a.45.45,0,0,0,.448-.447v-.33h-.945c-.106,0-.227-.337-.318-.764" transform="translate(-2029.537 -17587.912)" fill="#fff"/><path d="M615.912,718.905c-.091.427-.212.765-.318.765h-.945V720a.449.449,0,0,0,.448.447h.369a.448.448,0,0,0,.447-.447V718.94c0-.012,0-.024,0-.035" transform="translate(-2029.537 -17587.912)" fill="#fff"/><path d="M612.189,714.372h0c-1.408,0-1.911.027-2.27.249a4.568,4.568,0,0,0-.822,1.173l-.012.012a.2.2,0,0,0-.182-.125h-.664c-.249,0-.283.243-.283.376a.637.637,0,0,0,.005.084.214.214,0,0,0,.2.178h.287l.03,0h0c.134,0,.257.062.211.248a4.991,4.991,0,0,0-.329.792,4.468,4.468,0,0,0,.1,1.55c.091.427.213.764.319.764h6.809c.107,0,.228-.338.319-.764a4.446,4.446,0,0,0,.1-1.55,4.943,4.943,0,0,0-.327-.793c-.048-.185.075-.247.21-.247h0l.03,0h.287a.215.215,0,0,0,.2-.178s0-.03,0-.075v-.019c0-.134-.039-.366-.282-.366h-.664a.194.194,0,0,0-.182.125l-.012-.011a4.558,4.558,0,0,0-.822-1.174c-.359-.222-.863-.249-2.27-.249m-.331.448h.66a3.883,3.883,0,0,1,1.7.182,5.934,5.934,0,0,1,.748,1.151,18.143,18.143,0,0,1-5.563,0,5.844,5.844,0,0,1,.759-1.16,3.957,3.957,0,0,1,1.692-.174m2.694,3.009a.855.855,0,0,1-.4-.053c-.077-.086.069-.562.556-.873a1.133,1.133,0,0,1,.474-.155.184.184,0,0,1,.142.049c.118.135.211.729.02.892a1.677,1.677,0,0,1-.8.14m-4.726,0a1.682,1.682,0,0,1-.8-.14c-.191-.163-.1-.757.02-.892a.184.184,0,0,1,.142-.049,1.133,1.133,0,0,1,.475.155c.487.311.633.787.556.873a.861.861,0,0,1-.4.053m1.532,1.059c-.339,0-.537-.1-.577-.224s.05-.223.2-.223H613.4c.15,0,.24.1.2.223s-.229.224-.577.224Z" transform="translate(-2029.537 -17587.912)" fill="#fff"/><path d="M639.963,729.032a11.512,11.512,0,1,0-11.143-11.506,11.327,11.327,0,0,0,11.143,11.506" transform="translate(-2029.537 -17587.912)" fill="#3a5121"/><text transform="translate(-1391.614 -16861.857)" fill="#fff" font-size="2.318" font-family="DaxOT, Dax OT"><tspan x="0" y="0" letter-spacing="-0.027em">W</tspan><tspan y="0">el</tspan></text><path d="M635.245,721.3c0,.014,0,.027,0,.041v1.271a.539.539,0,0,0,.539.537h.443a.54.54,0,0,0,.539-.537v-.4h-1.136c-.128,0-.274-.405-.383-.917" transform="translate(-2029.537 -17587.912)" fill="#fff"/><path d="M644.2,721.3c-.109.512-.255.918-.384.918h-1.135v.4a.54.54,0,0,0,.539.536h.443a.54.54,0,0,0,.539-.536v-1.271c0-.014,0-.028,0-.042" transform="translate(-2029.537 -17587.912)" fill="#fff"/><path d="M639.723,715.864h0c-1.693,0-2.3.032-2.73.3a5.46,5.46,0,0,0-.989,1.407l-.014.014a.236.236,0,0,0-.219-.15h-.8c-.3,0-.34.291-.34.45h0a.774.774,0,0,0,.006.1.256.256,0,0,0,.246.213h.344l.036,0h0c.162,0,.31.074.254.3a6.032,6.032,0,0,0-.4.952,5.342,5.342,0,0,0,.123,1.86c.109.512.255.917.383.917h8.19c.128,0,.274-.406.384-.918a5.305,5.305,0,0,0,.121-1.859,5.85,5.85,0,0,0-.394-.952c-.057-.222.092-.3.253-.3h0l.036,0h.345a.255.255,0,0,0,.245-.213.84.84,0,0,0,.006-.09v-.022c0-.161-.048-.44-.339-.44h-.8a.235.235,0,0,0-.219.15l-.015-.013a5.4,5.4,0,0,0-.989-1.408c-.431-.268-1.037-.3-2.73-.3m-.4.538h.794a4.673,4.673,0,0,1,2.05.218,7.109,7.109,0,0,1,.9,1.382,21.955,21.955,0,0,1-6.692,0,7.063,7.063,0,0,1,.913-1.393,4.776,4.776,0,0,1,2.035-.208m3.24,3.611a1.045,1.045,0,0,1-.476-.064c-.092-.1.083-.675.669-1.048a1.364,1.364,0,0,1,.571-.186.22.22,0,0,1,.171.059c.141.162.254.874.023,1.07a2.025,2.025,0,0,1-.958.169m-5.684,0a2.031,2.031,0,0,1-.958-.169c-.23-.2-.118-.908.023-1.07a.223.223,0,0,1,.172-.059,1.359,1.359,0,0,1,.57.186c.586.373.762.944.669,1.048a1.045,1.045,0,0,1-.476.064m1.843,1.27c-.408,0-.645-.12-.694-.269s.06-.268.24-.268h2.907c.18,0,.287.121.239.268s-.276.269-.694.269Z" transform="translate(-2029.537 -17587.912)" fill="#fff"/><text transform="translate(-1391.194 -16873.549)" fill="#fff" font-size="5.794" font-family="DaxOT, Dax OT"><tspan x="0" y="0">P</tspan></text><text transform="translate(-1388.088 -16831.389) rotate(90)" fill="#1a1818" font-size="5.417" font-family="CenturyGothic, Century Gothic"><tspan x="0" y="0" letter-spacing="-0.017em">P</tspan><tspan y="0">ar</tspan><tspan y="0" letter-spacing="-0.026em">k</tspan><tspan y="0">e</tspan><tspan y="0" letter-spacing="-0.016em">r</tspan><tspan y="0">en</tspan></text><path d="M541.3,729.084a11.512,11.512,0,1,0-11.142-11.506A11.328,11.328,0,0,0,541.3,729.084" transform="translate(-2029.537 -17587.912)" fill="#3a5121"/><path d="M548.157,720.694h-.576l-.007-.007v-.9l.007-.008h.576l.008.008v.9Zm-1.762,0h-.577l-.008-.007v-.9l.008-.008h.577l.008.008v.9Zm-.843,0h-.579l-.007-.007v-.9l.007-.008h.579l.007.008v.9Zm-2.192-2.479h-.553l-.007-.007v-.649a.291.291,0,0,1,.238-.294.278.278,0,0,1,.322.27Zm-1.047,0h-.551l-.008-.007v-.653a.288.288,0,0,1,.24-.291.277.277,0,0,1,.318.271v.68Zm-1.9,2.479h-.577l-.007-.007v-.907h.584l.008.008v.9Zm-1.746-2.587h-.584l-.007-.007v-.9l.007-.008h.577l.007.008Zm0,1.129h-.584l-.007-.008v-.9l.007-.007h.577l.007.007Zm-.851-1.129h-.576l-.008-.007v-.9l.008-.008h.576l.007.008v.9Zm0,1.129h-.576l-.008-.008v-.9l.008-.007h.576l.007.007v.9Zm-1.945,0h-.585l-.008-.008v-.9l.008-.007h.577l.008.007Zm-.851,0h-.578l-.008-.008v-.9l.008-.007h.578l.007.007v.9Zm12.414-1.021h-1.751l0,0-1.291,1.048-.012-.005v-2.394h-.03l-1.493-4.877v-.915l.007-.007h.279a.056.056,0,1,0,0-.112h-.279l-.007-.007v-.308a.058.058,0,0,0-.115,0v.308l-.007.007h-.278a.056.056,0,1,0,0,.112h.278l.007.007v.915l-1.492,4.876v.77l-.007.007h-1.205l-.006,0-.676,1.152-.014,0v-1.688l0-.005-1.462-1.78-.005,0h-2.555l-.005,0-1.462,1.78,0,.005v5.145l.008.008h8.129l.008-.007v-2.1a.687.687,0,0,1,.653-.678h0a.686.686,0,0,1,.653.678v2.1l.008.007h5.429l.008-.007v-2.972l0-.006-1.3-1.056Z" transform="translate(-2029.537 -17587.912)" fill="#fff"/><text transform="translate(-1490.923 -16861.859)" fill="#fff" font-size="2.318" font-family="DaxOT, Dax OT"><tspan x="0" y="0">Dorps</tspan></text><path d="M565.536,729.084a11.512,11.512,0,1,0-11.142-11.507,11.328,11.328,0,0,0,11.142,11.507" transform="translate(-2029.537 -17587.912)" fill="#3a5121"/><text transform="translate(-1467.547 -16863.217)" fill="#fff" font-size="2.318" font-family="DaxOT, Dax OT"><tspan x="0" y="0">Horeca</tspan></text><path d="M566.259,709.738l-.283.528-.038.068a.289.289,0,0,1-.165.138l-.136.035-.6,1.263a.172.172,0,0,1-.244.076l-.014-.01a.179.179,0,0,1-.058-.252l.775-1.163-.038-.138a.289.289,0,0,1,.035-.213l.038-.069.309-.515a.053.053,0,0,1,.06-.023.055.055,0,0,1,.03.077l-.269.5a.035.035,0,0,0,.013.047.035.035,0,0,0,.045-.013l.291-.486a.052.052,0,0,1,.06-.023.055.055,0,0,1,.03.077s-.207.386-.268.5a.034.034,0,0,0,.012.046.036.036,0,0,0,.046-.013c.065-.107.291-.486.291-.486a.052.052,0,0,1,.08-.013.044.044,0,0,1,0,.066m-.928.764-.133.2-.077-.159-.038.021a.2.2,0,0,1-.294-.1l-.288-.749a.2.2,0,0,1,.086-.247.064.064,0,0,1,.085.021l.4.618Zm.1.665.143-.3.468.718a.177.177,0,0,1-.057.252l-.015.01a.174.174,0,0,1-.244-.077Zm5.18.267v-1.541c0-.3-.128-.573-.295-.573h-9.863c-.154,0-.295.249-.295.573v1.541c.013.324.141.572.295.572h9.863c.154,0,.295-.248.295-.572" transform="translate(-2029.537 -17587.912)" fill="#fff"/><path d="M569.9,715.865a.759.759,0,0,1-.73-.52l-.038-.177-.384-1.537h1.2l.384,1.537.039.177c.076.287-.142.52-.475.52m-1.652-.52c.064.287-.18.52-.512.52a.7.7,0,0,1-.692-.52l-.026-.177-.256-1.537h1.2l.256,1.537Zm-2.267.011a.609.609,0,0,1-1.2,0v-1.725h1.2v1.725Zm-1.973-1.725-.256,1.537-.026.177a.7.7,0,0,1-.692.52.463.463,0,0,1-.513-.52l.026-.177.257-1.537Zm-2.024,0-.384,1.537-.039.177a.759.759,0,0,1-.73.52c-.333,0-.551-.233-.474-.52l.039-.177.383-1.537Zm-.3,3.784a.265.265,0,0,1,.261-.265h3.284a.265.265,0,0,1,.261.265V719.3a.264.264,0,0,1-.261.264h-3.284a.264.264,0,0,1-.261-.264Zm9.729-2.269-.794-1.9a.156.156,0,0,1-.013-.064v-.52a.28.28,0,0,0-.295-.254h-9.863a.281.281,0,0,0-.295.254v.565a.154.154,0,0,1-.013.063l-.769,1.86a.4.4,0,0,0,.321.5.607.607,0,0,0,.275.026.213.213,0,0,1,.263.182v4.889a.28.28,0,0,0,.295.255h6.06a.2.2,0,0,0,.216-.187v-3.739a.2.2,0,0,1,.217-.187h1.924a.2.2,0,0,1,.216.187v3.739a.2.2,0,0,0,.217.187h.949a.28.28,0,0,0,.295-.255v-4.883a.21.21,0,0,1,.245-.185.636.636,0,0,0,.241-.029c.244-.077.4-.3.308-.5" transform="translate(-2029.537 -17587.912)" fill="#fff"/><path d="M689.284,729.032a11.512,11.512,0,1,0-11.143-11.507,11.328,11.328,0,0,0,11.143,11.507" transform="translate(-2029.537 -17587.912)" fill="#3a5121"/><path d="M682.991,716.56a.378.378,0,0,0-.386.386V718.1a.378.378,0,0,0,.386.386h12.585a.378.378,0,0,0,.386-.386v-1.159a.378.378,0,0,0-.386-.386Z" transform="translate(-2029.537 -17587.912)" fill="#fff"/><path d="M664.2,729.032a11.512,11.512,0,1,0-11.142-11.506A11.328,11.328,0,0,0,664.2,729.032" transform="translate(-2029.537 -17587.912)" fill="#3a5121"/><text transform="translate(-1342.856 -16863.627)" fill="#fff" font-size="2.318" font-family="DaxOT, Dax OT"><tspan x="0" y="0">Ni</tspan><tspan y="0" letter-spacing="-0.003em">e</tspan><tspan y="0">t</tspan></text><path d="M658.214,716.81a.378.378,0,0,0-.386.386v1.159a.379.379,0,0,0,.386.387H670.8a.378.378,0,0,0,.386-.387V717.2a.378.378,0,0,0-.386-.386Z" transform="translate(-2029.537 -17587.912)" fill="#fff"/><path d="M713.523,729.106A11.512,11.512,0,1,0,702.38,717.6a11.327,11.327,0,0,0,11.143,11.506" transform="translate(-2029.537 -17587.912)" fill="#3a5121"/><text transform="translate(-1367.716 -16861.912)" fill="#fff" font-size="2.318" font-family="DaxOT, Dax OT"><tspan x="0" y="0">Ni</tspan><tspan y="0" letter-spacing="-0.003em">e</tspan><tspan y="0">t</tspan></text><text transform="translate(-1319.704 -16861.836)" fill="#fff" font-size="2.318" font-family="DaxOT, Dax OT"><tspan x="0" y="0">Bomen</tspan></text><path d="M718.408,720.614h-1.937v-2.02h.761a1.374,1.374,0,0,0,1.381-1.367,1.357,1.357,0,0,1-.115-1.368,5.987,5.987,0,0,0-2.456-2.165c-.02,0-.04,0-.06,0a2.307,2.307,0,0,1,.405,1.312,2.36,2.36,0,0,1-2.37,2.346h-.733a1.377,1.377,0,0,0,1.376,1.239h.851v2.02H712.5V717.05h1.518a2.054,2.054,0,0,0,2.062-2.041,2.012,2.012,0,0,0-.437-1.257,2.136,2.136,0,0,0-.375-.366l-.053-.041-.007-.065a2.042,2.042,0,0,0-1.251-1.676l-.092-.037,0-.1a2.043,2.043,0,0,0-2.06-1.974,2.067,2.067,0,0,0-1.883,1.21l-.036.078-.084.011a2.053,2.053,0,0,0-1.783,2.021,2,2,0,0,0,.2.875l.038.08-.051.072a2.018,2.018,0,0,0-.371,1.167,2.055,2.055,0,0,0,2.062,2.041h1.375v3.564h-3.231a.2.2,0,1,0,0,.407h10.372a.2.2,0,1,0,0-.407" transform="translate(-2029.537 -17587.912)" fill="#fff"/><path d="M716.869,721.284h-7.3a.2.2,0,1,0,0,.407h7.3a.2.2,0,1,0,0-.407" transform="translate(-2029.537 -17587.912)" fill="#fff"/><path d="M738.062,729.032a11.512,11.512,0,1,0-11.142-11.507,11.328,11.328,0,0,0,11.142,11.507" transform="translate(-2029.537 -17587.912)" fill="#3a5121"/><path d="M731.77,716.56a.378.378,0,0,0-.386.386V718.1a.378.378,0,0,0,.386.386h12.585a.378.378,0,0,0,.386-.386v-1.159a.378.378,0,0,0-.386-.386Z" transform="translate(-2029.537 -17587.912)" fill="#fff"/><text transform="translate(-1293.716 -16863.627)" fill="#fff" font-size="2.318" font-family="DaxOT, Dax OT"><tspan x="0" y="0">Ni</tspan><tspan y="0" letter-spacing="-0.003em">e</tspan><tspan y="0">t</tspan></text><path d="M590.919,729.106A11.512,11.512,0,1,0,579.777,717.6a11.328,11.328,0,0,0,11.142,11.507" transform="translate(-2029.537 -17587.912)" fill="#3a5121"/><path d="M597.377,718.183a.426.426,0,0,1-.423.428h-.963a.425.425,0,0,1-.422-.428V717.1a.426.426,0,0,1,.422-.429h.963a.427.427,0,0,1,.423.429Zm-4.142,0a.426.426,0,0,1-.422.428h-.963a.426.426,0,0,1-.423-.428V717.1a.427.427,0,0,1,.423-.429h.963a.427.427,0,0,1,.422.429Zm4.964,1.785v-4.3a.315.315,0,0,0-.312-.317h-6.928a.315.315,0,0,0-.312.317v4.3a.314.314,0,0,0,.312.316h2.54a.313.313,0,0,0,.312-.316v-2.33a.1.1,0,0,1,.1-.1h.96a.1.1,0,0,1,.1.1v2.33a.314.314,0,0,0,.312.316h2.608a.314.314,0,0,0,.312-.316" transform="translate(-2029.537 -17587.912)" fill="#fff"/><path d="M591,713.653v-1.66a.315.315,0,0,1,.312-.317h.563a.314.314,0,0,1,.312.317v.61a.1.1,0,0,0,.157.08l1.95-1.475a.212.212,0,0,1,.259,0l4.276,3.238a.219.219,0,0,1-.122.4h-7.967c-.2,0-.583-.5-.418-.624l.639-.482a.1.1,0,0,0,.039-.08" transform="translate(-2029.537 -17587.912)" fill="#fff"/><path d="M583.237,713.053h6.748a.206.206,0,0,0,.2-.206v-.555a.207.207,0,0,0-.2-.206h-6.748a.207.207,0,0,0-.2.206v.555a.213.213,0,0,0,.2.206" transform="translate(-2029.537 -17587.912)" fill="#fff"/><path d="M589.706,716.177a.536.536,0,0,1-.5-.421l-.026-.143-.263-1.244h.824l.263,1.244.026.143a.326.326,0,0,1-.324.421m-1.131-.421a.346.346,0,0,1-.351.421.5.5,0,0,1-.473-.421l-.017-.143-.176-1.244h.824l.176,1.244Zm-1.551.009a.412.412,0,1,1-.824,0v-1.4h.824v1.4Zm-1.35-1.4-.175,1.244-.017.143a.5.5,0,0,1-.474.421.35.35,0,0,1-.35-.421l.017-.143.175-1.244Zm-1.379,2.848h2.181a.214.214,0,0,1,.211.214v1.524a.213.213,0,0,1-.211.214h-2.181a.213.213,0,0,1-.211-.214v-1.524a.214.214,0,0,1,.211-.214m-.006-2.848-.263,1.244-.026.143a.535.535,0,0,1-.5.421.327.327,0,0,1-.324-.421l.027-.143.262-1.244Zm6.451,1.226-.544-1.542a.17.17,0,0,1-.008-.051v-.421a.205.205,0,0,0-.2-.206h-6.749a.207.207,0,0,0-.2.206v.457a.17.17,0,0,1-.008.051l-.527,1.506a.331.331,0,0,0,.22.4.359.359,0,0,0,.187.02.152.152,0,0,1,.181.148v3.958a.206.206,0,0,0,.2.206h4.147a.149.149,0,0,0,.147-.152v-3.026a.151.151,0,0,1,.149-.152h1.316a.15.15,0,0,1,.148.152v3.026a.15.15,0,0,0,.148.152h.65a.2.2,0,0,0,.2-.206V716.17a.151.151,0,0,1,.168-.149.389.389,0,0,0,.166-.023.325.325,0,0,0,.21-.4" transform="translate(-2029.537 -17587.912)" fill="#fff"/><text transform="translate(-1444.369 -16863.553)" fill="#fff" font-size="2.318" font-family="DaxOT, Dax OT"><tspan x="0" y="0">Combinatie</tspan></text></g></svg>