<svg xmlns="http://www.w3.org/2000/svg" width="219.068" height="100.742" viewBox="0 0 219.068 100.742"><g transform="translate(15477.372 13752.297)"><line y2="3.057" transform="translate(-15466.229 -13729.917)" fill="none" stroke="#1a1818" stroke-miterlimit="10" stroke-width="1.019"/><line y2="62.396" transform="translate(-15466.229 -13720.291)" fill="none" stroke="#1a1818" stroke-miterlimit="10" stroke-width="1.019" stroke-dasharray="6.568 6.568"/><line y2="3.057" transform="translate(-15466.229 -13654.611)" fill="none" stroke="#1a1818" stroke-miterlimit="10" stroke-width="1.019"/><line y2="3.057" transform="translate(-15441.785 -13729.917)" fill="none" stroke="#1a1818" stroke-miterlimit="10" stroke-width="1.019"/><line y2="62.396" transform="translate(-15441.785 -13720.291)" fill="none" stroke="#1a1818" stroke-miterlimit="10" stroke-width="1.019" stroke-dasharray="6.568 6.568"/><line y2="3.057" transform="translate(-15441.785 -13654.611)" fill="none" stroke="#1a1818" stroke-miterlimit="10" stroke-width="1.019"/><line y2="3.057" transform="translate(-15416.745 -13729.917)" fill="none" stroke="#1a1818" stroke-miterlimit="10" stroke-width="1.019"/><line y2="62.396" transform="translate(-15416.745 -13720.291)" fill="none" stroke="#1a1818" stroke-miterlimit="10" stroke-width="1.019" stroke-dasharray="6.568 6.568"/><line y2="3.057" transform="translate(-15416.745 -13654.611)" fill="none" stroke="#1a1818" stroke-miterlimit="10" stroke-width="1.019"/><line y2="3.057" transform="translate(-15392.234 -13729.917)" fill="none" stroke="#1a1818" stroke-miterlimit="10" stroke-width="1.019"/><line y2="62.396" transform="translate(-15392.234 -13720.291)" fill="none" stroke="#1a1818" stroke-miterlimit="10" stroke-width="1.019" stroke-dasharray="6.568 6.568"/><line y2="3.057" transform="translate(-15392.234 -13654.611)" fill="none" stroke="#1a1818" stroke-miterlimit="10" stroke-width="1.019"/><line y2="3.057" transform="translate(-15367.79 -13729.917)" fill="none" stroke="#1a1818" stroke-miterlimit="10" stroke-width="1.019"/><line y2="62.396" transform="translate(-15367.79 -13720.291)" fill="none" stroke="#1a1818" stroke-miterlimit="10" stroke-width="1.019" stroke-dasharray="6.568 6.568"/><line y2="3.057" transform="translate(-15367.79 -13654.611)" fill="none" stroke="#1a1818" stroke-miterlimit="10" stroke-width="1.019"/><line y2="3.057" transform="translate(-15342.749 -13729.917)" fill="none" stroke="#1a1818" stroke-miterlimit="10" stroke-width="1.019"/><line y2="62.396" transform="translate(-15342.749 -13720.291)" fill="none" stroke="#1a1818" stroke-miterlimit="10" stroke-width="1.019" stroke-dasharray="6.568 6.568"/><line y2="3.057" transform="translate(-15342.749 -13654.611)" fill="none" stroke="#1a1818" stroke-miterlimit="10" stroke-width="1.019"/><line y2="3.057" transform="translate(-15318.546 -13729.917)" fill="none" stroke="#1a1818" stroke-miterlimit="10" stroke-width="1.019"/><line y2="62.396" transform="translate(-15318.546 -13720.291)" fill="none" stroke="#1a1818" stroke-miterlimit="10" stroke-width="1.019" stroke-dasharray="6.568 6.568"/><line y2="3.057" transform="translate(-15318.546 -13654.611)" fill="none" stroke="#1a1818" stroke-miterlimit="10" stroke-width="1.019"/><line y2="3.057" transform="translate(-15294.101 -13729.917)" fill="none" stroke="#1a1818" stroke-miterlimit="10" stroke-width="1.019"/><line y2="62.396" transform="translate(-15294.101 -13720.291)" fill="none" stroke="#1a1818" stroke-miterlimit="10" stroke-width="1.019" stroke-dasharray="6.568 6.568"/><line y2="3.057" transform="translate(-15294.101 -13654.611)" fill="none" stroke="#1a1818" stroke-miterlimit="10" stroke-width="1.019"/><line y2="3.057" transform="translate(-15269.061 -13729.917)" fill="none" stroke="#1a1818" stroke-miterlimit="10" stroke-width="1.019"/><line y2="62.396" transform="translate(-15269.061 -13720.291)" fill="none" stroke="#1a1818" stroke-miterlimit="10" stroke-width="1.019" stroke-dasharray="6.568 6.568"/><line y2="3.057" transform="translate(-15269.061 -13654.611)" fill="none" stroke="#1a1818" stroke-miterlimit="10" stroke-width="1.019"/><text transform="translate(-15463.622 -13696.853) rotate(90)" fill="#1a1818" font-size="5.417" font-family="CenturyGothic, Century Gothic"><tspan x="0" y="0" letter-spacing="-0.01em">T</tspan><tspan y="0">ype omg</tspan><tspan y="0" letter-spacing="-0.009em">e</tspan><tspan y="0">ving </tspan></text><text transform="translate(-15439.842 -13702.831) rotate(90)" fill="#1a1818" font-size="5.417" font-family="CenturyGothic, Century Gothic"><tspan x="0" y="0" letter-spacing="-0.042em">V</tspan><tspan y="0">erblijf</tspan><tspan y="0" letter-spacing="0.007em">s</tspan><tspan y="0">aanleiding</tspan></text><text transform="translate(-15414.796 -13697.263) rotate(90)" fill="#1a1818" font-size="5.417" font-family="CenturyGothic, Century Gothic"><tspan x="0" y="0" letter-spacing="-0.007em">F</tspan><tspan y="0">un</tspan><tspan y="0" letter-spacing="0.01em">c</tspan><tspan y="0">tie</tspan><tspan y="0" letter-spacing="-0.016em"> </tspan><tspan y="0" letter-spacing="-0.019em">w</tspan><tspan y="0">anden</tspan></text><text transform="translate(-15389.829 -13686.6) rotate(90)" fill="#1a1818" font-size="5.417" font-family="CenturyGothic, Century Gothic"><tspan x="0" y="0">Au</tspan><tspan y="0" letter-spacing="-0.007em">t</tspan><tspan y="0">o en fi</tspan><tspan y="0" letter-spacing="-0.006em">e</tspan><tspan y="0">ts</tspan></text><text transform="translate(-15340.604 -13694.133) rotate(90)" fill="#1a1818" font-size="5.417" font-family="CenturyGothic, Century Gothic"><tspan x="0" y="0" letter-spacing="-0.042em">V</tspan><tspan y="0">er</tspan><tspan y="0" letter-spacing="-0.026em">k</tspan><tspan y="0">eerslic</tspan><tspan y="0" letter-spacing="-0.005em">h</tspan><tspan y="0" letter-spacing="-0.007em">t</tspan><tspan y="0">en</tspan></text><text transform="translate(-15316.537 -13704.162) rotate(90)" fill="#1a1818" font-size="5.417" font-family="CenturyGothic, Century Gothic"><tspan x="0" y="0">Openbaa</tspan></text><text transform="translate(-15316.536 -13675.68) rotate(90)" fill="#1a1818" font-size="5.417" font-family="CenturyGothic, Century Gothic"><tspan x="0" y="0" letter-spacing="-0.024em">r</tspan><tspan y="0"> </tspan></text><text transform="translate(-15316.536 -13672.585) rotate(90)" fill="#1a1818" font-size="5.417" font-family="CenturyGothic, Century Gothic"><tspan x="0" y="0" letter-spacing="-0.012em">v</tspan><tspan y="0">er</tspan><tspan y="0" letter-spacing="-0.012em">v</tspan><tspan y="0">oer</tspan></text><text transform="translate(-15266.665 -13701.148) rotate(90)" fill="#1a1818" font-size="5.417" font-family="CenturyGothic, Century Gothic"><tspan x="0" y="0">Speciaal ka</tspan><tspan y="0" letter-spacing="-0.01em">r</tspan><tspan y="0">ak</tspan><tspan y="0" letter-spacing="-0.007em">t</tspan><tspan y="0">er</tspan></text><text transform="translate(-15292.258 -13669.25) rotate(90)" fill="#1a1818" font-size="5.417" font-family="CenturyGothic, Century Gothic"><tspan x="0" y="0">G</tspan><tspan y="0" letter-spacing="-0.015em">r</tspan><tspan y="0">oen</tspan></text><text transform="translate(-15365.985 -13676.021) rotate(90)" fill="#1a1818" font-size="5.417" font-family="CenturyGothic, Century Gothic"><tspan x="0" y="0" letter-spacing="-0.017em">P</tspan><tspan y="0">ar</tspan><tspan y="0" letter-spacing="-0.026em">k</tspan><tspan y="0">e</tspan><tspan y="0" letter-spacing="-0.016em">r</tspan><tspan y="0">en</tspan></text><path d="M614.714,729.172a11.512,11.512,0,1,0-11.142-11.506,11.328,11.328,0,0,0,11.142,11.506" transform="translate(-16007.685 -14447.914)" fill="#3a5121"/><text transform="translate(-15398.043 -13721.721)" fill="#fff" font-size="2.318" font-family="DaxOT, Dax OT"><tspan x="0" y="0">Gemengd</tspan></text><path d="M619.193,717.4a.2.2,0,0,0-.2.2v2.9a.2.2,0,0,0,.394,0v-2.9a.2.2,0,0,0-.2-.2" transform="translate(-16007.685 -14447.914)" fill="#fff"/><path d="M619.075,716.729h-.622a2.82,2.82,0,0,0-.233,1.534c.006.178.012.361.009.553a.255.255,0,0,0,.251.259h0a.255.255,0,0,0,.255-.251c0-.2,0-.394-.009-.578a1.93,1.93,0,0,1,.345-1.517" transform="translate(-16007.685 -14447.914)" fill="#fff"/><path d="M619.945,716.729H619.4a5.51,5.51,0,0,1,.262,2.582.256.256,0,0,0,.235.274h.019a.256.256,0,0,0,.255-.236,8.029,8.029,0,0,0-.082-2.078,4.041,4.041,0,0,0-.14-.542" transform="translate(-16007.685 -14447.914)" fill="#fff"/><path d="M620.138,716.161h-1.889a4.469,4.469,0,0,1,.187-1.534c.019-.053.038-.1.058-.152v1.459h0v.075h1.379v-.075h0v-1.48c.024.056.048.115.069.177a4.4,4.4,0,0,1,.19,1.53m.651,0h-.17c.035-1.315-.31-2.314-.934-2.687a.941.941,0,0,0-.991,0c-.619.37-.962,1.369-.926,2.687h-.17a.2.2,0,0,0,0,.394h3.191a.2.2,0,1,0,0-.394" transform="translate(-16007.685 -14447.914)" fill="#fff"/><path d="M619.193,711.76a.7.7,0,1,1-.7.7.7.7,0,0,1,.7-.7" transform="translate(-16007.685 -14447.914)" fill="#fff"/><path d="M608.322,718.972v1.094a.449.449,0,0,0,.447.447h.369a.45.45,0,0,0,.448-.447v-.33h-.945c-.106,0-.227-.337-.318-.764" transform="translate(-16007.685 -14447.914)" fill="#fff"/><path d="M615.769,718.971c-.091.427-.212.765-.318.765h-.945v.329a.45.45,0,0,0,.448.448h.369a.449.449,0,0,0,.447-.448v-1.059c0-.011,0-.023,0-.035" transform="translate(-16007.685 -14447.914)" fill="#fff"/><path d="M612.045,714.438h0c-1.407,0-1.91.027-2.27.249a4.6,4.6,0,0,0-.821,1.173l-.012.012a.2.2,0,0,0-.182-.125H608.1c-.249,0-.283.243-.283.375h0a.637.637,0,0,0,.005.084.213.213,0,0,0,.2.177h.287l.03,0h0c.134,0,.257.061.211.248a4.954,4.954,0,0,0-.329.792,4.45,4.45,0,0,0,.1,1.55c.09.427.212.764.318.764h6.809c.107,0,.228-.338.319-.765a4.44,4.44,0,0,0,.1-1.549,4.947,4.947,0,0,0-.327-.793c-.048-.186.075-.247.21-.247h0l.03,0h.287a.214.214,0,0,0,.2-.177s0-.03,0-.075v-.019c0-.134-.039-.366-.282-.366h-.664a.194.194,0,0,0-.182.125l-.012-.011a4.5,4.5,0,0,0-.823-1.174c-.358-.222-.862-.249-2.27-.249m-.33.448h.66a3.891,3.891,0,0,1,1.7.181,5.989,5.989,0,0,1,.748,1.152,18.139,18.139,0,0,1-5.563,0,5.816,5.816,0,0,1,.759-1.16,3.94,3.94,0,0,1,1.692-.174m2.694,3.009a.869.869,0,0,1-.4-.053c-.077-.086.069-.562.556-.873a1.134,1.134,0,0,1,.474-.155.184.184,0,0,1,.142.049c.118.134.211.729.02.892a1.676,1.676,0,0,1-.8.14m-4.726,0a1.681,1.681,0,0,1-.8-.14c-.191-.163-.1-.758.02-.892a.184.184,0,0,1,.142-.049,1.133,1.133,0,0,1,.475.155c.487.311.633.787.556.873a.875.875,0,0,1-.4.053m1.532,1.059c-.339,0-.537-.1-.577-.224s.05-.223.2-.223h2.417c.15,0,.24.1.2.223s-.229.224-.577.224Z" transform="translate(-16007.685 -14447.914)" fill="#fff"/><path d="M639.819,729.172a11.512,11.512,0,1,0-11.142-11.506,11.328,11.328,0,0,0,11.142,11.506" transform="translate(-16007.685 -14447.914)" fill="#3a5121"/><path d="M635.1,721.444c0,.013,0,.027,0,.041v1.271a.539.539,0,0,0,.539.537h.443a.54.54,0,0,0,.539-.537v-.395h-1.136c-.128,0-.274-.405-.383-.917" transform="translate(-16007.685 -14447.914)" fill="#fff"/><text transform="translate(-15369.905 -13721.721)" fill="#fff" font-size="2.318" font-family="DaxOT, Dax OT"><tspan x="0" y="0" letter-spacing="-0.027em">W</tspan><tspan y="0">el</tspan></text><path d="M644.059,721.443c-.109.512-.255.918-.384.918H642.54v.395a.54.54,0,0,0,.539.536h.443a.54.54,0,0,0,.539-.536v-1.271c0-.014,0-.028,0-.042" transform="translate(-16007.685 -14447.914)" fill="#fff"/><path d="M639.58,716h0c-1.693,0-2.3.032-2.73.3a5.455,5.455,0,0,0-.989,1.408l-.014.014a.236.236,0,0,0-.219-.15h-.8c-.3,0-.339.291-.339.45h0a.772.772,0,0,0,.006.1.255.255,0,0,0,.245.213h.344l.036,0h0c.162,0,.311.073.254.3a5.912,5.912,0,0,0-.4.952,5.315,5.315,0,0,0,.122,1.86c.109.512.255.917.383.917h8.19c.128,0,.275-.406.384-.918a5.306,5.306,0,0,0,.121-1.859,5.848,5.848,0,0,0-.394-.952c-.057-.223.092-.3.253-.3h0l.036,0h.345a.256.256,0,0,0,.245-.213.6.6,0,0,0,.006-.09v-.022c0-.161-.048-.44-.339-.44h-.8a.235.235,0,0,0-.219.15l-.015-.014a5.4,5.4,0,0,0-.989-1.408c-.431-.267-1.037-.3-2.73-.3m-.4.538h.794a4.672,4.672,0,0,1,2.05.218,7.1,7.1,0,0,1,.9,1.381,21.911,21.911,0,0,1-6.692,0,7.065,7.065,0,0,1,.913-1.393,4.778,4.778,0,0,1,2.035-.208m3.24,3.61a1.042,1.042,0,0,1-.475-.063c-.093-.1.082-.676.668-1.048a1.365,1.365,0,0,1,.571-.186.219.219,0,0,1,.171.059c.141.161.254.874.023,1.07a2.027,2.027,0,0,1-.958.168m-5.684,0a2.025,2.025,0,0,1-.957-.168c-.231-.2-.119-.909.023-1.07a.219.219,0,0,1,.171-.059,1.36,1.36,0,0,1,.57.186c.586.372.762.944.669,1.048a1.047,1.047,0,0,1-.476.063m1.843,1.271c-.408,0-.645-.121-.694-.268s.06-.269.24-.269h2.907c.18,0,.287.121.239.269s-.276.268-.694.268Z" transform="translate(-16007.685 -14447.914)" fill="#fff"/><text transform="translate(-15369.485 -13733.411)" fill="#fff" font-size="5.794" font-family="DaxOT, Dax OT"><tspan x="0" y="0">P</tspan></text><path d="M738.758,738.258a.839.839,0,1,0-.839-.839.84.84,0,0,0,.839.839" transform="translate(-16007.685 -14447.914)" fill="#fff"/><path d="M738.758,738.258a.839.839,0,1,0-.839-.839A.84.84,0,0,0,738.758,738.258Z" transform="translate(-16007.685 -14447.914)" fill="none" stroke="#d3d5d6" stroke-miterlimit="15" stroke-width="0.127"/><path d="M565.393,729.023a11.512,11.512,0,1,0-11.142-11.507,11.329,11.329,0,0,0,11.142,11.507" transform="translate(-16007.685 -14447.914)" fill="#3a5121"/><text transform="translate(-15445.837 -13723.28)" fill="#fff" font-size="2.318" font-family="DaxOT, Dax OT"><tspan x="0" y="0">Horeca</tspan></text><path d="M566.115,709.677l-.283.527-.038.069a.29.29,0,0,1-.165.138l-.136.035-.6,1.263a.171.171,0,0,1-.243.076l-.015-.011a.178.178,0,0,1-.058-.251l.775-1.163-.038-.138a.293.293,0,0,1,.035-.214l.038-.068.309-.515a.051.051,0,0,1,.06-.023.054.054,0,0,1,.03.076l-.269.5a.033.033,0,1,0,.058.033l.291-.486a.054.054,0,0,1,.06-.023.055.055,0,0,1,.03.077s-.207.387-.268.5a.035.035,0,0,0,.013.046.037.037,0,0,0,.045-.013c.065-.107.291-.486.291-.486a.052.052,0,0,1,.08-.013.043.043,0,0,1,0,.066m-.928.764-.133.2-.077-.158-.038.021a.2.2,0,0,1-.293-.1l-.289-.749a.2.2,0,0,1,.086-.247.062.062,0,0,1,.085.021l.4.618Zm.1.664.143-.3.469.718a.178.178,0,0,1-.058.252l-.015.01a.173.173,0,0,1-.243-.076Zm5.181.268v-1.542c0-.3-.129-.572-.295-.572H560.3c-.154,0-.295.249-.295.572v1.542c.013.323.141.572.295.572h9.864c.153,0,.295-.249.295-.572" transform="translate(-16007.685 -14447.914)" fill="#fff"/><path d="M569.759,715.8a.758.758,0,0,1-.73-.52l-.038-.177-.384-1.536h1.2l.384,1.536.039.177c.076.288-.142.52-.475.52m-1.652-.52c.064.288-.18.52-.512.52a.7.7,0,0,1-.692-.52l-.026-.177-.256-1.536h1.2l.256,1.536Zm-2.267.011a.609.609,0,0,1-1.205,0v-1.724h1.205v1.724Zm-1.973-1.724-.257,1.536-.025.177a.7.7,0,0,1-.692.52.463.463,0,0,1-.513-.52l.026-.177.257-1.536Zm-2.024,0-.384,1.536-.039.177a.758.758,0,0,1-.73.52c-.333,0-.551-.232-.474-.52l.039-.177.383-1.536Zm-.3,3.783a.265.265,0,0,1,.261-.265h3.284a.265.265,0,0,1,.261.265v1.882a.264.264,0,0,1-.261.264H561.8a.264.264,0,0,1-.261-.264Zm9.729-2.269-.794-1.9a.157.157,0,0,1-.013-.064V712.6a.28.28,0,0,0-.295-.255h-9.863a.281.281,0,0,0-.3.255v.564a.173.173,0,0,1-.013.063l-.769,1.86a.4.4,0,0,0,.32.5.626.626,0,0,0,.276.025.213.213,0,0,1,.263.182v4.89a.279.279,0,0,0,.295.254h6.06a.2.2,0,0,0,.216-.187v-3.739a.2.2,0,0,1,.217-.187H568.8a.2.2,0,0,1,.216.187v3.739a.2.2,0,0,0,.217.187h.949a.28.28,0,0,0,.295-.254V715.8a.21.21,0,0,1,.245-.185.663.663,0,0,0,.242-.028c.243-.077.4-.3.307-.5" transform="translate(-16007.685 -14447.914)" fill="#fff"/><path d="M689.14,729.172A11.512,11.512,0,1,0,678,717.665a11.328,11.328,0,0,0,11.142,11.507" transform="translate(-16007.685 -14447.914)" fill="#3a5121"/><path d="M682.848,716.7a.378.378,0,0,0-.386.386v1.159a.378.378,0,0,0,.386.386h12.585a.378.378,0,0,0,.386-.386v-1.159a.378.378,0,0,0-.386-.386Z" transform="translate(-16007.685 -14447.914)" fill="#fff"/><path d="M664.058,729.172a11.512,11.512,0,1,0-11.142-11.506,11.328,11.328,0,0,0,11.142,11.506" transform="translate(-16007.685 -14447.914)" fill="#3a5121"/><text transform="translate(-15321.147 -13723.489)" fill="#fff" font-size="2.318" font-family="DaxOT, Dax OT"><tspan x="0" y="0">Ni</tspan><tspan y="0" letter-spacing="-0.003em">e</tspan><tspan y="0">t</tspan></text><path d="M658.07,716.95a.378.378,0,0,0-.386.386v1.159a.378.378,0,0,0,.386.386h12.585a.378.378,0,0,0,.386-.386v-1.159a.378.378,0,0,0-.386-.386Z" transform="translate(-16007.685 -14447.914)" fill="#fff"/><path d="M713.379,729.172a11.512,11.512,0,1,0-11.142-11.506,11.328,11.328,0,0,0,11.142,11.506" transform="translate(-16007.685 -14447.914)" fill="#3a5121"/><text transform="translate(-15346.007 -13721.773)" fill="#fff" font-size="2.318" font-family="DaxOT, Dax OT"><tspan x="0" y="0">Ni</tspan><tspan y="0" letter-spacing="-0.003em">e</tspan><tspan y="0">t</tspan></text><text transform="translate(-15297.995 -13721.773)" fill="#fff" font-size="2.318" font-family="DaxOT, Dax OT"><tspan x="0" y="0">Bomen</tspan></text><path d="M718.265,720.681h-1.937v-2.02h.761a1.373,1.373,0,0,0,1.38-1.367,1.357,1.357,0,0,1-.115-1.368,5.951,5.951,0,0,0-2.456-2.165c-.02,0-.039,0-.059,0a2.309,2.309,0,0,1,.4,1.312,2.36,2.36,0,0,1-2.37,2.346h-.732a1.376,1.376,0,0,0,1.375,1.239h.851v2.02h-3.012v-3.564h1.518a2.054,2.054,0,0,0,2.062-2.041,2,2,0,0,0-.437-1.257,2.067,2.067,0,0,0-.375-.366l-.053-.041-.007-.065a2.04,2.04,0,0,0-1.251-1.676l-.091-.037,0-.1a2.043,2.043,0,0,0-2.06-1.974,2.069,2.069,0,0,0-1.883,1.21l-.035.077-.085.012a2.052,2.052,0,0,0-1.782,2.021,2,2,0,0,0,.2.875l.039.08-.052.072a2.017,2.017,0,0,0-.37,1.167,2.054,2.054,0,0,0,2.063,2.041h1.373v3.564h-3.23a.2.2,0,1,0,0,.407h10.372a.2.2,0,1,0,0-.407" transform="translate(-16007.685 -14447.914)" fill="#fff"/><path d="M716.726,721.35h-7.295a.2.2,0,1,0,0,.407h7.295a.2.2,0,1,0,0-.407" transform="translate(-16007.685 -14447.914)" fill="#fff"/><path d="M541.455,729.172a11.512,11.512,0,1,0-11.142-11.506,11.328,11.328,0,0,0,11.142,11.506" transform="translate(-16007.685 -14447.914)" fill="#3a5121"/><path d="M548.389,720.721h-.342V719.53h.342Zm-.685,0h-.342V719.53h.342Zm-5.306-5.107h-1.027v-1.021H542.4Zm0,2.043h-1.027v-1.021H542.4Zm-2.568-2.043H538.8v-1.021h1.027Zm0,2.043H538.8v-1.021h1.027Zm8.37-.445-1.694,1.694v-3.633h-2.567V718h-.856v-4.086h-4.964v4.252l0-.034-2.106-2.566-2.684,2.668v3.511h1.883v-1.873h1.027v1.873h13.522v-2.971Z" transform="translate(-16007.685 -14447.914)" fill="#fff"/><path d="M590.776,729.172a11.512,11.512,0,1,0-11.142-11.507,11.328,11.328,0,0,0,11.142,11.507" transform="translate(-16007.685 -14447.914)" fill="#3a5121"/><path d="M597.234,718.25a.426.426,0,0,1-.423.428h-.963a.425.425,0,0,1-.422-.428v-1.082a.426.426,0,0,1,.422-.429h.963a.427.427,0,0,1,.423.429Zm-4.141,0a.427.427,0,0,1-.423.428h-.963a.426.426,0,0,1-.423-.428v-1.082a.427.427,0,0,1,.423-.429h.963a.428.428,0,0,1,.423.429Zm4.963,1.785v-4.3a.315.315,0,0,0-.312-.317h-6.928a.315.315,0,0,0-.312.317v4.3a.315.315,0,0,0,.312.316h2.54a.314.314,0,0,0,.312-.316v-2.33a.1.1,0,0,1,.1-.1h.96a.1.1,0,0,1,.1.1v2.33a.315.315,0,0,0,.312.316h2.608a.315.315,0,0,0,.312-.316" transform="translate(-16007.685 -14447.914)" fill="#fff"/><text transform="translate(-15470.286 -13721.721)" fill="#fff" font-size="2.318" font-family="DaxOT, Dax OT"><tspan x="0" y="0" letter-spacing="-0.015em">S</tspan><tspan y="0" letter-spacing="-0.007em">t</tspan><tspan y="0">edelijk</tspan></text><path d="M590.855,713.719v-1.66a.315.315,0,0,1,.312-.317h.563a.314.314,0,0,1,.312.317v.61a.1.1,0,0,0,.157.08l1.95-1.475a.213.213,0,0,1,.259,0l4.276,3.238a.219.219,0,0,1-.122.4H590.6c-.206,0-.584-.5-.419-.624l.639-.482a.1.1,0,0,0,.039-.08" transform="translate(-16007.685 -14447.914)" fill="#fff"/><path d="M583.094,713.119h6.748a.206.206,0,0,0,.2-.206v-.555a.207.207,0,0,0-.2-.206h-6.748a.207.207,0,0,0-.2.206v.555a.213.213,0,0,0,.2.206" transform="translate(-16007.685 -14447.914)" fill="#fff"/><path d="M589.562,716.243a.535.535,0,0,1-.5-.421l-.026-.143-.263-1.245h.824l.263,1.245.026.143a.326.326,0,0,1-.324.421m-1.131-.421a.346.346,0,0,1-.351.421.5.5,0,0,1-.473-.421l-.017-.143-.176-1.245h.824l.176,1.245Zm-1.551.009a.412.412,0,1,1-.824,0v-1.4h.824v1.4Zm-1.35-1.4-.175,1.245-.017.143a.5.5,0,0,1-.474.421.35.35,0,0,1-.35-.421l.017-.143.175-1.245Zm-1.379,2.849h2.181a.214.214,0,0,1,.211.215v1.523a.213.213,0,0,1-.211.214h-2.181a.213.213,0,0,1-.211-.214V717.5a.214.214,0,0,1,.211-.215m-.006-2.849-.263,1.245-.026.143a.535.535,0,0,1-.5.421.327.327,0,0,1-.324-.421l.027-.143.262-1.245Zm6.451,1.227-.544-1.542a.17.17,0,0,1-.008-.051v-.421a.206.206,0,0,0-.2-.206h-6.749a.207.207,0,0,0-.2.206v.457a.176.176,0,0,1-.008.051l-.527,1.506a.33.33,0,0,0,.22.4.358.358,0,0,0,.187.02.152.152,0,0,1,.181.148v3.958a.206.206,0,0,0,.2.206h4.147a.149.149,0,0,0,.147-.151v-3.027a.151.151,0,0,1,.149-.152h1.316a.15.15,0,0,1,.148.152v3.027a.15.15,0,0,0,.148.151h.65a.2.2,0,0,0,.2-.206v-3.954a.151.151,0,0,1,.168-.149.389.389,0,0,0,.166-.023.324.324,0,0,0,.21-.4" transform="translate(-16007.685 -14447.914)" fill="#fff"/><text transform="translate(-15422.659 -13723.489)" fill="#fff" font-size="2.318" font-family="DaxOT, Dax OT"><tspan x="0" y="0">Combinatie</tspan></text><path d="M737.919,741.644a11.512,11.512,0,1,0-11.142-11.507,11.329,11.329,0,0,0,11.142,11.507" transform="translate(-16007.685 -14447.914)" fill="#3a5121"/><text transform="translate(-15273.948 -13711.018)" fill="#fff" font-size="2.318" font-family="DaxOT, Dax OT"><tspan x="0" y="0">Bij water</tspan></text><path d="M731.11,727.914s2.762-2.975,6.943-.172,6.676-.807,6.676-.807" transform="translate(-16007.685 -14447.914)" fill="none" stroke="#fff" stroke-miterlimit="10" stroke-width="1.019"/><path d="M731.11,730.8s2.762-2.975,6.943-.172,6.676-.807,6.676-.807" transform="translate(-16007.685 -14447.914)" fill="none" stroke="#fff" stroke-miterlimit="10" stroke-width="1.019"/><path d="M738.239,718.631A11.512,11.512,0,1,0,727.1,707.124a11.328,11.328,0,0,0,11.142,11.507" transform="translate(-16007.685 -14447.914)" fill="#3a5121"/><text transform="translate(-15274.158 -13735.113)" fill="#fff" font-size="2.318" font-family="DaxOT, Dax OT"><tspan x="0" y="0" xml:space="preserve"> Beleving </tspan></text><text transform="translate(-15274.158 -13732.333)" fill="#fff" font-size="2.318" font-family="DaxOT, Dax OT"><tspan x="0" y="0">landschap</tspan></text><path d="M743.3,709.988H741.36v-2.02h.761A1.374,1.374,0,0,0,743.5,706.6a1.357,1.357,0,0,1-.115-1.368,5.969,5.969,0,0,0-2.456-2.165l-.06,0a2.307,2.307,0,0,1,.405,1.312,2.36,2.36,0,0,1-2.37,2.346h-.732a1.376,1.376,0,0,0,1.375,1.239h.851v2.02h-3.012v-3.564h1.518a2.054,2.054,0,0,0,2.062-2.041,2.011,2.011,0,0,0-.437-1.256,2.139,2.139,0,0,0-.375-.367l-.053-.04-.007-.066a2.042,2.042,0,0,0-1.251-1.676l-.092-.037,0-.1a2.042,2.042,0,0,0-2.06-1.973,2.066,2.066,0,0,0-1.883,1.209l-.036.077-.084.012a2.053,2.053,0,0,0-1.783,2.022,2,2,0,0,0,.2.874l.038.08-.051.073a2.013,2.013,0,0,0-.371,1.166,2.055,2.055,0,0,0,2.062,2.041h1.375v3.564h-3.231a.2.2,0,1,0,0,.407H743.3a.2.2,0,1,0,0-.407" transform="translate(-16007.685 -14447.914)" fill="#fff"/><path d="M744.633,700.943a1.38,1.38,0,1,1-1.38-1.38,1.38,1.38,0,0,1,1.38,1.38" transform="translate(-16007.685 -14447.914)" fill="#fff"/></g></svg>