<svg xmlns="http://www.w3.org/2000/svg" width="219.587" height="101.277" viewBox="0 0 219.587 101.277"><g transform="translate(-4219.213 10696.707)"><line y2="3.057" transform="translate(4230.5 -10673.79)" fill="none" stroke="#1a1818" stroke-miterlimit="10" stroke-width="1.019"/><line y2="62.396" transform="translate(4230.5 -10664.165)" fill="none" stroke="#1a1818" stroke-miterlimit="10" stroke-width="1.019" stroke-dasharray="6.568 6.568"/><line y2="3.057" transform="translate(4230.5 -10598.485)" fill="none" stroke="#1a1818" stroke-miterlimit="10" stroke-width="1.019"/><line y2="3.057" transform="translate(4254.945 -10673.79)" fill="none" stroke="#1a1818" stroke-miterlimit="10" stroke-width="1.019"/><line y2="62.396" transform="translate(4254.945 -10664.165)" fill="none" stroke="#1a1818" stroke-miterlimit="10" stroke-width="1.019" stroke-dasharray="6.568 6.568"/><line y2="3.057" transform="translate(4254.945 -10598.485)" fill="none" stroke="#1a1818" stroke-miterlimit="10" stroke-width="1.019"/><line y2="3.057" transform="translate(4279.985 -10673.79)" fill="none" stroke="#1a1818" stroke-miterlimit="10" stroke-width="1.019"/><line y2="62.396" transform="translate(4279.985 -10664.165)" fill="none" stroke="#1a1818" stroke-miterlimit="10" stroke-width="1.019" stroke-dasharray="6.568 6.568"/><line y2="3.057" transform="translate(4279.985 -10598.485)" fill="none" stroke="#1a1818" stroke-miterlimit="10" stroke-width="1.019"/><line y2="3.057" transform="translate(4304.496 -10673.79)" fill="none" stroke="#1a1818" stroke-miterlimit="10" stroke-width="1.019"/><line y2="62.396" transform="translate(4304.496 -10664.165)" fill="none" stroke="#1a1818" stroke-miterlimit="10" stroke-width="1.019" stroke-dasharray="6.568 6.568"/><line y2="3.057" transform="translate(4304.496 -10598.485)" fill="none" stroke="#1a1818" stroke-miterlimit="10" stroke-width="1.019"/><line y2="3.057" transform="translate(4328.94 -10673.79)" fill="none" stroke="#1a1818" stroke-miterlimit="10" stroke-width="1.019"/><line y2="62.396" transform="translate(4328.94 -10664.165)" fill="none" stroke="#1a1818" stroke-miterlimit="10" stroke-width="1.019" stroke-dasharray="6.568 6.568"/><line y2="3.057" transform="translate(4328.94 -10598.485)" fill="none" stroke="#1a1818" stroke-miterlimit="10" stroke-width="1.019"/><line y2="3.057" transform="translate(4353.98 -10673.79)" fill="none" stroke="#1a1818" stroke-miterlimit="10" stroke-width="1.019"/><line y2="62.396" transform="translate(4353.98 -10664.165)" fill="none" stroke="#1a1818" stroke-miterlimit="10" stroke-width="1.019" stroke-dasharray="6.568 6.568"/><line y2="3.057" transform="translate(4353.98 -10598.485)" fill="none" stroke="#1a1818" stroke-miterlimit="10" stroke-width="1.019"/><line y2="3.057" transform="translate(4378.185 -10673.79)" fill="none" stroke="#1a1818" stroke-miterlimit="10" stroke-width="1.019"/><line y2="62.396" transform="translate(4378.185 -10664.165)" fill="none" stroke="#1a1818" stroke-miterlimit="10" stroke-width="1.019" stroke-dasharray="6.568 6.568"/><line y2="3.057" transform="translate(4378.185 -10598.485)" fill="none" stroke="#1a1818" stroke-miterlimit="10" stroke-width="1.019"/><line y2="3.057" transform="translate(4402.629 -10673.79)" fill="none" stroke="#1a1818" stroke-miterlimit="10" stroke-width="1.019"/><line y2="62.396" transform="translate(4402.629 -10664.165)" fill="none" stroke="#1a1818" stroke-miterlimit="10" stroke-width="1.019" stroke-dasharray="6.568 6.568"/><line y2="3.057" transform="translate(4402.629 -10598.485)" fill="none" stroke="#1a1818" stroke-miterlimit="10" stroke-width="1.019"/><line y2="3.057" transform="translate(4427.669 -10673.79)" fill="none" stroke="#1a1818" stroke-miterlimit="10" stroke-width="1.019"/><line y2="62.396" transform="translate(4427.669 -10664.165)" fill="none" stroke="#1a1818" stroke-miterlimit="10" stroke-width="1.019" stroke-dasharray="6.568 6.568"/><line y2="3.057" transform="translate(4427.669 -10598.485)" fill="none" stroke="#1a1818" stroke-miterlimit="10" stroke-width="1.019"/><text transform="translate(4233.108 -10640.726) rotate(90)" fill="#1a1818" font-size="5.417" font-family="CenturyGothic, Century Gothic"><tspan x="0" y="0" letter-spacing="-0.01em">T</tspan><tspan y="0">ype omg</tspan><tspan y="0" letter-spacing="-0.009em">e</tspan><tspan y="0">ving </tspan></text><text transform="translate(4256.889 -10646.705) rotate(90)" fill="#1a1818" font-size="5.417" font-family="CenturyGothic, Century Gothic"><tspan x="0" y="0" letter-spacing="-0.042em">V</tspan><tspan y="0">erblijf</tspan><tspan y="0" letter-spacing="0.007em">s</tspan><tspan y="0">aanleiding</tspan></text><text transform="translate(4281.935 -10641.136) rotate(90)" fill="#1a1818" font-size="5.417" font-family="CenturyGothic, Century Gothic"><tspan x="0" y="0" letter-spacing="-0.007em">F</tspan><tspan y="0">un</tspan><tspan y="0" letter-spacing="0.01em">c</tspan><tspan y="0">tie</tspan><tspan y="0" letter-spacing="-0.016em"> </tspan><tspan y="0" letter-spacing="-0.019em">w</tspan><tspan y="0">anden</tspan></text><text transform="translate(4306.901 -10630.475) rotate(90)" fill="#1a1818" font-size="5.417" font-family="CenturyGothic, Century Gothic"><tspan x="0" y="0">Au</tspan><tspan y="0" letter-spacing="-0.007em">t</tspan><tspan y="0">o en fi</tspan><tspan y="0" letter-spacing="-0.006em">e</tspan><tspan y="0">ts</tspan></text><text transform="translate(4356.127 -10638.006) rotate(90)" fill="#1a1818" font-size="5.417" font-family="CenturyGothic, Century Gothic"><tspan x="0" y="0" letter-spacing="-0.042em">V</tspan><tspan y="0">er</tspan><tspan y="0" letter-spacing="-0.026em">k</tspan><tspan y="0">eerslic</tspan><tspan y="0" letter-spacing="-0.005em">h</tspan><tspan y="0" letter-spacing="-0.007em">t</tspan><tspan y="0">en</tspan></text><text transform="translate(4380.193 -10648.035) rotate(90)" fill="#1a1818" font-size="5.417" font-family="CenturyGothic, Century Gothic"><tspan x="0" y="0">Openbaa</tspan></text><text transform="translate(4380.193 -10619.554) rotate(90)" fill="#1a1818" font-size="5.417" font-family="CenturyGothic, Century Gothic"><tspan x="0" y="0" letter-spacing="-0.024em">r</tspan><tspan y="0"> </tspan></text><text transform="translate(4380.194 -10616.459) rotate(90)" fill="#1a1818" font-size="5.417" font-family="CenturyGothic, Century Gothic"><tspan x="0" y="0" letter-spacing="-0.012em">v</tspan><tspan y="0">er</tspan><tspan y="0" letter-spacing="-0.012em">v</tspan><tspan y="0">oer</tspan></text><text transform="translate(4404.473 -10613.124) rotate(90)" fill="#1a1818" font-size="5.417" font-family="CenturyGothic, Century Gothic"><tspan x="0" y="0">G</tspan><tspan y="0" letter-spacing="-0.015em">r</tspan><tspan y="0">oen</tspan></text><text transform="translate(4430.065 -10645.023) rotate(90)" fill="#1a1818" font-size="5.417" font-family="CenturyGothic, Century Gothic"><tspan x="0" y="0">Speciaal ka</tspan><tspan y="0" letter-spacing="-0.01em">r</tspan><tspan y="0">ak</tspan><tspan y="0" letter-spacing="-0.007em">t</tspan><tspan y="0">er</tspan></text><text transform="translate(4330.745 -10619.894) rotate(90)" fill="#1a1818" font-size="5.417" font-family="CenturyGothic, Century Gothic"><tspan x="0" y="0" letter-spacing="-0.017em">P</tspan><tspan y="0">ar</tspan><tspan y="0" letter-spacing="-0.026em">k</tspan><tspan y="0">e</tspan><tspan y="0" letter-spacing="-0.016em">r</tspan><tspan y="0">en</tspan></text><path d="M713.414,718.241a11.512,11.512,0,1,0-11.142-11.506,11.328,11.328,0,0,0,11.142,11.506" transform="translate(3688.865 -11391.914)" fill="#3a5121"/><text transform="translate(4398.59 -10676.705)" fill="#fff" font-size="2.318" font-family="DaxOT, Dax OT"><tspan x="0" y="0">Bomen</tspan></text><path d="M718.3,709.749h-1.937v-2.02h.761a1.374,1.374,0,0,0,1.381-1.367,1.357,1.357,0,0,1-.115-1.368,5.967,5.967,0,0,0-2.456-2.165l-.06,0a2.318,2.318,0,0,1,.405,1.312,2.36,2.36,0,0,1-2.37,2.346h-.733a1.377,1.377,0,0,0,1.376,1.239h.851v2.02H712.39v-3.564h1.518a2.053,2.053,0,0,0,2.062-2.041,2.011,2.011,0,0,0-.437-1.256,2.107,2.107,0,0,0-.375-.367l-.053-.04-.007-.066a2.042,2.042,0,0,0-1.251-1.676l-.092-.037,0-.1a2.043,2.043,0,0,0-2.06-1.974,2.066,2.066,0,0,0-1.883,1.211l-.036.076-.084.012a2.054,2.054,0,0,0-1.783,2.022,2.011,2.011,0,0,0,.2.874l.039.08-.051.072a2.02,2.02,0,0,0-.371,1.167,2.054,2.054,0,0,0,2.062,2.041h1.375v3.564h-3.231a.2.2,0,1,0,0,.407H718.3a.2.2,0,1,0,0-.407" transform="translate(3688.865 -11391.914)" fill="#fff"/><path d="M716.76,710.419h-7.295a.2.2,0,1,0,0,.407h7.295a.2.2,0,1,0,0-.407" transform="translate(3688.865 -11391.914)" fill="#fff"/><path d="M738.793,729.222a11.512,11.512,0,1,0-11.142-11.507,11.329,11.329,0,0,0,11.142,11.507" transform="translate(3688.865 -11391.914)" fill="#3a5121"/><path d="M732.5,716.749a.378.378,0,0,0-.386.386v1.159a.379.379,0,0,0,.386.387h12.585a.378.378,0,0,0,.386-.387v-1.159a.378.378,0,0,0-.386-.386Z" transform="translate(3688.865 -11391.914)" fill="#fff"/><text transform="translate(4425.417 -10667.44)" fill="#fff" font-size="2.318" font-family="DaxOT, Dax OT"><tspan x="0" y="0">Ni</tspan><tspan y="0" letter-spacing="-0.003em">e</tspan><tspan y="0">t</tspan></text><path d="M541.49,729.256a11.512,11.512,0,1,0-11.142-11.506,11.328,11.328,0,0,0,11.142,11.506" transform="translate(3688.865 -11391.914)" fill="#3a5121"/><path d="M548.424,720.8h-.342v-1.192h.342Zm-.685,0H547.4v-1.192h.342Zm-5.306-5.107h-1.027v-1.021h1.027Zm0,2.042h-1.027v-1.021h1.027Zm-2.568-2.042h-1.027v-1.021h1.027Zm0,2.042h-1.027v-1.021h1.027Zm8.37-.444-1.694,1.694v-3.633h-2.567v2.724h-.856v-4.086h-4.964v4.252l0-.034-2.106-2.566-2.684,2.668v3.511h1.883v-1.873h1.027v1.873h13.522v-2.971Z" transform="translate(3688.865 -11391.914)" fill="#fff"/><path d="M689.581,741.275a11.512,11.512,0,1,0-11.142-11.506,11.328,11.328,0,0,0,11.142,11.506" transform="translate(3688.865 -11391.914)" fill="#3a5121"/><text transform="translate(4226.299 -10665.638)" fill="#fff" font-size="2.318" font-family="DaxOT, Dax OT"><tspan x="0" y="0" letter-spacing="-0.015em">S</tspan><tspan y="0" letter-spacing="-0.007em">t</tspan><tspan y="0">edelijk</tspan></text><path d="M686.627,731.775l-1.525,1.867c-.119.145-.064.263.121.263h.765a.741.741,0,0,0,.535-.276l1.337-1.854Zm6.274-6.618a.613.613,0,0,1-.672.525h-5.295a.614.614,0,0,1-.673-.525v-1.531a.92.92,0,0,1,1.009-.786h4.623a.919.919,0,0,1,1.008.786Zm-6.091,3.381a.525.525,0,1,1,.525.525.525.525,0,0,1-.525-.525m4.338,0a.525.525,0,1,1,.525.525.525.525,0,0,1-.525-.525m2.425,1.871v-6.545a1.693,1.693,0,0,0-1.68-1.707H687.27a1.694,1.694,0,0,0-1.681,1.707v6.545a.847.847,0,0,0,.841.854h6.3a.847.847,0,0,0,.84-.854m.488,3.233-1.526-1.867H691.3l1.336,1.854a.743.743,0,0,0,.535.276h.765c.186,0,.241-.118.122-.263" transform="translate(3688.865 -11391.914)" fill="#fff"/><path d="M713.715,741.254a11.512,11.512,0,1,0-11.142-11.506,11.328,11.328,0,0,0,11.142,11.506" transform="translate(3688.865 -11391.914)" fill="#3a5121"/><text transform="translate(4375.458 -10653.618)" fill="#fff" font-size="2.318" font-family="DaxOT, Dax OT"><tspan x="0" y="0" letter-spacing="-0.028em">T</tspan><tspan y="0" letter-spacing="-0.005em">r</tspan><tspan y="0">am</tspan></text><path d="M714.51,731.55a1.46,1.46,0,0,0-.535-.043c.981-3.469,2.246-4.943,4.313-6.288a7.761,7.761,0,0,0-3.454,3.129c-.511-3.565,1.8-2.831,3.972-3.669-.8,2.051-.036,5.136-3.227,4.024a5.368,5.368,0,0,0-1.069,2.847m-1.992-3.306c-3.9-.115-2.793-1.708-3.893-3.6,2.549-.325,4.937.29,4.332,3.366a9.257,9.257,0,0,1,.985,3.5,1.208,1.208,0,0,0-.471.014c-.044-2.126-.691-3.176-.953-3.281m-.041,4.228c-1.047.019-1.477.282-1.837,1.127H717.6c.147-.906-.962-1.382-1.535-.381-.3-1.918-3.377-1.878-3.584-.746" transform="translate(3688.865 -11391.914)" fill="#fff"/><path d="M590.81,729.256a11.512,11.512,0,1,0-11.142-11.507,11.328,11.328,0,0,0,11.142,11.507" transform="translate(3688.865 -11391.914)" fill="#3a5121"/><text transform="translate(4397.123 -10653.64)" fill="#fff" font-size="2.318" font-family="DaxOT, Dax OT"><tspan x="0" y="0">Bepla</tspan><tspan y="0" letter-spacing="-0.005em">n</tspan><tspan y="0">ting</tspan></text><path d="M597.269,718.333a.427.427,0,0,1-.422.429h-.964a.426.426,0,0,1-.422-.429v-1.082a.426.426,0,0,1,.422-.429h.964a.427.427,0,0,1,.422.429Zm-4.142,0a.427.427,0,0,1-.422.429h-.963a.427.427,0,0,1-.423-.429v-1.082a.427.427,0,0,1,.423-.429h.963a.427.427,0,0,1,.422.429Zm4.964,1.785v-4.3a.315.315,0,0,0-.312-.317h-6.928a.315.315,0,0,0-.312.317v4.3a.315.315,0,0,0,.312.317h2.54a.314.314,0,0,0,.312-.317v-2.33a.1.1,0,0,1,.1-.1h.96a.1.1,0,0,1,.1.1v2.33a.315.315,0,0,0,.312.317h2.608a.315.315,0,0,0,.312-.317" transform="translate(3688.865 -11391.914)" fill="#fff"/><path d="M590.89,713.8v-1.659a.315.315,0,0,1,.312-.318h.563a.314.314,0,0,1,.312.318v.609a.1.1,0,0,0,.157.08l1.95-1.475a.213.213,0,0,1,.259,0l4.276,3.238a.219.219,0,0,1-.122.4H590.63c-.205,0-.583-.5-.418-.624l.639-.482a.1.1,0,0,0,.039-.08" transform="translate(3688.865 -11391.914)" fill="#fff"/><path d="M583.129,713.2h6.748a.206.206,0,0,0,.2-.206v-.554a.207.207,0,0,0-.2-.207h-6.748a.207.207,0,0,0-.2.207V713a.213.213,0,0,0,.2.206" transform="translate(3688.865 -11391.914)" fill="#fff"/><path d="M589.6,716.327a.536.536,0,0,1-.5-.421l-.026-.143-.263-1.244h.824l.263,1.244.026.143a.326.326,0,0,1-.324.421m-1.131-.421a.346.346,0,0,1-.351.421.5.5,0,0,1-.473-.421l-.017-.143-.176-1.244h.824l.176,1.244Zm-1.551.009a.412.412,0,1,1-.824,0v-1.4h.824v1.4Zm-1.35-1.4-.175,1.244-.017.143a.5.5,0,0,1-.474.421.35.35,0,0,1-.35-.421l.017-.143.175-1.244Zm-1.379,2.848h2.181a.214.214,0,0,1,.211.214V719.1a.213.213,0,0,1-.211.214h-2.181a.213.213,0,0,1-.211-.214v-1.524a.214.214,0,0,1,.211-.214m-.006-2.848-.263,1.244-.026.143a.535.535,0,0,1-.5.421.327.327,0,0,1-.324-.421l.027-.143.262-1.244Zm6.451,1.226-.544-1.541a.182.182,0,0,1-.008-.052v-.421a.205.205,0,0,0-.2-.205h-6.749a.206.206,0,0,0-.2.205v.457a.17.17,0,0,1-.008.051l-.527,1.506a.331.331,0,0,0,.22.4.359.359,0,0,0,.187.02.152.152,0,0,1,.181.148v3.958a.206.206,0,0,0,.2.206h4.147a.149.149,0,0,0,.147-.152V717.3a.15.15,0,0,1,.149-.151h1.316a.15.15,0,0,1,.148.151v3.026a.15.15,0,0,0,.148.152h.65a.2.2,0,0,0,.2-.206V716.32a.151.151,0,0,1,.168-.149.384.384,0,0,0,.165-.023.324.324,0,0,0,.211-.4" transform="translate(3688.865 -11391.914)" fill="#fff"/><text transform="translate(4273.925 -10667.405)" fill="#fff" font-size="2.318" font-family="DaxOT, Dax OT"><tspan x="0" y="0">Combinatie</tspan></text><path d="M689.476,718.22a11.512,11.512,0,1,0-11.142-11.506,11.328,11.328,0,0,0,11.142,11.506" transform="translate(3688.865 -11391.914)" fill="#3a5121"/><text transform="translate(4375.998 -10676.727)" fill="#fff" font-size="2.318" font-family="DaxOT, Dax OT"><tspan x="0" y="0">Bus</tspan></text><path d="M682.915,703.288v2.106a.265.265,0,0,1-.265.264h-.742a.265.265,0,0,1-.266-.264v-1.9a1.04,1.04,0,0,1,1.154-1h1.3v.8Z" transform="translate(3688.865 -11391.914)" fill="#fff"/><path d="M695.265,703.288v2.106a.265.265,0,0,0,.266.264h.742a.266.266,0,0,0,.266-.264v-1.9a1.041,1.041,0,0,0-1.155-1h-1.295v.8Z" transform="translate(3688.865 -11391.914)" fill="#fff"/><path d="M694.267,709.28a.265.265,0,0,1-.266.264h-1.64a.265.265,0,0,1-.265-.264v-.659a.265.265,0,0,1,.265-.264H694a.265.265,0,0,1,.266.264Zm-3.1-.065a.558.558,0,0,1-.512.329h-3.138a.559.559,0,0,1-.512-.329c-.06-.182.073-.33.294-.33h3.574c.221,0,.354.148.294.33m-5.087.065a.265.265,0,0,1-.265.264h-1.641a.264.264,0,0,1-.264-.264v-.659a.264.264,0,0,1,.264-.264h1.641a.265.265,0,0,1,.265.264Zm-1.262-7.618c.524-.379,2.782-.4,4.268-.4s3.744.019,4.268.4.537,4.456,0,4.845-2.783.4-4.268.4-3.744-.019-4.268-.4-.538-4.457,0-4.845m3.294-2.013h1.946a.371.371,0,1,1,0,.742h-1.946a.371.371,0,1,1,0-.742m6.544,6.74v-5.62a1.921,1.921,0,0,0-1.495-1.81,23.925,23.925,0,0,0-8.149,0,1.922,1.922,0,0,0-1.5,1.81v5.62a.652.652,0,0,0-.342.564v3.106a.675.675,0,0,0,.687.659h10.449a.676.676,0,0,0,.688-.659v-3.106a.652.652,0,0,0-.342-.564" transform="translate(3688.865 -11391.914)" fill="#fff"/><path d="M683.9,710.033v1.479a.663.663,0,0,0,.662.659h.546a.663.663,0,0,0,.662-.659v-1.479Z" transform="translate(3688.865 -11391.914)" fill="#fff"/><path d="M692.411,710.033v1.479a.663.663,0,0,0,.662.659h.546a.663.663,0,0,0,.661-.659v-1.479Z" transform="translate(3688.865 -11391.914)" fill="#fff"/><path d="M640.155,729.256a11.512,11.512,0,1,0-11.142-11.506,11.328,11.328,0,0,0,11.142,11.506" transform="translate(3688.865 -11391.914)" fill="#3a5121"/><path d="M633.912,716.784a.378.378,0,0,0-.386.386v1.159a.378.378,0,0,0,.386.386H646.5a.378.378,0,0,0,.386-.386V717.17a.378.378,0,0,0-.386-.386Z" transform="translate(3688.865 -11391.914)" fill="#fff"/><path d="M664.394,729.218a11.512,11.512,0,1,0-11.142-11.506,11.328,11.328,0,0,0,11.142,11.506" transform="translate(3688.865 -11391.914)" fill="#3a5121"/><text transform="translate(4326.781 -10665.69)" fill="#fff" font-size="2.318" font-family="DaxOT, Dax OT"><tspan x="0" y="0">Ni</tspan><tspan y="0" letter-spacing="-0.003em">e</tspan><tspan y="0">t</tspan></text><path d="M662.446,711.541a.5.5,0,0,0-.5.5V720.7a.5.5,0,0,0,.5.5h3.479a.5.5,0,0,0,.505-.5v-8.658a.5.5,0,0,0-.505-.5Zm1.74,8.644a.972.972,0,1,1,.971-.972.972.972,0,0,1-.971.972m0-2.753a.971.971,0,1,1,.971-.971.972.972,0,0,1-.971.971m0-2.752a.972.972,0,1,1,.971-.972.972.972,0,0,1-.971.972m4.673-1.728a2.412,2.412,0,0,1-1.757,1.716v-2.093h1.451a.313.313,0,0,1,.314.314.237.237,0,0,1-.008.065Zm0,2.753a2.411,2.411,0,0,1-1.757,1.715v-2.093h1.451a.314.314,0,0,1,.314.314.249.249,0,0,1-.008.066Zm0,2.752a2.411,2.411,0,0,1-1.757,1.715v-2.094h1.451a.315.315,0,0,1,.314.315.237.237,0,0,1-.008.065Zm-7.588-3.789a2.412,2.412,0,0,1-1.758-1.714.314.314,0,0,1,.242-.373.344.344,0,0,1,.065-.006h1.451Zm0,2.752a2.411,2.411,0,0,1-1.758-1.713.313.313,0,0,1,.242-.373.275.275,0,0,1,.065-.007h1.451Zm-1.451.658h1.451v2.094a2.411,2.411,0,0,1-1.758-1.714.313.313,0,0,1,.242-.373.338.338,0,0,1,.065-.007" transform="translate(3688.865 -11391.914)" fill="#fff"/><text transform="translate(4351.081 -10665.675)" fill="#fff" font-size="2.318" font-family="DaxOT, Dax OT"><tspan x="0" y="0" letter-spacing="-0.028em">W</tspan><tspan y="0">el</tspan></text><path d="M615.049,729.256a11.512,11.512,0,1,0-11.142-11.506,11.328,11.328,0,0,0,11.142,11.506" transform="translate(3688.865 -11391.914)" fill="#3a5121"/><text transform="translate(4297.947 -10665.69)" fill="#fff" font-size="2.318" font-family="DaxOT, Dax OT"><tspan x="0" y="0">Gescheiden</tspan></text><path d="M609.613,718.958c0,.01,0,.021,0,.031v.949a.4.4,0,0,0,.4.4h.331a.4.4,0,0,0,.4-.4v-.295H609.9c-.1,0-.2-.3-.285-.685" transform="translate(3688.865 -11391.914)" fill="#fff"/><path d="M616.286,718.957c-.081.382-.19.686-.286.686h-.846v.294a.4.4,0,0,0,.4.4h.331a.4.4,0,0,0,.4-.4v-.98" transform="translate(3688.865 -11391.914)" fill="#fff"/><path d="M612.949,714.9h0c-1.261,0-1.712.024-2.034.224a4.028,4.028,0,0,0-.736,1.051l-.011.011a.174.174,0,0,0-.163-.112h-.6c-.223,0-.253.217-.253.335h0a.527.527,0,0,0,.005.076.189.189,0,0,0,.182.159h.257l.026,0h0c.12,0,.232.056.189.222a4.556,4.556,0,0,0-.294.71,4.005,4.005,0,0,0,.091,1.389c.082.383.19.685.286.685H616c.1,0,.2-.3.285-.686a4,4,0,0,0,.091-1.388,4.517,4.517,0,0,0-.294-.71c-.042-.166.068-.222.188-.222h0l.027,0h.257a.191.191,0,0,0,.183-.159.521.521,0,0,0,0-.067V716.4c0-.12-.036-.328-.253-.328h-.6a.173.173,0,0,0-.163.112l-.011-.011a4.028,4.028,0,0,0-.736-1.051c-.323-.2-.773-.224-2.035-.224m-.3.4h.591a3.488,3.488,0,0,1,1.528.162,5.366,5.366,0,0,1,.671,1.032,16.326,16.326,0,0,1-4.986,0,5.286,5.286,0,0,1,.68-1.04,3.568,3.568,0,0,1,1.516-.155m2.414,2.7a.778.778,0,0,1-.355-.047c-.069-.077.062-.5.5-.783a1.011,1.011,0,0,1,.425-.139.162.162,0,0,1,.127.044c.1.121.189.653.017.8a1.5,1.5,0,0,1-.713.126m-4.235,0a1.5,1.5,0,0,1-.713-.126c-.172-.146-.089-.678.017-.8a.163.163,0,0,1,.127-.044,1.016,1.016,0,0,1,.426.139c.436.279.567.706.5.783a.778.778,0,0,1-.355.047m1.373.949c-.3,0-.481-.09-.517-.2s.045-.2.179-.2h2.165c.135,0,.215.091.179.2s-.206.2-.517.2Z" transform="translate(3688.865 -11391.914)" fill="#fff"/><path d="M620.245,717.549a.176.176,0,0,0-.176.177v2.6a.176.176,0,0,0,.352,0v-2.6a.176.176,0,0,0-.176-.177" transform="translate(3688.865 -11391.914)" fill="#fff"/><path d="M620.139,716.948h-.558a2.539,2.539,0,0,0-.208,1.375c.005.159.01.323.008.495a.228.228,0,0,0,.225.232h0a.229.229,0,0,0,.228-.225c0-.183,0-.353-.008-.517a1.731,1.731,0,0,1,.309-1.36" transform="translate(3688.865 -11391.914)" fill="#fff"/><path d="M620.918,716.948h-.492a4.938,4.938,0,0,1,.235,2.313.229.229,0,0,0,.211.246h.017a.228.228,0,0,0,.228-.211,7.2,7.2,0,0,0-.074-1.862,3.563,3.563,0,0,0-.125-.486" transform="translate(3688.865 -11391.914)" fill="#fff"/><path d="M621.092,716.439H619.4a3.966,3.966,0,0,1,.168-1.374c.016-.048.033-.093.052-.137v1.308h0v.067h1.237v-.067h0v-1.327c.022.051.042.1.061.159a3.93,3.93,0,0,1,.171,1.371m.583,0h-.152a2.678,2.678,0,0,0-.837-2.407.837.837,0,0,0-.888,0,2.683,2.683,0,0,0-.83,2.408h-.153a.176.176,0,1,0,0,.352h2.86a.176.176,0,1,0,0-.352" transform="translate(3688.865 -11391.914)" fill="#fff"/><path d="M618.2,721.69v-.066H607.764V711.253h10.37V721.69h.066v0h.065V711.122H607.633v10.634h10.632v-.066Z" transform="translate(3688.865 -11391.914)" fill="#fff"/><path d="M622.29,721.69v-.066h-4.024V711.253h3.958V721.69h.066v0h.065V711.122h-4.22v10.634h4.22v-.066Z" transform="translate(3688.865 -11391.914)" fill="#fff"/><path d="M620.888,713.047a.643.643,0,1,1-.643-.642.643.643,0,0,1,.643.642" transform="translate(3688.865 -11391.914)" fill="#fff"/><path d="M565.728,729.256a11.512,11.512,0,1,0-11.142-11.506,11.328,11.328,0,0,0,11.142,11.506" transform="translate(3688.865 -11391.914)" fill="#3a5121"/><path d="M559.485,716.784a.378.378,0,0,0-.386.386v1.159a.378.378,0,0,0,.386.386H572.07a.378.378,0,0,0,.386-.386V717.17a.378.378,0,0,0-.386-.386Z" transform="translate(3688.865 -11391.914)" fill="#fff"/><text transform="translate(4252.354 -10665.69)" fill="#fff" font-size="2.318" font-family="DaxOT, Dax OT"><tspan x="0" y="0">Ni</tspan><tspan y="0" letter-spacing="-0.003em">e</tspan><tspan y="0">t</tspan></text></g></svg>