<svg xmlns="http://www.w3.org/2000/svg" width="218.748" height="74.184" viewBox="0 0 218.748 74.184"><g transform="translate(-4134.697 12805.424)"><line y2="3.057" transform="translate(4145.454 -12793.731)" fill="none" stroke="#1a1818" stroke-miterlimit="10" stroke-width="1.019"/><line y2="46.263" transform="translate(4145.454 -12784.506)" fill="none" stroke="#1a1818" stroke-miterlimit="10" stroke-width="1.019" stroke-dasharray="6.169 6.169"/><line y2="3.057" transform="translate(4145.454 -12735.159)" fill="none" stroke="#1a1818" stroke-miterlimit="10" stroke-width="1.019"/><line y2="3.057" transform="translate(4169.898 -12793.731)" fill="none" stroke="#1a1818" stroke-miterlimit="10" stroke-width="1.019"/><line y2="46.263" transform="translate(4169.898 -12784.506)" fill="none" stroke="#1a1818" stroke-miterlimit="10" stroke-width="1.019" stroke-dasharray="6.169 6.169"/><line y2="3.057" transform="translate(4169.898 -12735.159)" fill="none" stroke="#1a1818" stroke-miterlimit="10" stroke-width="1.019"/><line y2="3.057" transform="translate(4194.938 -12793.731)" fill="none" stroke="#1a1818" stroke-miterlimit="10" stroke-width="1.019"/><line y2="46.263" transform="translate(4194.938 -12784.506)" fill="none" stroke="#1a1818" stroke-miterlimit="10" stroke-width="1.019" stroke-dasharray="6.169 6.169"/><line y2="3.057" transform="translate(4194.938 -12735.159)" fill="none" stroke="#1a1818" stroke-miterlimit="10" stroke-width="1.019"/><line y2="3.057" transform="translate(4219.449 -12793.731)" fill="none" stroke="#1a1818" stroke-miterlimit="10" stroke-width="1.019"/><line y2="46.263" transform="translate(4219.449 -12784.506)" fill="none" stroke="#1a1818" stroke-miterlimit="10" stroke-width="1.019" stroke-dasharray="6.169 6.169"/><line y2="3.057" transform="translate(4219.449 -12735.159)" fill="none" stroke="#1a1818" stroke-miterlimit="10" stroke-width="1.019"/><line y2="3.057" transform="translate(4243.894 -12793.731)" fill="none" stroke="#1a1818" stroke-miterlimit="10" stroke-width="1.019"/><line y2="46.263" transform="translate(4243.894 -12784.506)" fill="none" stroke="#1a1818" stroke-miterlimit="10" stroke-width="1.019" stroke-dasharray="6.169 6.169"/><line y2="3.057" transform="translate(4243.894 -12735.159)" fill="none" stroke="#1a1818" stroke-miterlimit="10" stroke-width="1.019"/><line y2="3.057" transform="translate(4268.934 -12793.731)" fill="none" stroke="#1a1818" stroke-miterlimit="10" stroke-width="1.019"/><line y2="46.263" transform="translate(4268.934 -12784.506)" fill="none" stroke="#1a1818" stroke-miterlimit="10" stroke-width="1.019" stroke-dasharray="6.169 6.169"/><line y2="3.057" transform="translate(4268.934 -12735.159)" fill="none" stroke="#1a1818" stroke-miterlimit="10" stroke-width="1.019"/><line y2="3.057" transform="translate(4293.138 -12793.731)" fill="none" stroke="#1a1818" stroke-miterlimit="10" stroke-width="1.019"/><line y2="46.263" transform="translate(4293.138 -12784.506)" fill="none" stroke="#1a1818" stroke-miterlimit="10" stroke-width="1.019" stroke-dasharray="6.169 6.169"/><line y2="3.057" transform="translate(4293.138 -12735.159)" fill="none" stroke="#1a1818" stroke-miterlimit="10" stroke-width="1.019"/><line y2="3.057" transform="translate(4317.583 -12793.731)" fill="none" stroke="#1a1818" stroke-miterlimit="10" stroke-width="1.019"/><line y2="46.263" transform="translate(4317.583 -12784.506)" fill="none" stroke="#1a1818" stroke-miterlimit="10" stroke-width="1.019" stroke-dasharray="6.169 6.169"/><line y2="3.057" transform="translate(4317.583 -12735.159)" fill="none" stroke="#1a1818" stroke-miterlimit="10" stroke-width="1.019"/><line y2="3.057" transform="translate(4342.623 -12793.731)" fill="none" stroke="#1a1818" stroke-miterlimit="10" stroke-width="1.019"/><line y2="46.263" transform="translate(4342.623 -12784.506)" fill="none" stroke="#1a1818" stroke-miterlimit="10" stroke-width="1.019" stroke-dasharray="6.169 6.169"/><line y2="3.057" transform="translate(4342.623 -12735.159)" fill="none" stroke="#1a1818" stroke-miterlimit="10" stroke-width="1.019"/><text transform="translate(4148.063 -12774.24) rotate(90)" fill="#1a1818" font-size="5.417" font-family="CenturyGothic, Century Gothic"><tspan x="0" y="0" letter-spacing="-0.01em">T</tspan><tspan y="0">ype omg</tspan><tspan y="0" letter-spacing="-0.009em">e</tspan><tspan y="0">ving </tspan></text><text transform="translate(4171.842 -12779.765) rotate(90)" fill="#1a1818" font-size="5.417" font-family="CenturyGothic, Century Gothic"><tspan x="0" y="0" letter-spacing="-0.042em">V</tspan><tspan y="0">erblijf</tspan><tspan y="0" letter-spacing="0.007em">s</tspan><tspan y="0">aanleiding</tspan></text><text transform="translate(4196.89 -12774.619) rotate(90)" fill="#1a1818" font-size="5.417" font-family="CenturyGothic, Century Gothic"><tspan x="0" y="0" letter-spacing="-0.007em">F</tspan><tspan y="0">un</tspan><tspan y="0" letter-spacing="0.01em">c</tspan><tspan y="0">tie</tspan><tspan y="0" letter-spacing="-0.016em"> </tspan><tspan y="0" letter-spacing="-0.019em">w</tspan><tspan y="0">anden</tspan></text><text transform="translate(4221.854 -12764.766) rotate(90)" fill="#1a1818" font-size="5.417" font-family="CenturyGothic, Century Gothic"><tspan x="0" y="0">Au</tspan><tspan y="0" letter-spacing="-0.007em">t</tspan><tspan y="0">o en fi</tspan><tspan y="0" letter-spacing="-0.006em">e</tspan><tspan y="0">ts</tspan></text><text transform="translate(4271.081 -12771.722) rotate(90)" fill="#1a1818" font-size="5.417" font-family="CenturyGothic, Century Gothic"><tspan x="0" y="0" letter-spacing="-0.042em">V</tspan><tspan y="0">er</tspan><tspan y="0" letter-spacing="-0.026em">k</tspan><tspan y="0">eerslic</tspan><tspan y="0" letter-spacing="-0.005em">h</tspan><tspan y="0" letter-spacing="-0.007em">t</tspan><tspan y="0">en</tspan></text><text transform="translate(4319.419 -12748.728) rotate(90)" fill="#1a1818" font-size="5.417" font-family="CenturyGothic, Century Gothic"><tspan x="0" y="0">G</tspan><tspan y="0" letter-spacing="-0.015em">r</tspan><tspan y="0">oen</tspan></text><text transform="translate(4295.147 -12780.989) rotate(90)" fill="#1a1818" font-size="5.417" font-family="CenturyGothic, Century Gothic"><tspan x="0" y="0">Openbaa</tspan></text><text transform="translate(4295.148 -12754.67) rotate(90)" fill="#1a1818" font-size="5.417" font-family="CenturyGothic, Century Gothic"><tspan x="0" y="0" letter-spacing="-0.024em">r</tspan><tspan y="0"> </tspan></text><text transform="translate(4295.147 -12751.81) rotate(90)" fill="#1a1818" font-size="5.417" font-family="CenturyGothic, Century Gothic"><tspan x="0" y="0" letter-spacing="-0.012em">v</tspan><tspan y="0">er</tspan><tspan y="0" letter-spacing="-0.012em">v</tspan><tspan y="0">oer</tspan></text><path d="M614.887,729.369a11.512,11.512,0,1,0-11.142-11.507,11.327,11.327,0,0,0,11.142,11.507" transform="translate(3604.211 -13511.78)" fill="#3a5121"/><text transform="translate(4214.025 -12785.391)" fill="#fff" font-size="2.318" font-family="DaxOT, Dax OT"><tspan x="0" y="0">Gemengd</tspan></text><path d="M619.367,717.6a.2.2,0,0,0-.2.2v2.9a.2.2,0,0,0,.394,0v-2.9a.2.2,0,0,0-.2-.2" transform="translate(3604.211 -13511.78)" fill="#fff"/><text transform="translate(4345.014 -12778.205) rotate(90)" fill="#1a1818" font-size="5.417" font-family="CenturyGothic, Century Gothic"><tspan x="0" y="0">Speciaal ka</tspan><tspan y="0" letter-spacing="-0.01em">r</tspan><tspan y="0">ak</tspan><tspan y="0" letter-spacing="-0.007em">t</tspan><tspan y="0">er</tspan></text><path d="M619.248,716.926h-.623a2.817,2.817,0,0,0-.232,1.534c.005.178.011.361.009.553a.255.255,0,0,0,.251.259h0a.255.255,0,0,0,.255-.251c0-.205,0-.394-.009-.578a1.93,1.93,0,0,1,.345-1.517" transform="translate(3604.211 -13511.78)" fill="#fff"/><path d="M620.118,716.926h-.549a5.524,5.524,0,0,1,.262,2.582.254.254,0,0,0,.235.273h.019a.254.254,0,0,0,.254-.235,8.041,8.041,0,0,0-.081-2.078,4.029,4.029,0,0,0-.14-.542" transform="translate(3604.211 -13511.78)" fill="#fff"/><path d="M620.311,716.358h-1.889a4.444,4.444,0,0,1,.187-1.534c.019-.053.038-.1.058-.152v1.459h0v.075h1.379v-.075h0v-1.48q.036.084.069.177a4.4,4.4,0,0,1,.19,1.53m.651,0h-.17c.034-1.315-.31-2.313-.934-2.687a.941.941,0,0,0-.991,0c-.62.37-.962,1.369-.926,2.687h-.17a.2.2,0,1,0,0,.393h3.191a.2.2,0,1,0,0-.393" transform="translate(3604.211 -13511.78)" fill="#fff"/><path d="M619.367,711.957a.7.7,0,1,1-.7.7.7.7,0,0,1,.7-.7" transform="translate(3604.211 -13511.78)" fill="#fff"/><path d="M608.5,719.169c0,.011,0,.022,0,.034v1.06a.449.449,0,0,0,.448.447h.368a.45.45,0,0,0,.448-.447v-.33h-.944c-.107,0-.228-.337-.319-.764" transform="translate(3604.211 -13511.78)" fill="#fff"/><path d="M615.942,719.168c-.091.427-.213.765-.319.765h-.944v.329a.448.448,0,0,0,.448.447h.368a.448.448,0,0,0,.448-.447v-1.094" transform="translate(3604.211 -13511.78)" fill="#fff"/><path d="M612.219,714.635h0c-1.408,0-1.911.027-2.27.249a4.543,4.543,0,0,0-.822,1.173l-.012.012a.2.2,0,0,0-.182-.125h-.664c-.249,0-.282.243-.282.376a.789.789,0,0,0,0,.084.214.214,0,0,0,.2.178h.287l.03,0h0c.134,0,.257.062.21.248a4.9,4.9,0,0,0-.327.792,4.422,4.422,0,0,0,.1,1.55c.09.427.212.764.318.764h6.81c.106,0,.228-.338.318-.764a4.424,4.424,0,0,0,.1-1.55,4.98,4.98,0,0,0-.328-.793c-.047-.185.076-.247.211-.247h0l.03,0h.287a.215.215,0,0,0,.2-.178.632.632,0,0,0,0-.075v-.019c0-.134-.039-.366-.282-.366h-.664a.2.2,0,0,0-.182.125l-.012-.011a4.56,4.56,0,0,0-.822-1.174c-.359-.222-.863-.249-2.27-.249m-.331.448h.66a3.884,3.884,0,0,1,1.7.182,5.929,5.929,0,0,1,.749,1.151,18.193,18.193,0,0,1-5.564,0,5.874,5.874,0,0,1,.759-1.161,3.958,3.958,0,0,1,1.692-.174m2.694,3.009a.855.855,0,0,1-.4-.053c-.077-.086.069-.562.556-.873a1.133,1.133,0,0,1,.474-.155.184.184,0,0,1,.142.049c.118.135.211.729.02.892a1.68,1.68,0,0,1-.8.14m-4.726,0a1.674,1.674,0,0,1-.8-.14c-.192-.163-.1-.757.019-.892a.185.185,0,0,1,.142-.049,1.133,1.133,0,0,1,.475.155c.487.311.633.787.556.873a.858.858,0,0,1-.4.053m1.532,1.059c-.339,0-.537-.1-.577-.224s.05-.223.2-.223h2.416c.15,0,.24.1.2.223s-.229.224-.576.224Z" transform="translate(3604.211 -13511.78)" fill="#fff"/><path d="M639.992,729.369a11.512,11.512,0,1,0-11.142-11.507,11.328,11.328,0,0,0,11.142,11.507" transform="translate(3604.211 -13511.78)" fill="#3a5121"/><path d="M635.275,721.641c0,.013,0,.027,0,.041v1.271a.539.539,0,0,0,.539.537h.443a.54.54,0,0,0,.539-.537v-.4h-1.136c-.128,0-.274-.4-.383-.917" transform="translate(3604.211 -13511.78)" fill="#fff"/><text transform="translate(4242.164 -12785.391)" fill="#fff" font-size="2.318" font-family="DaxOT, Dax OT"><tspan x="0" y="0" letter-spacing="-0.027em">W</tspan><tspan y="0">el</tspan></text><path d="M644.232,721.64c-.109.512-.256.918-.384.918h-1.135v.4a.54.54,0,0,0,.538.537h.444a.54.54,0,0,0,.538-.537v-1.271c0-.014,0-.028,0-.042" transform="translate(3604.211 -13511.78)" fill="#fff"/><path d="M639.753,716.2h0c-1.693,0-2.3.032-2.73.3a5.441,5.441,0,0,0-.989,1.407l-.014.014a.236.236,0,0,0-.219-.15H635c-.3,0-.34.291-.34.45h0a.661.661,0,0,0,.007.1.255.255,0,0,0,.245.213h.344l.036,0h0c.162,0,.31.074.254.3a6.038,6.038,0,0,0-.4.952,5.337,5.337,0,0,0,.123,1.859c.109.513.255.918.383.918h8.19c.128,0,.274-.406.384-.918a5.308,5.308,0,0,0,.121-1.859,5.949,5.949,0,0,0-.394-.952c-.057-.222.092-.3.253-.3h0l.036,0h.345a.256.256,0,0,0,.245-.213.832.832,0,0,0,.006-.09v-.022c0-.161-.048-.44-.34-.44h-.8a.237.237,0,0,0-.22.15l-.014-.013a5.383,5.383,0,0,0-.989-1.408c-.431-.268-1.037-.3-2.73-.3m-.4.538h.794a4.673,4.673,0,0,1,2.05.218,7.076,7.076,0,0,1,.9,1.382,21.955,21.955,0,0,1-6.692,0,7.033,7.033,0,0,1,.913-1.393,4.779,4.779,0,0,1,2.035-.208m3.24,3.611a1.036,1.036,0,0,1-.475-.064c-.093-.1.082-.675.668-1.048a1.359,1.359,0,0,1,.571-.186.22.22,0,0,1,.171.059c.141.162.254.873.023,1.07a2.028,2.028,0,0,1-.958.169m-5.684,0a2.024,2.024,0,0,1-.957-.169c-.231-.2-.119-.908.022-1.07a.219.219,0,0,1,.171-.059,1.354,1.354,0,0,1,.571.186c.586.373.762.944.669,1.048a1.045,1.045,0,0,1-.476.064m1.843,1.27c-.408,0-.645-.121-.694-.269s.06-.268.24-.268h2.907c.18,0,.287.121.239.268s-.276.269-.694.269Z" transform="translate(3604.211 -13511.78)" fill="#fff"/><text transform="translate(4242.584 -12797.081)" fill="#fff" font-size="5.794" font-family="DaxOT, Dax OT"><tspan x="0" y="0">P</tspan></text><text transform="translate(4245.689 -12754.993) rotate(90)" fill="#1a1818" font-size="5.417" font-family="CenturyGothic, Century Gothic"><tspan x="0" y="0" letter-spacing="-0.017em">P</tspan><tspan y="0">ar</tspan><tspan y="0" letter-spacing="-0.026em">k</tspan><tspan y="0">e</tspan><tspan y="0" letter-spacing="-0.016em">r</tspan><tspan y="0">en</tspan></text><path d="M565.566,729.369a11.512,11.512,0,1,0-11.142-11.507,11.328,11.328,0,0,0,11.142,11.507" transform="translate(3604.211 -13511.78)" fill="#3a5121"/><text transform="translate(4166.231 -12786.801)" fill="#fff" font-size="2.318" font-family="DaxOT, Dax OT"><tspan x="0" y="0">Horeca</tspan></text><path d="M566.289,710.022l-.283.527-.038.069a.289.289,0,0,1-.165.138l-.136.035-.6,1.263a.172.172,0,0,1-.244.076l-.014-.01a.179.179,0,0,1-.058-.252l.775-1.163-.038-.138a.293.293,0,0,1,.036-.214l.037-.068.309-.515a.051.051,0,0,1,.06-.023.055.055,0,0,1,.03.077l-.269.5a.037.037,0,0,0,.013.047.036.036,0,0,0,.045-.013l.291-.487a.053.053,0,0,1,.06-.022.054.054,0,0,1,.03.076l-.268.5a.034.034,0,0,0,.013.046.035.035,0,0,0,.045-.013c.065-.107.29-.486.29-.486a.053.053,0,0,1,.081-.013.043.043,0,0,1,0,.066m-.928.764-.132.2-.078-.159-.038.021a.2.2,0,0,1-.294-.1l-.288-.749a.2.2,0,0,1,.085-.247.064.064,0,0,1,.086.021l.4.618Zm.095.665.144-.3.468.718a.177.177,0,0,1-.057.252l-.015.01a.174.174,0,0,1-.244-.077Zm5.181.267v-1.541c0-.3-.128-.573-.3-.573h-9.863c-.154,0-.295.249-.295.573v1.541c.013.324.141.572.295.572h9.863c.154,0,.3-.248.3-.572" transform="translate(3604.211 -13511.78)" fill="#fff"/><path d="M569.932,716.149a.758.758,0,0,1-.73-.52l-.038-.177-.384-1.536h1.2l.384,1.536.039.177c.076.288-.142.52-.475.52m-1.653-.52c.065.288-.179.52-.512.52a.7.7,0,0,1-.691-.52l-.026-.177-.256-1.536H568l.256,1.536Zm-2.266.011a.609.609,0,0,1-1.205,0v-1.724h1.205v1.724Zm-1.974-1.724-.255,1.536-.026.177a.7.7,0,0,1-.692.52.462.462,0,0,1-.513-.52l.026-.177.256-1.536Zm-2.023,0-.385,1.536-.038.177a.758.758,0,0,1-.73.52c-.333,0-.551-.232-.474-.52l.039-.177.383-1.536Zm-.3,3.783a.265.265,0,0,1,.261-.265h3.284a.265.265,0,0,1,.261.265v1.882a.264.264,0,0,1-.261.264h-3.284a.264.264,0,0,1-.261-.264Zm9.729-2.269-.794-1.9a.173.173,0,0,1-.013-.063v-.521a.28.28,0,0,0-.3-.254h-9.863a.281.281,0,0,0-.295.254v.565a.173.173,0,0,1-.013.063l-.769,1.86a.4.4,0,0,0,.32.5.622.622,0,0,0,.275.025.214.214,0,0,1,.264.182v4.89a.28.28,0,0,0,.3.254h6.06a.2.2,0,0,0,.216-.187v-3.739a.2.2,0,0,1,.217-.187h1.924a.2.2,0,0,1,.216.187v3.739a.2.2,0,0,0,.217.187h.949a.28.28,0,0,0,.3-.254v-4.884a.21.21,0,0,1,.245-.185.654.654,0,0,0,.241-.028c.244-.078.4-.3.308-.5" transform="translate(3604.211 -13511.78)" fill="#fff"/><path d="M664.231,729.369a11.512,11.512,0,1,0-11.142-11.507,11.328,11.328,0,0,0,11.142,11.507" transform="translate(3604.211 -13511.78)" fill="#3a5121"/><path d="M658.243,717.147a.378.378,0,0,0-.386.386v1.159a.378.378,0,0,0,.386.386h12.585a.378.378,0,0,0,.386-.386v-1.159a.378.378,0,0,0-.386-.386Z" transform="translate(3604.211 -13511.78)" fill="#fff"/><path d="M713.552,729.369a11.512,11.512,0,1,0-11.142-11.507,11.328,11.328,0,0,0,11.142,11.507" transform="translate(3604.211 -13511.78)" fill="#3a5121"/><text transform="translate(4266.063 -12785.443)" fill="#fff" font-size="2.318" font-family="DaxOT, Dax OT"><tspan x="0" y="0">Ni</tspan><tspan y="0" letter-spacing="-0.003em">e</tspan><tspan y="0">t</tspan></text><text transform="translate(4314.073 -12785.443)" fill="#fff" font-size="2.318" font-family="DaxOT, Dax OT"><tspan x="0" y="0">Bomen</tspan></text><path d="M718.438,720.878H716.5v-2.02h.761a1.374,1.374,0,0,0,1.382-1.367,1.357,1.357,0,0,1-.115-1.368,5.969,5.969,0,0,0-2.456-2.165c-.021,0-.04,0-.06,0a2.318,2.318,0,0,1,.4,1.312,2.36,2.36,0,0,1-2.37,2.346h-.733a1.377,1.377,0,0,0,1.376,1.239h.851v2.02h-3.012v-3.564h1.518a2.054,2.054,0,0,0,2.062-2.041,2.011,2.011,0,0,0-.438-1.257,2.091,2.091,0,0,0-.374-.366l-.053-.041-.007-.065a2.043,2.043,0,0,0-1.252-1.676l-.091-.037,0-.1a2.044,2.044,0,0,0-2.06-1.974,2.069,2.069,0,0,0-1.884,1.21l-.035.077-.085.012a2.054,2.054,0,0,0-1.782,2.021,2.012,2.012,0,0,0,.2.875l.039.08-.051.072a2.02,2.02,0,0,0-.371,1.167,2.054,2.054,0,0,0,2.063,2.041H711.3v3.564h-3.232a.2.2,0,1,0,0,.407h10.373a.2.2,0,1,0,0-.407" transform="translate(3604.211 -13511.78)" fill="#fff"/><path d="M716.9,721.548H709.6a.2.2,0,1,0,0,.407H716.9a.2.2,0,1,0,0-.407" transform="translate(3604.211 -13511.78)" fill="#fff"/><path d="M738.092,729.369a11.512,11.512,0,1,0-11.142-11.507,11.328,11.328,0,0,0,11.142,11.507" transform="translate(3604.211 -13511.78)" fill="#3a5121"/><path d="M731.8,716.9a.378.378,0,0,0-.386.386v1.159a.379.379,0,0,0,.386.387h12.584a.379.379,0,0,0,.387-.387v-1.159a.378.378,0,0,0-.387-.386Z" transform="translate(3604.211 -13511.78)" fill="#fff"/><text transform="translate(4340.063 -12787.158)" fill="#fff" font-size="2.318" font-family="DaxOT, Dax OT"><tspan x="0" y="0">Ni</tspan><tspan y="0" letter-spacing="-0.003em">e</tspan><tspan y="0">t</tspan></text><path d="M541.628,729.369a11.512,11.512,0,1,0-11.142-11.507,11.328,11.328,0,0,0,11.142,11.507" transform="translate(3604.211 -13511.78)" fill="#3a5121"/><path d="M548.562,720.917h-.342v-1.191h.342Zm-.685,0h-.342v-1.191h.342Zm-5.306-5.106h-1.027V714.79h1.027Zm0,2.042h-1.027v-1.021h1.027ZM540,715.811h-1.027V714.79H540Zm0,2.042h-1.027v-1.021H540Zm8.37-.444-1.694,1.694V715.47h-2.567v2.724h-.856v-4.086h-4.964v4.252l0-.034-2.106-2.566-2.684,2.668v3.511h1.883v-1.873h1.027v1.873h13.522v-2.971Z" transform="translate(3604.211 -13511.78)" fill="#fff"/><path d="M590.949,729.369a11.512,11.512,0,1,0-11.142-11.507,11.328,11.328,0,0,0,11.142,11.507" transform="translate(3604.211 -13511.78)" fill="#3a5121"/><path d="M597.407,718.446a.426.426,0,0,1-.423.428h-.963a.426.426,0,0,1-.422-.428v-1.082a.427.427,0,0,1,.422-.429h.963a.427.427,0,0,1,.423.429Zm-4.142,0a.426.426,0,0,1-.421.428h-.965a.426.426,0,0,1-.422-.428v-1.082a.427.427,0,0,1,.422-.429h.965a.427.427,0,0,1,.421.429Zm4.964,1.785v-4.3a.314.314,0,0,0-.312-.317h-6.928a.314.314,0,0,0-.312.317v4.3a.313.313,0,0,0,.312.316h2.54a.313.313,0,0,0,.312-.316V717.9a.1.1,0,0,1,.1-.1h.959a.1.1,0,0,1,.1.1v2.33a.313.313,0,0,0,.312.316h2.608a.313.313,0,0,0,.312-.316" transform="translate(3604.211 -13511.78)" fill="#fff"/><text transform="translate(4141.782 -12785.391)" fill="#fff" font-size="2.318" font-family="DaxOT, Dax OT"><tspan x="0" y="0" letter-spacing="-0.015em">S</tspan><tspan y="0" letter-spacing="-0.007em">t</tspan><tspan y="0">edelijk</tspan></text><path d="M591.028,713.916v-1.66a.315.315,0,0,1,.312-.317h.563a.314.314,0,0,1,.312.317v.61a.1.1,0,0,0,.157.08l1.95-1.475a.212.212,0,0,1,.259,0l4.276,3.238a.219.219,0,0,1-.122.4h-7.966c-.206,0-.584-.5-.419-.624l.639-.482a.1.1,0,0,0,.039-.08" transform="translate(3604.211 -13511.78)" fill="#fff"/><path d="M583.267,713.316h6.748a.206.206,0,0,0,.2-.206v-.555a.206.206,0,0,0-.2-.206h-6.748a.207.207,0,0,0-.2.206v.555a.213.213,0,0,0,.2.206" transform="translate(3604.211 -13511.78)" fill="#fff"/><path d="M589.735,716.44a.534.534,0,0,1-.5-.421l-.026-.143-.263-1.244h.823l.263,1.244.027.143a.326.326,0,0,1-.325.421m-1.13-.421a.347.347,0,0,1-.351.421.5.5,0,0,1-.473-.421l-.018-.143-.175-1.244h.824l.175,1.244Zm-1.551.009a.412.412,0,1,1-.824,0v-1.4h.824v1.4Zm-1.35-1.4-.175,1.244-.018.143a.5.5,0,0,1-.473.421.351.351,0,0,1-.351-.421l.018-.143.175-1.244Zm-1.379,2.848h2.181a.214.214,0,0,1,.211.214v1.524a.213.213,0,0,1-.211.214h-2.181a.213.213,0,0,1-.211-.214v-1.524a.214.214,0,0,1,.211-.214m-.006-2.848-.263,1.244-.026.143a.535.535,0,0,1-.5.421.326.326,0,0,1-.324-.421l.026-.143.263-1.244Zm6.451,1.226-.543-1.542a.125.125,0,0,1-.01-.051v-.421a.205.205,0,0,0-.2-.206h-6.749a.206.206,0,0,0-.2.206v.457a.148.148,0,0,1-.009.051l-.526,1.506a.33.33,0,0,0,.219.4.362.362,0,0,0,.188.02.152.152,0,0,1,.181.148v3.958a.206.206,0,0,0,.2.206h4.146a.15.15,0,0,0,.148-.152v-3.026a.151.151,0,0,1,.149-.152h1.316a.15.15,0,0,1,.148.152v3.026a.15.15,0,0,0,.148.152h.65a.206.206,0,0,0,.2-.206v-3.954a.15.15,0,0,1,.167-.149.384.384,0,0,0,.165-.023.325.325,0,0,0,.211-.4" transform="translate(3604.211 -13511.78)" fill="#fff"/><text transform="translate(4189.409 -12787.158)" fill="#fff" font-size="2.318" font-family="DaxOT, Dax OT"><tspan x="0" y="0">Combinatie</tspan></text><path d="M689.615,729.369a11.512,11.512,0,1,0-11.143-11.507,11.328,11.328,0,0,0,11.143,11.507" transform="translate(3604.211 -13511.78)" fill="#3a5121"/><text transform="translate(4291.481 -12785.443)" fill="#fff" font-size="2.318" font-family="DaxOT, Dax OT"><tspan x="0" y="0">Bus</tspan></text><path d="M683.053,714.437v2.106a.265.265,0,0,1-.265.264h-.742a.266.266,0,0,1-.267-.264v-1.9a1.041,1.041,0,0,1,1.155-1h1.3v.8Z" transform="translate(3604.211 -13511.78)" fill="#fff"/><path d="M695.4,714.437v2.106a.265.265,0,0,0,.266.264h.742a.265.265,0,0,0,.265-.264v-1.9a1.04,1.04,0,0,0-1.154-1h-1.3v.8Z" transform="translate(3604.211 -13511.78)" fill="#fff"/><path d="M694.405,720.429a.265.265,0,0,1-.266.264H692.5a.265.265,0,0,1-.265-.264v-.659a.265.265,0,0,1,.265-.264h1.64a.266.266,0,0,1,.266.264Zm-3.1-.065a.558.558,0,0,1-.512.329h-3.139a.561.561,0,0,1-.512-.329c-.059-.182.073-.33.295-.33h3.574c.221,0,.354.148.294.33m-5.088.065a.265.265,0,0,1-.265.264h-1.64a.264.264,0,0,1-.264-.264v-.659a.264.264,0,0,1,.264-.264h1.64a.265.265,0,0,1,.265.264Zm-1.261-7.619c.524-.378,2.781-.4,4.268-.4s3.744.019,4.268.4.537,4.457,0,4.846-2.782.4-4.268.4-3.744-.019-4.268-.4-.538-4.457,0-4.846m3.294-2.012H690.2a.371.371,0,1,1,0,.741h-1.946a.371.371,0,1,1,0-.741m6.544,6.74v-5.62a1.921,1.921,0,0,0-1.495-1.81,23.928,23.928,0,0,0-8.149,0,1.923,1.923,0,0,0-1.5,1.81v5.62a.651.651,0,0,0-.341.564v3.106a.676.676,0,0,0,.687.66h10.449a.678.678,0,0,0,.688-.66V718.1a.652.652,0,0,0-.342-.564" transform="translate(3604.211 -13511.78)" fill="#fff"/><path d="M684.038,721.183v1.479a.662.662,0,0,0,.662.658h.546a.663.663,0,0,0,.662-.658v-1.479Z" transform="translate(3604.211 -13511.78)" fill="#fff"/><path d="M692.549,721.183v1.479a.662.662,0,0,0,.662.658h.546a.662.662,0,0,0,.661-.658v-1.479Z" transform="translate(3604.211 -13511.78)" fill="#fff"/></g></svg>