<svg xmlns="http://www.w3.org/2000/svg" width="351.041" height="485.549" viewBox="0 0 351.041 485.549"><g transform="translate(380.276 14246.676)"><path d="M340.615,806.05H126.344c-37.751,0-68.363,29.812-68.363,66.642V902.7H409.022V872.692c0-36.83-30.629-66.642-68.406-66.642" transform="translate(-438.257 -14663.829)" fill="#f7d5c3"/><path d="M219.337,816.626V778.3c0-12.268-10.209-22.207-22.8-22.207H172.6c-12.613,0-22.819,9.939-22.819,22.207v38.327S142.969,865.5,93.411,869.4c5.659,29.424,67.234,47.753,91.158,44.421,23.917,3.332,85.465-15,91.2-44.421-49.567-3.9-56.431-52.775-56.431-52.775" transform="translate(-393.328 -14727.18)" fill="#f7d5c3"/><path d="M264.166,868.746H244.243c-49.561-3.89-56.426-52.763-56.426-52.763V777.656c0-12.264-10.209-22.212-22.8-22.212H141.084c-12.613,0-22.817,9.948-22.817,22.212v11.329l182.5,177.888h31.808V935.385c0-36.789-30.629-66.64-68.406-66.64" transform="translate(-361.807 -14727.999)" fill="#d0b3a5"/><path d="M186.81,658.137c-52.561,0-95.166,58.429-95.166,130.525s42.6,130.53,95.166,130.53,95.172-58.44,95.172-130.53S239.366,658.137,186.81,658.137" transform="translate(-395.569 -14851.397)" fill="#f7d5c3"/><path d="M133.6,658.137V919.192c52.557,0,95.172-58.44,95.172-130.53S186.159,658.137,133.6,658.137" transform="translate(-342.361 -14851.397)" fill="#e1c3b2"/><path d="M241.371,650.783c-40.3-28.869-107.114-20.724-145.506,37.222C61,740.687,55.211,852.228,109.174,918.135L230.348,840.76s-8.744-80.672,40.059-128.654c23.348,20.146,40.3,115.309,28.6,168.632,20.241,11.114,39.624,29.438,39.624,29.438s67.306-118.157,5.8-215.55c-37.9-60.035-81.521-54.945-103.061-43.843" transform="translate(-424.097 -14881.264)" fill="#18988b"/><path d="M340.615,837.927H323.75c-1.615-31.352-27.349-56.456-59.484-58.032-1.071-.045-2.114-.147-3.221-.147h-55.14a65.627,65.627,0,0,0-11.189,1c-28.621,5.04-50.49,28.964-51.529,58.073-1.572.256-3.178.44-4.847.576h-12c-37.751,0-68.363,29.812-68.363,66.642v30.012H409.022V904.567c0-36.789-30.629-66.64-68.406-66.64" transform="translate(-438.257 -14697.182)" fill="#18988b"/></g></svg>