<svg xmlns="http://www.w3.org/2000/svg" width="219.049" height="74.258" viewBox="0 0 219.049 74.258"><g transform="translate(-5881.109 23707.828)"><line y2="3.057" transform="translate(5892.167 -23696.063)" fill="none" stroke="#1a1818" stroke-miterlimit="10" stroke-width="1.019"/><line y2="46.263" transform="translate(5892.167 -23686.836)" fill="none" stroke="#1a1818" stroke-miterlimit="10" stroke-width="1.019" stroke-dasharray="6.169 6.169"/><line y2="3.057" transform="translate(5892.167 -23637.49)" fill="none" stroke="#1a1818" stroke-miterlimit="10" stroke-width="1.019"/><line y2="3.057" transform="translate(5916.612 -23696.063)" fill="none" stroke="#1a1818" stroke-miterlimit="10" stroke-width="1.019"/><line y2="46.263" transform="translate(5916.612 -23686.836)" fill="none" stroke="#1a1818" stroke-miterlimit="10" stroke-width="1.019" stroke-dasharray="6.169 6.169"/><line y2="3.057" transform="translate(5916.612 -23637.49)" fill="none" stroke="#1a1818" stroke-miterlimit="10" stroke-width="1.019"/><line y2="3.057" transform="translate(5941.652 -23696.063)" fill="none" stroke="#1a1818" stroke-miterlimit="10" stroke-width="1.019"/><line y2="46.263" transform="translate(5941.652 -23686.836)" fill="none" stroke="#1a1818" stroke-miterlimit="10" stroke-width="1.019" stroke-dasharray="6.169 6.169"/><line y2="3.057" transform="translate(5941.652 -23637.49)" fill="none" stroke="#1a1818" stroke-miterlimit="10" stroke-width="1.019"/><line y2="3.057" transform="translate(5966.163 -23696.063)" fill="none" stroke="#1a1818" stroke-miterlimit="10" stroke-width="1.019"/><line y2="46.263" transform="translate(5966.163 -23686.836)" fill="none" stroke="#1a1818" stroke-miterlimit="10" stroke-width="1.019" stroke-dasharray="6.169 6.169"/><line y2="3.057" transform="translate(5966.163 -23637.49)" fill="none" stroke="#1a1818" stroke-miterlimit="10" stroke-width="1.019"/><line y2="3.057" transform="translate(5990.607 -23696.063)" fill="none" stroke="#1a1818" stroke-miterlimit="10" stroke-width="1.019"/><line y2="46.263" transform="translate(5990.607 -23686.836)" fill="none" stroke="#1a1818" stroke-miterlimit="10" stroke-width="1.019" stroke-dasharray="6.169 6.169"/><line y2="3.057" transform="translate(5990.607 -23637.49)" fill="none" stroke="#1a1818" stroke-miterlimit="10" stroke-width="1.019"/><line y2="3.057" transform="translate(6015.647 -23696.063)" fill="none" stroke="#1a1818" stroke-miterlimit="10" stroke-width="1.019"/><line y2="46.263" transform="translate(6015.647 -23686.836)" fill="none" stroke="#1a1818" stroke-miterlimit="10" stroke-width="1.019" stroke-dasharray="6.169 6.169"/><line y2="3.057" transform="translate(6015.647 -23637.49)" fill="none" stroke="#1a1818" stroke-miterlimit="10" stroke-width="1.019"/><line y2="3.057" transform="translate(6039.852 -23696.063)" fill="none" stroke="#1a1818" stroke-miterlimit="10" stroke-width="1.019"/><line y2="46.263" transform="translate(6039.852 -23686.836)" fill="none" stroke="#1a1818" stroke-miterlimit="10" stroke-width="1.019" stroke-dasharray="6.169 6.169"/><line y2="3.057" transform="translate(6039.852 -23637.49)" fill="none" stroke="#1a1818" stroke-miterlimit="10" stroke-width="1.019"/><line y2="3.057" transform="translate(6064.296 -23696.063)" fill="none" stroke="#1a1818" stroke-miterlimit="10" stroke-width="1.019"/><line y2="46.263" transform="translate(6064.296 -23686.836)" fill="none" stroke="#1a1818" stroke-miterlimit="10" stroke-width="1.019" stroke-dasharray="6.169 6.169"/><line y2="3.057" transform="translate(6064.296 -23637.49)" fill="none" stroke="#1a1818" stroke-miterlimit="10" stroke-width="1.019"/><line y2="3.057" transform="translate(6089.336 -23696.063)" fill="none" stroke="#1a1818" stroke-miterlimit="10" stroke-width="1.019"/><line y2="46.263" transform="translate(6089.336 -23686.836)" fill="none" stroke="#1a1818" stroke-miterlimit="10" stroke-width="1.019" stroke-dasharray="6.169 6.169"/><line y2="3.057" transform="translate(6089.336 -23637.49)" fill="none" stroke="#1a1818" stroke-miterlimit="10" stroke-width="1.019"/><text transform="translate(5894.775 -23676.57) rotate(90)" fill="#1a1818" font-size="5.417" font-family="CenturyGothic, Century Gothic"><tspan x="0" y="0" letter-spacing="-0.01em">T</tspan><tspan y="0">ype omg</tspan><tspan y="0" letter-spacing="-0.009em">e</tspan><tspan y="0">ving </tspan></text><text transform="translate(5918.556 -23682.096) rotate(90)" fill="#1a1818" font-size="5.417" font-family="CenturyGothic, Century Gothic"><tspan x="0" y="0" letter-spacing="-0.042em">V</tspan><tspan y="0">erblijf</tspan><tspan y="0" letter-spacing="0.007em">s</tspan><tspan y="0">aanleiding</tspan></text><text transform="translate(5943.602 -23676.949) rotate(90)" fill="#1a1818" font-size="5.417" font-family="CenturyGothic, Century Gothic"><tspan x="0" y="0" letter-spacing="-0.007em">F</tspan><tspan y="0">un</tspan><tspan y="0" letter-spacing="0.01em">c</tspan><tspan y="0">tie</tspan><tspan y="0" letter-spacing="-0.016em"> </tspan><tspan y="0" letter-spacing="-0.019em">w</tspan><tspan y="0">anden</tspan></text><text transform="translate(5968.567 -23667.098) rotate(90)" fill="#1a1818" font-size="5.417" font-family="CenturyGothic, Century Gothic"><tspan x="0" y="0">Au</tspan><tspan y="0" letter-spacing="-0.007em">t</tspan><tspan y="0">o en fi</tspan><tspan y="0" letter-spacing="-0.006em">e</tspan><tspan y="0">ts</tspan></text><text transform="translate(6017.796 -23674.053) rotate(90)" fill="#1a1818" font-size="5.417" font-family="CenturyGothic, Century Gothic"><tspan x="0" y="0" letter-spacing="-0.042em">V</tspan><tspan y="0">er</tspan><tspan y="0" letter-spacing="-0.026em">k</tspan><tspan y="0">eerslic</tspan><tspan y="0" letter-spacing="-0.005em">h</tspan><tspan y="0" letter-spacing="-0.007em">t</tspan><tspan y="0">en</tspan></text><text transform="translate(6066.134 -23651.059) rotate(90)" fill="#1a1818" font-size="5.417" font-family="CenturyGothic, Century Gothic"><tspan x="0" y="0">G</tspan><tspan y="0" letter-spacing="-0.015em">r</tspan><tspan y="0">oen</tspan></text><text transform="translate(6041.86 -23683.32) rotate(90)" fill="#1a1818" font-size="5.417" font-family="CenturyGothic, Century Gothic"><tspan x="0" y="0">Openbaa</tspan></text><text transform="translate(6041.861 -23657) rotate(90)" fill="#1a1818" font-size="5.417" font-family="CenturyGothic, Century Gothic"><tspan x="0" y="0" letter-spacing="-0.024em">r</tspan><tspan y="0"> </tspan></text><text transform="translate(6041.86 -23654.141) rotate(90)" fill="#1a1818" font-size="5.417" font-family="CenturyGothic, Century Gothic"><tspan x="0" y="0" letter-spacing="-0.012em">v</tspan><tspan y="0">er</tspan><tspan y="0" letter-spacing="-0.012em">v</tspan><tspan y="0">oer</tspan></text><path d="M614.946,729.172A11.512,11.512,0,1,0,603.8,717.666a11.327,11.327,0,0,0,11.142,11.506" transform="translate(5350.865 -24413.914)" fill="#3a5121"/><text transform="translate(5960.739 -23687.721)" fill="#fff" font-size="2.318" font-family="DaxOT, Dax OT"><tspan x="0" y="0">Gemengd</tspan></text><path d="M619.426,717.4a.2.2,0,0,0-.2.2v2.9a.2.2,0,1,0,.394,0v-2.9a.2.2,0,0,0-.2-.2" transform="translate(5350.865 -24413.914)" fill="#fff"/><text transform="translate(6091.727 -23680.535) rotate(90)" fill="#1a1818" font-size="5.417" font-family="CenturyGothic, Century Gothic"><tspan x="0" y="0">Speciaal ka</tspan><tspan y="0" letter-spacing="-0.01em">r</tspan><tspan y="0">ak</tspan><tspan y="0" letter-spacing="-0.007em">t</tspan><tspan y="0">er</tspan></text><path d="M619.308,716.729h-.622a2.82,2.82,0,0,0-.233,1.534c.005.178.012.361.009.553a.255.255,0,0,0,.251.259h0a.255.255,0,0,0,.255-.251c0-.2,0-.394-.009-.578a1.93,1.93,0,0,1,.345-1.517" transform="translate(5350.865 -24413.914)" fill="#fff"/><path d="M620.177,716.729h-.549a5.51,5.51,0,0,1,.262,2.582.257.257,0,0,0,.235.274h.02a.254.254,0,0,0,.253-.236,8,8,0,0,0-.081-2.078,4.041,4.041,0,0,0-.14-.542" transform="translate(5350.865 -24413.914)" fill="#fff"/><path d="M620.37,716.161h-1.889a4.467,4.467,0,0,1,.187-1.534c.019-.053.038-.1.058-.152v1.459h0v.075h1.379v-.075h0v-1.48c.024.056.048.115.069.177a4.4,4.4,0,0,1,.19,1.53m.651,0h-.17c.035-1.315-.31-2.314-.934-2.687a.941.941,0,0,0-.991,0c-.619.37-.962,1.369-.926,2.687h-.17a.2.2,0,1,0,0,.394h3.191a.2.2,0,1,0,0-.394" transform="translate(5350.865 -24413.914)" fill="#fff"/><path d="M619.426,711.76a.7.7,0,1,1-.7.7.7.7,0,0,1,.7-.7" transform="translate(5350.865 -24413.914)" fill="#fff"/><path d="M608.555,718.972c0,.011,0,.023,0,.034v1.06a.449.449,0,0,0,.447.447h.369a.45.45,0,0,0,.448-.447v-.33h-.945c-.106,0-.228-.337-.318-.764" transform="translate(5350.865 -24413.914)" fill="#fff"/><path d="M616,718.971c-.091.427-.213.765-.32.765h-.943v.329a.449.449,0,0,0,.448.448h.368a.449.449,0,0,0,.448-.448v-1.094" transform="translate(5350.865 -24413.914)" fill="#fff"/><path d="M612.278,714.438h0c-1.408,0-1.911.027-2.27.249a4.542,4.542,0,0,0-.822,1.173l-.012.012a.2.2,0,0,0-.182-.125h-.664c-.249,0-.283.243-.283.375h0a.637.637,0,0,0,.005.084.213.213,0,0,0,.2.177h.287l.029,0h0c.135,0,.259.061.211.248a5.023,5.023,0,0,0-.328.792,4.451,4.451,0,0,0,.1,1.55c.09.427.212.764.318.764h6.809c.107,0,.228-.338.319-.765a4.438,4.438,0,0,0,.1-1.549,4.876,4.876,0,0,0-.328-.793c-.047-.186.076-.247.211-.247h0l.03,0h.287a.214.214,0,0,0,.2-.177s0-.03,0-.075v-.019c0-.134-.04-.366-.282-.366h-.664a.194.194,0,0,0-.182.125l-.012-.011a4.557,4.557,0,0,0-.822-1.174c-.359-.222-.863-.249-2.27-.249m-.331.448h.66a3.891,3.891,0,0,1,1.7.181,5.941,5.941,0,0,1,.748,1.152,18.226,18.226,0,0,1-5.563,0,5.816,5.816,0,0,1,.759-1.16,3.94,3.94,0,0,1,1.692-.174m2.694,3.009a.869.869,0,0,1-.4-.053c-.077-.086.068-.563.556-.873a1.133,1.133,0,0,1,.474-.155.184.184,0,0,1,.142.049c.118.134.211.728.02.892a1.676,1.676,0,0,1-.8.14m-4.726,0a1.683,1.683,0,0,1-.8-.14c-.191-.164-.1-.758.02-.892a.184.184,0,0,1,.142-.049,1.133,1.133,0,0,1,.475.155c.487.31.633.787.556.873a.875.875,0,0,1-.4.053m1.532,1.059c-.339,0-.537-.1-.577-.224s.05-.223.2-.223h2.417c.15,0,.24.1.2.223s-.229.224-.577.224Z" transform="translate(5350.865 -24413.914)" fill="#fff"/><path d="M640.052,729.172a11.512,11.512,0,1,0-11.142-11.506,11.328,11.328,0,0,0,11.142,11.506" transform="translate(5350.865 -24413.914)" fill="#3a5121"/><path d="M635.334,721.444c0,.014,0,.027,0,.041v1.271a.539.539,0,0,0,.539.537h.443a.54.54,0,0,0,.539-.537v-.395h-1.136c-.128,0-.275-.405-.383-.917" transform="translate(5350.865 -24413.914)" fill="#fff"/><text transform="translate(5988.877 -23687.721)" fill="#fff" font-size="2.318" font-family="DaxOT, Dax OT"><tspan x="0" y="0" letter-spacing="-0.027em">W</tspan><tspan y="0">el</tspan></text><path d="M644.291,721.443c-.109.512-.256.918-.384.918h-1.135v.395a.539.539,0,0,0,.539.536h.442a.539.539,0,0,0,.539-.536v-1.271c0-.014,0-.028,0-.042" transform="translate(5350.865 -24413.914)" fill="#fff"/><path d="M639.812,716h0c-1.693,0-2.3.032-2.73.3a5.438,5.438,0,0,0-.989,1.407l-.014.014a.236.236,0,0,0-.219-.15h-.8c-.3,0-.339.291-.339.451a.92.92,0,0,0,.005.1.255.255,0,0,0,.245.213h.345l.036,0c.162,0,.31.074.254.3a5.912,5.912,0,0,0-.4.952,5.316,5.316,0,0,0,.122,1.86c.109.512.254.917.383.917h8.19c.128,0,.275-.406.384-.918a5.328,5.328,0,0,0,.121-1.859,5.848,5.848,0,0,0-.394-.952c-.057-.222.092-.3.253-.3l.036,0h.345a.255.255,0,0,0,.245-.213.832.832,0,0,0,.006-.089v-.023c0-.161-.048-.44-.34-.44h-.8a.236.236,0,0,0-.22.15l-.013-.013a5.426,5.426,0,0,0-.99-1.408c-.431-.268-1.037-.3-2.73-.3m-.4.538h.794a4.672,4.672,0,0,1,2.05.218,7.115,7.115,0,0,1,.9,1.382,21.952,21.952,0,0,1-6.692,0,7.062,7.062,0,0,1,.913-1.393,4.774,4.774,0,0,1,2.035-.208m3.24,3.611a1.045,1.045,0,0,1-.476-.064c-.092-.1.083-.675.669-1.048a1.36,1.36,0,0,1,.571-.186.216.216,0,0,1,.171.06c.141.161.253.873.023,1.069a2.025,2.025,0,0,1-.958.169m-5.684,0a2.025,2.025,0,0,1-.958-.169c-.23-.2-.118-.908.024-1.069a.215.215,0,0,1,.171-.06,1.36,1.36,0,0,1,.57.186c.586.373.761.944.669,1.048a1.045,1.045,0,0,1-.476.064m1.843,1.27c-.408,0-.645-.12-.694-.268s.059-.269.24-.269h2.907c.18,0,.287.121.239.269s-.275.268-.694.268Z" transform="translate(5350.865 -24413.914)" fill="#fff"/><text transform="translate(5989.297 -23699.41)" fill="#fff" font-size="5.794" font-family="DaxOT, Dax OT"><tspan x="0" y="0">P</tspan></text><text transform="translate(5992.404 -23657.324) rotate(90)" fill="#1a1818" font-size="5.417" font-family="CenturyGothic, Century Gothic"><tspan x="0" y="0" letter-spacing="-0.017em">P</tspan><tspan y="0">ar</tspan><tspan y="0" letter-spacing="-0.026em">k</tspan><tspan y="0">e</tspan><tspan y="0" letter-spacing="-0.016em">r</tspan><tspan y="0">en</tspan></text><path d="M541.386,729.156a11.512,11.512,0,1,0-11.142-11.506,11.328,11.328,0,0,0,11.142,11.506" transform="translate(5350.865 -24413.914)" fill="#3a5121"/><path d="M548.246,720.766h-.576l-.008-.007v-.9l.008-.008h.576l.008.008v.9Zm-1.762,0h-.577l-.008-.007v-.9l.008-.008h.577l.008.008v.9Zm-.844,0h-.578l-.007-.007v-.9l.007-.008h.578l.008.008v.9Zm-2.191-2.479H542.9l-.007-.007v-.649a.292.292,0,0,1,.238-.294.278.278,0,0,1,.321.27v.68Zm-1.047,0h-.551l-.008-.007v-.653a.288.288,0,0,1,.24-.29.276.276,0,0,1,.318.27v.68Zm-1.9,2.479h-.577l-.008-.007v-.907h.585l.008.008v.9Zm-1.746-2.586h-.584l-.008-.008v-.9l.008-.007h.577l.007.007Zm0,1.128h-.584l-.008-.007v-.9l.008-.007h.577l.007.007Zm-.85-1.128h-.578l-.007-.008v-.9l.007-.007h.578l.006.007v.9Zm0,1.128h-.578l-.007-.007v-.9l.007-.007h.578l.006.007v.9Zm-1.947,0h-.585l-.007-.007v-.9l.007-.007h.578l.007.007Zm-.851,0h-.578l-.007-.007v-.9l.007-.007h.578l.008.007v.9Zm12.415-1.021h-1.751l-.005,0-1.29,1.049-.012-.006v-2.394h-.03l-1.493-4.877h0v-.914l.008-.007h.279a.056.056,0,0,0,.056-.056.057.057,0,0,0-.056-.056h-.279l-.008-.007v-.308a.057.057,0,0,0-.057-.056.057.057,0,0,0-.057.056v.308l-.007.007h-.278a.057.057,0,0,0-.057.056.057.057,0,0,0,.057.056h.278l.007.007v.914h0l-1.491,4.876v.77l-.007.007h-1.205l-.006,0-.676,1.153-.014,0v-1.688l0-.005-1.462-1.78-.005,0h-2.554l-.006,0-1.462,1.78,0,.005v5.145l.008.008h8.129l.008-.007v-2.1a.687.687,0,0,1,.653-.678h0a.687.687,0,0,1,.654.678v2.1l.007.007h5.429l.008-.007v-2.972l0-.006-1.3-1.056Z" transform="translate(5350.865 -24413.914)" fill="#fff"/><text transform="translate(5889.569 -23687.789)" fill="#fff" font-size="2.318" font-family="DaxOT, Dax OT"><tspan x="0" y="0">Dorps</tspan></text><path d="M590.707,729.172a11.512,11.512,0,1,0-11.142-11.506,11.328,11.328,0,0,0,11.142,11.506" transform="translate(5350.865 -24413.914)" fill="#3a5121"/><path d="M594.067,718.178a.508.508,0,0,1-.506.506h-1.156a.508.508,0,0,1-.506-.506V716.9a.508.508,0,0,1,.506-.506h1.156a.508.508,0,0,1,.506.506Zm-4.966,0a.508.508,0,0,1-.506.506H587.44a.508.508,0,0,1-.507-.506V716.9a.508.508,0,0,1,.507-.506h1.155a.508.508,0,0,1,.506.506Zm5.952,2.109v-5.079a.374.374,0,0,0-.374-.375h-8.308a.375.375,0,0,0-.374.375v5.079a.374.374,0,0,0,.374.374h3.046a.373.373,0,0,0,.374-.374v-2.753a.118.118,0,0,1,.118-.118h1.151a.118.118,0,0,1,.118.118v2.753a.373.373,0,0,0,.374.374h3.127a.373.373,0,0,0,.374-.374m-8.725-7.484v-2.018a.382.382,0,0,1,.379-.385h.685a.381.381,0,0,1,.379.385v.742a.119.119,0,0,0,.191.1l2.371-1.8a.261.261,0,0,1,.316,0l5.2,3.938a.266.266,0,0,1-.148.483h-9.689c-.249,0-.709-.607-.509-.759l.777-.586a.123.123,0,0,0,.048-.1" transform="translate(5350.865 -24413.914)" fill="#fff"/><text transform="translate(5937.411 -23687.773)" fill="#fff" font-size="2.318" font-family="DaxOT, Dax OT"><tspan x="0" y="0" letter-spacing="0.005em">W</tspan><tspan y="0" letter-spacing="0.006em">one</tspan><tspan y="0">n</tspan></text><path d="M689.373,729.172a11.512,11.512,0,1,0-11.142-11.507,11.328,11.328,0,0,0,11.142,11.507" transform="translate(5350.865 -24413.914)" fill="#3a5121"/><path d="M683.081,716.7a.378.378,0,0,0-.386.386v1.159a.378.378,0,0,0,.386.386h12.585a.378.378,0,0,0,.386-.386v-1.159a.378.378,0,0,0-.386-.386Z" transform="translate(5350.865 -24413.914)" fill="#fff"/><path d="M664.291,729.1a11.512,11.512,0,1,0-11.142-11.506A11.328,11.328,0,0,0,664.291,729.1" transform="translate(5350.865 -24413.914)" fill="#3a5121"/><text transform="translate(6037.635 -23689.488)" fill="#fff" font-size="2.318" font-family="DaxOT, Dax OT"><tspan x="0" y="0">Ni</tspan><tspan y="0" letter-spacing="-0.003em">e</tspan><tspan y="0">t</tspan></text><path d="M658.3,716.877a.378.378,0,0,0-.386.386v1.159a.378.378,0,0,0,.386.386h12.584a.379.379,0,0,0,.387-.386v-1.159a.378.378,0,0,0-.387-.386Z" transform="translate(5350.865 -24413.914)" fill="#fff"/><path d="M713.612,729.172a11.512,11.512,0,1,0-11.142-11.506,11.328,11.328,0,0,0,11.142,11.506" transform="translate(5350.865 -24413.914)" fill="#3a5121"/><text transform="translate(6012.775 -23687.846)" fill="#fff" font-size="2.318" font-family="DaxOT, Dax OT"><tspan x="0" y="0">Ni</tspan><tspan y="0" letter-spacing="-0.003em">e</tspan><tspan y="0">t</tspan></text><text transform="translate(6060.787 -23687.771)" fill="#fff" font-size="2.318" font-family="DaxOT, Dax OT"><tspan x="0" y="0">Bomen</tspan></text><path d="M718.5,720.681h-1.938v-2.02h.761a1.374,1.374,0,0,0,1.382-1.367,1.357,1.357,0,0,1-.115-1.368,5.967,5.967,0,0,0-2.456-2.165c-.021,0-.04,0-.061,0a2.311,2.311,0,0,1,.406,1.312,2.36,2.36,0,0,1-2.37,2.346h-.733a1.377,1.377,0,0,0,1.375,1.239h.852v2.02h-3.012v-3.564h1.518a2.054,2.054,0,0,0,2.062-2.041,2.012,2.012,0,0,0-.437-1.257,2.136,2.136,0,0,0-.375-.366l-.054-.041-.006-.065a2.042,2.042,0,0,0-1.252-1.676l-.091-.037,0-.1a2.044,2.044,0,0,0-2.06-1.974,2.067,2.067,0,0,0-1.883,1.21l-.036.077-.085.012a2.052,2.052,0,0,0-1.782,2.021,2.012,2.012,0,0,0,.2.875l.039.08-.051.072a2.018,2.018,0,0,0-.371,1.167,2.055,2.055,0,0,0,2.062,2.041h1.375v3.564h-3.232a.2.2,0,1,0,0,.407H718.5a.2.2,0,1,0,0-.407" transform="translate(5350.865 -24413.914)" fill="#fff"/><path d="M716.958,721.35h-7.295a.2.2,0,1,0,0,.407h7.295a.2.2,0,1,0,0-.407" transform="translate(5350.865 -24413.914)" fill="#fff"/><path d="M738.152,729.172a11.512,11.512,0,1,0-11.142-11.506,11.327,11.327,0,0,0,11.142,11.506" transform="translate(5350.865 -24413.914)" fill="#3a5121"/><path d="M733.541,719.947c0,.014,0,.029,0,.044v1.363a.577.577,0,0,0,.576.575h.474a.577.577,0,0,0,.577-.575v-.423H733.95c-.137,0-.293-.435-.409-.984" transform="translate(5350.865 -24413.914)" fill="#fff"/><path d="M743.123,719.946c-.117.549-.273.984-.41.984H741.5v.424a.578.578,0,0,0,.576.575h.474a.578.578,0,0,0,.576-.575v-1.362c0-.015,0-.03,0-.046" transform="translate(5350.865 -24413.914)" fill="#fff"/><path d="M738.332,714.114h0c-1.811,0-2.459.034-2.921.32a5.9,5.9,0,0,0-1.057,1.51l-.016.016a.249.249,0,0,0-.234-.161h-.855c-.319,0-.363.311-.363.482h0a.878.878,0,0,0,.006.108.274.274,0,0,0,.262.229h.369l.039-.005h0c.172,0,.332.079.271.318a6.369,6.369,0,0,0-.422,1.02,5.715,5.715,0,0,0,.13,1.994c.117.549.273.983.41.983h8.762c.137,0,.294-.434.41-.984a5.686,5.686,0,0,0,.13-1.993,6.426,6.426,0,0,0-.422-1.02c-.06-.239.1-.318.271-.318h0l.038.005h.37a.274.274,0,0,0,.262-.229.943.943,0,0,0,.006-.1v-.024c0-.173-.051-.471-.363-.471h-.854a.249.249,0,0,0-.235.161l-.015-.015a5.858,5.858,0,0,0-1.058-1.511c-.462-.286-1.111-.32-2.921-.32m-.426.576h.849a5.007,5.007,0,0,1,2.194.234,7.657,7.657,0,0,1,.962,1.482,23.384,23.384,0,0,1-7.158,0,7.567,7.567,0,0,1,.976-1.493,5.1,5.1,0,0,1,2.177-.224m3.467,3.872a1.091,1.091,0,0,1-.509-.069c-.1-.111.088-.723.715-1.123a1.453,1.453,0,0,1,.61-.2.231.231,0,0,1,.183.065c.151.172.271.936.025,1.146a2.156,2.156,0,0,1-1.024.181m-6.081,0a2.158,2.158,0,0,1-1.025-.181c-.246-.21-.127-.974.025-1.146a.233.233,0,0,1,.183-.065,1.453,1.453,0,0,1,.61.2c.627.4.815,1.012.716,1.123a1.1,1.1,0,0,1-.509.069m1.971,1.362c-.436,0-.69-.129-.742-.288s.064-.287.256-.287h3.11c.192,0,.308.129.255.287s-.294.288-.742.288Z" transform="translate(5350.865 -24413.914)" fill="#fff"/><path d="M739.291,718.24a.276.276,0,0,0-.281.268v3.235a.281.281,0,0,0,.561,0v-3.235a.275.275,0,0,0-.28-.268" transform="translate(5350.865 -24413.914)" fill="#fff"/><path d="M739.291,718.24a.276.276,0,0,0-.281.268v3.235a.281.281,0,0,0,.561,0v-3.235A.275.275,0,0,0,739.291,718.24Z" transform="translate(5350.865 -24413.914)" fill="none" stroke="#d3d5d6" stroke-miterlimit="15" stroke-width="0.127"/><path d="M739.188,717.5h-.747l-.014.025a3.094,3.094,0,0,0-.275,1.741c.006.207.013.408.01.617a.326.326,0,0,0,.1.238.345.345,0,0,0,.588-.227c0-.229,0-.44-.011-.644a2.076,2.076,0,0,1,.387-1.669l.073-.081Z" transform="translate(5350.865 -24413.914)" fill="#fff"/><path d="M739.188,717.5h-.747l-.014.025a3.094,3.094,0,0,0-.275,1.741c.006.207.013.408.01.617a.326.326,0,0,0,.1.238.345.345,0,0,0,.588-.227c0-.229,0-.44-.011-.644a2.076,2.076,0,0,1,.387-1.669l.073-.081Z" transform="translate(5350.865 -24413.914)" fill="none" stroke="#d3d5d6" stroke-miterlimit="15" stroke-width="0.127"/><path d="M740.126,717.5h-.709l.034.07a5.8,5.8,0,0,1,.3,2.857.333.333,0,0,0,.079.24.346.346,0,0,0,.237.118h.024a.34.34,0,0,0,.342-.308,8.737,8.737,0,0,0-.1-2.333,4.257,4.257,0,0,0-.163-.613l-.011-.032Z" transform="translate(5350.865 -24413.914)" fill="#fff"/><path d="M740.126,717.5h-.709l.034.07a5.8,5.8,0,0,1,.3,2.857.333.333,0,0,0,.079.24.346.346,0,0,0,.237.118h.024a.34.34,0,0,0,.342-.308,8.737,8.737,0,0,0-.1-2.333,4.257,4.257,0,0,0-.163-.613l-.011-.032Z" transform="translate(5350.865 -24413.914)" fill="none" stroke="#d3d5d6" stroke-miterlimit="15" stroke-width="0.127"/><text transform="translate(6084.828 -23687.773)" fill="#fff" font-size="2.318" font-family="DaxOT, Dax OT"><tspan x="0" y="0">Fi</tspan><tspan y="0" letter-spacing="-0.003em">e</tspan><tspan y="0">t</tspan><tspan y="0" letter-spacing="-0.008em">s</tspan><tspan y="0" letter-spacing="-0.005em">s</tspan><tspan y="0">t</tspan><tspan y="0" letter-spacing="-0.004em">r</tspan><tspan y="0">a</tspan><tspan y="0" letter-spacing="-0.004em">a</tspan><tspan y="0">t</tspan></text><path d="M740.344,716.992h-2.153v-.047a5.011,5.011,0,0,1,.212-1.729c.02-.06.042-.118.065-.173l.093-.221v1.82l0,.048v.036h1.442v-.084l0-1.6v-.232l.092.212c.028.064.055.131.079.2a4.971,4.971,0,0,1,.214,1.725v.047Zm.726-.1h-.14c.029-1.457-.368-2.573-1.066-2.991a1.1,1.1,0,0,0-1.155,0c-.693.416-1.087,1.532-1.057,2.992h-.14a.268.268,0,0,0,0,.536h3.558a.268.268,0,0,0,0-.536" transform="translate(5350.865 -24413.914)" fill="#fff"/><path d="M740.344,716.992h-2.153v-.047a5.011,5.011,0,0,1,.212-1.729c.02-.06.042-.118.065-.173l.093-.221v1.82l0,.048v.036h1.442v-.084l0-1.6v-.232l.092.212c.028.064.055.131.079.2a4.971,4.971,0,0,1,.214,1.725v.047Zm.726-.1h-.14c.029-1.457-.368-2.573-1.066-2.991a1.1,1.1,0,0,0-1.155,0c-.693.416-1.087,1.532-1.057,2.992h-.14a.268.268,0,0,0,0,.536h3.558a.268.268,0,0,0,0-.536Z" transform="translate(5350.865 -24413.914)" fill="none" stroke="#d3d5d6" stroke-miterlimit="15" stroke-width="0.127"/><path d="M739.291,713.331a.839.839,0,1,0-.839-.839.84.84,0,0,0,.839.839" transform="translate(5350.865 -24413.914)" fill="#fff"/><path d="M739.291,713.331a.839.839,0,1,0-.839-.839A.84.84,0,0,0,739.291,713.331Z" transform="translate(5350.865 -24413.914)" fill="none" stroke="#d3d5d6" stroke-miterlimit="15" stroke-width="0.127"/><path d="M565.926,729.172a11.512,11.512,0,1,0-11.142-11.506,11.327,11.327,0,0,0,11.142,11.506" transform="translate(5350.865 -24413.914)" fill="#3a5121"/><path d="M559.682,716.7a.378.378,0,0,0-.386.386v1.159a.378.378,0,0,0,.386.386h12.584a.379.379,0,0,0,.387-.386v-1.159a.378.378,0,0,0-.387-.386Z" transform="translate(5350.865 -24413.914)" fill="#fff"/><text transform="translate(5914.552 -23687.773)" fill="#fff" font-size="2.318" font-family="DaxOT, Dax OT"><tspan x="0" y="0">Ni</tspan><tspan y="0" letter-spacing="-0.003em">e</tspan><tspan y="0">t</tspan></text></g></svg>