<svg xmlns="http://www.w3.org/2000/svg" width="228.083" height="100.807" viewBox="0 0 228.083 100.807"><g transform="translate(-4415.554 21584.763)"><line y2="3.057" transform="translate(4430.979 -21562.318)" fill="none" stroke="#1a1818" stroke-miterlimit="10" stroke-width="1.019"/><line y2="62.396" transform="translate(4430.979 -21552.693)" fill="none" stroke="#1a1818" stroke-miterlimit="10" stroke-width="1.019" stroke-dasharray="6.568 6.568"/><line y2="3.057" transform="translate(4430.979 -21487.014)" fill="none" stroke="#1a1818" stroke-miterlimit="10" stroke-width="1.019"/><line y2="3.057" transform="translate(4455.423 -21562.318)" fill="none" stroke="#1a1818" stroke-miterlimit="10" stroke-width="1.019"/><line y2="62.396" transform="translate(4455.423 -21552.693)" fill="none" stroke="#1a1818" stroke-miterlimit="10" stroke-width="1.019" stroke-dasharray="6.568 6.568"/><line y2="3.057" transform="translate(4455.423 -21487.014)" fill="none" stroke="#1a1818" stroke-miterlimit="10" stroke-width="1.019"/><line y2="3.057" transform="translate(4480.464 -21562.318)" fill="none" stroke="#1a1818" stroke-miterlimit="10" stroke-width="1.019"/><line y2="62.396" transform="translate(4480.464 -21552.693)" fill="none" stroke="#1a1818" stroke-miterlimit="10" stroke-width="1.019" stroke-dasharray="6.568 6.568"/><line y2="3.057" transform="translate(4480.464 -21487.014)" fill="none" stroke="#1a1818" stroke-miterlimit="10" stroke-width="1.019"/><line y2="3.057" transform="translate(4504.974 -21562.318)" fill="none" stroke="#1a1818" stroke-miterlimit="10" stroke-width="1.019"/><line y2="62.396" transform="translate(4504.974 -21552.693)" fill="none" stroke="#1a1818" stroke-miterlimit="10" stroke-width="1.019" stroke-dasharray="6.568 6.568"/><line y2="3.057" transform="translate(4504.974 -21487.014)" fill="none" stroke="#1a1818" stroke-miterlimit="10" stroke-width="1.019"/><line y2="3.057" transform="translate(4529.419 -21562.318)" fill="none" stroke="#1a1818" stroke-miterlimit="10" stroke-width="1.019"/><line y2="62.396" transform="translate(4529.419 -21552.693)" fill="none" stroke="#1a1818" stroke-miterlimit="10" stroke-width="1.019" stroke-dasharray="6.568 6.568"/><line y2="3.057" transform="translate(4529.419 -21487.014)" fill="none" stroke="#1a1818" stroke-miterlimit="10" stroke-width="1.019"/><line y2="3.057" transform="translate(4554.459 -21562.318)" fill="none" stroke="#1a1818" stroke-miterlimit="10" stroke-width="1.019"/><line y2="62.396" transform="translate(4554.459 -21552.693)" fill="none" stroke="#1a1818" stroke-miterlimit="10" stroke-width="1.019" stroke-dasharray="6.568 6.568"/><line y2="3.057" transform="translate(4554.459 -21487.014)" fill="none" stroke="#1a1818" stroke-miterlimit="10" stroke-width="1.019"/><line y2="3.057" transform="translate(4578.663 -21562.318)" fill="none" stroke="#1a1818" stroke-miterlimit="10" stroke-width="1.019"/><line y2="62.396" transform="translate(4578.663 -21552.693)" fill="none" stroke="#1a1818" stroke-miterlimit="10" stroke-width="1.019" stroke-dasharray="6.568 6.568"/><line y2="3.057" transform="translate(4578.663 -21487.014)" fill="none" stroke="#1a1818" stroke-miterlimit="10" stroke-width="1.019"/><line y2="3.057" transform="translate(4603.107 -21562.318)" fill="none" stroke="#1a1818" stroke-miterlimit="10" stroke-width="1.019"/><line y2="62.396" transform="translate(4603.107 -21552.693)" fill="none" stroke="#1a1818" stroke-miterlimit="10" stroke-width="1.019" stroke-dasharray="6.568 6.568"/><line y2="3.057" transform="translate(4603.107 -21487.014)" fill="none" stroke="#1a1818" stroke-miterlimit="10" stroke-width="1.019"/><line y2="3.057" transform="translate(4628.148 -21562.318)" fill="none" stroke="#1a1818" stroke-miterlimit="10" stroke-width="1.019"/><line y2="62.396" transform="translate(4628.148 -21552.693)" fill="none" stroke="#1a1818" stroke-miterlimit="10" stroke-width="1.019" stroke-dasharray="6.568 6.568"/><line y2="3.057" transform="translate(4628.148 -21487.014)" fill="none" stroke="#1a1818" stroke-miterlimit="10" stroke-width="1.019"/><text transform="translate(4433.588 -21529.254) rotate(90)" fill="#1a1818" font-size="5.417" font-family="CenturyGothic, Century Gothic"><tspan x="0" y="0" letter-spacing="-0.01em">T</tspan><tspan y="0">ype omg</tspan><tspan y="0" letter-spacing="-0.009em">e</tspan><tspan y="0">ving </tspan></text><text transform="translate(4457.367 -21535.232) rotate(90)" fill="#1a1818" font-size="5.417" font-family="CenturyGothic, Century Gothic"><tspan x="0" y="0" letter-spacing="-0.042em">V</tspan><tspan y="0">erblijf</tspan><tspan y="0" letter-spacing="0.007em">s</tspan><tspan y="0">aanleiding</tspan></text><text transform="translate(4482.414 -21529.664) rotate(90)" fill="#1a1818" font-size="5.417" font-family="CenturyGothic, Century Gothic"><tspan x="0" y="0" letter-spacing="-0.007em">F</tspan><tspan y="0">un</tspan><tspan y="0" letter-spacing="0.01em">c</tspan><tspan y="0">tie</tspan><tspan y="0" letter-spacing="-0.016em"> </tspan><tspan y="0" letter-spacing="-0.019em">w</tspan><tspan y="0">anden</tspan></text><text transform="translate(4507.378 -21519.002) rotate(90)" fill="#1a1818" font-size="5.417" font-family="CenturyGothic, Century Gothic"><tspan x="0" y="0">Au</tspan><tspan y="0" letter-spacing="-0.007em">t</tspan><tspan y="0">o en fi</tspan><tspan y="0" letter-spacing="-0.006em">e</tspan><tspan y="0">ts</tspan></text><text transform="translate(4556.606 -21526.535) rotate(90)" fill="#1a1818" font-size="5.417" font-family="CenturyGothic, Century Gothic"><tspan x="0" y="0" letter-spacing="-0.042em">V</tspan><tspan y="0">er</tspan><tspan y="0" letter-spacing="-0.026em">k</tspan><tspan y="0">eerslic</tspan><tspan y="0" letter-spacing="-0.005em">h</tspan><tspan y="0" letter-spacing="-0.007em">t</tspan><tspan y="0">en</tspan></text><text transform="translate(4604.943 -21501.652) rotate(90)" fill="#1a1818" font-size="5.417" font-family="CenturyGothic, Century Gothic"><tspan x="0" y="0">G</tspan><tspan y="0" letter-spacing="-0.015em">r</tspan><tspan y="0">oen</tspan></text><text transform="translate(4580.673 -21536.563) rotate(90)" fill="#1a1818" font-size="5.417" font-family="CenturyGothic, Century Gothic"><tspan x="0" y="0">Openbaa</tspan></text><text transform="translate(4580.673 -21508.082) rotate(90)" fill="#1a1818" font-size="5.417" font-family="CenturyGothic, Century Gothic"><tspan x="0" y="0" letter-spacing="-0.024em">r</tspan><tspan y="0"> </tspan></text><text transform="translate(4580.672 -21504.986) rotate(90)" fill="#1a1818" font-size="5.417" font-family="CenturyGothic, Century Gothic"><tspan x="0" y="0" letter-spacing="-0.012em">v</tspan><tspan y="0">er</tspan><tspan y="0" letter-spacing="-0.012em">v</tspan><tspan y="0">oer</tspan></text><text transform="translate(4630.538 -21533.551) rotate(90)" fill="#1a1818" font-size="5.417" font-family="CenturyGothic, Century Gothic"><tspan x="0" y="0">Speciaal ka</tspan><tspan y="0" letter-spacing="-0.01em">r</tspan><tspan y="0">ak</tspan><tspan y="0" letter-spacing="-0.007em">t</tspan><tspan y="0">er</tspan></text><text transform="translate(4531.218 -21508.422) rotate(90)" fill="#1a1818" font-size="5.417" font-family="CenturyGothic, Century Gothic"><tspan x="0" y="0" letter-spacing="-0.017em">P</tspan><tspan y="0">ar</tspan><tspan y="0" letter-spacing="-0.026em">k</tspan><tspan y="0">e</tspan><tspan y="0" letter-spacing="-0.016em">r</tspan><tspan y="0">en</tspan></text><path d="M749.022,723.486H530.439a4.75,4.75,0,0,1,0-9.5H749.022a4.75,4.75,0,0,1,0,9.5" transform="translate(3889.865 -22280.197)" fill="#e0e1e2"/><path d="M614.878,729.126a11.512,11.512,0,1,0-11.142-11.507,11.328,11.328,0,0,0,11.142,11.507" transform="translate(3889.865 -22280.197)" fill="#3a5121"/><text transform="translate(4499.671 -21554.051)" fill="#fff" font-size="2.318" font-family="DaxOT, Dax OT"><tspan x="0" y="0">Gemengd</tspan></text><path d="M619.358,717.353a.2.2,0,0,0-.2.2v2.9a.2.2,0,1,0,.394,0v-2.9a.2.2,0,0,0-.2-.2" transform="translate(3889.865 -22280.197)" fill="#fff"/><path d="M619.239,716.683h-.622a2.818,2.818,0,0,0-.233,1.534c.006.178.012.361.009.553a.255.255,0,0,0,.251.259h0a.255.255,0,0,0,.255-.251c0-.205,0-.394-.01-.578a1.934,1.934,0,0,1,.346-1.517" transform="translate(3889.865 -22280.197)" fill="#fff"/><path d="M620.109,716.683h-.549a5.525,5.525,0,0,1,.262,2.582.254.254,0,0,0,.235.273h.019a.256.256,0,0,0,.255-.235,8.122,8.122,0,0,0-.082-2.078,4.043,4.043,0,0,0-.14-.542" transform="translate(3889.865 -22280.197)" fill="#fff"/><path d="M620.3,716.115h-1.889a4.469,4.469,0,0,1,.187-1.534c.019-.053.038-.1.058-.152v1.459h0v.075h1.379v-.075h0v-1.48c.024.056.048.115.069.177a4.422,4.422,0,0,1,.19,1.53m.651,0h-.17c.034-1.315-.31-2.313-.934-2.687a.941.941,0,0,0-.991,0c-.619.37-.962,1.369-.926,2.687h-.17a.2.2,0,1,0,0,.393h3.191a.2.2,0,1,0,0-.393" transform="translate(3889.865 -22280.197)" fill="#fff"/><path d="M619.358,711.714a.7.7,0,1,1-.7.7.7.7,0,0,1,.7-.7" transform="translate(3889.865 -22280.197)" fill="#fff"/><path d="M608.487,718.926c0,.011,0,.022,0,.034v1.06a.449.449,0,0,0,.447.447h.369a.45.45,0,0,0,.448-.447v-.33H608.8c-.106,0-.227-.337-.318-.764" transform="translate(3889.865 -22280.197)" fill="#fff"/><path d="M615.933,718.925c-.091.427-.212.765-.318.765h-.945v.329a.449.449,0,0,0,.448.447h.368a.448.448,0,0,0,.448-.447V718.96c0-.012,0-.024,0-.035" transform="translate(3889.865 -22280.197)" fill="#fff"/><path d="M612.21,714.392h0c-1.408,0-1.911.027-2.27.249a4.568,4.568,0,0,0-.822,1.173l-.012.012a.2.2,0,0,0-.182-.125h-.664c-.249,0-.282.243-.282.376a.8.8,0,0,0,0,.084.214.214,0,0,0,.2.178h.287l.03,0h0c.134,0,.257.062.21.248a5.023,5.023,0,0,0-.328.792,4.45,4.45,0,0,0,.1,1.55c.09.427.212.764.318.764h6.81c.106,0,.228-.338.318-.764a4.421,4.421,0,0,0,.1-1.55,4.942,4.942,0,0,0-.327-.793c-.048-.185.075-.247.21-.247h0l.03,0h.287a.214.214,0,0,0,.2-.178.624.624,0,0,0,0-.075v-.019c0-.134-.039-.366-.282-.366H615.5a.2.2,0,0,0-.182.125l-.012-.011a4.533,4.533,0,0,0-.822-1.174c-.359-.222-.863-.249-2.27-.249m-.331.448h.66a3.885,3.885,0,0,1,1.7.182,5.893,5.893,0,0,1,.748,1.151,18.182,18.182,0,0,1-5.563,0,5.835,5.835,0,0,1,.759-1.161,3.959,3.959,0,0,1,1.692-.174m2.694,3.009a.855.855,0,0,1-.4-.053c-.077-.086.069-.562.556-.873a1.135,1.135,0,0,1,.474-.155.184.184,0,0,1,.142.049c.118.135.211.729.02.892a1.676,1.676,0,0,1-.8.14m-4.726,0a1.673,1.673,0,0,1-.8-.14c-.192-.163-.1-.757.019-.892a.185.185,0,0,1,.142-.049,1.134,1.134,0,0,1,.475.155c.487.311.633.787.556.873a.858.858,0,0,1-.4.053m1.532,1.059c-.339,0-.537-.1-.577-.224s.05-.223.2-.223h2.417c.15,0,.24.1.2.223s-.229.224-.576.224Z" transform="translate(3889.865 -22280.197)" fill="#fff"/><path d="M639.984,729.126a11.512,11.512,0,1,0-11.142-11.507,11.328,11.328,0,0,0,11.142,11.507" transform="translate(3889.865 -22280.197)" fill="#3a5121"/><text transform="translate(4527.809 -21554.051)" fill="#fff" font-size="2.318" font-family="DaxOT, Dax OT"><tspan x="0" y="0" letter-spacing="-0.027em">W</tspan><tspan y="0">el</tspan></text><path d="M635.266,721.4c0,.013,0,.027,0,.041v1.271a.539.539,0,0,0,.539.537h.443a.54.54,0,0,0,.539-.537v-.395h-1.136c-.128,0-.274-.405-.383-.917" transform="translate(3889.865 -22280.197)" fill="#fff"/><path d="M644.223,721.4c-.109.512-.255.918-.383.918H642.7v.4a.541.541,0,0,0,.539.537h.443a.54.54,0,0,0,.538-.537v-1.271c0-.014,0-.028,0-.042" transform="translate(3889.865 -22280.197)" fill="#fff"/><path d="M639.744,715.957h0c-1.693,0-2.3.032-2.73.3a5.443,5.443,0,0,0-.989,1.407l-.014.014a.237.237,0,0,0-.219-.15h-.8c-.3,0-.34.291-.34.45h0a.774.774,0,0,0,.006.1.256.256,0,0,0,.245.213h.345l.036,0h0c.162,0,.31.074.254.3a6.032,6.032,0,0,0-.4.952,5.336,5.336,0,0,0,.123,1.859c.109.513.255.918.383.918h8.19c.128,0,.274-.406.384-.918a5.306,5.306,0,0,0,.121-1.859,5.848,5.848,0,0,0-.394-.952c-.057-.222.092-.3.253-.3h0l.036,0h.345a.256.256,0,0,0,.245-.213.84.84,0,0,0,.006-.09v-.022c0-.161-.048-.44-.339-.44h-.8a.235.235,0,0,0-.219.15l-.015-.013a5.386,5.386,0,0,0-.989-1.408c-.432-.268-1.037-.3-2.73-.3m-.4.538h.794a4.672,4.672,0,0,1,2.05.218,7.124,7.124,0,0,1,.9,1.382,21.952,21.952,0,0,1-6.692,0,7.034,7.034,0,0,1,.913-1.393,4.775,4.775,0,0,1,2.035-.208m3.24,3.611a1.042,1.042,0,0,1-.476-.064c-.092-.1.083-.675.669-1.048a1.359,1.359,0,0,1,.571-.186.219.219,0,0,1,.171.059c.141.162.254.873.023,1.07a2.028,2.028,0,0,1-.958.169m-5.684,0a2.031,2.031,0,0,1-.958-.169c-.23-.2-.118-.908.023-1.07a.219.219,0,0,1,.171-.059,1.359,1.359,0,0,1,.571.186c.586.373.761.944.669,1.048a1.045,1.045,0,0,1-.476.064m1.843,1.27c-.408,0-.645-.121-.694-.269s.059-.268.24-.268H641.2c.181,0,.288.121.24.268s-.276.269-.694.269Z" transform="translate(3889.865 -22280.197)" fill="#fff"/><text transform="translate(4528.229 -21565.742)" fill="#fff" font-size="5.794" font-family="DaxOT, Dax OT"><tspan x="0" y="0">P</tspan></text><path d="M738.922,738.211a.839.839,0,1,0-.839-.839.84.84,0,0,0,.839.839" transform="translate(3889.865 -22280.197)" fill="#fff"/><path d="M738.922,738.211a.839.839,0,1,0-.839-.839A.84.84,0,0,0,738.922,738.211Z" transform="translate(3889.865 -22280.197)" fill="none" stroke="#d3d5d6" stroke-miterlimit="15" stroke-width="0.127"/><path d="M541.113,729.618a11.512,11.512,0,1,0-11.142-11.506,11.328,11.328,0,0,0,11.142,11.506" transform="translate(3889.865 -22280.197)" fill="#3a5121"/><path d="M547.973,721.227H547.4l-.008-.007v-.9l.008-.008h.576l.008.008v.9Zm-1.762,0h-.577l-.007-.007v-.9l.007-.008h.577l.008.008v.9Zm-.843,0h-.579l-.007-.007v-.9l.007-.008h.579l.007.008v.9Zm-2.192-2.479h-.553l-.007-.007v-.649a.292.292,0,0,1,.237-.294.279.279,0,0,1,.323.27Zm-1.047,0h-.551l-.008-.007v-.653a.29.29,0,0,1,.24-.291.278.278,0,0,1,.319.271Zm-1.9,2.479h-.577l-.007-.007v-.907h.584l.008.008v.9Zm-1.746-2.586H537.9l-.007-.008v-.9l.007-.008h.577l.007.008Zm0,1.128H537.9l-.007-.007v-.9l.007-.007h.577l.007.007Zm-.851-1.128h-.576l-.008-.008v-.9l.008-.008h.576l.008.008v.9Zm0,1.128h-.576l-.008-.007v-.9l.008-.007h.576l.008.007v.9Zm-1.945,0h-.585l-.008-.007v-.9l.008-.007h.577l.008.007Zm-.851,0h-.578l-.008-.007v-.9l.008-.007h.578l.007.007v.9Zm12.414-1.021H545.5l0,0-1.291,1.049-.012-.006V717.4h-.03l-1.493-4.877h0v-.914l.007-.007h.278a.057.057,0,0,0,.058-.056.058.058,0,0,0-.058-.056h-.278l-.007-.007v-.308a.058.058,0,0,0-.115,0v.308l-.007.007h-.278a.057.057,0,0,0-.057.056.057.057,0,0,0,.057.056h.278l.007.007v.914h0l-1.492,4.876v.77l-.007.007h-1.2l-.006,0-.676,1.153-.014,0v-1.688l0-.005-1.462-1.78-.005,0h-2.554l-.006,0-1.462,1.78v5.15l.007.008H541.8l.008-.007v-2.1a.687.687,0,0,1,.653-.678h0a.687.687,0,0,1,.654.678v2.1l.007.007h5.429l.008-.007v-2.972l0-.006-1.3-1.056Z" transform="translate(3889.865 -22280.197)" fill="#fff"/><text transform="translate(4428.297 -21553.611)" fill="#fff" font-size="2.318" font-family="DaxOT, Dax OT"><tspan x="0" y="0">Dorps</tspan></text><path d="M590.639,729.126A11.512,11.512,0,1,0,579.5,717.619a11.328,11.328,0,0,0,11.142,11.507" transform="translate(3889.865 -22280.197)" fill="#3a5121"/><path d="M594,718.131a.508.508,0,0,1-.507.506h-1.155a.507.507,0,0,1-.507-.506v-1.279a.508.508,0,0,1,.507-.506h1.155a.508.508,0,0,1,.507.506Zm-4.967,0a.507.507,0,0,1-.506.506h-1.155a.507.507,0,0,1-.507-.506v-1.279a.508.508,0,0,1,.507-.506h1.155a.507.507,0,0,1,.506.506Zm5.952,2.11v-5.08a.373.373,0,0,0-.374-.374H586.3a.374.374,0,0,0-.374.374v5.08a.374.374,0,0,0,.374.373h3.047a.374.374,0,0,0,.374-.373v-2.754a.117.117,0,0,1,.118-.117h1.15a.118.118,0,0,1,.118.117v2.754a.373.373,0,0,0,.374.373h3.127a.373.373,0,0,0,.374-.373m-8.725-7.484v-2.018a.383.383,0,0,1,.38-.386h.684a.382.382,0,0,1,.379.386v.741a.12.12,0,0,0,.192.1l2.37-1.795a.261.261,0,0,1,.316,0l5.2,3.938a.266.266,0,0,1-.148.482h-9.688c-.25,0-.71-.606-.509-.758l.776-.587a.121.121,0,0,0,.048-.1" transform="translate(3889.865 -22280.197)" fill="#fff"/><text transform="translate(4476.343 -21554.104)" fill="#fff" font-size="2.318" font-family="DaxOT, Dax OT"><tspan x="0" y="0" letter-spacing="0.005em">W</tspan><tspan y="0" letter-spacing="0.006em">one</tspan><tspan y="0">n</tspan></text><path d="M689.3,729.126a11.512,11.512,0,1,0-11.142-11.507A11.328,11.328,0,0,0,689.3,729.126" transform="translate(3889.865 -22280.197)" fill="#3a5121"/><path d="M683.012,716.653a.378.378,0,0,0-.386.386V718.2a.379.379,0,0,0,.386.387H695.6a.378.378,0,0,0,.386-.387v-1.159a.378.378,0,0,0-.386-.386Z" transform="translate(3889.865 -22280.197)" fill="#fff"/><text transform="translate(4576.566 -21555.818)" fill="#fff" font-size="2.318" font-family="DaxOT, Dax OT"><tspan x="0" y="0">Ni</tspan><tspan y="0" letter-spacing="-0.003em">e</tspan><tspan y="0">t</tspan></text><path d="M664.222,729.126a11.512,11.512,0,1,0-11.142-11.507,11.328,11.328,0,0,0,11.142,11.507" transform="translate(3889.865 -22280.197)" fill="#3a5121"/><path d="M658.235,716.9a.378.378,0,0,0-.386.386v1.159a.378.378,0,0,0,.386.386H670.82a.378.378,0,0,0,.386-.386V717.29a.378.378,0,0,0-.386-.386Z" transform="translate(3889.865 -22280.197)" fill="#fff"/><path d="M713.544,729.126A11.512,11.512,0,1,0,702.4,717.619a11.328,11.328,0,0,0,11.142,11.507" transform="translate(3889.865 -22280.197)" fill="#3a5121"/><text transform="translate(4551.708 -21554.104)" fill="#fff" font-size="2.318" font-family="DaxOT, Dax OT"><tspan x="0" y="0">Ni</tspan><tspan y="0" letter-spacing="-0.003em">e</tspan><tspan y="0">t</tspan></text><text transform="translate(4599.719 -21554.104)" fill="#fff" font-size="2.318" font-family="DaxOT, Dax OT"><tspan x="0" y="0">Bomen</tspan></text><path d="M718.429,720.634h-1.938v-2.02h.761a1.374,1.374,0,0,0,1.382-1.367,1.357,1.357,0,0,1-.115-1.368,5.967,5.967,0,0,0-2.456-2.165c-.021,0-.04,0-.061,0a2.311,2.311,0,0,1,.406,1.312,2.36,2.36,0,0,1-2.37,2.346H713.3a1.377,1.377,0,0,0,1.376,1.239h.851v2.02H712.52V717.07h1.518a2.053,2.053,0,0,0,2.062-2.041,2.017,2.017,0,0,0-.437-1.257,2.136,2.136,0,0,0-.375-.366l-.054-.041-.006-.065a2.042,2.042,0,0,0-1.251-1.676l-.092-.037,0-.1a2.043,2.043,0,0,0-2.06-1.974,2.067,2.067,0,0,0-1.883,1.21l-.036.077-.084.012a2.054,2.054,0,0,0-1.783,2.021,2,2,0,0,0,.2.875l.038.08-.051.072a2.02,2.02,0,0,0-.371,1.167,2.054,2.054,0,0,0,2.062,2.041h1.375v3.564h-3.231a.2.2,0,1,0,0,.407h10.372a.2.2,0,1,0,0-.407" transform="translate(3889.865 -22280.197)" fill="#fff"/><path d="M716.89,721.3h-7.3a.2.2,0,1,0,0,.407h7.3a.2.2,0,1,0,0-.407" transform="translate(3889.865 -22280.197)" fill="#fff"/><path d="M738.083,718.446a11.512,11.512,0,1,0-11.142-11.506,11.328,11.328,0,0,0,11.142,11.506" transform="translate(3889.865 -22280.197)" fill="#3a5121"/><path d="M733.473,709.221c0,.014,0,.029,0,.044v1.363a.578.578,0,0,0,.576.575h.475a.577.577,0,0,0,.576-.575v-.423h-1.215c-.137,0-.293-.435-.41-.984" transform="translate(3889.865 -22280.197)" fill="#fff"/><path d="M743.055,709.22c-.117.549-.273.984-.41.984H741.43v.423a.578.578,0,0,0,.576.576h.474a.578.578,0,0,0,.576-.576v-1.362c0-.015,0-.03,0-.045" transform="translate(3889.865 -22280.197)" fill="#fff"/><path d="M738.263,703.388h0c-1.81,0-2.458.034-2.92.321a5.889,5.889,0,0,0-1.058,1.509l-.015.016a.251.251,0,0,0-.234-.161h-.855c-.319,0-.363.311-.363.482h0a.886.886,0,0,0,.006.108.274.274,0,0,0,.262.229h.369l.039-.005h0c.172,0,.331.079.271.318a6.492,6.492,0,0,0-.423,1.02,5.726,5.726,0,0,0,.131,1.995c.116.548.273.983.41.983h8.761c.137,0,.294-.435.411-.984a5.718,5.718,0,0,0,.13-1.994,6.432,6.432,0,0,0-.422-1.02c-.06-.239.1-.318.271-.318h0l.038.005h.37a.274.274,0,0,0,.262-.229.943.943,0,0,0,.006-.1v-.024c0-.173-.051-.471-.363-.471h-.855a.252.252,0,0,0-.235.161l-.015-.015a5.861,5.861,0,0,0-1.057-1.51c-.463-.287-1.111-.321-2.922-.321m-.425.577h.849a4.989,4.989,0,0,1,2.193.233,7.65,7.65,0,0,1,.963,1.482,23.393,23.393,0,0,1-7.159,0,7.588,7.588,0,0,1,.977-1.493,5.1,5.1,0,0,1,2.177-.223m3.466,3.871a1.115,1.115,0,0,1-.509-.068c-.1-.111.088-.724.716-1.123a1.434,1.434,0,0,1,.61-.2.235.235,0,0,1,.183.064c.151.172.271.936.025,1.146a2.159,2.159,0,0,1-1.025.181m-6.081,0a2.157,2.157,0,0,1-1.024-.181c-.246-.21-.127-.974.024-1.146a.237.237,0,0,1,.184-.064,1.444,1.444,0,0,1,.61.2c.627.4.815,1.012.715,1.123a1.115,1.115,0,0,1-.509.068M737.2,709.2c-.436,0-.691-.129-.742-.287s.063-.288.256-.288h3.11c.192,0,.307.129.255.288s-.294.287-.742.287Z" transform="translate(3889.865 -22280.197)" fill="#fff"/><path d="M739.223,707.514a.274.274,0,0,0-.28.268v3.235a.28.28,0,0,0,.56,0v-3.235a.274.274,0,0,0-.28-.268" transform="translate(3889.865 -22280.197)" fill="#fff"/><path d="M739.223,707.514a.274.274,0,0,0-.28.268v3.235a.28.28,0,0,0,.56,0v-3.235A.274.274,0,0,0,739.223,707.514Z" transform="translate(3889.865 -22280.197)" fill="none" stroke="#d3d5d6" stroke-miterlimit="15" stroke-width="0.127"/><path d="M739.12,706.772h-.747l-.014.025a3.1,3.1,0,0,0-.275,1.741c.007.207.014.408.01.617a.325.325,0,0,0,.1.238.345.345,0,0,0,.588-.227c0-.229,0-.44-.011-.644a2.076,2.076,0,0,1,.387-1.669l.074-.081Z" transform="translate(3889.865 -22280.197)" fill="#fff"/><path d="M739.12,706.772h-.747l-.014.025a3.1,3.1,0,0,0-.275,1.741c.007.207.014.408.01.617a.325.325,0,0,0,.1.238.345.345,0,0,0,.588-.227c0-.229,0-.44-.011-.644a2.076,2.076,0,0,1,.387-1.669l.074-.081Z" transform="translate(3889.865 -22280.197)" fill="none" stroke="#d3d5d6" stroke-miterlimit="15" stroke-width="0.127"/><path d="M740.058,706.772h-.709l.034.07a5.8,5.8,0,0,1,.3,2.857.329.329,0,0,0,.079.24.346.346,0,0,0,.236.118h.025a.34.34,0,0,0,.342-.308,8.737,8.737,0,0,0-.1-2.333,4.257,4.257,0,0,0-.163-.613l-.011-.032Z" transform="translate(3889.865 -22280.197)" fill="#fff"/><text transform="translate(4623.76 -21564.783)" fill="#fff" font-size="2.318" font-family="DaxOT, Dax OT"><tspan x="0" y="0">Fi</tspan><tspan y="0" letter-spacing="-0.003em">e</tspan><tspan y="0">t</tspan><tspan y="0" letter-spacing="-0.008em">s</tspan><tspan y="0" letter-spacing="-0.005em">s</tspan><tspan y="0">t</tspan><tspan y="0" letter-spacing="-0.004em">r</tspan><tspan y="0">a</tspan><tspan y="0" letter-spacing="-0.004em">a</tspan><tspan y="0">t</tspan></text><path d="M740.058,706.772h-.709l.034.07a5.8,5.8,0,0,1,.3,2.857.329.329,0,0,0,.079.24.346.346,0,0,0,.236.118h.025a.34.34,0,0,0,.342-.308,8.737,8.737,0,0,0-.1-2.333,4.257,4.257,0,0,0-.163-.613l-.011-.032Z" transform="translate(3889.865 -22280.197)" fill="none" stroke="#d3d5d6" stroke-miterlimit="15" stroke-width="0.127"/><path d="M740.276,706.264h-2.153v-.046a5.053,5.053,0,0,1,.211-1.728q.031-.091.066-.174l.093-.221v1.82l0,.048V706h1.441v-.084l0-1.6v-.231l.092.211c.028.064.055.131.079.2a4.969,4.969,0,0,1,.214,1.725v.046Zm.726-.1h-.14c.029-1.457-.368-2.573-1.066-2.991a1.093,1.093,0,0,0-1.155,0c-.693.415-1.087,1.531-1.057,2.991h-.139a.268.268,0,1,0,0,.536H741a.268.268,0,0,0,0-.536" transform="translate(3889.865 -22280.197)" fill="#fff"/><path d="M740.276,706.264h-2.153v-.046a5.053,5.053,0,0,1,.211-1.728q.031-.091.066-.174l.093-.221v1.82l0,.048V706h1.441v-.084l0-1.6v-.231l.092.211c.028.064.055.131.079.2a4.969,4.969,0,0,1,.214,1.725v.046Zm.726-.1h-.14c.029-1.457-.368-2.573-1.066-2.991a1.093,1.093,0,0,0-1.155,0c-.693.415-1.087,1.531-1.057,2.991h-.139a.268.268,0,1,0,0,.536H741a.268.268,0,0,0,0-.536Z" transform="translate(3889.865 -22280.197)" fill="none" stroke="#d3d5d6" stroke-miterlimit="15" stroke-width="0.127"/><path d="M739.229,702.766a.839.839,0,1,0-.839-.839.84.84,0,0,0,.839.839" transform="translate(3889.865 -22280.197)" fill="#fff"/><path d="M739.229,702.766a.839.839,0,1,0-.839-.839A.84.84,0,0,0,739.229,702.766Z" transform="translate(3889.865 -22280.197)" fill="none" stroke="#d3d5d6" stroke-miterlimit="15" stroke-width="0.127"/><path d="M565.858,729.126a11.512,11.512,0,1,0-11.142-11.507,11.328,11.328,0,0,0,11.142,11.507" transform="translate(3889.865 -22280.197)" fill="#3a5121"/><path d="M559.614,716.653a.378.378,0,0,0-.386.386v1.16a.378.378,0,0,0,.386.386H572.2a.378.378,0,0,0,.386-.386v-1.16a.378.378,0,0,0-.386-.386Z" transform="translate(3889.865 -22280.197)" fill="#fff"/><text transform="translate(4453.483 -21554.104)" fill="#fff" font-size="2.318" font-family="DaxOT, Dax OT"><tspan x="0" y="0">Ni</tspan><tspan y="0" letter-spacing="-0.003em">e</tspan><tspan y="0">t</tspan></text><path d="M738.39,741.459a11.512,11.512,0,1,0-11.142-11.507,11.328,11.328,0,0,0,11.142,11.507" transform="translate(3889.865 -22280.197)" fill="#3a5121"/><text transform="translate(4624.072 -21543.484)" fill="#fff" font-size="2.318" font-family="DaxOT, Dax OT"><tspan x="0" y="0">Bij water</tspan></text><path d="M731.581,727.729s2.762-2.974,6.943-.172,6.676-.807,6.676-.807" transform="translate(3889.865 -22280.197)" fill="none" stroke="#fff" stroke-miterlimit="10" stroke-width="1.019"/><path d="M731.581,730.619s2.762-2.975,6.943-.172,6.676-.807,6.676-.807" transform="translate(3889.865 -22280.197)" fill="none" stroke="#fff" stroke-miterlimit="10" stroke-width="1.019"/></g></svg>