<svg xmlns="http://www.w3.org/2000/svg" width="219.586" height="100.559" viewBox="0 0 219.586 100.559"><g transform="translate(-4028.328 9632.306)"><line y2="3.057" transform="translate(4039.386 -9610.109)" fill="none" stroke="#1a1818" stroke-miterlimit="10" stroke-width="1.019"/><line y2="62.396" transform="translate(4039.386 -9600.483)" fill="none" stroke="#1a1818" stroke-miterlimit="10" stroke-width="1.019" stroke-dasharray="6.568 6.568"/><line y2="3.057" transform="translate(4039.386 -9534.804)" fill="none" stroke="#1a1818" stroke-miterlimit="10" stroke-width="1.019"/><line y2="3.057" transform="translate(4063.831 -9610.109)" fill="none" stroke="#1a1818" stroke-miterlimit="10" stroke-width="1.019"/><line y2="62.396" transform="translate(4063.831 -9600.483)" fill="none" stroke="#1a1818" stroke-miterlimit="10" stroke-width="1.019" stroke-dasharray="6.568 6.568"/><line y2="3.057" transform="translate(4063.831 -9534.804)" fill="none" stroke="#1a1818" stroke-miterlimit="10" stroke-width="1.019"/><line y2="3.057" transform="translate(4088.871 -9610.109)" fill="none" stroke="#1a1818" stroke-miterlimit="10" stroke-width="1.019"/><line y2="62.396" transform="translate(4088.871 -9600.483)" fill="none" stroke="#1a1818" stroke-miterlimit="10" stroke-width="1.019" stroke-dasharray="6.568 6.568"/><line y2="3.057" transform="translate(4088.871 -9534.804)" fill="none" stroke="#1a1818" stroke-miterlimit="10" stroke-width="1.019"/><line y2="3.057" transform="translate(4113.381 -9610.109)" fill="none" stroke="#1a1818" stroke-miterlimit="10" stroke-width="1.019"/><line y2="62.396" transform="translate(4113.381 -9600.483)" fill="none" stroke="#1a1818" stroke-miterlimit="10" stroke-width="1.019" stroke-dasharray="6.568 6.568"/><line y2="3.057" transform="translate(4113.381 -9534.804)" fill="none" stroke="#1a1818" stroke-miterlimit="10" stroke-width="1.019"/><line y2="3.057" transform="translate(4137.826 -9610.109)" fill="none" stroke="#1a1818" stroke-miterlimit="10" stroke-width="1.019"/><line y2="62.396" transform="translate(4137.826 -9600.483)" fill="none" stroke="#1a1818" stroke-miterlimit="10" stroke-width="1.019" stroke-dasharray="6.568 6.568"/><line y2="3.057" transform="translate(4137.826 -9534.804)" fill="none" stroke="#1a1818" stroke-miterlimit="10" stroke-width="1.019"/><line y2="3.057" transform="translate(4162.866 -9610.109)" fill="none" stroke="#1a1818" stroke-miterlimit="10" stroke-width="1.019"/><line y2="62.396" transform="translate(4162.866 -9600.483)" fill="none" stroke="#1a1818" stroke-miterlimit="10" stroke-width="1.019" stroke-dasharray="6.568 6.568"/><line y2="3.057" transform="translate(4162.866 -9534.804)" fill="none" stroke="#1a1818" stroke-miterlimit="10" stroke-width="1.019"/><line y2="3.057" transform="translate(4187.07 -9610.109)" fill="none" stroke="#1a1818" stroke-miterlimit="10" stroke-width="1.019"/><line y2="62.396" transform="translate(4187.07 -9600.483)" fill="none" stroke="#1a1818" stroke-miterlimit="10" stroke-width="1.019" stroke-dasharray="6.568 6.568"/><line y2="3.057" transform="translate(4187.07 -9534.804)" fill="none" stroke="#1a1818" stroke-miterlimit="10" stroke-width="1.019"/><line y2="3.057" transform="translate(4211.515 -9610.109)" fill="none" stroke="#1a1818" stroke-miterlimit="10" stroke-width="1.019"/><line y2="62.396" transform="translate(4211.515 -9600.483)" fill="none" stroke="#1a1818" stroke-miterlimit="10" stroke-width="1.019" stroke-dasharray="6.568 6.568"/><line y2="3.057" transform="translate(4211.515 -9534.804)" fill="none" stroke="#1a1818" stroke-miterlimit="10" stroke-width="1.019"/><line y2="3.057" transform="translate(4236.555 -9610.109)" fill="none" stroke="#1a1818" stroke-miterlimit="10" stroke-width="1.019"/><line y2="62.396" transform="translate(4236.555 -9600.483)" fill="none" stroke="#1a1818" stroke-miterlimit="10" stroke-width="1.019" stroke-dasharray="6.568 6.568"/><line y2="3.057" transform="translate(4236.555 -9534.804)" fill="none" stroke="#1a1818" stroke-miterlimit="10" stroke-width="1.019"/><text transform="translate(4041.994 -9577.045) rotate(90)" fill="#1a1818" font-size="5.417" font-family="CenturyGothic, Century Gothic"><tspan x="0" y="0" letter-spacing="-0.01em">T</tspan><tspan y="0">ype omg</tspan><tspan y="0" letter-spacing="-0.009em">e</tspan><tspan y="0">ving </tspan></text><text transform="translate(4065.773 -9583.023) rotate(90)" fill="#1a1818" font-size="5.417" font-family="CenturyGothic, Century Gothic"><tspan x="0" y="0" letter-spacing="-0.042em">V</tspan><tspan y="0">erblijf</tspan><tspan y="0" letter-spacing="0.007em">s</tspan><tspan y="0">aanleiding</tspan></text><text transform="translate(4090.82 -9577.455) rotate(90)" fill="#1a1818" font-size="5.417" font-family="CenturyGothic, Century Gothic"><tspan x="0" y="0" letter-spacing="-0.007em">F</tspan><tspan y="0">un</tspan><tspan y="0" letter-spacing="0.01em">c</tspan><tspan y="0">tie</tspan><tspan y="0" letter-spacing="-0.016em"> </tspan><tspan y="0" letter-spacing="-0.019em">w</tspan><tspan y="0">anden</tspan></text><text transform="translate(4115.787 -9566.793) rotate(90)" fill="#1a1818" font-size="5.417" font-family="CenturyGothic, Century Gothic"><tspan x="0" y="0">Au</tspan><tspan y="0" letter-spacing="-0.007em">t</tspan><tspan y="0">o en fi</tspan><tspan y="0" letter-spacing="-0.006em">e</tspan><tspan y="0">ts</tspan></text><text transform="translate(4165.015 -9574.325) rotate(90)" fill="#1a1818" font-size="5.417" font-family="CenturyGothic, Century Gothic"><tspan x="0" y="0" letter-spacing="-0.042em">V</tspan><tspan y="0">er</tspan><tspan y="0" letter-spacing="-0.026em">k</tspan><tspan y="0">eerslic</tspan><tspan y="0" letter-spacing="-0.005em">h</tspan><tspan y="0" letter-spacing="-0.007em">t</tspan><tspan y="0">en</tspan></text><text transform="translate(4189.081 -9584.354) rotate(90)" fill="#1a1818" font-size="5.417" font-family="CenturyGothic, Century Gothic"><tspan x="0" y="0">Openbaa</tspan></text><text transform="translate(4189.079 -9555.872) rotate(90)" fill="#1a1818" font-size="5.417" font-family="CenturyGothic, Century Gothic"><tspan x="0" y="0" letter-spacing="-0.024em">r</tspan><tspan y="0"> </tspan></text><text transform="translate(4189.08 -9552.777) rotate(90)" fill="#1a1818" font-size="5.417" font-family="CenturyGothic, Century Gothic"><tspan x="0" y="0" letter-spacing="-0.012em">v</tspan><tspan y="0">er</tspan><tspan y="0" letter-spacing="-0.012em">v</tspan><tspan y="0">oer</tspan></text><text transform="translate(4213.358 -9549.442) rotate(90)" fill="#1a1818" font-size="5.417" font-family="CenturyGothic, Century Gothic"><tspan x="0" y="0">G</tspan><tspan y="0" letter-spacing="-0.015em">r</tspan><tspan y="0">oen</tspan></text><text transform="translate(4238.95 -9581.342) rotate(90)" fill="#1a1818" font-size="5.417" font-family="CenturyGothic, Century Gothic"><tspan x="0" y="0">Speciaal ka</tspan><tspan y="0" letter-spacing="-0.01em">r</tspan><tspan y="0">ak</tspan><tspan y="0" letter-spacing="-0.007em">t</tspan><tspan y="0">er</tspan></text><text transform="translate(4139.63 -9556.213) rotate(90)" fill="#1a1818" font-size="5.417" font-family="CenturyGothic, Century Gothic"><tspan x="0" y="0" letter-spacing="-0.017em">P</tspan><tspan y="0">ar</tspan><tspan y="0" letter-spacing="-0.026em">k</tspan><tspan y="0">e</tspan><tspan y="0" letter-spacing="-0.016em">r</tspan><tspan y="0">en</tspan></text><path d="M639.97,728.925a11.512,11.512,0,1,0-11.142-11.506,11.328,11.328,0,0,0,11.142,11.506" transform="translate(3497.865 -10327.867)" fill="#3a5121"/><path d="M635.252,721.2c0,.013,0,.027,0,.041v1.271a.54.54,0,0,0,.539.537h.443a.54.54,0,0,0,.539-.537v-.4h-1.136c-.128,0-.274-.4-.383-.917" transform="translate(3497.865 -10327.867)" fill="#fff"/><text transform="translate(4135.795 -9601.922)" fill="#fff" font-size="2.318" font-family="DaxOT, Dax OT"><tspan x="0" y="0" letter-spacing="-0.027em">W</tspan><tspan y="0">el</tspan></text><path d="M644.209,721.2c-.109.512-.255.918-.384.918h-1.136v.395a.541.541,0,0,0,.54.537h.442a.54.54,0,0,0,.539-.537v-1.271c0-.014,0-.028,0-.042" transform="translate(3497.865 -10327.867)" fill="#fff"/><path d="M639.73,715.755h0c-1.693,0-2.3.033-2.73.3a5.45,5.45,0,0,0-.989,1.406l-.014.015a.236.236,0,0,0-.219-.15h-.8c-.3,0-.339.291-.339.45h0a.922.922,0,0,0,.005.1.256.256,0,0,0,.245.213h.345l.036,0h0c.162,0,.31.074.254.3a5.912,5.912,0,0,0-.4.952,5.308,5.308,0,0,0,.122,1.859c.109.513.255.918.383.918h8.19c.128,0,.274-.406.384-.918a5.3,5.3,0,0,0,.121-1.859,5.844,5.844,0,0,0-.394-.952c-.057-.222.092-.3.253-.3h0l.036,0h.345a.256.256,0,0,0,.245-.213.832.832,0,0,0,.006-.09v-.022c0-.161-.048-.44-.339-.44h-.8a.235.235,0,0,0-.219.15l-.015-.014a5.392,5.392,0,0,0-.989-1.407c-.431-.268-1.037-.3-2.73-.3m-.4.539h.794a4.671,4.671,0,0,1,2.05.218,7.078,7.078,0,0,1,.9,1.382,22.035,22.035,0,0,1-6.692,0,7.065,7.065,0,0,1,.913-1.393,4.774,4.774,0,0,1,2.035-.208m3.24,3.611a1.042,1.042,0,0,1-.476-.064c-.092-.1.083-.675.669-1.048a1.364,1.364,0,0,1,.571-.186.219.219,0,0,1,.171.059c.141.162.254.874.023,1.07a2.025,2.025,0,0,1-.958.169m-5.684,0a2.031,2.031,0,0,1-.958-.169c-.23-.2-.118-.908.023-1.07a.221.221,0,0,1,.171-.059,1.359,1.359,0,0,1,.571.186c.586.373.761.944.669,1.048a1.045,1.045,0,0,1-.476.064m1.843,1.27c-.408,0-.645-.12-.694-.268s.059-.269.24-.269h2.906c.181,0,.288.121.24.269s-.276.268-.694.268Z" transform="translate(3497.865 -10327.867)" fill="#fff"/><text transform="translate(4136.215 -9613.612)" fill="#fff" font-size="5.794" font-family="DaxOT, Dax OT"><tspan x="0" y="0">P</tspan></text><path d="M713.529,718.574a11.512,11.512,0,1,0-11.142-11.506,11.328,11.328,0,0,0,11.142,11.506" transform="translate(3497.865 -10327.867)" fill="#3a5121"/><text transform="translate(4207.706 -9612.326)" fill="#fff" font-size="2.318" font-family="DaxOT, Dax OT"><tspan x="0" y="0">Bomen</tspan></text><path d="M718.415,710.082h-1.937v-2.02h.761a1.374,1.374,0,0,0,1.381-1.367,1.357,1.357,0,0,1-.115-1.368,5.981,5.981,0,0,0-2.456-2.166c-.02,0-.04,0-.06,0a2.315,2.315,0,0,1,.4,1.312,2.36,2.36,0,0,1-2.37,2.346h-.733a1.377,1.377,0,0,0,1.376,1.239h.851v2.02h-3.012v-3.564h1.518a2.054,2.054,0,0,0,2.062-2.041,2.009,2.009,0,0,0-.437-1.256,2.1,2.1,0,0,0-.375-.367l-.053-.041-.007-.066a2.044,2.044,0,0,0-1.251-1.675l-.092-.037,0-.1a2.044,2.044,0,0,0-2.06-1.974,2.067,2.067,0,0,0-1.883,1.21l-.036.077-.084.012a2.054,2.054,0,0,0-1.783,2.022,2.011,2.011,0,0,0,.2.874l.039.08-.051.072a2.018,2.018,0,0,0-.371,1.167,2.055,2.055,0,0,0,2.063,2.041h1.374v3.564h-3.231a.2.2,0,1,0,0,.407h10.372a.2.2,0,1,0,0-.407" transform="translate(3497.865 -10327.867)" fill="#fff"/><path d="M716.876,710.752h-7.295a.2.2,0,1,0,0,.407h7.295a.2.2,0,1,0,0-.407" transform="translate(3497.865 -10327.867)" fill="#fff"/><path d="M738.908,728.925a11.512,11.512,0,1,0-11.142-11.507,11.327,11.327,0,0,0,11.142,11.507" transform="translate(3497.865 -10327.867)" fill="#3a5121"/><path d="M732.616,716.452a.378.378,0,0,0-.386.386V718a.379.379,0,0,0,.386.387H745.2a.379.379,0,0,0,.387-.387v-1.159a.378.378,0,0,0-.387-.386Z" transform="translate(3497.865 -10327.867)" fill="#fff"/><text transform="translate(4234.532 -9603.689)" fill="#fff" font-size="2.318" font-family="DaxOT, Dax OT"><tspan x="0" y="0">Ni</tspan><tspan y="0" letter-spacing="-0.003em">e</tspan><tspan y="0">t</tspan></text><path d="M541.6,728.933a11.512,11.512,0,1,0-11.142-11.506A11.328,11.328,0,0,0,541.6,728.933" transform="translate(3497.865 -10327.867)" fill="#3a5121"/><path d="M548.539,720.482H548.2V719.29h.342Zm-.685,0h-.342V719.29h.342Zm-5.306-5.107h-1.027v-1.021h1.027Zm0,2.042h-1.027V716.4h1.027Zm-2.568-2.042h-1.027v-1.021h1.027Zm0,2.042h-1.027V716.4h1.027Zm8.37-.444-1.694,1.694v-3.633h-2.567v2.724h-.856v-4.086h-4.964v4.252l0-.034-2.106-2.566-2.684,2.668V721.5h1.883V719.63h1.027V721.5h13.522v-2.971Z" transform="translate(3497.865 -10327.867)" fill="#fff"/><path d="M713.831,741.587a11.512,11.512,0,1,0-11.142-11.506,11.328,11.328,0,0,0,11.142,11.506" transform="translate(3497.865 -10327.867)" fill="#3a5121"/><text transform="translate(4035.414 -9601.913)" fill="#fff" font-size="2.318" font-family="DaxOT, Dax OT"><tspan x="0" y="0" letter-spacing="-0.015em">S</tspan><tspan y="0" letter-spacing="-0.007em">t</tspan><tspan y="0">edelijk</tspan></text><path d="M714.625,731.883a1.457,1.457,0,0,0-.534-.043c.98-3.469,2.245-4.943,4.311-6.288a7.758,7.758,0,0,0-3.453,3.129c-.511-3.565,1.8-2.831,3.972-3.669-.8,2.051-.036,5.136-3.228,4.024a5.368,5.368,0,0,0-1.068,2.847m-1.992-3.306c-3.9-.115-2.793-1.708-3.894-3.6,2.55-.325,4.938.29,4.333,3.366a9.256,9.256,0,0,1,.985,3.5,1.228,1.228,0,0,0-.471.015c-.044-2.126-.692-3.176-.953-3.281m-.041,4.228c-1.047.019-1.477.282-1.837,1.127h6.956c.147-.906-.962-1.382-1.536-.381-.295-1.918-3.377-1.878-3.583-.746" transform="translate(3497.865 -10327.867)" fill="#fff"/><path d="M590.926,728.925a11.512,11.512,0,1,0-11.142-11.507,11.328,11.328,0,0,0,11.142,11.507" transform="translate(3497.865 -10327.867)" fill="#3a5121"/><text transform="translate(4206.238 -9589.26)" fill="#fff" font-size="2.318" font-family="DaxOT, Dax OT"><tspan x="0" y="0">Bepla</tspan><tspan y="0" letter-spacing="-0.005em">n</tspan><tspan y="0">ting</tspan></text><path d="M597.384,718a.426.426,0,0,1-.423.428H596a.426.426,0,0,1-.423-.428V716.92a.427.427,0,0,1,.423-.429h.963a.427.427,0,0,1,.423.429Zm-4.142,0a.426.426,0,0,1-.422.428h-.964a.426.426,0,0,1-.422-.428V716.92a.427.427,0,0,1,.422-.429h.964a.427.427,0,0,1,.422.429Zm4.964,1.785v-4.3a.315.315,0,0,0-.312-.317h-6.928a.315.315,0,0,0-.312.317v4.3a.314.314,0,0,0,.312.316h2.54a.313.313,0,0,0,.312-.316v-2.33a.1.1,0,0,1,.1-.1h.96a.1.1,0,0,1,.1.1v2.33a.313.313,0,0,0,.312.316h2.608a.314.314,0,0,0,.312-.316" transform="translate(3497.865 -10327.867)" fill="#fff"/><path d="M591.005,713.472v-1.66a.314.314,0,0,1,.312-.316h.563a.314.314,0,0,1,.312.316v.61a.1.1,0,0,0,.157.08l1.95-1.475a.213.213,0,0,1,.259,0l4.275,3.238a.219.219,0,0,1-.121.4h-7.966c-.206,0-.584-.5-.419-.624l.639-.482a.1.1,0,0,0,.039-.08" transform="translate(3497.865 -10327.867)" fill="#fff"/><path d="M583.244,712.872h6.748a.206.206,0,0,0,.2-.206v-.555a.207.207,0,0,0-.2-.206h-6.748a.207.207,0,0,0-.2.206v.555a.213.213,0,0,0,.2.206" transform="translate(3497.865 -10327.867)" fill="#fff"/><path d="M589.713,716a.535.535,0,0,1-.5-.421l-.026-.143-.263-1.244h.824l.263,1.244.026.143a.326.326,0,0,1-.324.421m-1.131-.421a.346.346,0,0,1-.351.421.5.5,0,0,1-.473-.421l-.017-.143-.176-1.244h.824l.176,1.244Zm-1.551.009a.412.412,0,1,1-.824,0v-1.4h.824v1.4Zm-1.35-1.4-.175,1.244-.018.143a.5.5,0,0,1-.473.421.35.35,0,0,1-.35-.421l.017-.143.175-1.244Zm-1.379,2.848h2.181a.214.214,0,0,1,.211.214v1.524a.213.213,0,0,1-.211.214H584.3a.213.213,0,0,1-.211-.214V717.25a.214.214,0,0,1,.211-.214m-.006-2.848-.263,1.244-.026.143a.535.535,0,0,1-.5.421.327.327,0,0,1-.324-.421l.027-.143.263-1.244Zm6.451,1.226-.543-1.541a.154.154,0,0,1-.009-.052V713.4a.206.206,0,0,0-.2-.206h-6.749a.206.206,0,0,0-.2.206v.457a.145.145,0,0,1-.009.051l-.525,1.506a.329.329,0,0,0,.219.4.358.358,0,0,0,.187.02.152.152,0,0,1,.181.148v3.958a.206.206,0,0,0,.2.206h4.147a.15.15,0,0,0,.148-.152v-3.026a.15.15,0,0,1,.148-.152h1.316a.15.15,0,0,1,.148.152V720a.151.151,0,0,0,.149.152H590a.206.206,0,0,0,.2-.206v-3.954a.15.15,0,0,1,.167-.149.392.392,0,0,0,.166-.023.324.324,0,0,0,.21-.4" transform="translate(3497.865 -10327.867)" fill="#fff"/><text transform="translate(4083.041 -9603.689)" fill="#fff" font-size="2.318" font-family="DaxOT, Dax OT"><tspan x="0" y="0">Combinatie</tspan></text><path d="M689.592,728.728a11.512,11.512,0,1,0-11.142-11.506,11.328,11.328,0,0,0,11.142,11.506" transform="translate(3497.865 -10327.867)" fill="#3a5121"/><text transform="translate(4185.113 -9602.171)" fill="#fff" font-size="2.318" font-family="DaxOT, Dax OT"><tspan x="0" y="0">Bus</tspan></text><path d="M683.03,713.8V715.9a.265.265,0,0,1-.265.264h-.742a.266.266,0,0,1-.267-.264V714a1.041,1.041,0,0,1,1.155-1h1.295v.8Z" transform="translate(3497.865 -10327.867)" fill="#fff"/><path d="M695.38,713.8V715.9a.265.265,0,0,0,.266.264h.742a.265.265,0,0,0,.265-.264V714a1.04,1.04,0,0,0-1.154-1h-1.3v.8Z" transform="translate(3497.865 -10327.867)" fill="#fff"/><path d="M694.383,719.789a.266.266,0,0,1-.267.264h-1.639a.266.266,0,0,1-.266-.264v-.659a.266.266,0,0,1,.266-.264h1.639a.266.266,0,0,1,.267.264Zm-3.1-.065a.554.554,0,0,1-.511.329h-3.138a.562.562,0,0,1-.513-.329c-.059-.182.073-.33.3-.33h3.574c.222,0,.354.148.293.33m-5.087.065a.264.264,0,0,1-.265.264h-1.64a.264.264,0,0,1-.264-.264v-.659a.264.264,0,0,1,.264-.264h1.64a.264.264,0,0,1,.265.264Zm-1.261-7.619c.524-.378,2.782-.4,4.269-.4s3.743.019,4.268.4.536,4.457,0,4.846-2.784.4-4.268.4-3.745-.019-4.269-.4-.538-4.457,0-4.846m3.295-2.013h1.945a.372.372,0,1,1,0,.743h-1.945a.372.372,0,1,1,0-.743m6.544,6.741v-5.62a1.922,1.922,0,0,0-1.5-1.81,23.919,23.919,0,0,0-8.148,0,1.923,1.923,0,0,0-1.5,1.81v5.62a.65.65,0,0,0-.342.564v3.106a.676.676,0,0,0,.687.66h10.448a.678.678,0,0,0,.689-.66v-3.106a.653.653,0,0,0-.341-.564" transform="translate(3497.865 -10327.867)" fill="#fff"/><path d="M684.015,720.542v1.479a.663.663,0,0,0,.662.658h.546a.663.663,0,0,0,.662-.658v-1.479Z" transform="translate(3497.865 -10327.867)" fill="#fff"/><path d="M692.526,720.542v1.479a.662.662,0,0,0,.662.658h.546a.662.662,0,0,0,.661-.658v-1.479Z" transform="translate(3497.865 -10327.867)" fill="#fff"/><path d="M664.51,728.933a11.512,11.512,0,1,0-11.142-11.506,11.328,11.328,0,0,0,11.142,11.506" transform="translate(3497.865 -10327.867)" fill="#3a5121"/><path d="M662.562,711.256a.5.5,0,0,0-.5.5v8.658a.5.5,0,0,0,.5.5h3.479a.5.5,0,0,0,.5-.5v-8.658a.5.5,0,0,0-.5-.5Zm1.74,8.643a.971.971,0,1,1,.971-.971.971.971,0,0,1-.971.971m0-2.752a.971.971,0,1,1,.971-.972.972.972,0,0,1-.971.972m0-2.752a.972.972,0,1,1,.971-.972.972.972,0,0,1-.971.972m4.673-1.728a2.413,2.413,0,0,1-1.758,1.716v-2.094h1.451a.315.315,0,0,1,.314.315.281.281,0,0,1-.007.065Zm0,2.753a2.411,2.411,0,0,1-1.758,1.714v-2.092h1.451a.314.314,0,0,1,.314.314.3.3,0,0,1-.007.066Zm0,2.752a2.412,2.412,0,0,1-1.758,1.715v-2.094h1.451a.314.314,0,0,1,.314.315.281.281,0,0,1-.007.065Zm-7.589-3.789a2.416,2.416,0,0,1-1.758-1.714.314.314,0,0,1,.242-.373.347.347,0,0,1,.065-.007h1.451Zm0,2.752a2.416,2.416,0,0,1-1.758-1.713.314.314,0,0,1,.242-.373.281.281,0,0,1,.065-.007h1.451Zm-1.451.658h1.451v2.094a2.414,2.414,0,0,1-1.758-1.714.314.314,0,0,1,.242-.373.281.281,0,0,1,.065-.007" transform="translate(3497.865 -10327.867)" fill="#fff"/><text transform="translate(4160.197 -9601.913)" fill="#fff" font-size="2.318" font-family="DaxOT, Dax OT"><tspan x="0" y="0" letter-spacing="-0.028em">W</tspan><tspan y="0">el</tspan></text><path d="M615.165,728.925a11.512,11.512,0,1,0-11.142-11.506,11.328,11.328,0,0,0,11.142,11.506" transform="translate(3497.865 -10327.867)" fill="#3a5121"/><text transform="translate(4107.063 -9601.975)" fill="#fff" font-size="2.318" font-family="DaxOT, Dax OT"><tspan x="0" y="0">Gescheiden</tspan></text><path d="M609.728,718.627a.3.3,0,0,0,0,.031v.949a.4.4,0,0,0,.4.4h.33a.4.4,0,0,0,.4-.4v-.295h-.846c-.1,0-.2-.3-.286-.685" transform="translate(3497.865 -10327.867)" fill="#fff"/><path d="M616.4,718.626c-.081.382-.19.685-.286.685h-.846v.3a.4.4,0,0,0,.4.4H616a.4.4,0,0,0,.4-.4v-.98" transform="translate(3497.865 -10327.867)" fill="#fff"/><path d="M613.064,714.564h0c-1.261,0-1.712.024-2.034.224a4.025,4.025,0,0,0-.736,1.051l-.011.011a.175.175,0,0,0-.163-.113h-.595c-.223,0-.253.218-.253.337a.622.622,0,0,0,0,.075.191.191,0,0,0,.183.16h.257l.026,0h0c.12,0,.231.055.189.222a4.446,4.446,0,0,0-.294.71,3.979,3.979,0,0,0,.091,1.389c.082.382.19.685.286.685h6.1c.095,0,.2-.3.285-.686a4,4,0,0,0,.091-1.388,4.513,4.513,0,0,0-.294-.71c-.042-.167.068-.222.188-.222h0l.027,0h.257a.191.191,0,0,0,.183-.16.483.483,0,0,0,0-.066v-.018c0-.119-.036-.328-.253-.328h-.6a.174.174,0,0,0-.163.113l-.011-.011a4,4,0,0,0-.737-1.051c-.322-.2-.773-.224-2.034-.224m-.3.4h.591a3.489,3.489,0,0,1,1.528.162,5.384,5.384,0,0,1,.67,1.032,16.317,16.317,0,0,1-4.985,0,5.3,5.3,0,0,1,.679-1.04,3.56,3.56,0,0,1,1.517-.155m2.414,2.7a.793.793,0,0,1-.355-.047c-.069-.077.062-.5.5-.783a1.017,1.017,0,0,1,.426-.139.159.159,0,0,1,.127.045c.1.12.189.652.017.8a1.5,1.5,0,0,1-.713.126m-4.235,0a1.5,1.5,0,0,1-.713-.126c-.172-.146-.089-.678.017-.8a.16.16,0,0,1,.127-.045,1.017,1.017,0,0,1,.426.139c.436.279.567.706.5.783a.793.793,0,0,1-.355.047m1.373.949c-.3,0-.481-.09-.517-.2s.045-.2.179-.2h2.165c.135,0,.215.09.178.2s-.205.2-.516.2Z" transform="translate(3497.865 -10327.867)" fill="#fff"/><path d="M620.361,717.218a.176.176,0,0,0-.176.176v2.6a.176.176,0,1,0,.352,0v-2.6a.176.176,0,0,0-.176-.176" transform="translate(3497.865 -10327.867)" fill="#fff"/><path d="M620.255,716.617H619.7a2.537,2.537,0,0,0-.208,1.375c.005.158.01.323.008.495a.229.229,0,0,0,.225.232h0a.229.229,0,0,0,.229-.225c0-.183,0-.353-.008-.518a1.726,1.726,0,0,1,.309-1.359" transform="translate(3497.865 -10327.867)" fill="#fff"/><path d="M621.034,716.617h-.492a4.948,4.948,0,0,1,.235,2.313.228.228,0,0,0,.21.245h.018a.229.229,0,0,0,.228-.211,7.245,7.245,0,0,0-.074-1.862,3.554,3.554,0,0,0-.125-.486" transform="translate(3497.865 -10327.867)" fill="#fff"/><path d="M621.207,716.108h-1.693a3.967,3.967,0,0,1,.168-1.374c.016-.048.034-.093.052-.137v1.308h0v.067h1.237v-.067h0v-1.327c.022.051.042.1.061.159a3.929,3.929,0,0,1,.171,1.371m.583,0h-.152a2.678,2.678,0,0,0-.837-2.407.858.858,0,0,0-.445-.127.849.849,0,0,0-.443.126,2.682,2.682,0,0,0-.83,2.408h-.153a.176.176,0,0,0,0,.352h2.86a.176.176,0,0,0,0-.352" transform="translate(3497.865 -10327.867)" fill="#fff"/><path d="M618.316,721.359v-.066H607.879v-10.37H618.25v10.436h.066v0h.065V710.791H607.748v10.634h10.633v-.066Z" transform="translate(3497.865 -10327.867)" fill="#fff"/><path d="M622.406,721.359v-.066h-4.024v-10.37h3.958v10.436h.066v0h.065V710.791h-4.22v10.634h4.22v-.066Z" transform="translate(3497.865 -10327.867)" fill="#fff"/><path d="M621,712.715a.642.642,0,1,1-.643-.643.642.642,0,0,1,.643.643" transform="translate(3497.865 -10327.867)" fill="#fff"/><path d="M565.844,728.925A11.512,11.512,0,1,0,554.7,717.419a11.328,11.328,0,0,0,11.142,11.506" transform="translate(3497.865 -10327.867)" fill="#3a5121"/><path d="M559.6,716.452a.378.378,0,0,0-.386.386V718a.379.379,0,0,0,.386.387h12.585a.378.378,0,0,0,.386-.387v-1.159a.378.378,0,0,0-.386-.386Z" transform="translate(3497.865 -10327.867)" fill="#fff"/><text transform="translate(4061.47 -9601.975)" fill="#fff" font-size="2.318" font-family="DaxOT, Dax OT"><tspan x="0" y="0">Ni</tspan><tspan y="0" letter-spacing="-0.003em">e</tspan><tspan y="0">t</tspan></text></g></svg>