<svg xmlns="http://www.w3.org/2000/svg" width="472.522" height="198.788" viewBox="0 0 472.522 198.788">
  <g id="ident-icons" transform="translate(-1977.808 929)">
    <path id="Path_1314" data-name="Path 1314" d="M564.381,142.382a9.893,9.893,0,0,1-9.941,9.784H101.8a9.785,9.785,0,1,1,0-19.568H554.44A9.892,9.892,0,0,1,564.381,142.382Z" transform="translate(1885.949 -1020.843)" fill="#e0e1e2"/>
    <g id="Group_435" data-name="Group 435" transform="translate(2008.342 -877.839)">
      <g id="Group_450" data-name="Group 450">
        <line id="Line_703" data-name="Line 703" y2="147.627" transform="translate(0 0)" fill="none" stroke="#1a1818" stroke-miterlimit="10" stroke-width="1.535" stroke-dasharray="6.215 6.215"/>
        <line id="Line_706" data-name="Line 706" y2="147.627" transform="translate(51.241 0)" fill="none" stroke="#1a1818" stroke-miterlimit="10" stroke-width="1.535" stroke-dasharray="6.215 6.215"/>
        <line id="Line_709" data-name="Line 709" y2="147.627" transform="translate(102.481 0)" fill="none" stroke="#1a1818" stroke-miterlimit="10" stroke-width="1.535" stroke-dasharray="6.215 6.215"/>
        <line id="Line_712" data-name="Line 712" y2="147.627" transform="translate(153.722 0)" fill="none" stroke="#1a1818" stroke-miterlimit="10" stroke-width="1.535" stroke-dasharray="6.215 6.215"/>
        <path id="Path_1510" data-name="Path 1510" d="M0,0V147.627" transform="translate(204.279 0)" fill="none" stroke="#1a1818" stroke-width="1.535" stroke-dasharray="6.215 6.215"/>
        <line id="Line_718" data-name="Line 718" y2="147.627" transform="translate(255.52 0)" fill="none" stroke="#1a1818" stroke-miterlimit="10" stroke-width="1.535" stroke-dasharray="6.215 6.215"/>
        <line id="Line_721" data-name="Line 721" y2="147.627" transform="translate(306.76 0)" fill="none" stroke="#1a1818" stroke-miterlimit="10" stroke-width="1.535" stroke-dasharray="6.215 6.215"/>
        <line id="Line_724" data-name="Line 724" y2="147.627" transform="translate(358.001 0)" fill="none" stroke="#1a1818" stroke-miterlimit="10" stroke-width="1.535" stroke-dasharray="6.215 6.215"/>
        <line id="Line_727" data-name="Line 727" y2="147.627" transform="translate(408.559 0)" fill="none" stroke="#1a1818" stroke-miterlimit="10" stroke-width="1.535" stroke-dasharray="6.215 6.215"/>
      </g>
      <text id="Type_gebied" data-name="Type gebied" transform="translate(5.372 143.839) rotate(90)" fill="#1a1818" font-size="11" font-family="CenturyGothic, Century Gothic"><tspan x="-67.109" y="0" letter-spacing="-0.01em">T</tspan><tspan y="0">ype gebied</tspan></text>
      <text id="Verblijfsaanleiding" transform="translate(56.613 143.839) rotate(90)" fill="#1a1818" font-size="11" font-family="CenturyGothic, Century Gothic"><tspan x="-96.8" y="0" letter-spacing="-0.042em">V</tspan><tspan y="0">erblijf</tspan><tspan y="0" letter-spacing="0.007em">s</tspan><tspan y="0">aanleiding</tspan></text>
      <text id="Functie_gevels" data-name="Functie  gevels" transform="translate(107.17 143.839) rotate(90)" fill="#1a1818" font-size="11" font-family="CenturyGothic, Century Gothic"><tspan x="-76.489" y="0" xml:space="preserve" letter-spacing="-0.018em">Functie  ge</tspan><tspan y="0" letter-spacing="-0.019em">v</tspan><tspan y="0" letter-spacing="-0.018em">e</tspan><tspan y="0" letter-spacing="-0.019em">l</tspan><tspan y="0">s</tspan></text>
      <text id="Auto_en_fiets" data-name="Auto en fiets" transform="translate(158.411 143.839) rotate(90)" fill="#1a1818" font-size="11" font-family="CenturyGothic, Century Gothic"><tspan x="-66.362" y="0">Au</tspan><tspan y="0" letter-spacing="-0.007em">t</tspan><tspan y="0">o en fi</tspan><tspan y="0" letter-spacing="-0.006em">e</tspan><tspan y="0">ts</tspan></text>
      <text id="Kruispunten" transform="translate(260.209 143.839) rotate(90)" fill="#1a1818" font-size="11" font-family="CenturyGothic, Century Gothic"><tspan x="-56.908" y="0" letter-spacing="-0.041em">Kru</tspan><tspan y="0" letter-spacing="-0.042em">isp</tspan><tspan y="0" letter-spacing="-0.041em">unte</tspan><tspan y="0">n</tspan></text>
      <text id="Groen" transform="translate(362.007 143.839) rotate(90)" fill="#1a1818" font-size="11" font-family="CenturyGothic, Century Gothic"><tspan x="-33.796" y="0">G</tspan><tspan y="0" letter-spacing="-0.015em">r</tspan><tspan y="0">oen</tspan></text>
      <text id="Openbaar_vervoer" data-name="Openbaar vervoer" transform="translate(311.449 143.839) rotate(90)" fill="#1a1818" font-size="11" font-family="CenturyGothic, Century Gothic"><tspan x="-98.665" y="0" letter-spacing="-0.012em">Openbaar v</tspan><tspan y="0">er</tspan><tspan y="0" letter-spacing="-0.012em">v</tspan><tspan y="0">oer</tspan></text>
      <text id="Speciaal_karakter" data-name="Speciaal karakter" transform="translate(413.247 143.839) rotate(90)" fill="#1a1818" font-size="11" font-family="CenturyGothic, Century Gothic"><tspan x="-93.104" y="0">Speciaal ka</tspan><tspan y="0" letter-spacing="-0.01em">r</tspan><tspan y="0">ak</tspan><tspan y="0" letter-spacing="-0.007em">t</tspan><tspan y="0">er</tspan></text>
      <text id="Parkeren" transform="translate(208.968 143.839) rotate(90)" fill="#1a1818" font-size="11" font-family="CenturyGothic, Century Gothic"><tspan x="-46.52" y="0" letter-spacing="-0.017em">P</tspan><tspan y="0">ar</tspan><tspan y="0" letter-spacing="-0.026em">k</tspan><tspan y="0">e</tspan><tspan y="0" letter-spacing="-0.016em">r</tspan><tspan y="0">en</tspan></text>
    </g>
    <g id="Group_434" data-name="Group 434" transform="translate(1985.454 -929)">
      <g id="Group_408" data-name="Group 408" transform="translate(0 24.595)">
        <path id="Path_1330" data-name="Path 1330" d="M128.548,156.855c12.749,0,23.082-10.612,23.082-23.7s-10.334-23.7-23.082-23.7-23.083,10.612-23.083,23.7,10.334,23.7,23.083,23.7" transform="translate(-105.465 -109.452)" fill="#43632e"/>
        <path id="Path_1351" data-name="Path 1351" d="M145.807,146.849h-.71V144.4h.71Zm-1.418,0h-.709V144.4h.709ZM133.4,136.331h-2.128v-2.1H133.4Zm0,4.207h-2.128v-2.1H133.4Zm-5.319-4.207h-2.128v-2.1h2.128Zm0,4.207h-2.128v-2.1h2.128Zm17.339-.915-3.509,3.489v-7.483h-5.319v5.611h-1.773v-8.416H124.53v8.757l-.005-.069-4.364-5.286-5.56,5.495v7.232h3.9V145.1h2.128v3.857h28.015v-6.12Z" transform="translate(-108.359 -116.856)" fill="#fff"/>
        <text id="Stedelijk" transform="translate(14.679 40.485)" fill="#fff" font-size="4" font-family="DaxOT, Dax OT"><tspan x="0" y="0" letter-spacing="-0.015em">S</tspan><tspan y="0" letter-spacing="-0.006em">t</tspan><tspan y="0">edelijk</tspan></text>
      </g>
      <g id="Group_414" data-name="Group 414" transform="translate(101.798 24.595)">
        <path id="Path_1364" data-name="Path 1364" d="M278.1,377.234c12.749,0,23.083-10.611,23.083-23.7s-10.334-23.7-23.083-23.7-23.083,10.611-23.083,23.7,10.334,23.7,23.083,23.7" transform="translate(-255.022 -329.832)" fill="#43632e"/>
        <path id="Path_1365" data-name="Path 1365" d="M301.927,363.581a.881.881,0,0,1-.876.882h-1.995a.881.881,0,0,1-.876-.882v-2.229a.881.881,0,0,1,.876-.883h1.995a.881.881,0,0,1,.876.883Zm-8.58,0a.88.88,0,0,1-.874.882h-2a.881.881,0,0,1-.875-.882v-2.229a.882.882,0,0,1,.875-.883h2a.881.881,0,0,1,.874.883Zm10.283,3.677V358.4a.648.648,0,0,0-.646-.652H288.63a.649.649,0,0,0-.646.652v8.854a.65.65,0,0,0,.646.652h5.263a.649.649,0,0,0,.646-.652v-4.8a.2.2,0,0,1,.2-.2h1.988a.2.2,0,0,1,.2.2v4.8a.649.649,0,0,0,.646.652h5.4a.649.649,0,0,0,.646-.652" transform="translate(-265.464 -338.677)" fill="#fff"/>
        <path id="Path_1366" data-name="Path 1366" d="M288.358,350.247v-3.419a.65.65,0,0,1,.647-.652h1.166a.649.649,0,0,1,.646.652v1.256a.2.2,0,0,0,.325.165l4.039-3.039a.444.444,0,0,1,.537-.008l8.858,6.669a.449.449,0,0,1-.251.817h-16.5c-.425,0-1.208-1.026-.866-1.285l1.323-.993a.206.206,0,0,0,.081-.165" transform="translate(-265.111 -334.674)" fill="#fff"/>
        <path id="Path_1367" data-name="Path 1367" d="M265.321,349.894H279.3a.425.425,0,0,0,.417-.424v-1.143a.426.426,0,0,0-.417-.424H265.321a.426.426,0,0,0-.417.424v1.143a.437.437,0,0,0,.417.424" transform="translate(-258.153 -335.557)" fill="#fff"/>
        <path id="Path_1368" data-name="Path 1368" d="M278.194,357.56a1.108,1.108,0,0,1-1.035-.867l-.054-.3-.545-2.562h1.707l.545,2.562.055.3a.674.674,0,0,1-.672.867m-2.343-.867a.714.714,0,0,1-.726.867,1.033,1.033,0,0,1-.981-.867l-.036-.3-.363-2.562h1.707l.363,2.562Zm-3.213.018a.854.854,0,1,1-1.707,0v-2.876h1.707v2.876Zm-2.8-2.876-.363,2.562-.036.3a1.031,1.031,0,0,1-.98.867.724.724,0,0,1-.727-.867l.036-.3.363-2.562Zm-2.857,5.867H271.5a.442.442,0,0,1,.438.443v3.137a.441.441,0,0,1-.438.441h-4.519a.441.441,0,0,1-.437-.441v-3.137a.441.441,0,0,1,.437-.443m-.012-5.867-.545,2.562-.054.3a1.107,1.107,0,0,1-1.035.867.673.673,0,0,1-.671-.867l.054-.3.545-2.562Zm13.364,2.526-1.125-3.175a.31.31,0,0,1-.019-.106v-.867a.425.425,0,0,0-.416-.424H264.793a.425.425,0,0,0-.417.424v.942a.306.306,0,0,1-.018.1l-1.09,3.1a.679.679,0,0,0,.454.83.766.766,0,0,0,.389.042.313.313,0,0,1,.374.3v8.153a.426.426,0,0,0,.417.424h8.589a.309.309,0,0,0,.307-.312v-6.235a.309.309,0,0,1,.307-.311h2.727a.309.309,0,0,1,.307.311V365.8a.31.31,0,0,0,.307.312h1.345a.426.426,0,0,0,.418-.424v-8.144a.311.311,0,0,1,.348-.307.785.785,0,0,0,.342-.047.666.666,0,0,0,.436-.83" transform="translate(-257.625 -336.788)" fill="#fff"/>
        <text id="Combinatie" transform="translate(10.77 36.842)" fill="#fff" font-size="4" font-family="DaxOT, Dax OT"><tspan x="0" y="0">Combinatie</tspan></text>
      </g>
      <g id="Group_420" data-name="Group 420" transform="translate(203.596 24.595)">
        <path id="Path_1334" data-name="Path 1334" d="M427.734,156.855c12.749,0,23.082-10.612,23.082-23.7s-10.333-23.7-23.082-23.7-23.083,10.612-23.083,23.7,10.334,23.7,23.083,23.7" transform="translate(-404.651 -109.452)" fill="#43632e"/>
        <text id="Wel" transform="translate(18.857 40.485)" fill="#fff" font-size="4" font-family="DaxOT, Dax OT"><tspan x="0" y="0" letter-spacing="-0.027em">W</tspan><tspan y="0">el</tspan></text>
        <path id="Path_1387" data-name="Path 1387" d="M424.13,155.535c0,.027,0,.055,0,.084v2.619a1.114,1.114,0,0,0,1.116,1.1h.919a1.115,1.115,0,0,0,1.116-1.1v-.814h-2.354c-.266,0-.568-.835-.794-1.888" transform="translate(-410.821 -124.051)" fill="#fff"/>
        <path id="Path_1388" data-name="Path 1388" d="M449.833,155.533c-.226,1.055-.529,1.89-.795,1.89h-2.353v.813a1.116,1.116,0,0,0,1.117,1.106h.918a1.115,1.115,0,0,0,1.116-1.106v-2.617c0-.03,0-.058,0-.086" transform="translate(-417.967 -124.05)" fill="#fff"/>
        <path id="Path_1389" data-name="Path 1389" d="M432.822,139.131h0c-3.508,0-4.761.067-5.656.618a11.205,11.205,0,0,0-2.048,2.9l-.029.03a.488.488,0,0,0-.454-.309h-1.656c-.618,0-.7.6-.7.927h0a1.68,1.68,0,0,0,.012.208.528.528,0,0,0,.508.439h.714l.074-.008h0c.334,0,.643.152.525.611a12.258,12.258,0,0,0-.818,1.959,10.906,10.906,0,0,0,.253,3.831c.225,1.055.528,1.89.794,1.89h16.968c.265,0,.568-.836.794-1.89a10.885,10.885,0,0,0,.252-3.83,12.2,12.2,0,0,0-.817-1.959c-.117-.458.191-.611.525-.611h0l.074.008h.716a.529.529,0,0,0,.508-.439,1.646,1.646,0,0,0,.012-.184v-.046c0-.331-.1-.905-.7-.905h-1.655a.487.487,0,0,0-.455.309l-.029-.029a11.209,11.209,0,0,0-2.049-2.9c-.895-.551-2.149-.618-5.656-.618M432,140.24h1.645c2.641.013,3.678.1,4.248.449a14.645,14.645,0,0,1,1.865,2.846,45.76,45.76,0,0,1-13.864,0,14.5,14.5,0,0,1,1.892-2.869c.543-.333,1.578-.416,4.215-.429m6.713,7.437a2.166,2.166,0,0,1-.986-.132c-.192-.213.172-1.39,1.386-2.158a2.826,2.826,0,0,1,1.183-.383.454.454,0,0,1,.354.122c.292.331.525,1.8.048,2.2a4.217,4.217,0,0,1-1.984.348m-11.776,0a4.217,4.217,0,0,1-1.984-.348c-.478-.4-.245-1.871.048-2.2a.455.455,0,0,1,.354-.122,2.83,2.83,0,0,1,1.183.383c1.213.768,1.577,1.945,1.385,2.158a2.166,2.166,0,0,1-.986.132m3.818,2.617c-.844,0-1.336-.248-1.437-.553s.124-.553.5-.553h6.022c.373,0,.6.249.5.553s-.571.553-1.437.553Z" transform="translate(-410.234 -118.854)" fill="#fff"/>
        <text id="P" transform="translate(19.727 16.89)" fill="#fff" font-size="12" font-family="DaxOT, Dax OT"><tspan x="0" y="0">P</tspan></text>
      </g>
      <g id="Group_426" data-name="Group 426" transform="translate(305.394 24.595)">
        <path id="Path_1344" data-name="Path 1344" d="M577.291,230.373c12.749,0,23.083-10.611,23.083-23.7s-10.334-23.7-23.083-23.7-23.082,10.611-23.082,23.7,10.333,23.7,23.082,23.7" transform="translate(-554.209 -182.971)" fill="#43632e"/>
        <text id="Bus" transform="translate(18.227 40.375)" fill="#fff" font-size="4" font-family="DaxOT, Dax OT"><tspan x="0" y="0">Bus</tspan></text>
        <path id="Path_1391" data-name="Path 1391" d="M566.875,206.576v4.338a.548.548,0,0,1-.549.543h-1.538a.548.548,0,0,1-.551-.543v-3.922a2.151,2.151,0,0,1,2.392-2.054h2.684v1.638Z" transform="translate(-557.385 -189.93)" fill="#fff"/>
        <path id="Path_1392" data-name="Path 1392" d="M604.418,206.576v4.338a.549.549,0,0,0,.551.543h1.538a.548.548,0,0,0,.549-.543v-3.922a2.15,2.15,0,0,0-2.391-2.054h-2.684v1.638Z" transform="translate(-569.343 -189.93)" fill="#fff"/>
        <path id="Path_1393" data-name="Path 1393" d="M591.87,215.211a.549.549,0,0,1-.551.544h-3.4a.548.548,0,0,1-.55-.544v-1.358a.548.548,0,0,1,.55-.544h3.4a.549.549,0,0,1,.551.544Zm-6.415-.135a1.157,1.157,0,0,1-1.062.678h-6.5a1.161,1.161,0,0,1-1.061-.678c-.122-.375.152-.68.611-.68h7.4c.46,0,.736.305.61.68m-10.539.135a.547.547,0,0,1-.549.544h-3.4a.547.547,0,0,1-.548-.544v-1.358a.547.547,0,0,1,.548-.544h3.4a.547.547,0,0,1,.549.544ZM572.3,199.518c1.086-.78,5.764-.818,8.843-.818s7.758.039,8.842.818c1.113.8,1.113,9.18,0,9.98-1.084.78-5.764.816-8.842.819s-7.757-.039-8.843-.819c-1.114-.8-1.114-9.179,0-9.98m6.825-4.146h4.032a.765.765,0,1,1,0,1.529h-4.032a.765.765,0,1,1,0-1.529m13.557,13.884V197.68a3.964,3.964,0,0,0-3.1-3.728,49.877,49.877,0,0,0-16.881,0,3.966,3.966,0,0,0-3.1,3.728v11.576a1.339,1.339,0,0,0-.707,1.161v6.4a1.4,1.4,0,0,0,1.423,1.357h21.645a1.4,1.4,0,0,0,1.427-1.357v-6.4a1.341,1.341,0,0,0-.709-1.161" transform="translate(-558.862 -186.222)" fill="#fff"/>
        <path id="Path_1394" data-name="Path 1394" d="M571.084,227.672v3.046a1.369,1.369,0,0,0,1.373,1.356h1.131a1.37,1.37,0,0,0,1.372-1.356v-3.046Z" transform="translate(-559.555 -197.132)" fill="#fff"/>
        <path id="Path_1395" data-name="Path 1395" d="M596.893,227.672v3.046a1.368,1.368,0,0,0,1.371,1.356h1.131a1.368,1.368,0,0,0,1.37-1.356v-3.046Z" transform="translate(-567.731 -197.132)" fill="#fff"/>
      </g>
      <g id="Group_422" data-name="Group 422" transform="translate(254.837 24.595)">
        <path id="Path_1335" data-name="Path 1335" d="M501.234,156.855c12.749,0,23.083-10.612,23.083-23.7s-10.334-23.7-23.083-23.7-23.083,10.612-23.083,23.7,10.334,23.7,23.083,23.7" transform="translate(-478.151 -109.452)" fill="#43632e"/>
        <text id="Verkeerslichten" transform="translate(8.284 40.787)" fill="#fff" font-size="5" font-family="DaxOT, Dax OT"><tspan x="0" y="0" letter-spacing="-0.027em">Ver</tspan><tspan y="0" letter-spacing="-0.028em">k</tspan><tspan y="0" letter-spacing="-0.027em">eersli</tspan><tspan y="0" letter-spacing="-0.028em">c</tspan><tspan y="0" letter-spacing="-0.027em">h</tspan><tspan y="0" letter-spacing="-0.028em">t</tspan><tspan y="0" letter-spacing="-0.027em">e</tspan><tspan y="0">n</tspan></text>
        <path id="Path_1422" data-name="Path 1422" d="M503.8,126.225a1.04,1.04,0,0,0-1.043,1.037V145.1a1.039,1.039,0,0,0,1.043,1.036h7.208a1.039,1.039,0,0,0,1.043-1.036V127.262a1.04,1.04,0,0,0-1.043-1.037Zm3.6,17.8a2,2,0,1,1,2.013-2,2.008,2.008,0,0,1-2.013,2m0-5.669a2,2,0,1,1,2.013-2,2.008,2.008,0,0,1-2.013,2m0-5.669a2,2,0,1,1,2.013-2,2.008,2.008,0,0,1-2.013,2m9.682-3.559a4.984,4.984,0,0,1-3.642,3.534v-4.312h3.007a.649.649,0,0,1,.65.648.626.626,0,0,1-.014.134Zm0,5.669a4.982,4.982,0,0,1-3.642,3.531v-4.31h3.007a.649.649,0,0,1,.65.648.637.637,0,0,1-.014.135Zm0,5.669A4.984,4.984,0,0,1,513.445,144V139.69h3.007a.649.649,0,0,1,.65.649.642.642,0,0,1-.014.135Zm-15.722-7.8a4.987,4.987,0,0,1-3.642-3.53.648.648,0,0,1,.5-.769.7.7,0,0,1,.135-.014h3.007Zm0,5.67a4.992,4.992,0,0,1-3.642-3.53.648.648,0,0,1,.5-.769.694.694,0,0,1,.135-.014h3.007Zm-3.007,1.354h3.007V144a4.986,4.986,0,0,1-3.642-3.529.653.653,0,0,1,.635-.784" transform="translate(-484.347 -114.766)" fill="#fff"/>
      </g>
      <g id="Group_451" data-name="Group 451" transform="translate(356.635)">
        <g id="Group_428" data-name="Group 428" transform="translate(0)">
          <path id="Path_1337" data-name="Path 1337" d="M650.792,156.855c12.748,0,23.082-10.612,23.082-23.7s-10.334-23.7-23.082-23.7-23.083,10.612-23.083,23.7,10.334,23.7,23.083,23.7" transform="translate(-627.709 -109.452)" fill="#43632e"/>
          <text id="Beplanting" transform="translate(11.778 40.485)" fill="#fff" font-size="4" font-family="DaxOT, Dax OT"><tspan x="0" y="0">Bepla</tspan><tspan y="0" letter-spacing="-0.005em">n</tspan><tspan y="0">ting</tspan></text>
          <path id="Path_1396" data-name="Path 1396" d="M658.25,142.9a3.051,3.051,0,0,0-1.107-.09c2.031-7.144,4.651-10.18,8.933-12.95-3.784,2.063-5.2,3.378-7.155,6.445-1.058-7.344,3.722-5.831,8.229-7.558-1.654,4.224-.074,10.578-6.687,8.291a11,11,0,0,0-2.213,5.863m-4.126-6.809c-8.084-.237-5.785-3.519-8.067-7.422,5.282-.671,10.229.6,8.977,6.934.777,2,1.7,3.2,2.04,7.215a2.526,2.526,0,0,0-.978.029c-.09-4.378-1.431-6.54-1.972-6.756m-.085,8.707c-2.169.04-3.061.581-3.806,2.322h14.411c.3-1.865-1.993-2.846-3.181-.784-.611-3.951-7-3.868-7.424-1.537" transform="translate(-633.522 -115.491)" fill="#fff"/>
        </g>
        <g id="Group_429" data-name="Group 429" transform="translate(0.45 50.228)">
          <path id="Path_1345" data-name="Path 1345" d="M650.792,230.373c12.748,0,23.082-10.611,23.082-23.7s-10.334-23.7-23.082-23.7-23.083,10.611-23.083,23.7,10.334,23.7,23.083,23.7" transform="translate(-627.709 -182.971)" fill="#43632e"/>
          <text id="Bomen" transform="translate(15.441 41.374)" fill="#fff" font-size="5" font-family="DaxOT, Dax OT"><tspan x="0" y="0">Bomen</tspan></text>
          <g id="Group_438" data-name="Group 438" transform="translate(11.499 7.417)">
            <path id="Path_1508" data-name="Path 1508" d="M730.641,733.446h-4.163v-4.339h1.635a2.952,2.952,0,0,0,2.969-2.936,2.914,2.914,0,0,1-.247-2.938,12.819,12.819,0,0,0-5.276-4.651c-.045,0-.086,0-.131.006a4.964,4.964,0,0,1,.872,2.818,5.07,5.07,0,0,1-5.091,5.039h-1.575a2.958,2.958,0,0,0,2.954,2.661h1.83v4.339h-6.47V725.79h3.261a4.413,4.413,0,0,0,4.429-4.384,4.322,4.322,0,0,0-.939-2.7,4.59,4.59,0,0,0-.806-.786l-.116-.088-.013-.14a4.385,4.385,0,0,0-2.689-3.6l-.2-.08-.006-.21a4.39,4.39,0,0,0-4.425-4.24,4.44,4.44,0,0,0-4.045,2.6l-.077.166-.183.026a4.409,4.409,0,0,0-3.828,4.341,4.323,4.323,0,0,0,.425,1.88l.084.172-.11.155a4.335,4.335,0,0,0-.8,2.507,4.414,4.414,0,0,0,4.43,4.384H715.3v7.656h-6.943a.437.437,0,1,0,0,.874h22.282a.437.437,0,1,0,0-.874" transform="translate(-707.919 -709.562)" fill="#fff"/>
            <path id="Path_1509" data-name="Path 1509" d="M725.568,721.35H709.9a.437.437,0,1,0,0,.874h15.67a.437.437,0,1,0,0-.874" transform="translate(-706.152 -696.029)" fill="#fff"/>
          </g>
        </g>
      </g>
      <g id="Group_419" data-name="Group 419" transform="translate(153.038 24.595)">
        <path id="Path_1342" data-name="Path 1342" d="M351.605,230.373c12.749,0,23.083-10.611,23.083-23.7s-10.334-23.7-23.083-23.7-23.082,10.611-23.082,23.7,10.334,23.7,23.082,23.7" transform="translate(-328.523 -182.971)" fill="#43632e"/>
        <text id="Gescheiden" transform="translate(10.718 40.377)" fill="#fff" font-size="4" font-family="DaxOT, Dax OT"><tspan x="0" y="0">Gescheiden</tspan></text>
        <path id="Path_1377" data-name="Path 1377" d="M377,215.248h-1.156a5.187,5.187,0,0,0-.432,2.831c.011.327.023.666.017,1.021a.472.472,0,0,0,.467.477h.007a.471.471,0,0,0,.473-.463c.006-.378-.005-.728-.017-1.068a3.548,3.548,0,0,1,.642-2.8" transform="translate(-343.371 -193.196)" fill="#fff"/>
        <path id="Path_1378" data-name="Path 1378" d="M379.633,215.248h-1.019a10.12,10.12,0,0,1,.485,4.765.472.472,0,0,0,.437.5h.036a.473.473,0,0,0,.471-.435,14.737,14.737,0,0,0-.152-3.836,7.19,7.19,0,0,0-.259-1" transform="translate(-344.391 -193.196)" fill="#fff"/>
        <path id="Path_1379" data-name="Path 1379" d="M345.822,221.306c0,.021,0,.042,0,.064v1.955a.831.831,0,0,0,.831.825h.684a.831.831,0,0,0,.831-.825v-.608h-1.752c-.2,0-.424-.622-.592-1.411" transform="translate(-334.002 -195.115)" fill="#fff"/>
        <path id="Path_1380" data-name="Path 1380" d="M364.97,221.3c-.168.788-.394,1.411-.592,1.411h-1.752v.607a.831.831,0,0,0,.831.825h.684a.83.83,0,0,0,.831-.825v-1.955c0-.022,0-.042,0-.064" transform="translate(-339.326 -195.115)" fill="#fff"/>
        <path id="Path_1381" data-name="Path 1381" d="M352.3,209.058h0c-2.613,0-3.547.048-4.213.46a8.383,8.383,0,0,0-1.526,2.164l-.022.023a.362.362,0,0,0-.338-.231h-1.235c-.46,0-.523.447-.523.693h0a1.22,1.22,0,0,0,.009.154.393.393,0,0,0,.378.328h.532l.055-.006v0c.249,0,.479.113.391.456a9.045,9.045,0,0,0-.609,1.464,8.137,8.137,0,0,0,.188,2.86c.168.788.393,1.411.591,1.411h12.641c.2,0,.424-.624.592-1.412a8.168,8.168,0,0,0,.188-2.859,9.147,9.147,0,0,0-.609-1.465c-.087-.342.141-.455.39-.455v0l.056.006h.533a.393.393,0,0,0,.378-.328,1.105,1.105,0,0,0,.009-.137v-.035c0-.248-.073-.676-.524-.676H358.4a.361.361,0,0,0-.338.231l-.022-.022a8.354,8.354,0,0,0-1.527-2.166c-.666-.412-1.6-.46-4.214-.46m-.614.827.614,0,.611,0c1.967.009,2.74.073,3.165.335a10.966,10.966,0,0,1,1.39,2.125,33.937,33.937,0,0,1-10.329,0,10.848,10.848,0,0,1,1.408-2.141c.406-.248,1.177-.312,3.141-.32m5,5.554a1.588,1.588,0,0,1-.734-.1c-.144-.159.126-1.038,1.032-1.611a2.092,2.092,0,0,1,.881-.287.335.335,0,0,1,.263.093c.219.247.391,1.342.036,1.644a3.129,3.129,0,0,1-1.478.26m-8.772,0a3.133,3.133,0,0,1-1.478-.26c-.356-.3-.183-1.4.035-1.644a.339.339,0,0,1,.264-.093,2.1,2.1,0,0,1,.881.287c.9.573,1.174,1.452,1.032,1.611a1.591,1.591,0,0,1-.734.1m2.844,1.954c-.629,0-1-.185-1.071-.413s.092-.412.37-.412h4.487c.277,0,.444.186.369.412s-.426.413-1.071.413Z" transform="translate(-333.565 -191.235)" fill="#fff"/>
        <path id="Path_1382" data-name="Path 1382" d="M377.894,217.058a.364.364,0,0,0-.365.363v5.352a.365.365,0,0,0,.73,0v-5.352a.364.364,0,0,0-.365-.363" transform="translate(-344.048 -193.77)" fill="#fff"/>
        <path id="Path_1383" data-name="Path 1383" d="M378.274,211.292h-3.508a8.152,8.152,0,0,1,.348-2.831c.033-.1.069-.193.108-.283v2.694h0v.139h2.562v-.139h0V208.14q.069.157.128.327a8.1,8.1,0,0,1,.353,2.825m1.209,0h-.316c.064-2.428-.576-4.271-1.733-4.959a1.751,1.751,0,0,0-1.841,0c-1.15.684-1.785,2.527-1.719,4.96h-.316a.363.363,0,1,0,0,.726h5.925a.363.363,0,1,0,0-.726" transform="translate(-342.674 -190.289)" fill="#fff"/>
        <path id="Path_1384" data-name="Path 1384" d="M377.46,201.823a1.294,1.294,0,1,1-1.3,1.294,1.3,1.3,0,0,1,1.3-1.294" transform="translate(-343.613 -188.943)" fill="#fff"/>
        <line id="Line_736" data-name="Line 736" y2="23.229" transform="translate(28.714 9.206)" fill="none" stroke="#fff" stroke-width="1"/>
      </g>
      <g id="Group_448" data-name="Group 448" transform="translate(51.24 24.595)">
        <path id="Path_1343" data-name="Path 1343" d="M427.734,230.373c12.749,0,23.082-10.611,23.082-23.7s-10.333-23.7-23.082-23.7-23.083,10.611-23.083,23.7,10.334,23.7,23.083,23.7" transform="translate(-404.651 -182.971)" fill="#afafaf"/>
        <text id="N.V.T" transform="translate(10.053 28.786)" fill="#fff" font-size="13" font-family="DaxOT, Dax OT"><tspan x="0" y="0">N.V.T</tspan></text>
      </g>
      <g id="Group_449" data-name="Group 449" transform="translate(407.875 24.595)">
        <path id="Path_1343-2" data-name="Path 1343" d="M427.734,230.373c12.749,0,23.082-10.611,23.082-23.7s-10.333-23.7-23.082-23.7-23.083,10.611-23.083,23.7,10.334,23.7,23.083,23.7" transform="translate(-404.651 -182.971)" fill="#afafaf"/>
        <text id="N.V.T-2" data-name="N.V.T" transform="translate(10.053 28.786)" fill="#fff" font-size="13" font-family="DaxOT, Dax OT"><tspan x="0" y="0">N.V.T</tspan></text>
      </g>
    </g>
  </g>
</svg>
