<svg xmlns="http://www.w3.org/2000/svg" width="218.748" height="74.259" viewBox="0 0 218.748 74.259"><g transform="translate(-4155.813 13613.896)"><line y2="3.057" transform="translate(4167.042 -13602.128)" fill="none" stroke="#1a1818" stroke-miterlimit="10" stroke-width="1.019"/><line y2="46.263" transform="translate(4167.042 -13592.903)" fill="none" stroke="#1a1818" stroke-miterlimit="10" stroke-width="1.019" stroke-dasharray="6.169 6.169"/><line y2="3.057" transform="translate(4167.042 -13543.557)" fill="none" stroke="#1a1818" stroke-miterlimit="10" stroke-width="1.019"/><line y2="3.057" transform="translate(4191.487 -13602.128)" fill="none" stroke="#1a1818" stroke-miterlimit="10" stroke-width="1.019"/><line y2="46.263" transform="translate(4191.487 -13592.903)" fill="none" stroke="#1a1818" stroke-miterlimit="10" stroke-width="1.019" stroke-dasharray="6.169 6.169"/><line y2="3.057" transform="translate(4191.487 -13543.557)" fill="none" stroke="#1a1818" stroke-miterlimit="10" stroke-width="1.019"/><line y2="3.057" transform="translate(4216.527 -13602.128)" fill="none" stroke="#1a1818" stroke-miterlimit="10" stroke-width="1.019"/><line y2="46.263" transform="translate(4216.527 -13592.903)" fill="none" stroke="#1a1818" stroke-miterlimit="10" stroke-width="1.019" stroke-dasharray="6.169 6.169"/><line y2="3.057" transform="translate(4216.527 -13543.557)" fill="none" stroke="#1a1818" stroke-miterlimit="10" stroke-width="1.019"/><line y2="3.057" transform="translate(4241.038 -13602.128)" fill="none" stroke="#1a1818" stroke-miterlimit="10" stroke-width="1.019"/><line y2="46.263" transform="translate(4241.038 -13592.903)" fill="none" stroke="#1a1818" stroke-miterlimit="10" stroke-width="1.019" stroke-dasharray="6.169 6.169"/><line y2="3.057" transform="translate(4241.038 -13543.557)" fill="none" stroke="#1a1818" stroke-miterlimit="10" stroke-width="1.019"/><line y2="3.057" transform="translate(4265.482 -13602.128)" fill="none" stroke="#1a1818" stroke-miterlimit="10" stroke-width="1.019"/><line y2="46.263" transform="translate(4265.482 -13592.903)" fill="none" stroke="#1a1818" stroke-miterlimit="10" stroke-width="1.019" stroke-dasharray="6.169 6.169"/><line y2="3.057" transform="translate(4265.482 -13543.557)" fill="none" stroke="#1a1818" stroke-miterlimit="10" stroke-width="1.019"/><line y2="3.057" transform="translate(4290.522 -13602.128)" fill="none" stroke="#1a1818" stroke-miterlimit="10" stroke-width="1.019"/><line y2="46.263" transform="translate(4290.522 -13592.903)" fill="none" stroke="#1a1818" stroke-miterlimit="10" stroke-width="1.019" stroke-dasharray="6.169 6.169"/><line y2="3.057" transform="translate(4290.522 -13543.557)" fill="none" stroke="#1a1818" stroke-miterlimit="10" stroke-width="1.019"/><line y2="3.057" transform="translate(4314.727 -13602.128)" fill="none" stroke="#1a1818" stroke-miterlimit="10" stroke-width="1.019"/><line y2="46.263" transform="translate(4314.727 -13592.903)" fill="none" stroke="#1a1818" stroke-miterlimit="10" stroke-width="1.019" stroke-dasharray="6.169 6.169"/><line y2="3.057" transform="translate(4314.727 -13543.557)" fill="none" stroke="#1a1818" stroke-miterlimit="10" stroke-width="1.019"/><line y2="3.057" transform="translate(4339.171 -13602.128)" fill="none" stroke="#1a1818" stroke-miterlimit="10" stroke-width="1.019"/><line y2="46.263" transform="translate(4339.171 -13592.903)" fill="none" stroke="#1a1818" stroke-miterlimit="10" stroke-width="1.019" stroke-dasharray="6.169 6.169"/><line y2="3.057" transform="translate(4339.171 -13543.557)" fill="none" stroke="#1a1818" stroke-miterlimit="10" stroke-width="1.019"/><line y2="3.057" transform="translate(4364.211 -13602.128)" fill="none" stroke="#1a1818" stroke-miterlimit="10" stroke-width="1.019"/><line y2="46.263" transform="translate(4364.211 -13592.903)" fill="none" stroke="#1a1818" stroke-miterlimit="10" stroke-width="1.019" stroke-dasharray="6.169 6.169"/><line y2="3.057" transform="translate(4364.211 -13543.557)" fill="none" stroke="#1a1818" stroke-miterlimit="10" stroke-width="1.019"/><text transform="translate(4169.65 -13582.637) rotate(90)" fill="#1a1818" font-size="5.417" font-family="CenturyGothic, Century Gothic"><tspan x="0" y="0" letter-spacing="-0.01em">T</tspan><tspan y="0">ype omg</tspan><tspan y="0" letter-spacing="-0.009em">e</tspan><tspan y="0">ving </tspan></text><text transform="translate(4193.432 -13588.162) rotate(90)" fill="#1a1818" font-size="5.417" font-family="CenturyGothic, Century Gothic"><tspan x="0" y="0" letter-spacing="-0.042em">V</tspan><tspan y="0">erblijf</tspan><tspan y="0" letter-spacing="0.007em">s</tspan><tspan y="0">aanleiding</tspan></text><text transform="translate(4218.477 -13583.017) rotate(90)" fill="#1a1818" font-size="5.417" font-family="CenturyGothic, Century Gothic"><tspan x="0" y="0" letter-spacing="-0.007em">F</tspan><tspan y="0">un</tspan><tspan y="0" letter-spacing="0.01em">c</tspan><tspan y="0">tie</tspan><tspan y="0" letter-spacing="-0.016em"> </tspan><tspan y="0" letter-spacing="-0.019em">w</tspan><tspan y="0">anden</tspan></text><text transform="translate(4243.442 -13573.163) rotate(90)" fill="#1a1818" font-size="5.417" font-family="CenturyGothic, Century Gothic"><tspan x="0" y="0">Au</tspan><tspan y="0" letter-spacing="-0.007em">t</tspan><tspan y="0">o en fi</tspan><tspan y="0" letter-spacing="-0.006em">e</tspan><tspan y="0">ts</tspan></text><text transform="translate(4292.671 -13580.118) rotate(90)" fill="#1a1818" font-size="5.417" font-family="CenturyGothic, Century Gothic"><tspan x="0" y="0" letter-spacing="-0.042em">V</tspan><tspan y="0">er</tspan><tspan y="0" letter-spacing="-0.026em">k</tspan><tspan y="0">eerslic</tspan><tspan y="0" letter-spacing="-0.005em">h</tspan><tspan y="0" letter-spacing="-0.007em">t</tspan><tspan y="0">en</tspan></text><text transform="translate(4341.009 -13557.124) rotate(90)" fill="#1a1818" font-size="5.417" font-family="CenturyGothic, Century Gothic"><tspan x="0" y="0">G</tspan><tspan y="0" letter-spacing="-0.015em">r</tspan><tspan y="0">oen</tspan></text><text transform="translate(4316.735 -13589.387) rotate(90)" fill="#1a1818" font-size="5.417" font-family="CenturyGothic, Century Gothic"><tspan x="0" y="0">Openbaa</tspan></text><text transform="translate(4316.736 -13563.066) rotate(90)" fill="#1a1818" font-size="5.417" font-family="CenturyGothic, Century Gothic"><tspan x="0" y="0" letter-spacing="-0.024em">r</tspan><tspan y="0"> </tspan></text><text transform="translate(4316.735 -13560.207) rotate(90)" fill="#1a1818" font-size="5.417" font-family="CenturyGothic, Century Gothic"><tspan x="0" y="0" letter-spacing="-0.012em">v</tspan><tspan y="0">er</tspan><tspan y="0" letter-spacing="-0.012em">v</tspan><tspan y="0">oer</tspan></text><text transform="translate(4366.602 -13586.603) rotate(90)" fill="#1a1818" font-size="5.417" font-family="CenturyGothic, Century Gothic"><tspan x="0" y="0">Speciaal ka</tspan><tspan y="0" letter-spacing="-0.01em">r</tspan><tspan y="0">ak</tspan><tspan y="0" letter-spacing="-0.007em">t</tspan><tspan y="0">er</tspan></text><text transform="translate(4267.282 -13563.381) rotate(90)" fill="#1a1818" font-size="5.417" font-family="CenturyGothic, Century Gothic"><tspan x="0" y="0" letter-spacing="-0.017em">P</tspan><tspan y="0">ar</tspan><tspan y="0" letter-spacing="-0.026em">k</tspan><tspan y="0">e</tspan><tspan y="0" letter-spacing="-0.016em">r</tspan><tspan y="0">en</tspan></text><path d="M639.455,729.067a11.512,11.512,0,1,0-11.143-11.506,11.327,11.327,0,0,0,11.143,11.506" transform="translate(3625.865 -14319.914)" fill="#3a5121"/><path d="M634.737,721.339c0,.013,0,.027,0,.041v1.271a.539.539,0,0,0,.539.537h.443a.54.54,0,0,0,.539-.537v-.4H635.12c-.128,0-.274-.4-.383-.917" transform="translate(3625.865 -14319.914)" fill="#fff"/><text transform="translate(4263.28 -13593.826)" fill="#fff" font-size="2.318" font-family="DaxOT, Dax OT"><tspan x="0" y="0" letter-spacing="-0.027em">W</tspan><tspan y="0">el</tspan></text><path d="M643.694,721.338c-.109.512-.255.918-.384.918h-1.135v.4a.541.541,0,0,0,.539.537h.442a.54.54,0,0,0,.539-.537V721.38c0-.014,0-.028,0-.042" transform="translate(3625.865 -14319.914)" fill="#fff"/><path d="M639.215,715.9h0c-1.693,0-2.3.032-2.73.3a5.42,5.42,0,0,0-.988,1.407l-.015.014a.236.236,0,0,0-.219-.15h-.8c-.3,0-.339.291-.339.45h0a.922.922,0,0,0,.005.1.256.256,0,0,0,.246.213h.345l.035,0h0c.162,0,.31.074.254.3a5.913,5.913,0,0,0-.4.952,5.334,5.334,0,0,0,.122,1.859c.109.512.255.918.383.918h8.19c.128,0,.275-.406.384-.918a5.3,5.3,0,0,0,.121-1.859,5.85,5.85,0,0,0-.394-.952c-.057-.222.092-.3.253-.3h0l.036,0h.345a.255.255,0,0,0,.245-.213.84.84,0,0,0,.006-.09v-.022c0-.161-.048-.44-.339-.44h-.8a.235.235,0,0,0-.219.15l-.014-.013a5.405,5.405,0,0,0-.99-1.408c-.431-.268-1.037-.3-2.73-.3m-.4.538h.794a4.673,4.673,0,0,1,2.05.218,7.081,7.081,0,0,1,.9,1.382,21.949,21.949,0,0,1-6.692,0,7.031,7.031,0,0,1,.913-1.393,4.776,4.776,0,0,1,2.035-.208m3.24,3.611a1.045,1.045,0,0,1-.476-.064c-.092-.1.083-.675.669-1.048a1.364,1.364,0,0,1,.571-.186.22.22,0,0,1,.171.059c.141.161.254.874.023,1.07a2.025,2.025,0,0,1-.958.169m-5.684,0a2.031,2.031,0,0,1-.958-.169c-.23-.2-.118-.909.024-1.07a.219.219,0,0,1,.171-.059,1.359,1.359,0,0,1,.57.186c.586.373.761.944.669,1.048a1.045,1.045,0,0,1-.476.064m1.843,1.27c-.408,0-.645-.12-.694-.269s.06-.268.24-.268h2.907c.18,0,.287.121.239.268s-.275.269-.694.269Z" transform="translate(3625.865 -14319.914)" fill="#fff"/><text transform="translate(4263.7 -13605.517)" fill="#fff" font-size="5.794" font-family="DaxOT, Dax OT"><tspan x="0" y="0">P</tspan></text><path d="M590.11,729.157a11.512,11.512,0,1,0-11.142-11.507,11.328,11.328,0,0,0,11.142,11.507" transform="translate(3625.865 -14319.914)" fill="#3a5121"/><path d="M593.469,718.163a.507.507,0,0,1-.506.506h-1.156a.507.507,0,0,1-.506-.506v-1.279a.508.508,0,0,1,.506-.506h1.156a.507.507,0,0,1,.506.506Zm-4.966,0a.507.507,0,0,1-.506.506h-1.155a.507.507,0,0,1-.507-.506v-1.279a.508.508,0,0,1,.507-.506H588a.507.507,0,0,1,.506.506Zm5.952,2.11v-5.08a.373.373,0,0,0-.374-.374h-8.308a.374.374,0,0,0-.374.374v5.08a.374.374,0,0,0,.374.373h3.046a.373.373,0,0,0,.374-.373v-2.754a.118.118,0,0,1,.118-.117h1.151a.118.118,0,0,1,.118.117v2.754a.373.373,0,0,0,.374.373h3.127a.373.373,0,0,0,.374-.373m-8.725-7.484v-2.018a.383.383,0,0,1,.38-.386h.684a.382.382,0,0,1,.379.386v.741a.121.121,0,0,0,.192.1l2.37-1.795a.261.261,0,0,1,.316,0l5.2,3.938a.266.266,0,0,1-.148.482h-9.689c-.249,0-.709-.606-.509-.758l.777-.586a.125.125,0,0,0,.048-.1" transform="translate(3625.865 -14319.914)" fill="#fff"/><text transform="translate(4211.813 -13593.789)" fill="#fff" font-size="2.318" font-family="DaxOT, Dax OT"><tspan x="0" y="0" letter-spacing="0.005em">W</tspan><tspan y="0" letter-spacing="0.006em">one</tspan><tspan y="0">n</tspan></text><path d="M713.015,729.032a11.512,11.512,0,1,0-11.142-11.506,11.328,11.328,0,0,0,11.142,11.506" transform="translate(3625.865 -14319.914)" fill="#3a5121"/><text transform="translate(4335.19 -13593.914)" fill="#fff" font-size="2.318" font-family="DaxOT, Dax OT"><tspan x="0" y="0">Bomen</tspan></text><path d="M717.9,720.541h-1.938v-2.02h.761a1.374,1.374,0,0,0,1.382-1.367,1.357,1.357,0,0,1-.115-1.368,5.968,5.968,0,0,0-2.456-2.165c-.021,0-.04,0-.061,0a2.308,2.308,0,0,1,.406,1.312,2.36,2.36,0,0,1-2.37,2.346h-.733a1.377,1.377,0,0,0,1.376,1.239H715v2.02h-3.012v-3.564h1.518a2.054,2.054,0,0,0,2.062-2.041,2.009,2.009,0,0,0-.437-1.256,2.1,2.1,0,0,0-.375-.367l-.054-.041-.006-.065a2.044,2.044,0,0,0-1.251-1.676l-.092-.037,0-.1a2.043,2.043,0,0,0-2.06-1.974,2.068,2.068,0,0,0-1.884,1.21l-.035.077-.084.012a2.053,2.053,0,0,0-1.783,2.022,1.984,1.984,0,0,0,.2.874l.038.08-.051.073a2.013,2.013,0,0,0-.371,1.166,2.055,2.055,0,0,0,2.062,2.041h1.375v3.564h-3.231a.2.2,0,1,0,0,.407H717.9a.2.2,0,1,0,0-.407" transform="translate(3625.865 -14319.914)" fill="#fff"/><path d="M716.361,721.211h-7.3a.2.2,0,1,0,0,.407h7.3a.2.2,0,1,0,0-.407" transform="translate(3625.865 -14319.914)" fill="#fff"/><path d="M737.554,729.032a11.512,11.512,0,1,0-11.142-11.507,11.328,11.328,0,0,0,11.142,11.507" transform="translate(3625.865 -14319.914)" fill="#3a5121"/><path d="M731.262,716.56a.378.378,0,0,0-.386.386V718.1a.378.378,0,0,0,.386.386h12.585a.378.378,0,0,0,.386-.386v-1.159a.378.378,0,0,0-.386-.386Z" transform="translate(3625.865 -14319.914)" fill="#fff"/><text transform="translate(4361.179 -13595.629)" fill="#fff" font-size="2.318" font-family="DaxOT, Dax OT"><tspan x="0" y="0">Ni</tspan><tspan y="0" letter-spacing="-0.003em">e</tspan><tspan y="0">t</tspan></text><path d="M541.09,729.067a11.512,11.512,0,1,0-11.142-11.506,11.328,11.328,0,0,0,11.142,11.506" transform="translate(3625.865 -14319.914)" fill="#3a5121"/><path d="M548.024,720.615h-.342v-1.191h.342Zm-.685,0H547v-1.191h.342Zm-5.306-5.106h-1.027v-1.021h1.027Zm0,2.042h-1.027V716.53h1.027Zm-2.568-2.042h-1.027v-1.021h1.027Zm0,2.042h-1.027V716.53h1.027Zm8.37-.444-1.694,1.694v-3.633h-2.567v2.724h-.856v-4.086h-4.964v4.252l0-.034-2.106-2.566-2.684,2.668v3.511h1.883v-1.873h1.027v1.873h13.522v-2.971Z" transform="translate(3625.865 -14319.914)" fill="#fff"/><path d="M689.077,729.067a11.512,11.512,0,1,0-11.142-11.506,11.328,11.328,0,0,0,11.142,11.506" transform="translate(3625.865 -14319.914)" fill="#3a5121"/><text transform="translate(4162.898 -13593.826)" fill="#fff" font-size="2.318" font-family="DaxOT, Dax OT"><tspan x="0" y="0" letter-spacing="-0.015em">S</tspan><tspan y="0" letter-spacing="-0.007em">t</tspan><tspan y="0">edelijk</tspan></text><text transform="translate(4312.6 -13593.879)" fill="#fff" font-size="2.318" font-family="DaxOT, Dax OT"><tspan x="0" y="0">Bus</tspan></text><path d="M682.515,714.135v2.106a.265.265,0,0,1-.265.264h-.742a.265.265,0,0,1-.266-.264v-1.9a1.04,1.04,0,0,1,1.154-1h1.295v.8Z" transform="translate(3625.865 -14319.914)" fill="#fff"/><path d="M694.865,714.135v2.106a.265.265,0,0,0,.266.264h.742a.266.266,0,0,0,.266-.264v-1.9a1.041,1.041,0,0,0-1.155-1h-1.295v.8Z" transform="translate(3625.865 -14319.914)" fill="#fff"/><path d="M693.867,720.127a.265.265,0,0,1-.266.264h-1.64a.265.265,0,0,1-.265-.264v-.659a.265.265,0,0,1,.265-.264h1.64a.265.265,0,0,1,.266.264Zm-3.1-.065a.558.558,0,0,1-.512.329h-3.138a.561.561,0,0,1-.513-.329c-.058-.182.074-.33.3-.33h3.574c.221,0,.354.148.294.33m-5.087.065a.265.265,0,0,1-.266.264h-1.64a.264.264,0,0,1-.264-.264v-.659a.264.264,0,0,1,.264-.264h1.64a.265.265,0,0,1,.266.264Zm-1.262-7.619c.524-.378,2.782-.4,4.268-.4s3.744.019,4.268.4.537,4.457,0,4.846-2.783.4-4.268.4-3.744-.019-4.268-.4-.538-4.457,0-4.846m3.294-2.013h1.946a.371.371,0,1,1,0,.742h-1.946a.371.371,0,1,1,0-.742m6.544,6.741v-5.62a1.922,1.922,0,0,0-1.5-1.81,23.919,23.919,0,0,0-8.148,0,1.922,1.922,0,0,0-1.5,1.81v5.62a.652.652,0,0,0-.342.564v3.106a.676.676,0,0,0,.687.66h10.448a.678.678,0,0,0,.689-.66V717.8a.652.652,0,0,0-.342-.564" transform="translate(3625.865 -14319.914)" fill="#fff"/><path d="M683.5,720.881v1.479a.662.662,0,0,0,.662.658h.546a.663.663,0,0,0,.662-.658v-1.479Z" transform="translate(3625.865 -14319.914)" fill="#fff"/><path d="M692.011,720.881v1.479a.661.661,0,0,0,.662.658h.546a.662.662,0,0,0,.661-.658v-1.479Z" transform="translate(3625.865 -14319.914)" fill="#fff"/><path d="M663.995,729.067a11.512,11.512,0,1,0-11.142-11.506,11.328,11.328,0,0,0,11.142,11.506" transform="translate(3625.865 -14319.914)" fill="#3a5121"/><path d="M662.047,711.389a.5.5,0,0,0-.5.5v8.659a.5.5,0,0,0,.5.5h3.479a.5.5,0,0,0,.5-.5v-8.659a.5.5,0,0,0-.5-.5Zm1.74,8.644a.972.972,0,1,1,.972-.972.972.972,0,0,1-.972.972m0-2.752a.972.972,0,1,1,.972-.972.972.972,0,0,1-.972.972m0-2.753a.971.971,0,1,1,.972-.972.972.972,0,0,1-.972.972m4.673-1.728a2.413,2.413,0,0,1-1.758,1.716v-2.093h1.452a.314.314,0,0,1,.313.314.3.3,0,0,1-.007.066Zm0,2.753a2.412,2.412,0,0,1-1.758,1.715v-2.093h1.452a.314.314,0,0,1,.313.315.293.293,0,0,1-.007.065Zm0,2.752a2.412,2.412,0,0,1-1.758,1.715v-2.094h1.452a.314.314,0,0,1,.313.315.282.282,0,0,1-.007.065Zm-7.589-3.789a2.416,2.416,0,0,1-1.758-1.713.316.316,0,0,1,.242-.374.347.347,0,0,1,.065-.006h1.451Zm0,2.753a2.417,2.417,0,0,1-1.758-1.714.315.315,0,0,1,.242-.373.281.281,0,0,1,.065-.007h1.451Zm-1.451.657h1.451v2.094a2.414,2.414,0,0,1-1.758-1.714.315.315,0,0,1,.242-.373.353.353,0,0,1,.065-.007" transform="translate(3625.865 -14319.914)" fill="#fff"/><text transform="translate(4287.682 -13593.826)" fill="#fff" font-size="2.318" font-family="DaxOT, Dax OT"><tspan x="0" y="0" letter-spacing="-0.028em">W</tspan><tspan y="0">el</tspan></text><path d="M614.65,729.067a11.512,11.512,0,1,0-11.142-11.506,11.328,11.328,0,0,0,11.142,11.506" transform="translate(3625.865 -14319.914)" fill="#3a5121"/><text transform="translate(4234.548 -13593.879)" fill="#fff" font-size="2.318" font-family="DaxOT, Dax OT"><tspan x="0" y="0">Gescheiden</tspan></text><path d="M609.213,718.769a.31.31,0,0,0,0,.031v.949a.4.4,0,0,0,.4.4h.33a.4.4,0,0,0,.4-.4v-.3H609.5c-.095,0-.2-.3-.285-.685" transform="translate(3625.865 -14319.914)" fill="#fff"/><path d="M615.886,718.768c-.081.382-.19.686-.286.686h-.846v.294a.4.4,0,0,0,.4.4h.331a.4.4,0,0,0,.4-.4v-.98" transform="translate(3625.865 -14319.914)" fill="#fff"/><path d="M612.549,714.706h0c-1.261,0-1.712.024-2.034.224a4.027,4.027,0,0,0-.736,1.051l-.011.011a.175.175,0,0,0-.163-.113h-.595c-.223,0-.253.218-.253.336h0a.633.633,0,0,0,0,.075.191.191,0,0,0,.183.16h.257l.026,0h0c.12,0,.231.055.189.222a4.446,4.446,0,0,0-.294.71,4,4,0,0,0,.091,1.389c.081.382.19.685.285.685h6.1c.095,0,.2-.3.285-.686a4.022,4.022,0,0,0,.091-1.388,4.5,4.5,0,0,0-.294-.71c-.043-.167.068-.222.188-.222h0l.027,0h.257a.191.191,0,0,0,.183-.16s0-.027,0-.066v-.017c0-.121-.036-.329-.253-.329h-.595a.174.174,0,0,0-.163.113l-.011-.011a4.025,4.025,0,0,0-.737-1.051c-.322-.2-.773-.224-2.034-.224m-.3.4h.592a3.491,3.491,0,0,1,1.528.162,5.428,5.428,0,0,1,.67,1.032,16.314,16.314,0,0,1-4.985,0,5.3,5.3,0,0,1,.679-1.04,3.572,3.572,0,0,1,1.516-.155m2.415,2.7a.77.77,0,0,1-.355-.048c-.069-.077.061-.5.5-.782a1.016,1.016,0,0,1,.426-.139.163.163,0,0,1,.127.044c.105.121.189.653.017.8a1.509,1.509,0,0,1-.713.126m-4.235,0a1.516,1.516,0,0,1-.714-.126c-.171-.146-.088-.678.018-.8a.162.162,0,0,1,.127-.044,1.006,1.006,0,0,1,.425.139c.437.279.568.705.5.782a.765.765,0,0,1-.354.048m1.373.949c-.3,0-.481-.09-.517-.2s.045-.2.179-.2h2.165c.134,0,.215.09.178.2s-.205.2-.517.2Z" transform="translate(3625.865 -14319.914)" fill="#fff"/><path d="M619.846,717.36a.177.177,0,0,0-.177.177v2.6a.176.176,0,0,0,.353,0v-2.6a.176.176,0,0,0-.176-.177" transform="translate(3625.865 -14319.914)" fill="#fff"/><path d="M619.74,716.759h-.559a2.538,2.538,0,0,0-.208,1.375c.005.158.01.323.008.5a.229.229,0,0,0,.225.232h0a.229.229,0,0,0,.229-.225c0-.183,0-.353-.008-.518a1.722,1.722,0,0,1,.31-1.359" transform="translate(3625.865 -14319.914)" fill="#fff"/><path d="M620.519,716.759h-.492a4.952,4.952,0,0,1,.235,2.313.229.229,0,0,0,.211.246h.017a.229.229,0,0,0,.228-.211,7.2,7.2,0,0,0-.074-1.862,3.55,3.55,0,0,0-.125-.486" transform="translate(3625.865 -14319.914)" fill="#fff"/><path d="M620.692,716.25H619a3.992,3.992,0,0,1,.167-1.374c.017-.047.034-.094.052-.137v1.308h0v.067h1.238v-.067h0V714.72c.023.051.043.1.062.159a3.954,3.954,0,0,1,.171,1.371m.583,0h-.152a2.68,2.68,0,0,0-.837-2.407.844.844,0,0,0-.889,0,2.682,2.682,0,0,0-.829,2.408h-.153a.176.176,0,0,0,0,.352h2.86a.176.176,0,0,0,0-.352" transform="translate(3625.865 -14319.914)" fill="#fff"/><path d="M617.8,721.5v-.066H607.364V711.064h10.371V721.5h.066v0h.065V710.933H607.234v10.634h10.632V721.5Z" transform="translate(3625.865 -14319.914)" fill="#fff"/><path d="M621.89,721.5v-.066h-4.024V711.064h3.958V721.5h.066v0h.065V710.933h-4.22v10.634h4.22V721.5Z" transform="translate(3625.865 -14319.914)" fill="#fff"/><path d="M620.488,712.858a.642.642,0,1,1-.643-.643.643.643,0,0,1,.643.643" transform="translate(3625.865 -14319.914)" fill="#fff"/><path d="M565.329,729.032a11.512,11.512,0,1,0-11.142-11.506,11.328,11.328,0,0,0,11.142,11.506" transform="translate(3625.865 -14319.914)" fill="#3a5121"/><path d="M559.085,716.56a.378.378,0,0,0-.386.386V718.1a.379.379,0,0,0,.386.387H571.67a.378.378,0,0,0,.386-.387v-1.159a.378.378,0,0,0-.386-.386Z" transform="translate(3625.865 -14319.914)" fill="#fff"/><text transform="translate(4188.955 -13593.914)" fill="#fff" font-size="2.318" font-family="DaxOT, Dax OT"><tspan x="0" y="0">Ni</tspan><tspan y="0" letter-spacing="-0.003em">e</tspan><tspan y="0">t</tspan></text></g></svg>