<svg xmlns="http://www.w3.org/2000/svg" width="218.748" height="74.185" viewBox="0 0 218.748 74.185"><g transform="translate(-4019.359 15612.557)"><line y2="3.057" transform="translate(4030.116 -15600.865)" fill="none" stroke="#1a1818" stroke-miterlimit="10" stroke-width="1.019"/><line y2="46.263" transform="translate(4030.116 -15591.64)" fill="none" stroke="#1a1818" stroke-miterlimit="10" stroke-width="1.019" stroke-dasharray="6.169 6.169"/><line y2="3.057" transform="translate(4030.116 -15542.293)" fill="none" stroke="#1a1818" stroke-miterlimit="10" stroke-width="1.019"/><line y2="3.057" transform="translate(4054.561 -15600.865)" fill="none" stroke="#1a1818" stroke-miterlimit="10" stroke-width="1.019"/><line y2="46.263" transform="translate(4054.561 -15591.64)" fill="none" stroke="#1a1818" stroke-miterlimit="10" stroke-width="1.019" stroke-dasharray="6.169 6.169"/><line y2="3.057" transform="translate(4054.561 -15542.293)" fill="none" stroke="#1a1818" stroke-miterlimit="10" stroke-width="1.019"/><line y2="3.057" transform="translate(4079.601 -15600.865)" fill="none" stroke="#1a1818" stroke-miterlimit="10" stroke-width="1.019"/><line y2="46.263" transform="translate(4079.601 -15591.64)" fill="none" stroke="#1a1818" stroke-miterlimit="10" stroke-width="1.019" stroke-dasharray="6.169 6.169"/><line y2="3.057" transform="translate(4079.601 -15542.293)" fill="none" stroke="#1a1818" stroke-miterlimit="10" stroke-width="1.019"/><line y2="3.057" transform="translate(4104.111 -15600.865)" fill="none" stroke="#1a1818" stroke-miterlimit="10" stroke-width="1.019"/><line y2="46.263" transform="translate(4104.111 -15591.64)" fill="none" stroke="#1a1818" stroke-miterlimit="10" stroke-width="1.019" stroke-dasharray="6.169 6.169"/><line y2="3.057" transform="translate(4104.111 -15542.293)" fill="none" stroke="#1a1818" stroke-miterlimit="10" stroke-width="1.019"/><line y2="3.057" transform="translate(4128.556 -15600.865)" fill="none" stroke="#1a1818" stroke-miterlimit="10" stroke-width="1.019"/><line y2="46.263" transform="translate(4128.556 -15591.64)" fill="none" stroke="#1a1818" stroke-miterlimit="10" stroke-width="1.019" stroke-dasharray="6.169 6.169"/><line y2="3.057" transform="translate(4128.556 -15542.293)" fill="none" stroke="#1a1818" stroke-miterlimit="10" stroke-width="1.019"/><line y2="3.057" transform="translate(4153.596 -15600.865)" fill="none" stroke="#1a1818" stroke-miterlimit="10" stroke-width="1.019"/><line y2="46.263" transform="translate(4153.596 -15591.64)" fill="none" stroke="#1a1818" stroke-miterlimit="10" stroke-width="1.019" stroke-dasharray="6.169 6.169"/><line y2="3.057" transform="translate(4153.596 -15542.293)" fill="none" stroke="#1a1818" stroke-miterlimit="10" stroke-width="1.019"/><line y2="3.057" transform="translate(4177.8 -15600.865)" fill="none" stroke="#1a1818" stroke-miterlimit="10" stroke-width="1.019"/><line y2="46.263" transform="translate(4177.8 -15591.64)" fill="none" stroke="#1a1818" stroke-miterlimit="10" stroke-width="1.019" stroke-dasharray="6.169 6.169"/><line y2="3.057" transform="translate(4177.8 -15542.293)" fill="none" stroke="#1a1818" stroke-miterlimit="10" stroke-width="1.019"/><line y2="3.057" transform="translate(4202.245 -15600.865)" fill="none" stroke="#1a1818" stroke-miterlimit="10" stroke-width="1.019"/><line y2="46.263" transform="translate(4202.245 -15591.64)" fill="none" stroke="#1a1818" stroke-miterlimit="10" stroke-width="1.019" stroke-dasharray="6.169 6.169"/><line y2="3.057" transform="translate(4202.245 -15542.293)" fill="none" stroke="#1a1818" stroke-miterlimit="10" stroke-width="1.019"/><line y2="3.057" transform="translate(4227.285 -15600.865)" fill="none" stroke="#1a1818" stroke-miterlimit="10" stroke-width="1.019"/><line y2="46.263" transform="translate(4227.285 -15591.64)" fill="none" stroke="#1a1818" stroke-miterlimit="10" stroke-width="1.019" stroke-dasharray="6.169 6.169"/><line y2="3.057" transform="translate(4227.285 -15542.293)" fill="none" stroke="#1a1818" stroke-miterlimit="10" stroke-width="1.019"/><text transform="translate(4032.724 -15581.373) rotate(90)" fill="#1a1818" font-size="5.417" font-family="CenturyGothic, Century Gothic"><tspan x="0" y="0" letter-spacing="-0.01em">T</tspan><tspan y="0">ype omg</tspan><tspan y="0" letter-spacing="-0.009em">e</tspan><tspan y="0">ving </tspan></text><text transform="translate(4056.504 -15586.898) rotate(90)" fill="#1a1818" font-size="5.417" font-family="CenturyGothic, Century Gothic"><tspan x="0" y="0" letter-spacing="-0.042em">V</tspan><tspan y="0">erblijf</tspan><tspan y="0" letter-spacing="0.007em">s</tspan><tspan y="0">aanleiding</tspan></text><text transform="translate(4081.552 -15581.754) rotate(90)" fill="#1a1818" font-size="5.417" font-family="CenturyGothic, Century Gothic"><tspan x="0" y="0" letter-spacing="-0.007em">F</tspan><tspan y="0">un</tspan><tspan y="0" letter-spacing="0.01em">c</tspan><tspan y="0">tie</tspan><tspan y="0" letter-spacing="-0.016em"> </tspan><tspan y="0" letter-spacing="-0.019em">w</tspan><tspan y="0">anden</tspan></text><text transform="translate(4106.517 -15571.9) rotate(90)" fill="#1a1818" font-size="5.417" font-family="CenturyGothic, Century Gothic"><tspan x="0" y="0">Au</tspan><tspan y="0" letter-spacing="-0.007em">t</tspan><tspan y="0">o en fi</tspan><tspan y="0" letter-spacing="-0.006em">e</tspan><tspan y="0">ts</tspan></text><text transform="translate(4155.743 -15578.854) rotate(90)" fill="#1a1818" font-size="5.417" font-family="CenturyGothic, Century Gothic"><tspan x="0" y="0" letter-spacing="-0.042em">V</tspan><tspan y="0">er</tspan><tspan y="0" letter-spacing="-0.026em">k</tspan><tspan y="0">eerslic</tspan><tspan y="0" letter-spacing="-0.005em">h</tspan><tspan y="0" letter-spacing="-0.007em">t</tspan><tspan y="0">en</tspan></text><text transform="translate(4204.083 -15555.861) rotate(90)" fill="#1a1818" font-size="5.417" font-family="CenturyGothic, Century Gothic"><tspan x="0" y="0">G</tspan><tspan y="0" letter-spacing="-0.015em">r</tspan><tspan y="0">oen</tspan></text><text transform="translate(4179.81 -15588.123) rotate(90)" fill="#1a1818" font-size="5.417" font-family="CenturyGothic, Century Gothic"><tspan x="0" y="0">Openbaa</tspan></text><text transform="translate(4179.811 -15561.803) rotate(90)" fill="#1a1818" font-size="5.417" font-family="CenturyGothic, Century Gothic"><tspan x="0" y="0" letter-spacing="-0.024em">r</tspan><tspan y="0"> </tspan></text><text transform="translate(4179.81 -15558.943) rotate(90)" fill="#1a1818" font-size="5.417" font-family="CenturyGothic, Century Gothic"><tspan x="0" y="0" letter-spacing="-0.012em">v</tspan><tspan y="0">er</tspan><tspan y="0" letter-spacing="-0.012em">v</tspan><tspan y="0">oer</tspan></text><path d="M614.9,729.369a11.512,11.512,0,1,0-11.142-11.507A11.328,11.328,0,0,0,614.9,729.369" transform="translate(3488.865 -16318.914)" fill="#3a5121"/><text transform="translate(4098.688 -15592.524)" fill="#fff" font-size="2.318" font-family="DaxOT, Dax OT"><tspan x="0" y="0">Gemengd</tspan></text><path d="M619.375,717.6a.2.2,0,0,0-.2.2v2.9a.2.2,0,0,0,.394,0v-2.9a.2.2,0,0,0-.2-.2" transform="translate(3488.865 -16318.914)" fill="#fff"/><text transform="translate(4229.676 -15585.339) rotate(90)" fill="#1a1818" font-size="5.417" font-family="CenturyGothic, Century Gothic"><tspan x="0" y="0">Speciaal ka</tspan><tspan y="0" letter-spacing="-0.01em">r</tspan><tspan y="0">ak</tspan><tspan y="0" letter-spacing="-0.007em">t</tspan><tspan y="0">er</tspan></text><path d="M619.257,716.926h-.622a2.818,2.818,0,0,0-.233,1.534c.005.178.012.361.009.553a.255.255,0,0,0,.251.259h0a.255.255,0,0,0,.255-.251c0-.205,0-.394-.009-.578a1.93,1.93,0,0,1,.345-1.517" transform="translate(3488.865 -16318.914)" fill="#fff"/><path d="M620.126,716.926h-.549a5.51,5.51,0,0,1,.262,2.582.255.255,0,0,0,.235.273h.02a.253.253,0,0,0,.253-.235,7.993,7.993,0,0,0-.081-2.078,4.029,4.029,0,0,0-.14-.542" transform="translate(3488.865 -16318.914)" fill="#fff"/><path d="M620.32,716.358h-1.89a4.493,4.493,0,0,1,.187-1.534c.019-.053.039-.1.058-.152v1.459h0v.075h1.379v-.075h0v-1.48c.024.056.048.115.07.177a4.445,4.445,0,0,1,.19,1.53m.651,0H620.8c.036-1.315-.31-2.313-.933-2.687a.969.969,0,0,0-.5-.141.96.96,0,0,0-.495.141c-.619.37-.961,1.369-.926,2.687h-.17a.2.2,0,0,0,0,.393h3.192a.2.2,0,0,0,0-.393" transform="translate(3488.865 -16318.914)" fill="#fff"/><path d="M619.375,711.957a.7.7,0,1,1-.7.7.7.7,0,0,1,.7-.7" transform="translate(3488.865 -16318.914)" fill="#fff"/><path d="M608.5,719.169c0,.011,0,.022,0,.034v1.06a.449.449,0,0,0,.447.447h.368a.45.45,0,0,0,.449-.447v-.33h-.945c-.106,0-.227-.337-.318-.764" transform="translate(3488.865 -16318.914)" fill="#fff"/><path d="M615.95,719.168c-.091.427-.212.765-.319.765h-.944v.329a.449.449,0,0,0,.448.447h.368a.448.448,0,0,0,.448-.447v-1.094" transform="translate(3488.865 -16318.914)" fill="#fff"/><path d="M612.226,714.635h0c-1.407,0-1.91.027-2.27.249a4.572,4.572,0,0,0-.821,1.173l-.012.012a.2.2,0,0,0-.182-.125h-.665c-.248,0-.281.243-.281.376a.789.789,0,0,0,0,.084.213.213,0,0,0,.2.178h.287l.029,0h0c.135,0,.258.062.211.248a4.927,4.927,0,0,0-.328.792,4.45,4.45,0,0,0,.1,1.55c.09.427.212.764.318.764h6.81c.106,0,.227-.338.318-.764a4.424,4.424,0,0,0,.1-1.55,4.98,4.98,0,0,0-.328-.793c-.047-.185.076-.247.211-.247h0l.029,0h.288a.215.215,0,0,0,.2-.178s0-.03,0-.075v-.019c0-.134-.04-.366-.282-.366h-.664a.2.2,0,0,0-.183.125l-.011-.011a4.53,4.53,0,0,0-.823-1.174c-.358-.222-.862-.249-2.27-.249m-.33.448h.66a3.883,3.883,0,0,1,1.7.182,5.94,5.94,0,0,1,.748,1.151,18.187,18.187,0,0,1-5.563,0,5.832,5.832,0,0,1,.759-1.161,3.958,3.958,0,0,1,1.692-.174m2.694,3.009a.852.852,0,0,1-.4-.053c-.077-.086.068-.562.556-.873a1.133,1.133,0,0,1,.474-.155.184.184,0,0,1,.142.049c.118.135.211.729.02.892a1.679,1.679,0,0,1-.8.14m-4.726,0a1.674,1.674,0,0,1-.8-.14c-.193-.163-.1-.757.018-.892a.188.188,0,0,1,.143-.049,1.133,1.133,0,0,1,.475.155c.487.311.632.787.555.873a.852.852,0,0,1-.395.053m1.532,1.059c-.339,0-.537-.1-.577-.224s.049-.223.2-.223h2.417c.15,0,.239.1.2.223s-.229.224-.577.224Z" transform="translate(3488.865 -16318.914)" fill="#fff"/><path d="M640,729.369a11.512,11.512,0,1,0-11.142-11.507A11.327,11.327,0,0,0,640,729.369" transform="translate(3488.865 -16318.914)" fill="#3a5121"/><path d="M635.283,721.641c0,.013,0,.027,0,.041v1.271a.539.539,0,0,0,.539.537h.443a.54.54,0,0,0,.539-.537v-.4h-1.136c-.128,0-.274-.4-.383-.917" transform="translate(3488.865 -16318.914)" fill="#fff"/><text transform="translate(4126.826 -15592.524)" fill="#fff" font-size="2.318" font-family="DaxOT, Dax OT"><tspan x="0" y="0" letter-spacing="-0.027em">W</tspan><tspan y="0">el</tspan></text><path d="M644.24,721.64c-.109.512-.256.918-.384.918h-1.135v.4a.54.54,0,0,0,.539.537h.442a.54.54,0,0,0,.539-.537v-1.271c0-.014,0-.028,0-.042" transform="translate(3488.865 -16318.914)" fill="#fff"/><path d="M639.761,716.2h0c-1.693,0-2.3.032-2.73.3a5.441,5.441,0,0,0-.989,1.407l-.013.014a.237.237,0,0,0-.219-.15h-.8c-.3,0-.338.291-.338.45h0c0,.06,0,.1,0,.1a.257.257,0,0,0,.246.213h.344l.036,0h0c.162,0,.31.074.254.3a6,6,0,0,0-.4.952,5.288,5.288,0,0,0,.123,1.859c.108.513.253.918.383.918h8.19c.127,0,.274-.406.383-.918a5.334,5.334,0,0,0,.122-1.859,5.968,5.968,0,0,0-.4-.952c-.057-.222.093-.3.253-.3h0l.036,0h.346a.256.256,0,0,0,.244-.213.607.607,0,0,0,.006-.09v-.022c0-.161-.047-.44-.339-.44h-.8a.234.234,0,0,0-.219.15l-.013-.013a5.378,5.378,0,0,0-.991-1.408c-.431-.268-1.037-.3-2.73-.3m-.4.538h.794a4.672,4.672,0,0,1,2.05.218,7.076,7.076,0,0,1,.9,1.382,21.955,21.955,0,0,1-6.692,0,7.033,7.033,0,0,1,.913-1.393,4.776,4.776,0,0,1,2.035-.208m3.24,3.611a1.036,1.036,0,0,1-.475-.064c-.093-.1.083-.675.669-1.048a1.349,1.349,0,0,1,.57-.186.22.22,0,0,1,.171.059c.142.162.254.873.023,1.07a2.025,2.025,0,0,1-.958.169m-5.684,0a2.028,2.028,0,0,1-.958-.169c-.229-.2-.117-.908.024-1.07a.218.218,0,0,1,.171-.059,1.369,1.369,0,0,1,.571.186c.585.373.761.944.669,1.048a1.05,1.05,0,0,1-.477.064m1.844,1.27c-.409,0-.646-.121-.7-.269s.06-.268.24-.268h2.907c.181,0,.288.121.239.268s-.274.269-.694.269Z" transform="translate(3488.865 -16318.914)" fill="#fff"/><text transform="translate(4127.246 -15604.215)" fill="#fff" font-size="5.794" font-family="DaxOT, Dax OT"><tspan x="0" y="0">P</tspan></text><text transform="translate(4130.354 -15562.128) rotate(90)" fill="#1a1818" font-size="5.417" font-family="CenturyGothic, Century Gothic"><tspan x="0" y="0" letter-spacing="-0.017em">P</tspan><tspan y="0">ar</tspan><tspan y="0" letter-spacing="-0.026em">k</tspan><tspan y="0">e</tspan><tspan y="0" letter-spacing="-0.016em">r</tspan><tspan y="0">en</tspan></text><path d="M590.656,729.369a11.512,11.512,0,1,0-11.142-11.507,11.328,11.328,0,0,0,11.142,11.507" transform="translate(3488.865 -16318.914)" fill="#3a5121"/><path d="M594.016,718.374a.507.507,0,0,1-.506.506h-1.156a.507.507,0,0,1-.506-.506v-1.279a.508.508,0,0,1,.506-.506h1.156a.508.508,0,0,1,.506.506Zm-4.966,0a.507.507,0,0,1-.506.506h-1.155a.507.507,0,0,1-.507-.506v-1.279a.508.508,0,0,1,.507-.506h1.155a.508.508,0,0,1,.506.506Zm5.952,2.11V715.4a.373.373,0,0,0-.374-.374H586.32a.374.374,0,0,0-.374.374v5.08a.374.374,0,0,0,.374.373h3.047a.374.374,0,0,0,.374-.373V717.73a.117.117,0,0,1,.117-.117h1.151a.118.118,0,0,1,.118.117v2.754a.373.373,0,0,0,.374.373h3.127a.373.373,0,0,0,.374-.373M586.277,713v-2.018a.383.383,0,0,1,.379-.386h.685a.382.382,0,0,1,.379.386v.741a.12.12,0,0,0,.191.1l2.371-1.795a.261.261,0,0,1,.316,0l5.2,3.938a.266.266,0,0,1-.148.482h-9.689c-.249,0-.709-.606-.509-.758l.777-.587a.121.121,0,0,0,.048-.1" transform="translate(3488.865 -16318.914)" fill="#fff"/><text transform="translate(4075.359 -15592.577)" fill="#fff" font-size="2.318" font-family="DaxOT, Dax OT"><tspan x="0" y="0" letter-spacing="0.005em">W</tspan><tspan y="0" letter-spacing="0.006em">one</tspan><tspan y="0">n</tspan></text><path d="M664.24,729.369A11.512,11.512,0,1,0,653.1,717.862a11.328,11.328,0,0,0,11.142,11.507" transform="translate(3488.865 -16318.914)" fill="#3a5121"/><path d="M658.252,717.147a.378.378,0,0,0-.386.386v1.159a.378.378,0,0,0,.386.386h12.584a.379.379,0,0,0,.387-.386v-1.159a.378.378,0,0,0-.387-.386Z" transform="translate(3488.865 -16318.914)" fill="#fff"/><path d="M713.561,729.369a11.512,11.512,0,1,0-11.142-11.507,11.328,11.328,0,0,0,11.142,11.507" transform="translate(3488.865 -16318.914)" fill="#3a5121"/><text transform="translate(4150.725 -15592.577)" fill="#fff" font-size="2.318" font-family="DaxOT, Dax OT"><tspan x="0" y="0">Ni</tspan><tspan y="0" letter-spacing="-0.003em">e</tspan><tspan y="0">t</tspan></text><text transform="translate(4198.736 -15592.577)" fill="#fff" font-size="2.318" font-family="DaxOT, Dax OT"><tspan x="0" y="0">Bomen</tspan></text><path d="M718.446,720.878h-1.938v-2.02h.761a1.374,1.374,0,0,0,1.382-1.367,1.357,1.357,0,0,1-.115-1.368,5.969,5.969,0,0,0-2.456-2.165c-.021,0-.04,0-.061,0a2.311,2.311,0,0,1,.406,1.312,2.36,2.36,0,0,1-2.37,2.346h-.733a1.377,1.377,0,0,0,1.376,1.239h.851v2.02h-3.012v-3.564h1.518a2.054,2.054,0,0,0,2.062-2.041,2.016,2.016,0,0,0-.437-1.257,2.13,2.13,0,0,0-.375-.366l-.054-.041-.006-.065a2.042,2.042,0,0,0-1.251-1.676l-.092-.037,0-.1a2.044,2.044,0,0,0-2.06-1.974,2.067,2.067,0,0,0-1.883,1.21l-.036.077-.084.012a2.054,2.054,0,0,0-1.783,2.021,2.012,2.012,0,0,0,.2.875l.039.08-.051.072a2.02,2.02,0,0,0-.371,1.167,2.054,2.054,0,0,0,2.062,2.041H711.3v3.564h-3.232a.2.2,0,1,0,0,.407h10.373a.2.2,0,1,0,0-.407" transform="translate(3488.865 -16318.914)" fill="#fff"/><path d="M716.907,721.548h-7.295a.2.2,0,1,0,0,.407h7.295a.2.2,0,1,0,0-.407" transform="translate(3488.865 -16318.914)" fill="#fff"/><path d="M541.636,729.369a11.512,11.512,0,1,0-11.142-11.507,11.328,11.328,0,0,0,11.142,11.507" transform="translate(3488.865 -16318.914)" fill="#3a5121"/><path d="M548.57,720.917h-.342v-1.191h.342Zm-.685,0h-.342v-1.191h.342Zm-5.306-5.106h-1.027V714.79h1.027Zm0,2.042h-1.027v-1.021h1.027Zm-2.568-2.042h-1.027V714.79h1.027Zm0,2.042h-1.027v-1.021h1.027Zm8.37-.444-1.694,1.694V715.47H544.12v2.724h-.857v-4.086H538.3v4.252l0-.034-2.106-2.566-2.684,2.668v3.511h1.883v-1.873h1.027v1.873h13.522v-2.971Z" transform="translate(3488.865 -16318.914)" fill="#fff"/><path d="M689.623,729.369a11.512,11.512,0,1,0-11.142-11.507,11.328,11.328,0,0,0,11.142,11.507" transform="translate(3488.865 -16318.914)" fill="#3a5121"/><text transform="translate(4026.445 -15592.523)" fill="#fff" font-size="2.318" font-family="DaxOT, Dax OT"><tspan x="0" y="0" letter-spacing="-0.015em">S</tspan><tspan y="0" letter-spacing="-0.007em">t</tspan><tspan y="0">edelijk</tspan></text><text transform="translate(4176.146 -15592.577)" fill="#fff" font-size="2.318" font-family="DaxOT, Dax OT"><tspan x="0" y="0">Bus</tspan></text><path d="M683.062,714.437v2.106a.265.265,0,0,1-.265.264h-.742a.266.266,0,0,1-.268-.264v-1.9a1.041,1.041,0,0,1,1.156-1h1.294v.8Z" transform="translate(3488.865 -16318.914)" fill="#fff"/><path d="M695.412,714.437v2.106a.265.265,0,0,0,.266.264h.742a.266.266,0,0,0,.266-.264v-1.9a1.041,1.041,0,0,0-1.155-1h-1.295v.8Z" transform="translate(3488.865 -16318.914)" fill="#fff"/><path d="M694.414,720.429a.265.265,0,0,1-.266.264h-1.64a.265.265,0,0,1-.265-.264v-.659a.265.265,0,0,1,.265-.264h1.64a.265.265,0,0,1,.266.264Zm-3.1-.065a.555.555,0,0,1-.511.329h-3.138a.56.56,0,0,1-.513-.329c-.059-.182.073-.33.295-.33h3.574c.221,0,.354.148.293.33m-5.086.065a.265.265,0,0,1-.265.264h-1.641a.265.265,0,0,1-.265-.264v-.659a.265.265,0,0,1,.265-.264h1.641a.265.265,0,0,1,.265.264Zm-1.262-7.619c.523-.378,2.782-.4,4.268-.4s3.744.019,4.268.4.537,4.457,0,4.846-2.783.4-4.268.4-3.745-.019-4.268-.4-.538-4.457,0-4.846m3.294-2.012h1.946a.371.371,0,1,1,0,.741h-1.946a.371.371,0,1,1,0-.741m6.544,6.74v-5.62a1.922,1.922,0,0,0-1.5-1.81,23.922,23.922,0,0,0-8.148,0,1.922,1.922,0,0,0-1.5,1.81v5.62a.652.652,0,0,0-.342.564v3.106a.676.676,0,0,0,.687.66H694.46a.678.678,0,0,0,.689-.66V718.1a.652.652,0,0,0-.342-.564" transform="translate(3488.865 -16318.914)" fill="#fff"/><path d="M684.046,721.183v1.479a.662.662,0,0,0,.662.658h.546a.663.663,0,0,0,.663-.658v-1.479Z" transform="translate(3488.865 -16318.914)" fill="#fff"/><path d="M692.557,721.183v1.479a.662.662,0,0,0,.662.658h.546a.661.661,0,0,0,.661-.658v-1.479Z" transform="translate(3488.865 -16318.914)" fill="#fff"/><path d="M565.875,729.369a11.512,11.512,0,1,0-11.142-11.507,11.327,11.327,0,0,0,11.142,11.507" transform="translate(3488.865 -16318.914)" fill="#3a5121"/><path d="M559.631,716.9a.378.378,0,0,0-.386.386v1.159a.379.379,0,0,0,.386.387h12.584a.379.379,0,0,0,.387-.387v-1.159a.378.378,0,0,0-.387-.386Z" transform="translate(3488.865 -16318.914)" fill="#fff"/><text transform="translate(4052.501 -15592.577)" fill="#fff" font-size="2.318" font-family="DaxOT, Dax OT"><tspan x="0" y="0">Ni</tspan><tspan y="0" letter-spacing="-0.003em">e</tspan><tspan y="0">t</tspan></text><path d="M738.1,729.369a11.512,11.512,0,1,0-11.142-11.507A11.327,11.327,0,0,0,738.1,729.369" transform="translate(3488.865 -16318.914)" fill="#3a5121"/><text transform="translate(4222.782 -15594.292)" fill="#fff" font-size="2.318" font-family="DaxOT, Dax OT"><tspan x="0" y="0">Bij water</tspan></text><path d="M731.291,715.639s2.762-2.975,6.944-.172,6.675-.807,6.675-.807" transform="translate(3488.865 -16318.914)" fill="none" stroke="#fff" stroke-miterlimit="10" stroke-width="1.019"/><path d="M731.291,718.529s2.762-2.975,6.944-.172,6.675-.807,6.675-.807" transform="translate(3488.865 -16318.914)" fill="none" stroke="#fff" stroke-miterlimit="10" stroke-width="1.019"/></g></svg>