<svg xmlns="http://www.w3.org/2000/svg" width="218.749" height="74.258" viewBox="0 0 218.749 74.258"><g transform="translate(-4159.17 14750.896)"><line y2="3.057" transform="translate(4169.928 -14739.128)" fill="none" stroke="#1a1818" stroke-miterlimit="10" stroke-width="1.019"/><line y2="46.263" transform="translate(4169.928 -14729.903)" fill="none" stroke="#1a1818" stroke-miterlimit="10" stroke-width="1.019" stroke-dasharray="6.169 6.169"/><line y2="3.057" transform="translate(4169.928 -14680.557)" fill="none" stroke="#1a1818" stroke-miterlimit="10" stroke-width="1.019"/><line y2="3.057" transform="translate(4194.372 -14739.128)" fill="none" stroke="#1a1818" stroke-miterlimit="10" stroke-width="1.019"/><line y2="46.263" transform="translate(4194.372 -14729.903)" fill="none" stroke="#1a1818" stroke-miterlimit="10" stroke-width="1.019" stroke-dasharray="6.169 6.169"/><line y2="3.057" transform="translate(4194.372 -14680.557)" fill="none" stroke="#1a1818" stroke-miterlimit="10" stroke-width="1.019"/><line y2="3.057" transform="translate(4219.413 -14739.128)" fill="none" stroke="#1a1818" stroke-miterlimit="10" stroke-width="1.019"/><line y2="46.263" transform="translate(4219.413 -14729.903)" fill="none" stroke="#1a1818" stroke-miterlimit="10" stroke-width="1.019" stroke-dasharray="6.169 6.169"/><line y2="3.057" transform="translate(4219.413 -14680.557)" fill="none" stroke="#1a1818" stroke-miterlimit="10" stroke-width="1.019"/><line y2="3.057" transform="translate(4243.923 -14739.128)" fill="none" stroke="#1a1818" stroke-miterlimit="10" stroke-width="1.019"/><line y2="46.263" transform="translate(4243.923 -14729.903)" fill="none" stroke="#1a1818" stroke-miterlimit="10" stroke-width="1.019" stroke-dasharray="6.169 6.169"/><line y2="3.057" transform="translate(4243.923 -14680.557)" fill="none" stroke="#1a1818" stroke-miterlimit="10" stroke-width="1.019"/><line y2="3.057" transform="translate(4268.367 -14739.128)" fill="none" stroke="#1a1818" stroke-miterlimit="10" stroke-width="1.019"/><line y2="46.263" transform="translate(4268.367 -14729.903)" fill="none" stroke="#1a1818" stroke-miterlimit="10" stroke-width="1.019" stroke-dasharray="6.169 6.169"/><line y2="3.057" transform="translate(4268.367 -14680.557)" fill="none" stroke="#1a1818" stroke-miterlimit="10" stroke-width="1.019"/><line y2="3.057" transform="translate(4293.408 -14739.128)" fill="none" stroke="#1a1818" stroke-miterlimit="10" stroke-width="1.019"/><line y2="46.263" transform="translate(4293.408 -14729.903)" fill="none" stroke="#1a1818" stroke-miterlimit="10" stroke-width="1.019" stroke-dasharray="6.169 6.169"/><line y2="3.057" transform="translate(4293.408 -14680.557)" fill="none" stroke="#1a1818" stroke-miterlimit="10" stroke-width="1.019"/><line y2="3.057" transform="translate(4317.611 -14739.128)" fill="none" stroke="#1a1818" stroke-miterlimit="10" stroke-width="1.019"/><line y2="46.263" transform="translate(4317.611 -14729.903)" fill="none" stroke="#1a1818" stroke-miterlimit="10" stroke-width="1.019" stroke-dasharray="6.169 6.169"/><line y2="3.057" transform="translate(4317.611 -14680.557)" fill="none" stroke="#1a1818" stroke-miterlimit="10" stroke-width="1.019"/><line y2="3.057" transform="translate(4342.056 -14739.128)" fill="none" stroke="#1a1818" stroke-miterlimit="10" stroke-width="1.019"/><line y2="46.263" transform="translate(4342.056 -14729.903)" fill="none" stroke="#1a1818" stroke-miterlimit="10" stroke-width="1.019" stroke-dasharray="6.169 6.169"/><line y2="3.057" transform="translate(4342.056 -14680.557)" fill="none" stroke="#1a1818" stroke-miterlimit="10" stroke-width="1.019"/><line y2="3.057" transform="translate(4367.097 -14739.128)" fill="none" stroke="#1a1818" stroke-miterlimit="10" stroke-width="1.019"/><line y2="46.263" transform="translate(4367.097 -14729.903)" fill="none" stroke="#1a1818" stroke-miterlimit="10" stroke-width="1.019" stroke-dasharray="6.169 6.169"/><line y2="3.057" transform="translate(4367.097 -14680.557)" fill="none" stroke="#1a1818" stroke-miterlimit="10" stroke-width="1.019"/><text transform="translate(4172.537 -14719.638) rotate(90)" fill="#1a1818" font-size="5.417" font-family="CenturyGothic, Century Gothic"><tspan x="0" y="0" letter-spacing="-0.01em">T</tspan><tspan y="0">ype omg</tspan><tspan y="0" letter-spacing="-0.009em">e</tspan><tspan y="0">ving </tspan></text><text transform="translate(4196.316 -14725.163) rotate(90)" fill="#1a1818" font-size="5.417" font-family="CenturyGothic, Century Gothic"><tspan x="0" y="0" letter-spacing="-0.042em">V</tspan><tspan y="0">erblijf</tspan><tspan y="0" letter-spacing="0.007em">s</tspan><tspan y="0">aanleiding</tspan></text><text transform="translate(4221.363 -14720.017) rotate(90)" fill="#1a1818" font-size="5.417" font-family="CenturyGothic, Century Gothic"><tspan x="0" y="0" letter-spacing="-0.007em">F</tspan><tspan y="0">un</tspan><tspan y="0" letter-spacing="0.01em">c</tspan><tspan y="0">tie</tspan><tspan y="0" letter-spacing="-0.016em"> </tspan><tspan y="0" letter-spacing="-0.019em">w</tspan><tspan y="0">anden</tspan></text><text transform="translate(4246.329 -14710.164) rotate(90)" fill="#1a1818" font-size="5.417" font-family="CenturyGothic, Century Gothic"><tspan x="0" y="0">Au</tspan><tspan y="0" letter-spacing="-0.007em">t</tspan><tspan y="0">o en fi</tspan><tspan y="0" letter-spacing="-0.006em">e</tspan><tspan y="0">ts</tspan></text><text transform="translate(4295.556 -14717.118) rotate(90)" fill="#1a1818" font-size="5.417" font-family="CenturyGothic, Century Gothic"><tspan x="0" y="0" letter-spacing="-0.042em">V</tspan><tspan y="0">er</tspan><tspan y="0" letter-spacing="-0.026em">k</tspan><tspan y="0">eerslic</tspan><tspan y="0" letter-spacing="-0.005em">h</tspan><tspan y="0" letter-spacing="-0.007em">t</tspan><tspan y="0">en</tspan></text><text transform="translate(4343.894 -14694.125) rotate(90)" fill="#1a1818" font-size="5.417" font-family="CenturyGothic, Century Gothic"><tspan x="0" y="0">G</tspan><tspan y="0" letter-spacing="-0.015em">r</tspan><tspan y="0">oen</tspan></text><text transform="translate(4319.622 -14726.386) rotate(90)" fill="#1a1818" font-size="5.417" font-family="CenturyGothic, Century Gothic"><tspan x="0" y="0">Openbaa</tspan></text><text transform="translate(4319.621 -14700.066) rotate(90)" fill="#1a1818" font-size="5.417" font-family="CenturyGothic, Century Gothic"><tspan x="0" y="0" letter-spacing="-0.024em">r</tspan><tspan y="0"> </tspan></text><text transform="translate(4319.622 -14697.206) rotate(90)" fill="#1a1818" font-size="5.417" font-family="CenturyGothic, Century Gothic"><tspan x="0" y="0" letter-spacing="-0.012em">v</tspan><tspan y="0">er</tspan><tspan y="0" letter-spacing="-0.012em">v</tspan><tspan y="0">oer</tspan></text><text transform="translate(4369.488 -14723.602) rotate(90)" fill="#1a1818" font-size="5.417" font-family="CenturyGothic, Century Gothic"><tspan x="0" y="0">Speciaal ka</tspan><tspan y="0" letter-spacing="-0.01em">r</tspan><tspan y="0">ak</tspan><tspan y="0" letter-spacing="-0.007em">t</tspan><tspan y="0">er</tspan></text><text transform="translate(4270.167 -14700.381) rotate(90)" fill="#1a1818" font-size="5.417" font-family="CenturyGothic, Century Gothic"><tspan x="0" y="0" letter-spacing="-0.017em">P</tspan><tspan y="0">ar</tspan><tspan y="0" letter-spacing="-0.026em">k</tspan><tspan y="0">e</tspan><tspan y="0" letter-spacing="-0.016em">r</tspan><tspan y="0">en</tspan></text><path d="M614.706,729.067a11.512,11.512,0,1,0-11.142-11.506,11.328,11.328,0,0,0,11.142,11.506" transform="translate(3628.865 -15456.914)" fill="#3a5121"/><text transform="translate(4238.499 -14730.826)" fill="#fff" font-size="2.318" font-family="DaxOT, Dax OT"><tspan x="0" y="0">Gemengd</tspan></text><path d="M619.186,717.295a.2.2,0,0,0-.2.2v2.9a.2.2,0,1,0,.394,0v-2.9a.2.2,0,0,0-.2-.2" transform="translate(3628.865 -15456.914)" fill="#fff"/><path d="M619.068,716.624h-.622a2.81,2.81,0,0,0-.233,1.534c.005.178.012.361.009.553a.255.255,0,0,0,.251.259h0a.255.255,0,0,0,.255-.251c0-.205,0-.394-.009-.578a1.93,1.93,0,0,1,.345-1.517" transform="translate(3628.865 -15456.914)" fill="#fff"/><path d="M619.938,716.624h-.549a5.524,5.524,0,0,1,.262,2.582.255.255,0,0,0,.235.273h.02a.253.253,0,0,0,.253-.235,8,8,0,0,0-.081-2.078,4.029,4.029,0,0,0-.14-.542" transform="translate(3628.865 -15456.914)" fill="#fff"/><path d="M620.131,716.056h-1.889a4.468,4.468,0,0,1,.187-1.534c.019-.053.038-.1.058-.152v1.459h0v.075h1.379v-.075h0v-1.48c.024.056.048.115.069.177a4.4,4.4,0,0,1,.19,1.53m.651,0h-.17c.035-1.315-.31-2.314-.934-2.687a.941.941,0,0,0-.991,0c-.62.37-.962,1.369-.926,2.687h-.17a.2.2,0,1,0,0,.393h3.191a.2.2,0,1,0,0-.393" transform="translate(3628.865 -15456.914)" fill="#fff"/><path d="M619.186,711.655a.7.7,0,1,1-.7.7.7.7,0,0,1,.7-.7" transform="translate(3628.865 -15456.914)" fill="#fff"/><path d="M608.315,718.867c0,.011,0,.023,0,.034v1.06a.449.449,0,0,0,.448.447h.368a.45.45,0,0,0,.448-.447v-.33h-.944c-.107,0-.228-.337-.319-.764" transform="translate(3628.865 -15456.914)" fill="#fff"/><path d="M615.762,718.866c-.091.427-.212.765-.319.765H614.5v.329a.448.448,0,0,0,.448.447h.368a.448.448,0,0,0,.448-.447v-1.094" transform="translate(3628.865 -15456.914)" fill="#fff"/><path d="M612.039,714.333h0c-1.408,0-1.911.027-2.27.249a4.543,4.543,0,0,0-.822,1.173l-.012.012a.2.2,0,0,0-.182-.125h-.664c-.249,0-.283.243-.283.376a.645.645,0,0,0,0,.084.214.214,0,0,0,.2.178h.287l.029,0h0c.135,0,.258.062.211.248a5.067,5.067,0,0,0-.328.792,4.471,4.471,0,0,0,.1,1.55c.091.427.213.764.319.764h6.809c.107,0,.228-.338.319-.764a4.446,4.446,0,0,0,.1-1.55,4.871,4.871,0,0,0-.328-.793c-.047-.185.076-.247.211-.247h0l.03,0h.287a.215.215,0,0,0,.2-.178s0-.03,0-.075v-.019c0-.134-.04-.366-.282-.366h-.664a.194.194,0,0,0-.182.125l-.012-.011a4.585,4.585,0,0,0-.822-1.174c-.359-.222-.863-.249-2.27-.249m-.331.448h.659a3.886,3.886,0,0,1,1.705.182,5.94,5.94,0,0,1,.748,1.151,18.187,18.187,0,0,1-5.563,0,5.829,5.829,0,0,1,.759-1.161,3.958,3.958,0,0,1,1.692-.174m2.694,3.009a.855.855,0,0,1-.4-.053c-.077-.086.068-.562.556-.873a1.128,1.128,0,0,1,.474-.155.184.184,0,0,1,.142.049c.118.135.211.729.02.892a1.68,1.68,0,0,1-.8.14m-4.726,0a1.684,1.684,0,0,1-.8-.14c-.191-.163-.1-.757.02-.892a.184.184,0,0,1,.142-.049,1.133,1.133,0,0,1,.475.155c.487.311.633.787.556.873a.861.861,0,0,1-.4.053m1.532,1.059c-.339,0-.537-.1-.577-.224s.05-.223.2-.223h2.417c.15,0,.24.1.2.223s-.229.224-.577.224Z" transform="translate(3628.865 -15456.914)" fill="#fff"/><path d="M639.812,729.067a11.512,11.512,0,1,0-11.142-11.506,11.328,11.328,0,0,0,11.142,11.506" transform="translate(3628.865 -15456.914)" fill="#3a5121"/><path d="M635.095,721.339c0,.013,0,.027,0,.041v1.271a.54.54,0,0,0,.539.537h.443a.539.539,0,0,0,.539-.537v-.4h-1.136c-.128,0-.274-.4-.383-.917" transform="translate(3628.865 -15456.914)" fill="#fff"/><text transform="translate(4266.638 -14730.826)" fill="#fff" font-size="2.318" font-family="DaxOT, Dax OT"><tspan x="0" y="0" letter-spacing="-0.027em">W</tspan><tspan y="0">el</tspan></text><path d="M644.052,721.338c-.109.512-.256.918-.384.918h-1.135v.4a.54.54,0,0,0,.538.537h.443a.54.54,0,0,0,.539-.537V721.38c0-.014,0-.028,0-.042" transform="translate(3628.865 -15456.914)" fill="#fff"/><path d="M639.573,715.9h0c-1.693,0-2.3.032-2.73.3a5.421,5.421,0,0,0-.988,1.407l-.015.014a.235.235,0,0,0-.219-.15h-.8c-.3,0-.339.291-.339.45h0a.766.766,0,0,0,.006.1.254.254,0,0,0,.245.213h.344l.036,0h0c.162,0,.311.074.254.3a5.905,5.905,0,0,0-.395.952,5.309,5.309,0,0,0,.122,1.859c.109.512.255.918.383.918h8.19c.128,0,.275-.406.384-.918a5.305,5.305,0,0,0,.121-1.859,5.844,5.844,0,0,0-.394-.952c-.057-.222.092-.3.253-.3h0l.036,0h.345a.255.255,0,0,0,.245-.213.606.606,0,0,0,.006-.09v-.022c0-.161-.048-.44-.339-.44h-.8a.237.237,0,0,0-.22.15l-.013-.013a5.4,5.4,0,0,0-.99-1.408c-.431-.268-1.037-.3-2.73-.3m-.4.538h.794a4.673,4.673,0,0,1,2.05.218,7.078,7.078,0,0,1,.9,1.382,21.95,21.95,0,0,1-6.692,0,7.033,7.033,0,0,1,.913-1.393,4.779,4.779,0,0,1,2.035-.208m3.24,3.611a1.036,1.036,0,0,1-.475-.064c-.093-.1.082-.675.668-1.048a1.365,1.365,0,0,1,.571-.186.219.219,0,0,1,.171.059c.141.161.254.874.023,1.07a2.025,2.025,0,0,1-.958.169m-5.684,0a2.024,2.024,0,0,1-.957-.169c-.231-.2-.119-.909.022-1.07a.222.222,0,0,1,.172-.059,1.354,1.354,0,0,1,.57.186c.586.373.762.944.669,1.048a1.042,1.042,0,0,1-.476.064m1.843,1.27c-.408,0-.645-.12-.694-.269s.06-.268.24-.268h2.907c.18,0,.287.121.239.268s-.275.269-.694.269Z" transform="translate(3628.865 -15456.914)" fill="#fff"/><text transform="translate(4267.058 -14742.517)" fill="#fff" font-size="5.794" font-family="DaxOT, Dax OT"><tspan x="0" y="0">P</tspan></text><path d="M689.133,729.032a11.512,11.512,0,1,0-11.142-11.507,11.327,11.327,0,0,0,11.142,11.507" transform="translate(3628.865 -15456.914)" fill="#3a5121"/><path d="M682.841,716.56a.378.378,0,0,0-.386.386V718.1a.378.378,0,0,0,.386.386h12.584a.379.379,0,0,0,.387-.386v-1.159a.378.378,0,0,0-.387-.386Z" transform="translate(3628.865 -15456.914)" fill="#fff"/><path d="M664.051,729.067a11.512,11.512,0,1,0-11.142-11.506,11.327,11.327,0,0,0,11.142,11.506" transform="translate(3628.865 -15456.914)" fill="#3a5121"/><text transform="translate(4315.396 -14732.629)" fill="#fff" font-size="2.318" font-family="DaxOT, Dax OT"><tspan x="0" y="0">Ni</tspan><tspan y="0" letter-spacing="-0.003em">e</tspan><tspan y="0">t</tspan></text><path d="M658.063,716.845a.378.378,0,0,0-.386.386v1.159a.379.379,0,0,0,.386.387h12.585a.378.378,0,0,0,.386-.387v-1.159a.378.378,0,0,0-.386-.386Z" transform="translate(3628.865 -15456.914)" fill="#fff"/><path d="M713.372,729.032a11.512,11.512,0,1,0-11.142-11.506,11.328,11.328,0,0,0,11.142,11.506" transform="translate(3628.865 -15456.914)" fill="#3a5121"/><text transform="translate(4290.536 -14730.879)" fill="#fff" font-size="2.318" font-family="DaxOT, Dax OT"><tspan x="0" y="0">Ni</tspan><tspan y="0" letter-spacing="-0.003em">e</tspan><tspan y="0">t</tspan></text><text transform="translate(4338.548 -14730.914)" fill="#fff" font-size="2.318" font-family="DaxOT, Dax OT"><tspan x="0" y="0">Bomen</tspan></text><path d="M718.257,720.541H716.32v-2.02h.761a1.374,1.374,0,0,0,1.381-1.367,1.353,1.353,0,0,1-.114-1.368,5.979,5.979,0,0,0-2.457-2.165c-.02,0-.04,0-.06,0a2.315,2.315,0,0,1,.405,1.312,2.36,2.36,0,0,1-2.37,2.346h-.733a1.377,1.377,0,0,0,1.376,1.239h.851v2.02h-3.012v-3.564h1.518a2.054,2.054,0,0,0,2.062-2.041,2.01,2.01,0,0,0-.437-1.256,2.107,2.107,0,0,0-.375-.367l-.053-.041-.007-.065a2.044,2.044,0,0,0-1.252-1.676l-.091-.037,0-.1a2.044,2.044,0,0,0-2.06-1.974,2.067,2.067,0,0,0-1.883,1.21l-.036.077-.085.012a2.053,2.053,0,0,0-1.782,2.022,2.011,2.011,0,0,0,.2.874l.039.08-.051.073a2.013,2.013,0,0,0-.371,1.166,2.055,2.055,0,0,0,2.063,2.041h1.374v3.564h-3.232a.2.2,0,1,0,0,.407h10.373a.2.2,0,1,0,0-.407" transform="translate(3628.865 -15456.914)" fill="#fff"/><path d="M716.719,721.211h-7.3a.2.2,0,1,0,0,.407h7.3a.2.2,0,1,0,0-.407" transform="translate(3628.865 -15456.914)" fill="#fff"/><path d="M737.912,729.032a11.512,11.512,0,1,0-11.142-11.507,11.328,11.328,0,0,0,11.142,11.507" transform="translate(3628.865 -15456.914)" fill="#3a5121"/><path d="M731.62,716.56a.378.378,0,0,0-.386.386V718.1a.378.378,0,0,0,.386.386H744.2a.379.379,0,0,0,.387-.386v-1.159a.378.378,0,0,0-.387-.386Z" transform="translate(3628.865 -15456.914)" fill="#fff"/><text transform="translate(4364.536 -14732.629)" fill="#fff" font-size="2.318" font-family="DaxOT, Dax OT"><tspan x="0" y="0">Ni</tspan><tspan y="0" letter-spacing="-0.003em">e</tspan><tspan y="0">t</tspan></text><path d="M541.448,729.067A11.512,11.512,0,1,0,530.3,717.561a11.327,11.327,0,0,0,11.143,11.506" transform="translate(3628.865 -15456.914)" fill="#3a5121"/><path d="M548.382,720.615h-.342v-1.191h.342Zm-.685,0h-.343v-1.191h.343Zm-5.306-5.106h-1.027v-1.021h1.027Zm0,2.042h-1.027V716.53h1.027Zm-2.568-2.042H538.8v-1.021h1.027Zm0,2.042H538.8V716.53h1.027Zm8.37-.444L546.5,718.8v-3.633h-2.567v2.724h-.857v-4.086h-4.964v4.252l0-.034L536,715.458l-2.683,2.668v3.511H535.2v-1.873h1.027v1.873h13.522v-2.971Z" transform="translate(3628.865 -15456.914)" fill="#fff"/><path d="M565.507,729.067a11.512,11.512,0,1,0-11.142-11.507,11.327,11.327,0,0,0,11.142,11.507" transform="translate(3628.865 -15456.914)" fill="#3a5121"/><path d="M562.977,717.207h5.138v.353h-5.138Zm0-2.118h5.138v.353h-5.138Zm8.734,2.471h-2.569v-.353h1.541c.284,0,.514-.158.514-.353v-1.059c0-.2-.23-.353-.514-.353h-1.541v-.353h1.541c.284,0,.514-.158.514-.353v-1.06c0-.194-.23-.352-.514-.352h-1.541c0-.195-.23-.353-.514-.353s-.513.158-.513.353h-5.138c0-.195-.23-.353-.514-.353s-.513.158-.513.353h-1.541c-.284,0-.514.158-.514.352v1.06c0,.2.23.353.514.353h1.541v.353h-1.541c-.284,0-.514.158-.514.353v1.059c0,.2.23.353.514.353h1.541v.353h-2.569c-.284,0-.514.159-.514.353s.23.354.514.354h.514v1.411c0,.2.23.353.514.353s.513-.158.513-.353v-1.411h9.247v1.411c0,.2.231.353.514.353s.514-.158.514-.353v-1.411h.514c.283,0,.513-.159.513-.354s-.23-.353-.513-.353" transform="translate(3628.865 -15456.914)" fill="#fff"/><text transform="translate(4166.256 -14730.826)" fill="#fff" font-size="2.318" font-family="DaxOT, Dax OT"><tspan x="0" y="0" letter-spacing="-0.015em">S</tspan><tspan y="0" letter-spacing="-0.007em">t</tspan><tspan y="0">edelijk</tspan></text><text transform="translate(4187.063 -14732.854)" fill="#fff" font-size="2.318" font-family="DaxOT, Dax OT"><tspan x="0" y="0">Zitmogelijkheid</tspan></text><path d="M590.769,729.067a11.512,11.512,0,1,0-11.142-11.507,11.328,11.328,0,0,0,11.142,11.507" transform="translate(3628.865 -15456.914)" fill="#3a5121"/><path d="M597.227,718.144a.426.426,0,0,1-.423.428h-.963a.426.426,0,0,1-.423-.428v-1.082a.427.427,0,0,1,.423-.429h.963a.427.427,0,0,1,.423.429Zm-4.142,0a.426.426,0,0,1-.422.428H591.7a.426.426,0,0,1-.422-.428v-1.082a.427.427,0,0,1,.422-.429h.964a.427.427,0,0,1,.422.429Zm4.964,1.785v-4.3a.315.315,0,0,0-.312-.317h-6.928a.314.314,0,0,0-.312.317v4.3a.313.313,0,0,0,.312.316h2.54a.313.313,0,0,0,.312-.316V717.6a.1.1,0,0,1,.1-.1h.959a.1.1,0,0,1,.1.1v2.33a.313.313,0,0,0,.312.316h2.608a.314.314,0,0,0,.312-.316" transform="translate(3628.865 -15456.914)" fill="#fff"/><path d="M590.848,713.614v-1.66a.314.314,0,0,1,.312-.317h.563a.315.315,0,0,1,.312.317v.61a.1.1,0,0,0,.157.08l1.949-1.475a.213.213,0,0,1,.26,0l4.275,3.238a.218.218,0,0,1-.121.4h-7.967c-.205,0-.583-.5-.418-.624l.639-.482a.1.1,0,0,0,.039-.08" transform="translate(3628.865 -15456.914)" fill="#fff"/><path d="M583.087,713.014h6.748a.206.206,0,0,0,.2-.206v-.555a.206.206,0,0,0-.2-.206h-6.748a.207.207,0,0,0-.2.206v.555a.213.213,0,0,0,.2.206" transform="translate(3628.865 -15456.914)" fill="#fff"/><path d="M589.554,716.138a.535.535,0,0,1-.5-.421l-.026-.143-.263-1.244h.823l.263,1.244.027.143a.326.326,0,0,1-.325.421m-1.13-.421a.347.347,0,0,1-.351.421.5.5,0,0,1-.473-.421l-.018-.143-.175-1.244h.824l.175,1.244Zm-1.551.009a.412.412,0,1,1-.824,0v-1.4h.824v1.4Zm-1.35-1.4-.175,1.244-.018.143a.5.5,0,0,1-.473.421.351.351,0,0,1-.351-.421l.018-.143.175-1.244Zm-1.379,2.848h2.181a.214.214,0,0,1,.211.214v1.524a.213.213,0,0,1-.211.214h-2.181a.213.213,0,0,1-.211-.214v-1.524a.214.214,0,0,1,.211-.214m-.006-2.848-.263,1.244-.026.143a.535.535,0,0,1-.5.421.327.327,0,0,1-.324-.421l.027-.143.263-1.244Zm6.451,1.226-.543-1.542a.144.144,0,0,1-.01-.051v-.421a.205.205,0,0,0-.2-.206h-6.749a.206.206,0,0,0-.2.206V714a.143.143,0,0,1-.009.051l-.526,1.506a.329.329,0,0,0,.22.4.358.358,0,0,0,.187.02.152.152,0,0,1,.181.148v3.958a.206.206,0,0,0,.2.206h4.146a.15.15,0,0,0,.149-.152v-3.026a.15.15,0,0,1,.148-.152H588.9a.15.15,0,0,1,.148.152v3.026a.15.15,0,0,0,.149.152h.649a.206.206,0,0,0,.2-.206v-3.954a.15.15,0,0,1,.167-.149.391.391,0,0,0,.166-.023.325.325,0,0,0,.21-.4" transform="translate(3628.865 -15456.914)" fill="#fff"/><text transform="translate(4213.883 -14732.594)" fill="#fff" font-size="2.318" font-family="DaxOT, Dax OT"><tspan x="0" y="0">Combinatie</tspan></text></g></svg>