<svg xmlns="http://www.w3.org/2000/svg" width="228.083" height="74.258" viewBox="0 0 228.083 74.258"><g transform="translate(-3976.573 20497.893)"><line y2="3.057" transform="translate(3992.117 -20486.127)" fill="none" stroke="#1a1818" stroke-miterlimit="10" stroke-width="1.019"/><line y2="46.263" transform="translate(3992.117 -20476.9)" fill="none" stroke="#1a1818" stroke-miterlimit="10" stroke-width="1.019" stroke-dasharray="6.169 6.169"/><line y2="3.057" transform="translate(3992.117 -20427.555)" fill="none" stroke="#1a1818" stroke-miterlimit="10" stroke-width="1.019"/><line y2="3.057" transform="translate(4016.563 -20486.127)" fill="none" stroke="#1a1818" stroke-miterlimit="10" stroke-width="1.019"/><line y2="46.263" transform="translate(4016.563 -20476.9)" fill="none" stroke="#1a1818" stroke-miterlimit="10" stroke-width="1.019" stroke-dasharray="6.169 6.169"/><line y2="3.057" transform="translate(4016.563 -20427.555)" fill="none" stroke="#1a1818" stroke-miterlimit="10" stroke-width="1.019"/><line y2="3.057" transform="translate(4041.603 -20486.127)" fill="none" stroke="#1a1818" stroke-miterlimit="10" stroke-width="1.019"/><line y2="46.263" transform="translate(4041.603 -20476.9)" fill="none" stroke="#1a1818" stroke-miterlimit="10" stroke-width="1.019" stroke-dasharray="6.169 6.169"/><line y2="3.057" transform="translate(4041.603 -20427.555)" fill="none" stroke="#1a1818" stroke-miterlimit="10" stroke-width="1.019"/><line y2="3.057" transform="translate(4066.113 -20486.127)" fill="none" stroke="#1a1818" stroke-miterlimit="10" stroke-width="1.019"/><line y2="46.263" transform="translate(4066.113 -20476.9)" fill="none" stroke="#1a1818" stroke-miterlimit="10" stroke-width="1.019" stroke-dasharray="6.169 6.169"/><line y2="3.057" transform="translate(4066.113 -20427.555)" fill="none" stroke="#1a1818" stroke-miterlimit="10" stroke-width="1.019"/><line y2="3.057" transform="translate(4090.558 -20486.127)" fill="none" stroke="#1a1818" stroke-miterlimit="10" stroke-width="1.019"/><line y2="46.263" transform="translate(4090.558 -20476.9)" fill="none" stroke="#1a1818" stroke-miterlimit="10" stroke-width="1.019" stroke-dasharray="6.169 6.169"/><line y2="3.057" transform="translate(4090.558 -20427.555)" fill="none" stroke="#1a1818" stroke-miterlimit="10" stroke-width="1.019"/><line y2="3.057" transform="translate(4115.598 -20486.127)" fill="none" stroke="#1a1818" stroke-miterlimit="10" stroke-width="1.019"/><line y2="46.263" transform="translate(4115.598 -20476.9)" fill="none" stroke="#1a1818" stroke-miterlimit="10" stroke-width="1.019" stroke-dasharray="6.169 6.169"/><line y2="3.057" transform="translate(4115.598 -20427.555)" fill="none" stroke="#1a1818" stroke-miterlimit="10" stroke-width="1.019"/><line y2="3.057" transform="translate(4139.802 -20486.127)" fill="none" stroke="#1a1818" stroke-miterlimit="10" stroke-width="1.019"/><line y2="46.263" transform="translate(4139.802 -20476.9)" fill="none" stroke="#1a1818" stroke-miterlimit="10" stroke-width="1.019" stroke-dasharray="6.169 6.169"/><line y2="3.057" transform="translate(4139.802 -20427.555)" fill="none" stroke="#1a1818" stroke-miterlimit="10" stroke-width="1.019"/><line y2="3.057" transform="translate(4164.246 -20486.127)" fill="none" stroke="#1a1818" stroke-miterlimit="10" stroke-width="1.019"/><line y2="46.263" transform="translate(4164.246 -20476.9)" fill="none" stroke="#1a1818" stroke-miterlimit="10" stroke-width="1.019" stroke-dasharray="6.169 6.169"/><line y2="3.057" transform="translate(4164.246 -20427.555)" fill="none" stroke="#1a1818" stroke-miterlimit="10" stroke-width="1.019"/><line y2="3.057" transform="translate(4189.287 -20486.127)" fill="none" stroke="#1a1818" stroke-miterlimit="10" stroke-width="1.019"/><line y2="46.263" transform="translate(4189.287 -20476.9)" fill="none" stroke="#1a1818" stroke-miterlimit="10" stroke-width="1.019" stroke-dasharray="6.169 6.169"/><line y2="3.057" transform="translate(4189.287 -20427.555)" fill="none" stroke="#1a1818" stroke-miterlimit="10" stroke-width="1.019"/><path d="M749.041,723.466H530.458a4.75,4.75,0,0,1,0-9.5H749.041a4.75,4.75,0,0,1,0,9.5" transform="translate(3450.865 -21203.912)" fill="#e0e1e2"/><text transform="translate(3994.727 -20466.635) rotate(90)" fill="#1a1818" font-size="5.417" font-family="CenturyGothic, Century Gothic"><tspan x="0" y="0" letter-spacing="-0.01em">T</tspan><tspan y="0">ype omg</tspan><tspan y="0" letter-spacing="-0.009em">e</tspan><tspan y="0">ving </tspan></text><text transform="translate(4018.506 -20472.16) rotate(90)" fill="#1a1818" font-size="5.417" font-family="CenturyGothic, Century Gothic"><tspan x="0" y="0" letter-spacing="-0.042em">V</tspan><tspan y="0">erblijf</tspan><tspan y="0" letter-spacing="0.007em">s</tspan><tspan y="0">aanleiding</tspan></text><text transform="translate(4043.553 -20467.014) rotate(90)" fill="#1a1818" font-size="5.417" font-family="CenturyGothic, Century Gothic"><tspan x="0" y="0" letter-spacing="-0.007em">F</tspan><tspan y="0">un</tspan><tspan y="0" letter-spacing="0.01em">c</tspan><tspan y="0">tie</tspan><tspan y="0" letter-spacing="-0.016em"> </tspan><tspan y="0" letter-spacing="-0.019em">w</tspan><tspan y="0">anden</tspan></text><text transform="translate(4068.519 -20457.162) rotate(90)" fill="#1a1818" font-size="5.417" font-family="CenturyGothic, Century Gothic"><tspan x="0" y="0">Au</tspan><tspan y="0" letter-spacing="-0.007em">t</tspan><tspan y="0">o en fi</tspan><tspan y="0" letter-spacing="-0.006em">e</tspan><tspan y="0">ts</tspan></text><text transform="translate(4117.745 -20464.117) rotate(90)" fill="#1a1818" font-size="5.417" font-family="CenturyGothic, Century Gothic"><tspan x="0" y="0" letter-spacing="-0.042em">V</tspan><tspan y="0">er</tspan><tspan y="0" letter-spacing="-0.026em">k</tspan><tspan y="0">eerslic</tspan><tspan y="0" letter-spacing="-0.005em">h</tspan><tspan y="0" letter-spacing="-0.007em">t</tspan><tspan y="0">en</tspan></text><text transform="translate(4166.083 -20441.123) rotate(90)" fill="#1a1818" font-size="5.417" font-family="CenturyGothic, Century Gothic"><tspan x="0" y="0">G</tspan><tspan y="0" letter-spacing="-0.015em">r</tspan><tspan y="0">oen</tspan></text><text transform="translate(4141.812 -20473.385) rotate(90)" fill="#1a1818" font-size="5.417" font-family="CenturyGothic, Century Gothic"><tspan x="0" y="0">Openbaa</tspan></text><text transform="translate(4141.813 -20447.064) rotate(90)" fill="#1a1818" font-size="5.417" font-family="CenturyGothic, Century Gothic"><tspan x="0" y="0" letter-spacing="-0.024em">r</tspan><tspan y="0"> </tspan></text><text transform="translate(4141.812 -20444.205) rotate(90)" fill="#1a1818" font-size="5.417" font-family="CenturyGothic, Century Gothic"><tspan x="0" y="0" letter-spacing="-0.012em">v</tspan><tspan y="0">er</tspan><tspan y="0" letter-spacing="-0.012em">v</tspan><tspan y="0">oer</tspan></text><path d="M614.9,729.106A11.512,11.512,0,1,0,603.755,717.6,11.328,11.328,0,0,0,614.9,729.106" transform="translate(3450.865 -21203.912)" fill="#3a5121"/><text transform="translate(4060.689 -20477.785)" fill="#fff" font-size="2.318" font-family="DaxOT, Dax OT"><tspan x="0" y="0">Gemengd</tspan></text><path d="M619.376,717.333a.2.2,0,0,0-.2.2v2.9a.2.2,0,0,0,.394,0v-2.9a.2.2,0,0,0-.2-.2" transform="translate(3450.865 -21203.912)" fill="#fff"/><text transform="translate(4191.678 -20470.6) rotate(90)" fill="#1a1818" font-size="5.417" font-family="CenturyGothic, Century Gothic"><tspan x="0" y="0">Speciaal ka</tspan><tspan y="0" letter-spacing="-0.01em">r</tspan><tspan y="0">ak</tspan><tspan y="0" letter-spacing="-0.007em">t</tspan><tspan y="0">er</tspan></text><path d="M619.258,716.663h-.622a2.819,2.819,0,0,0-.233,1.534c.006.178.012.361.009.553a.255.255,0,0,0,.251.259h0a.255.255,0,0,0,.255-.251c0-.205,0-.394-.01-.578a1.934,1.934,0,0,1,.346-1.517" transform="translate(3450.865 -21203.912)" fill="#fff"/><path d="M620.128,716.663h-.549a5.51,5.51,0,0,1,.262,2.582.254.254,0,0,0,.235.273h.019a.255.255,0,0,0,.255-.235,8.074,8.074,0,0,0-.082-2.078,3.888,3.888,0,0,0-.14-.542" transform="translate(3450.865 -21203.912)" fill="#fff"/><path d="M620.321,716.095h-1.889a4.467,4.467,0,0,1,.187-1.534c.019-.053.038-.1.059-.152v1.459h0v.075h1.379v-.075h0v-1.48c.024.056.048.115.069.177a4.4,4.4,0,0,1,.19,1.53m.651,0h-.17c.035-1.315-.31-2.314-.934-2.687a.941.941,0,0,0-.991,0c-.619.37-.962,1.369-.926,2.687h-.17a.2.2,0,0,0,0,.393h3.191a.2.2,0,1,0,0-.393" transform="translate(3450.865 -21203.912)" fill="#fff"/><path d="M619.376,711.694a.7.7,0,1,1-.7.7.7.7,0,0,1,.7-.7" transform="translate(3450.865 -21203.912)" fill="#fff"/><path d="M608.505,718.906c0,.011,0,.023,0,.034V720a.449.449,0,0,0,.447.447h.369a.45.45,0,0,0,.448-.447v-.33h-.945c-.106,0-.227-.337-.318-.764" transform="translate(3450.865 -21203.912)" fill="#fff"/><path d="M615.952,718.905c-.091.427-.212.765-.318.765h-.945V720a.449.449,0,0,0,.448.447h.369a.448.448,0,0,0,.447-.447v-1.094" transform="translate(3450.865 -21203.912)" fill="#fff"/><path d="M612.229,714.372h0c-1.408,0-1.911.027-2.271.249a4.6,4.6,0,0,0-.821,1.173l-.012.012a.2.2,0,0,0-.182-.125h-.664c-.249,0-.283.243-.283.376a.637.637,0,0,0,.005.084.214.214,0,0,0,.2.178h.287l.029,0h0c.135,0,.258.062.212.248a5,5,0,0,0-.329.792,4.471,4.471,0,0,0,.1,1.55c.091.427.213.764.319.764h6.809c.107,0,.228-.338.319-.764a4.446,4.446,0,0,0,.1-1.55,4.871,4.871,0,0,0-.328-.793c-.047-.185.076-.247.211-.247h0l.03,0h.287a.213.213,0,0,0,.2-.178.744.744,0,0,0,.005-.075v-.019c0-.134-.04-.366-.282-.366h-.664a.194.194,0,0,0-.182.125l-.012-.011a4.536,4.536,0,0,0-.822-1.174c-.359-.222-.863-.249-2.27-.249m-.331.448h.66a3.884,3.884,0,0,1,1.7.182,5.94,5.94,0,0,1,.748,1.151,18.143,18.143,0,0,1-5.563,0,5.844,5.844,0,0,1,.759-1.16,3.958,3.958,0,0,1,1.692-.174m2.694,3.009a.855.855,0,0,1-.4-.053c-.077-.086.068-.562.556-.873a1.133,1.133,0,0,1,.474-.155.184.184,0,0,1,.142.049c.118.135.211.729.02.892a1.677,1.677,0,0,1-.8.14m-4.726,0a1.682,1.682,0,0,1-.8-.14c-.191-.163-.1-.757.02-.892a.184.184,0,0,1,.142-.049,1.133,1.133,0,0,1,.475.155c.487.311.633.787.556.873a.861.861,0,0,1-.4.053m1.532,1.059c-.339,0-.537-.1-.577-.224s.05-.223.2-.223h2.417c.15,0,.24.1.2.223s-.229.224-.577.224Z" transform="translate(3450.865 -21203.912)" fill="#fff"/><text transform="translate(4092.355 -20447.389) rotate(90)" fill="#1a1818" font-size="5.417" font-family="CenturyGothic, Century Gothic"><tspan x="0" y="0" letter-spacing="-0.017em">P</tspan><tspan y="0">ar</tspan><tspan y="0" letter-spacing="-0.026em">k</tspan><tspan y="0">e</tspan><tspan y="0" letter-spacing="-0.016em">r</tspan><tspan y="0">en</tspan></text><path d="M541.337,729.084A11.512,11.512,0,1,0,530.2,717.578a11.328,11.328,0,0,0,11.142,11.506" transform="translate(3450.865 -21203.912)" fill="#3a5121"/><path d="M548.2,720.694h-.576l-.007-.007v-.9l.007-.008h.576l.008.008v.9Zm-1.762,0h-.577l-.008-.007v-.9l.008-.008h.577l.008.008v.9Zm-.843,0h-.579l-.007-.007v-.9l.007-.008h.579l.007.008v.9Zm-2.192-2.479h-.553l-.007-.007v-.649a.291.291,0,0,1,.238-.294.278.278,0,0,1,.322.27Zm-1.047,0H541.8l-.008-.007v-.653a.288.288,0,0,1,.24-.291.277.277,0,0,1,.318.271v.68Zm-1.9,2.479h-.577l-.007-.007v-.907h.584l.008.008v.9Zm-1.746-2.587h-.584l-.007-.007v-.9l.007-.008h.577l.007.008Zm0,1.129h-.584l-.007-.008v-.9l.007-.007h.577l.007.007Zm-.851-1.129h-.576l-.008-.007v-.9l.008-.008h.576l.007.008v.9Zm0,1.129h-.576l-.008-.008v-.9l.008-.007h.576l.007.007v.9Zm-1.945,0h-.586l-.007-.008v-.9l.007-.007h.578l.008.007Zm-.851,0h-.578l-.008-.008v-.9l.008-.007h.578l.007.007v.9Zm12.414-1.021h-1.751l0,0-1.291,1.048-.012-.005v-2.394h-.03l-1.493-4.877v-.915l.007-.007h.279a.056.056,0,1,0,0-.112H542.9l-.007-.007v-.308a.058.058,0,0,0-.115,0v.308l-.007.007H542.5a.056.056,0,1,0,0,.112h.278l.007.007v.915l-1.492,4.876v.77l-.007.007h-1.205l-.006,0-.676,1.152-.014,0v-1.688l0-.005-1.462-1.78-.005,0h-2.555l-.005,0-1.462,1.78,0,.005v5.145l.008.008h8.129l.008-.007v-2.1a.687.687,0,0,1,.653-.678h0a.687.687,0,0,1,.654.678v2.1l.007.007h5.429l.008-.007v-2.972l0-.006-1.3-1.056Z" transform="translate(3450.865 -21203.912)" fill="#fff"/><text transform="translate(3989.52 -20477.859)" fill="#fff" font-size="2.318" font-family="DaxOT, Dax OT"><tspan x="0" y="0">Dorps</tspan></text><path d="M590.658,729.157a11.512,11.512,0,1,0-11.142-11.507,11.328,11.328,0,0,0,11.142,11.507" transform="translate(3450.865 -21203.912)" fill="#3a5121"/><path d="M594.017,718.163a.507.507,0,0,1-.506.506h-1.156a.507.507,0,0,1-.506-.506v-1.279a.508.508,0,0,1,.506-.506h1.156a.507.507,0,0,1,.506.506Zm-4.966,0a.507.507,0,0,1-.506.506H587.39a.507.507,0,0,1-.507-.506v-1.279a.508.508,0,0,1,.507-.506h1.155a.507.507,0,0,1,.506.506Zm5.952,2.11v-5.08a.373.373,0,0,0-.374-.374h-8.308a.374.374,0,0,0-.374.374v5.08a.374.374,0,0,0,.374.373h3.047a.373.373,0,0,0,.373-.373v-2.754a.118.118,0,0,1,.119-.117h1.15a.117.117,0,0,1,.117.117v2.754a.374.374,0,0,0,.375.373h3.127a.373.373,0,0,0,.374-.373m-8.725-7.484v-2.018a.383.383,0,0,1,.38-.386h.684a.382.382,0,0,1,.379.386v.741a.121.121,0,0,0,.192.1l2.37-1.795a.261.261,0,0,1,.316,0l5.2,3.938a.265.265,0,0,1-.147.482h-9.689c-.249,0-.709-.606-.508-.758l.776-.586a.125.125,0,0,0,.048-.1" transform="translate(3450.865 -21203.912)" fill="#fff"/><text transform="translate(4037.361 -20477.787)" fill="#fff" font-size="2.318" font-family="DaxOT, Dax OT"><tspan x="0" y="0" letter-spacing="0.005em">W</tspan><tspan y="0" letter-spacing="0.006em">one</tspan><tspan y="0">n</tspan></text><path d="M689.323,729.032a11.512,11.512,0,1,0-11.142-11.507,11.328,11.328,0,0,0,11.142,11.507" transform="translate(3450.865 -21203.912)" fill="#3a5121"/><path d="M683.031,716.56a.378.378,0,0,0-.386.386V718.1a.378.378,0,0,0,.386.386h12.585A.378.378,0,0,0,696,718.1v-1.159a.378.378,0,0,0-.386-.386Z" transform="translate(3450.865 -21203.912)" fill="#fff"/><path d="M664.241,729.032A11.512,11.512,0,1,0,653.1,717.526a11.328,11.328,0,0,0,11.142,11.506" transform="translate(3450.865 -21203.912)" fill="#3a5121"/><text transform="translate(4137.586 -20479.627)" fill="#fff" font-size="2.318" font-family="DaxOT, Dax OT"><tspan x="0" y="0">Ni</tspan><tspan y="0" letter-spacing="-0.003em">e</tspan><tspan y="0">t</tspan></text><path d="M658.253,716.81a.378.378,0,0,0-.386.386v1.159a.379.379,0,0,0,.386.387h12.585a.378.378,0,0,0,.386-.387V717.2a.378.378,0,0,0-.386-.386Z" transform="translate(3450.865 -21203.912)" fill="#fff"/><path d="M713.562,729.106A11.512,11.512,0,1,0,702.42,717.6a11.328,11.328,0,0,0,11.142,11.506" transform="translate(3450.865 -21203.912)" fill="#3a5121"/><text transform="translate(4112.727 -20477.912)" fill="#fff" font-size="2.318" font-family="DaxOT, Dax OT"><tspan x="0" y="0">Ni</tspan><tspan y="0" letter-spacing="-0.003em">e</tspan><tspan y="0">t</tspan></text><text transform="translate(4160.738 -20477.836)" fill="#fff" font-size="2.318" font-family="DaxOT, Dax OT"><tspan x="0" y="0">Bomen</tspan></text><path d="M718.447,720.614H716.51v-2.02h.761a1.374,1.374,0,0,0,1.381-1.367,1.357,1.357,0,0,1-.115-1.368,5.987,5.987,0,0,0-2.456-2.165c-.02,0-.04,0-.06,0a2.315,2.315,0,0,1,.405,1.312,2.36,2.36,0,0,1-2.37,2.346h-.732a1.376,1.376,0,0,0,1.375,1.239h.851v2.02h-3.012V717.05h1.518a2.054,2.054,0,0,0,2.062-2.041,2.012,2.012,0,0,0-.437-1.257,2.136,2.136,0,0,0-.375-.366l-.053-.041-.007-.065a2.042,2.042,0,0,0-1.251-1.676l-.092-.037,0-.1a2.043,2.043,0,0,0-2.06-1.974,2.067,2.067,0,0,0-1.883,1.21l-.036.078-.084.011a2.053,2.053,0,0,0-1.783,2.021,2,2,0,0,0,.2.875l.038.08-.051.072a2.018,2.018,0,0,0-.371,1.167,2.055,2.055,0,0,0,2.062,2.041h1.375v3.564h-3.231a.2.2,0,1,0,0,.407h10.372a.2.2,0,1,0,0-.407" transform="translate(3450.865 -21203.912)" fill="#fff"/><path d="M716.908,721.284h-7.3a.2.2,0,1,0,0,.407h7.3a.2.2,0,1,0,0-.407" transform="translate(3450.865 -21203.912)" fill="#fff"/><path d="M738.1,729.032a11.512,11.512,0,1,0-11.142-11.507A11.328,11.328,0,0,0,738.1,729.032" transform="translate(3450.865 -21203.912)" fill="#3a5121"/><path d="M731.81,716.56a.378.378,0,0,0-.386.386V718.1a.378.378,0,0,0,.386.386H744.4a.378.378,0,0,0,.386-.386v-1.159a.378.378,0,0,0-.386-.386Z" transform="translate(3450.865 -21203.912)" fill="#fff"/><text transform="translate(4186.727 -20479.627)" fill="#fff" font-size="2.318" font-family="DaxOT, Dax OT"><tspan x="0" y="0">Ni</tspan><tspan y="0" letter-spacing="-0.003em">e</tspan><tspan y="0">t</tspan></text><path d="M640.3,729.106A11.512,11.512,0,1,0,629.161,717.6,11.328,11.328,0,0,0,640.3,729.106" transform="translate(3450.865 -21203.912)" fill="#3a5121"/><path d="M634.06,716.633a.378.378,0,0,0-.386.386v1.159a.379.379,0,0,0,.386.387h12.585a.378.378,0,0,0,.386-.387v-1.159a.378.378,0,0,0-.386-.386Z" transform="translate(3450.865 -21203.912)" fill="#fff"/><text transform="translate(4088.93 -20477.838)" fill="#fff" font-size="2.318" font-family="DaxOT, Dax OT"><tspan x="0" y="0">Ni</tspan><tspan y="0" letter-spacing="-0.003em">e</tspan><tspan y="0">t</tspan></text><path d="M565.876,729.032a11.512,11.512,0,1,0-11.142-11.506,11.328,11.328,0,0,0,11.142,11.506" transform="translate(3450.865 -21203.912)" fill="#3a5121"/><path d="M559.633,716.56a.378.378,0,0,0-.386.386V718.1a.379.379,0,0,0,.386.387h12.585a.378.378,0,0,0,.386-.387v-1.159a.378.378,0,0,0-.386-.386Z" transform="translate(3450.865 -21203.912)" fill="#fff"/><text transform="translate(4014.502 -20477.912)" fill="#fff" font-size="2.318" font-family="DaxOT, Dax OT"><tspan x="0" y="0">Ni</tspan><tspan y="0" letter-spacing="-0.003em">e</tspan><tspan y="0">t</tspan></text></g></svg>