<svg xmlns="http://www.w3.org/2000/svg" width="691.623" height="446.752" viewBox="0 0 691.623 446.752"><g transform="translate(-766.807 16847.494)"><line y2="3.062" transform="translate(813.945 -16812.83)" fill="none" stroke="#1a1818" stroke-miterlimit="10" stroke-width="1.535"/><line y2="393.536" transform="translate(813.945 -16803.57)" fill="none" stroke="#1a1818" stroke-miterlimit="10" stroke-width="1.535" stroke-dasharray="6.215 6.215"/><line y2="3.062" transform="translate(813.945 -16406.936)" fill="none" stroke="#1a1818" stroke-miterlimit="10" stroke-width="1.535"/><line y2="3.062" transform="translate(888.068 -16812.83)" fill="none" stroke="#1a1818" stroke-miterlimit="10" stroke-width="1.535"/><line y2="393.536" transform="translate(888.068 -16803.57)" fill="none" stroke="#1a1818" stroke-miterlimit="10" stroke-width="1.535" stroke-dasharray="6.215 6.215"/><line y2="3.062" transform="translate(888.068 -16406.936)" fill="none" stroke="#1a1818" stroke-miterlimit="10" stroke-width="1.535"/><line y2="3.062" transform="translate(963.999 -16812.83)" fill="none" stroke="#1a1818" stroke-miterlimit="10" stroke-width="1.535"/><line y2="393.536" transform="translate(963.999 -16803.57)" fill="none" stroke="#1a1818" stroke-miterlimit="10" stroke-width="1.535" stroke-dasharray="6.215 6.215"/><line y2="3.062" transform="translate(963.999 -16406.936)" fill="none" stroke="#1a1818" stroke-miterlimit="10" stroke-width="1.535"/><line y2="3.062" transform="translate(1038.323 -16812.83)" fill="none" stroke="#1a1818" stroke-miterlimit="10" stroke-width="1.535"/><line y2="393.536" transform="translate(1038.323 -16803.57)" fill="none" stroke="#1a1818" stroke-miterlimit="10" stroke-width="1.535" stroke-dasharray="6.215 6.215"/><line y2="3.062" transform="translate(1038.323 -16406.936)" fill="none" stroke="#1a1818" stroke-miterlimit="10" stroke-width="1.535"/><line y2="3.062" transform="translate(1112.446 -16812.83)" fill="none" stroke="#1a1818" stroke-miterlimit="10" stroke-width="1.535"/><line y2="393.536" transform="translate(1112.446 -16803.57)" fill="none" stroke="#1a1818" stroke-miterlimit="10" stroke-width="1.535" stroke-dasharray="6.215 6.215"/><line y2="3.062" transform="translate(1112.446 -16406.936)" fill="none" stroke="#1a1818" stroke-miterlimit="10" stroke-width="1.535"/><line y2="3.062" transform="translate(1188.378 -16812.83)" fill="none" stroke="#1a1818" stroke-miterlimit="10" stroke-width="1.535"/><line y2="393.536" transform="translate(1188.378 -16803.57)" fill="none" stroke="#1a1818" stroke-miterlimit="10" stroke-width="1.535" stroke-dasharray="6.215 6.215"/><line y2="3.062" transform="translate(1188.378 -16406.936)" fill="none" stroke="#1a1818" stroke-miterlimit="10" stroke-width="1.535"/><line y2="3.062" transform="translate(1261.771 -16812.83)" fill="none" stroke="#1a1818" stroke-miterlimit="10" stroke-width="1.535"/><line y2="393.536" transform="translate(1261.771 -16803.57)" fill="none" stroke="#1a1818" stroke-miterlimit="10" stroke-width="1.535" stroke-dasharray="6.215 6.215"/><line y2="3.062" transform="translate(1261.771 -16406.936)" fill="none" stroke="#1a1818" stroke-miterlimit="10" stroke-width="1.535"/><line y2="3.062" transform="translate(1335.895 -16812.83)" fill="none" stroke="#1a1818" stroke-miterlimit="10" stroke-width="1.535"/><line y2="393.536" transform="translate(1335.895 -16803.57)" fill="none" stroke="#1a1818" stroke-miterlimit="10" stroke-width="1.535" stroke-dasharray="6.215 6.215"/><line y2="3.062" transform="translate(1335.895 -16406.936)" fill="none" stroke="#1a1818" stroke-miterlimit="10" stroke-width="1.535"/><line y2="3.062" transform="translate(1411.826 -16812.83)" fill="none" stroke="#1a1818" stroke-miterlimit="10" stroke-width="1.535"/><line y2="393.536" transform="translate(1411.826 -16803.57)" fill="none" stroke="#1a1818" stroke-miterlimit="10" stroke-width="1.535" stroke-dasharray="6.215 6.215"/><line y2="3.062" transform="translate(1411.826 -16406.936)" fill="none" stroke="#1a1818" stroke-miterlimit="10" stroke-width="1.535"/><path d="M783.481,146.919a14.48,14.48,0,0,1-14.55,14.321H106.408a14.323,14.323,0,1,1,0-28.642H768.931a14.479,14.479,0,0,1,14.55,14.321" transform="translate(674.949 -16956.945)" fill="#e0e1e2"/><text transform="translate(821.855 -16498.877) rotate(90)" fill="#1a1818" font-size="15.913" font-family="CenturyGothic, Century Gothic"><tspan x="0" y="0" letter-spacing="-0.01em">T</tspan><tspan y="0">ype gebied</tspan></text><text transform="translate(893.956 -16541.842) rotate(90)" fill="#1a1818" font-size="15.913" font-family="CenturyGothic, Century Gothic"><tspan x="0" y="0" letter-spacing="-0.042em">V</tspan><tspan y="0">erblijf</tspan><tspan y="0" letter-spacing="0.007em">s</tspan><tspan y="0">aanleiding</tspan></text><text transform="translate(969.899 -16510.334) rotate(90)" fill="#1a1818" font-size="15.913" font-family="CenturyGothic, Century Gothic"><tspan x="0" y="0" letter-spacing="-0.007em">F</tspan><tspan y="0">un</tspan><tspan y="0" letter-spacing="0.01em">c</tspan><tspan y="0">tie </tspan></text><text transform="translate(969.899 -16449.85) rotate(90)" fill="#1a1818" font-size="15.913" font-family="CenturyGothic, Century Gothic"><tspan x="0" y="0" letter-spacing="-0.018em">ge</tspan><tspan y="0" letter-spacing="-0.019em">v</tspan><tspan y="0" letter-spacing="-0.018em">e</tspan><tspan y="0" letter-spacing="-0.019em">l</tspan><tspan y="0">s</tspan></text><text transform="translate(1045.602 -16497.779) rotate(90)" fill="#1a1818" font-size="15.913" font-family="CenturyGothic, Century Gothic"><tspan x="0" y="0">Au</tspan><tspan y="0" letter-spacing="-0.007em">t</tspan><tspan y="0">o en fi</tspan><tspan y="0" letter-spacing="-0.006em">e</tspan><tspan y="0">ts</tspan></text><text transform="translate(1194.88 -16484.031) rotate(90)" fill="#1a1818" font-size="15.913" font-family="CenturyGothic, Century Gothic"><tspan x="0" y="0" letter-spacing="-0.041em">Kru</tspan><tspan y="0" letter-spacing="-0.042em">isp</tspan><tspan y="0" letter-spacing="-0.041em">unte</tspan><tspan y="0">n</tspan></text><text transform="translate(878.306 -16696.207) rotate(90)" fill="#0b3e38" font-size="10.481" font-family="DaxOT, Dax OT"><tspan x="0" y="0" letter-spacing="-0.017em">P</tspan><tspan y="0">ar</tspan><tspan y="0" letter-spacing="-0.026em">k</tspan><tspan y="0">e</tspan><tspan y="0" letter-spacing="-0.016em">r</tspan><tspan y="0">en</tspan></text><text transform="translate(1341.459 -16450.689) rotate(90)" fill="#1a1818" font-size="15.913" font-family="CenturyGothic, Century Gothic"><tspan x="0" y="0">G</tspan><tspan y="0" letter-spacing="-0.015em">r</tspan><tspan y="0">oen</tspan></text><text transform="translate(1267.854 -16545.465) rotate(90)" fill="#1a1818" font-size="15.913" font-family="CenturyGothic, Century Gothic"><tspan x="0" y="0">Openbaa</tspan></text><text transform="translate(1267.854 -16468.145) rotate(90)" fill="#1a1818" font-size="15.913" font-family="CenturyGothic, Century Gothic"><tspan x="0" y="0" letter-spacing="-0.024em">r</tspan><tspan y="0"> </tspan></text><text transform="translate(1267.853 -16459.742) rotate(90)" fill="#1a1818" font-size="15.913" font-family="CenturyGothic, Century Gothic"><tspan x="0" y="0" letter-spacing="-0.012em">v</tspan><tspan y="0">er</tspan><tspan y="0" letter-spacing="-0.012em">v</tspan><tspan y="0">oer</tspan></text><path d="M139.251,178.835c18.66,0,33.785-15.532,33.785-34.691s-15.125-34.692-33.785-34.692-33.786,15.533-33.786,34.692,15.126,34.691,33.786,34.691" transform="translate(674.949 -16956.945)" fill="#3a5121"/><path d="M212.751,178.835c18.66,0,33.786-15.532,33.786-34.691s-15.126-34.692-33.786-34.692-33.786,15.533-33.786,34.692,15.126,34.691,33.786,34.691" transform="translate(674.949 -16956.945)" fill="#3a5121"/><path d="M288.808,178.835c18.66,0,33.786-15.532,33.786-34.691s-15.126-34.692-33.786-34.692-33.786,15.533-33.786,34.692,15.126,34.691,33.786,34.691" transform="translate(674.949 -16956.945)" fill="#3a5121"/><path d="M362.308,178.835c18.66,0,33.786-15.532,33.786-34.691s-15.126-34.692-33.786-34.692-33.785,15.533-33.785,34.692,15.125,34.691,33.785,34.691" transform="translate(674.949 -16956.945)" fill="#3a5121"/><text transform="translate(1419.068 -16537.301) rotate(90)" fill="#1a1818" font-size="15.913" font-family="CenturyGothic, Century Gothic"><tspan x="0" y="0">Speciaal ka</tspan><tspan y="0" letter-spacing="-0.01em">r</tspan><tspan y="0">ak</tspan><tspan y="0" letter-spacing="-0.007em">t</tspan><tspan y="0">er</tspan></text><path d="M438.437,178.835c18.66,0,33.785-15.532,33.785-34.691s-15.125-34.692-33.785-34.692-33.786,15.533-33.786,34.692,15.126,34.691,33.786,34.691" transform="translate(674.949 -16956.945)" fill="#3a5121"/><path d="M511.937,178.835c18.66,0,33.786-15.532,33.786-34.691s-15.126-34.692-33.786-34.692-33.786,15.533-33.786,34.692,15.126,34.691,33.786,34.691" transform="translate(674.949 -16956.945)" fill="#3a5121"/><path d="M587.994,178.835c18.66,0,33.786-15.532,33.786-34.691s-15.126-34.692-33.786-34.692-33.785,15.533-33.785,34.692,15.125,34.691,33.785,34.691" transform="translate(674.949 -16956.945)" fill="#3a5121"/><path d="M661.495,178.835c18.659,0,33.785-15.532,33.785-34.691s-15.126-34.692-33.785-34.692-33.786,15.533-33.786,34.692,15.126,34.691,33.786,34.691" transform="translate(674.949 -16956.945)" fill="#3a5121"/><path d="M734.995,178.835c18.66,0,33.786-15.532,33.786-34.691s-15.126-34.692-33.786-34.692-33.786,15.533-33.786,34.692,15.126,34.691,33.786,34.691" transform="translate(674.949 -16956.945)" fill="#3a5121"/><path d="M139.251,252.353c18.66,0,33.785-15.531,33.785-34.69s-15.125-34.692-33.785-34.692-33.786,15.532-33.786,34.692,15.126,34.69,33.786,34.69" transform="translate(674.949 -16956.945)" fill="#3a5121"/><path d="M212.751,252.353c18.66,0,33.786-15.531,33.786-34.69s-15.126-34.692-33.786-34.692-33.786,15.532-33.786,34.692,15.126,34.69,33.786,34.69" transform="translate(674.949 -16956.945)" fill="#3a5121"/><path d="M288.808,252.353c18.66,0,33.786-15.531,33.786-34.69s-15.126-34.692-33.786-34.692-33.786,15.532-33.786,34.692,15.126,34.69,33.786,34.69" transform="translate(674.949 -16956.945)" fill="#3a5121"/><path d="M362.308,252.353c18.66,0,33.786-15.531,33.786-34.69s-15.126-34.692-33.786-34.692-33.785,15.532-33.785,34.692,15.125,34.69,33.785,34.69" transform="translate(674.949 -16956.945)" fill="#3a5121"/><path d="M438.437,252.353c18.66,0,33.785-15.531,33.785-34.69s-15.125-34.692-33.785-34.692-33.786,15.532-33.786,34.692,15.126,34.69,33.786,34.69" transform="translate(674.949 -16956.945)" fill="#3a5121"/><path d="M587.994,252.353c18.66,0,33.786-15.531,33.786-34.69s-15.126-34.692-33.786-34.692-33.785,15.532-33.785,34.692,15.125,34.69,33.785,34.69" transform="translate(674.949 -16956.945)" fill="#3a5121"/><path d="M661.495,252.353c18.659,0,33.785-15.531,33.785-34.69s-15.126-34.692-33.785-34.692-33.786,15.532-33.786,34.692,15.126,34.69,33.786,34.69" transform="translate(674.949 -16956.945)" fill="#3a5121"/><path d="M734.995,252.353c18.66,0,33.786-15.531,33.786-34.69s-15.126-34.692-33.786-34.692-33.786,15.532-33.786,34.692,15.126,34.69,33.786,34.69" transform="translate(674.949 -16956.945)" fill="#3a5121"/><path d="M212.751,325.784c18.66,0,33.786-15.532,33.786-34.692s-15.126-34.69-33.786-34.69-33.786,15.531-33.786,34.69,15.126,34.692,33.786,34.692" transform="translate(674.949 -16956.945)" fill="#3a5121"/><path d="M288.808,325.784c18.66,0,33.786-15.532,33.786-34.692s-15.126-34.69-33.786-34.69-33.786,15.531-33.786,34.69,15.126,34.692,33.786,34.692" transform="translate(674.949 -16956.945)" fill="#3a5121"/><path d="M587.994,325.784c18.66,0,33.786-15.532,33.786-34.692s-15.126-34.69-33.786-34.69-33.785,15.531-33.785,34.69,15.125,34.692,33.785,34.692" transform="translate(674.949 -16956.945)" fill="#3a5121"/><path d="M661.495,325.784c18.659,0,33.785-15.532,33.785-34.692s-15.126-34.69-33.785-34.69-33.786,15.531-33.786,34.69,15.126,34.692,33.786,34.692" transform="translate(674.949 -16956.945)" fill="#3a5121"/><path d="M160.277,153.353h-1.039v-3.592h1.039Zm-2.076,0h-1.038v-3.592H158.2Zm-16.091-15.4H139v-3.079h3.114Zm0,6.158H139v-3.079h3.114Zm-7.785-6.158H131.21v-3.079h3.115Zm0,6.158H131.21v-3.079h3.115Zm25.379-1.34-5.136,5.107V136.929h-7.786v8.213h-2.6V132.824H129.134v12.818l-.008-.1-6.387-7.737-8.138,8.043v10.585h5.709v-5.646h3.114v5.646h41v-8.958Z" transform="translate(674.949 -16956.945)" fill="#fff"/><path d="M160.053,227.056H158.3l-.022-.02v-2.712l.022-.023h1.749l.022.023v2.712Zm-5.344,0h-1.752l-.022-.02v-2.712l.022-.023h1.752l.023.023v2.712Zm-2.558,0H150.4l-.022-.02v-2.712l.022-.023h1.754l.023.023v2.712Zm-6.645-7.473H143.83l-.023-.022V217.6a.879.879,0,0,1,.721-.884.838.838,0,0,1,.975.813v2.05Zm-3.176,0h-1.671l-.024-.022v-1.969a.871.871,0,0,1,.728-.875.837.837,0,0,1,.965.816v2.05Zm-5.747,7.473h-1.751l-.023-.02V224.3h1.774l.022.023v2.712Zm-5.3-7.8h-1.771l-.023-.022v-2.707l.023-.023h1.748l.022.023v2.729Zm0,3.4h-1.771l-.023-.022v-2.7l.023-.022h1.748l.022.022v2.726Zm-2.58-3.4h-1.749l-.023-.022v-2.707l.023-.023h1.749l.023.023v2.707Zm0,3.4h-1.749l-.023-.022v-2.7l.023-.022h1.749l.023.022v2.7Zm-5.9,0h-1.774l-.024-.022v-2.7l.024-.022h1.751l.023.022Zm-2.581,0h-1.752l-.022-.022v-2.7l.022-.022h1.752l.022.022v2.7Zm37.645-3.076h-5.309l-.015.005-3.912,3.161-.038-.017v-7.216h-.09l-4.527-14.7v-2.759l.022-.023h.845a.169.169,0,1,0,0-.337H144l-.022-.022v-.927a.174.174,0,0,0-.347,0v.927l-.023.022h-.842a.169.169,0,1,0,0,.337h.842l.023.023v2.759l-4.525,14.7v2.32l-.022.022H135.43l-.019.011-2.05,3.472-.042-.01v-5.089l-.005-.014-4.433-5.366-.018-.008h-7.745l-.017.008-4.432,5.366,0,.014v15.514l.023.022,24.65,0,.024-.021v-6.319a2.078,2.078,0,0,1,1.98-2.044h.006a2.078,2.078,0,0,1,1.981,2.044v6.319l.022.021h16.465l.022-.021v-8.96l-.008-.018-3.944-3.184Z" transform="translate(674.949 -16956.945)" fill="#fff"/><text transform="translate(806.067 -16713.734)" fill="#fff" font-size="7.233" font-family="DaxOT, Dax OT"><tspan x="0" y="0">Dorps</tspan></text><text transform="translate(801.899 -16787.092)" fill="#fff" font-size="7.233" font-family="DaxOT, Dax OT"><tspan x="0" y="0" letter-spacing="-0.015em">S</tspan><tspan y="0" letter-spacing="-0.006em">t</tspan><tspan y="0">edelijk</tspan></text><path d="M235.455,155.906H209.486V143.8h5.3a7.075,7.075,0,0,0,7.2-6.928,6.714,6.714,0,0,0-1.527-4.267,7.243,7.243,0,0,0-1.309-1.245l-.185-.136-.023-.224a6.958,6.958,0,0,0-4.367-5.689l-.318-.128-.012-.331a7.044,7.044,0,0,0-7.189-6.7,7.223,7.223,0,0,0-6.571,4.109l-.124.262-.295.039a7.042,7.042,0,0,0-6.22,6.864,6.643,6.643,0,0,0,.693,2.97l.133.27-.179.247a6.727,6.727,0,0,0-1.292,3.961,7.074,7.074,0,0,0,7.2,6.928h4.8v12.1H193.912a.69.69,0,1,0,0,1.38h41.543a.691.691,0,1,0,0-1.38" transform="translate(674.949 -16956.945)" fill="#fff"/><path d="M220.115,151.477h6.923v.474h-6.923Zm0-2.842h6.923v.474h-6.923Zm11.77,3.316h-3.462v-.474H230.5c.382,0,.692-.212.692-.473v-1.421c0-.262-.31-.474-.692-.474h-2.077v-.474H230.5c.382,0,.692-.212.692-.473V146.74c0-.261-.31-.474-.692-.474h-2.077c0-.26-.311-.473-.693-.473s-.692.213-.692.473h-6.923c0-.26-.311-.473-.694-.473s-.692.213-.692.473h-2.077c-.382,0-.692.213-.692.474v1.422c0,.261.31.473.692.473h2.077v.474h-2.077c-.382,0-.692.212-.692.474V151c0,.261.31.473.692.473h2.077v.474h-3.461c-.383,0-.694.213-.694.475s.311.474.694.474h.692v1.894c0,.261.31.474.692.474s.692-.213.692-.474V152.9h12.464v1.894c0,.261.309.474.692.474s.692-.213.692-.474V152.9h.693c.382,0,.692-.214.692-.474s-.31-.475-.692-.475" transform="translate(674.949 -16956.945)" fill="#fff"/><path d="M204.536,290.811h15.579v1.064H204.536Zm0-6.387h15.579v1.064H204.536Zm26.483,7.451H223.23v-1.064H227.9c.859,0,1.557-.477,1.557-1.065v-3.193c0-.587-.7-1.065-1.557-1.065H223.23v-1.064H227.9c.859,0,1.557-.475,1.557-1.064v-3.193c0-.589-.7-1.064-1.557-1.064H223.23c0-.588-.7-1.064-1.558-1.064s-1.557.476-1.557,1.064H204.536c0-.588-.7-1.064-1.557-1.064s-1.558.476-1.558,1.064h-4.674c-.859,0-1.558.475-1.558,1.064v3.193c0,.589.7,1.064,1.558,1.064h4.674v1.064h-4.674c-.859,0-1.558.478-1.558,1.065v3.193c0,.588.7,1.065,1.558,1.065h4.674v1.064h-7.789c-.86,0-1.558.478-1.558,1.064s.7,1.065,1.558,1.065h1.557v4.258c0,.587.7,1.065,1.558,1.065s1.558-.478,1.558-1.065V294h28.041v4.258c0,.587.7,1.065,1.558,1.065s1.557-.478,1.557-1.065V294h1.558c.86,0,1.558-.477,1.558-1.065s-.7-1.064-1.558-1.064" transform="translate(674.949 -16956.945)" fill="#fff"/><path d="M213.295,203.207c0,.293.012.536,0,.777s-.055.484-.09.724c-.02.137-.122.327-.066.394a.6.6,0,0,0,.443.205c.12-.017.26-.2.317-.332a3.785,3.785,0,0,0,.177-.687c.175-.808.174-.809-.778-1.081m-1.145.018a3.087,3.087,0,0,0-.626.269.535.535,0,0,0-.23.386,7.836,7.836,0,0,0,.281,1.243.435.435,0,0,0,.324.261.637.637,0,0,0,.429-.242c.067-.092.016-.277-.008-.417-.047-.265-.129-.523-.164-.79a5.818,5.818,0,0,1-.006-.71M188.8,213.519c-.885.25-.882.25-.963,1.032-.032.3-.092.6-.1.9a1.691,1.691,0,0,0,.117.457,2.45,2.45,0,0,0,.493-.24.635.635,0,0,0,.212-.365c.093-.576.16-1.158.242-1.784m15.673-4.976c.733-.227,1.177-1.334,1.074-2.478-.557.084-.908.341-.919.948,0,.266-.118.527-.149.793a6.58,6.58,0,0,0-.006.737m-12.427,3.574c-.894.315-.894.315-.792,1.119a2.445,2.445,0,0,0,.1.6,2.273,2.273,0,0,0,.343.471c.177-.173.5-.342.5-.521a12.4,12.4,0,0,0-.154-1.673m27.773-6.108c.155.69.287,1.335.449,1.972a.652.652,0,0,0,.271.327,1.4,1.4,0,0,0,.39.12,1.007,1.007,0,0,0,.087-.346c-.052-.408-.168-.81-.191-1.218-.035-.583-.4-.768-1.006-.855m-32.646,8.133c-.443.247-.88.225-.958.7-.072.436-.169.87-.223,1.308a1.96,1.96,0,0,0,.075.519c.187-.1.383-.188.559-.3a.414.414,0,0,0,.141-.244c.133-.612.255-1.228.406-1.974m20.1-8.808c-.915.285-.913.286-.978,1.058-.022.267-.089.535-.089.8a2.632,2.632,0,0,0,.121.568c.194-.126.393-.243.578-.38a.344.344,0,0,0,.107-.21c.089-.592.17-1.188.261-1.839m10.9-.044c.087.636.14,1.219.259,1.789a1.048,1.048,0,0,0,.39.521c.232.183.445.137.433-.206-.015-.363-.07-.724-.1-1.086-.07-.737-.122-.8-.979-1.018m-3.229-1.408a10.551,10.551,0,0,0-.207,1.621c0,.193.311.494.529.548.352.082.35-.264.381-.517.041-.327.128-.653.137-.98a.591.591,0,0,0-.219-.424,2.667,2.667,0,0,0-.621-.248m-4.44.079c-.882.258-.884.258-.795,1.029a2.539,2.539,0,0,0,.1.65,2.6,2.6,0,0,0,.357.519c.183-.195.514-.384.52-.584a10.256,10.256,0,0,0-.187-1.614m-16.868,7.5c-.9.25-.9.25-.729,1.07a4.383,4.383,0,0,0,.154.691c.057.145.2.332.323.352a.542.542,0,0,0,.438-.215.911.911,0,0,0,.114-.577c-.067-.434-.192-.859-.3-1.321m22.924-6.857c0,.559-.022,1.108.012,1.652a.848.848,0,0,0,.27.485.542.542,0,0,0,.421.137c.084-.017.171-.22.185-.346.027-.3.014-.6.015-.9,0-.8,0-.8-.9-1.027m-7.665.067c-.851.156-.919.233-.919.985a7.131,7.131,0,0,0,.011.853c.018.15.135.407.21.408a.732.732,0,0,0,.487-.213.884.884,0,0,0,.2-.517c.026-.5.01-1.006.01-1.516m-18.513,8.185c-.876.2-.88.2-.88,1,0,.286-.02.574.008.855.014.141.1.37.18.386a.65.65,0,0,0,.464-.147.625.625,0,0,0,.218-.406c.024-.561.01-1.124.01-1.69m22.367-11.607a6.954,6.954,0,0,1-.646.361c-2.335,1-4.674,1.983-7.006,2.982a2.859,2.859,0,0,0-.509.37l.084.1c.149-.058.3-.113.446-.176q3.481-1.476,6.965-2.958a1.678,1.678,0,0,1,1.412-.012c2.313,1.007,4.638,1.982,6.961,2.965.123.052.253.087.381.13.022-.042.045-.084.068-.126a3.861,3.861,0,0,0-.525-.337q-3.522-1.509-7.049-3.006c-.2-.087-.4-.2-.582-.3m22.655,14.606c0,1.3,0,2.5.008,3.705a.345.345,0,0,0,.164.252c.4.194.818.364,1.28.565,0-1.272,0-2.477-.005-3.68a.352.352,0,0,0-.137-.276c-.4-.191-.813-.355-1.31-.566m-9.963-4.4c0,1.339,0,2.558.007,3.779a.341.341,0,0,0,.156.255c.416.2.845.368,1.3.56,0-1.234,0-2.4-.008-3.576,0-.156-.054-.389-.163-.449-.374-.208-.783-.354-1.288-.569M200,211.615c-.474.2-.863.343-1.233.525a.457.457,0,0,0-.228.325c-.017,1.229-.01,2.458-.01,3.743.454-.2.859-.362,1.237-.567a.538.538,0,0,0,.224-.4c.02-.84.01-1.683.01-2.523Zm-4.671,2.061h.008c0,.3-.007.605,0,.906.012.37.229.477.557.357.379-.141.744-.315,1.119-.467a.983.983,0,0,0,.642-.885,16.063,16.063,0,0,0,.005-1.714c-.016-.357-.224-.52-.6-.374-.24.094-.467.229-.714.3a1.279,1.279,0,0,0-1.024,1.546,2.842,2.842,0,0,1,0,.333m44.745,4.273h0a3.061,3.061,0,0,0-.019-.9,1.549,1.549,0,0,0-.522-.787,7.391,7.391,0,0,0-1.234-.547c-.314-.135-.466.023-.532.289-.406,1.668,0,2.457,1.6,3.117.045.019.091.035.137.052.385.134.544.04.567-.369.017-.284,0-.57,0-.856m-9.962-4.416c.266-1.134-.283-1.749-1.353-2.036a2.709,2.709,0,0,1-.312-.13c-.444-.175-.641-.059-.652.413a8.121,8.121,0,0,0,.022,1.614,1.518,1.518,0,0,0,.561.867,5.645,5.645,0,0,0,1.189.531c.359.15.527-.01.542-.355.014-.3,0-.6,0-.9m-5.485-2.337a2.846,2.846,0,0,0-.015-.806,1.618,1.618,0,0,0-.48-.823,5.455,5.455,0,0,0-1.276-.574c-.318-.118-.549-.019-.549.363a17.312,17.312,0,0,0,.025,1.809,1.054,1.054,0,0,0,.429.693,6.591,6.591,0,0,0,1.324.589c.335.12.532-.043.541-.4.006-.285,0-.572,0-.856m7.639,3.4c-.29,1.185.3,1.8,1.407,2.1.108.03.205.1.313.133.393.127.589,0,.6-.412a9.087,9.087,0,0,0-.019-1.617,1.419,1.419,0,0,0-.5-.85,4.944,4.944,0,0,0-1.231-.556c-.351-.128-.571,0-.566.394,0,.27,0,.541,0,.81m-31.43-3.134a3.277,3.277,0,0,0,.02.806c.035.15.322.389.414.358a7.576,7.576,0,0,0,1.5-.663.979.979,0,0,0,.364-.68,15.4,15.4,0,0,0,.015-1.759c-.011-.4-.2-.522-.565-.368-1.633.693-1.8.535-1.745,2.306m8.789-.245c.6-.27,1.111-.494,1.615-.741a.393.393,0,0,0,.2-.279c.015-1.119.01-2.24.01-3.437-.585.249-1.107.454-1.608.7a.5.5,0,0,0-.205.383c-.017,1.093-.01,2.187-.01,3.375m6.209.038c0-1.224,0-2.378-.006-3.531a.364.364,0,0,0-.14-.281c-.527-.251-1.066-.48-1.679-.749,0,1.265,0,2.406.008,3.547a.388.388,0,0,0,.173.295c.52.245,1.053.464,1.644.719m-24.67,8.274c.6-.267,1.14-.506,1.675-.762a.291.291,0,0,0,.139-.224c.008-1.171.006-2.344.006-3.613-.6.26-1.134.479-1.653.727a.406.406,0,0,0-.159.312c-.012,1.16-.008,2.318-.008,3.56M208.5,208.259c-1.019.436-1.909.815-2.795,1.2a.312.312,0,0,0-.173.209c-.013.7-.008,1.4-.008,2.185.964-.412,1.842-.778,2.709-1.165a.475.475,0,0,0,.255-.319c.024-.659.012-1.32.012-2.112m8.454.018c0,.71-.021,1.358.017,2,.008.141.2.326.354.4.749.343,1.514.657,2.275.973a1.448,1.448,0,0,0,.353.045c0-.63-.011-1.217,0-1.8a.54.54,0,0,0-.387-.581c-.736-.3-1.462-.617-2.194-.923a3.4,3.4,0,0,0-.422-.108M190,216.451c-.842.356-1.557.7-2.3.96a.892.892,0,0,0-.718,1.063,7.537,7.537,0,0,1,.007.81c.008.224.031.448.053.752.976-.416,1.852-.786,2.721-1.171a.418.418,0,0,0,.228-.282c.019-.674.01-1.349.01-2.132m14.1-10.8-9.933,4.233c.051.261.1.47.14.7.146-.078.268-.154.4-.21,3-1.279,6-2.573,9.012-3.821.486-.2.46-.467.381-.9M185.756,216.91c-.731-.025-.764-.094-.6-.747.193-.783.32-1.581.545-2.353a1.062,1.062,0,0,1,.564-.564c2.166-.944,4.345-1.86,6.518-2.784.173-.073.344-.155.515-.234l-.039-.175a2.863,2.863,0,0,0-.486.11c-2.1.887-4.2,1.783-6.3,2.668a4.549,4.549,0,0,1-.675.177,2.955,2.955,0,0,1-.1-.776.687.687,0,0,1,.354-.446c2.641-1.14,5.292-2.259,7.936-3.391a1.248,1.248,0,0,0,.474-.36c1.446-1.88,2.892-3.763,4.312-5.662a.714.714,0,0,1,1.061-.26c.713.37,1.46.677,2.329,1.073,0-.392,0-.682,0-.973a1.326,1.326,0,0,1,1.292-1.27c.351,0,.351.287.354.521.013.7,0,1.4.014,2.1a1.971,1.971,0,0,0,.1.445,9.864,9.864,0,0,1,1.027-.6c2.331-1,4.672-1.979,7-2.984a1.958,1.958,0,0,1,1.693-.006c2.338,1.026,4.7,2,7.047,3,.162.069.314.162.471.243l.335.178a1.48,1.48,0,0,0,.118-.387c.013-.684,0-1.368.008-2.053.008-.606.182-.718.737-.491.877.358.932.441.936,1.384,0,.2.017.4.033.714.452-.208.812-.372,1.171-.538.4-.181.811-.334,1.186-.551.424-.245.679-.111.94.237,1.245,1.651,2.5,3.294,3.756,4.938.253.332.5.667.764.991a.955.955,0,0,0,.267.164c.055-.1.158-.2.161-.308.014-.7,0-1.4.011-2.1,0-.671.161-.751.784-.533a1.127,1.127,0,0,1,.892,1.33,5.21,5.21,0,0,0,.028.751c.481-.215.872-.387,1.261-.566s.777-.328,1.142-.534c.415-.235.652-.063.894.257q1.725,2.283,3.467,4.555c.631.829,1.275,1.649,1.885,2.494a2.762,2.762,0,0,1,.261.735c-.059.052-.119.1-.179.154l-20.671-9.024v.748c3.125,1.329,6.295,2.566,9.353,4.025,1.588.756,3.215,1.417,4.814,2.142,1.621.736,3.263,1.424,4.914,2.093a1.178,1.178,0,0,1,.843,1.272c-.033,2.019-.011,4.04-.013,6.06,0,.64-.1.677-.711.473-4.705-1.588-9.123-3.83-13.683-5.749s-9.093-3.926-13.629-5.91a1.359,1.359,0,0,0-1.228.01q-13.2,5.97-26.417,11.914c-.242.109-.514.32-.6-.154l.055-.08c.665-.173.738-.628.719-1.225-.043-1.38-.014-2.761-.014-4.177" transform="translate(674.949 -16956.945)" fill="#fff"/><path d="M212.751,399.214c18.66,0,33.786-15.532,33.786-34.692s-15.126-34.69-33.786-34.69-33.786,15.531-33.786,34.69,15.126,34.692,33.786,34.692" transform="translate(674.949 -16956.945)" fill="#3a5121"/><text transform="translate(881.294 -16787.092)" fill="#fff" font-size="7.233" font-family="DaxOT, Dax OT"><tspan x="0" y="0" letter-spacing="-0.011em">P</tspan><tspan y="0">ark</tspan></text><text transform="translate(880.414 -16713.734)" fill="#fff" font-size="7.233" font-family="DaxOT, Dax OT"><tspan x="0" y="0" letter-spacing="0.006em">P</tspan><tspan y="0">lein</tspan></text><text transform="translate(864.991 -16645.477)" fill="#fff" font-size="7.233" font-family="DaxOT, Dax OT"><tspan x="0" y="0">Zitmogelijkheid</tspan></text><text transform="translate(876.594 -16570.969)" fill="#fff" font-size="7.233" font-family="DaxOT, Dax OT"><tspan x="0" y="0">Horeca</tspan></text><path d="M214.943,340.888l-.858,1.589-.115.207a.873.873,0,0,1-.5.414l-.411.107-1.832,3.807a.522.522,0,0,1-.738.231l-.046-.032a.537.537,0,0,1-.174-.759l2.35-3.507-.115-.416a.871.871,0,0,1,.107-.644l.113-.207.936-1.551a.161.161,0,0,1,.182-.069.165.165,0,0,1,.092.232l-.814,1.5a.1.1,0,0,0,.038.138.107.107,0,0,0,.137-.038l.882-1.467a.16.16,0,0,1,.182-.068.164.164,0,0,1,.092.231s-.631,1.166-.813,1.5a.1.1,0,0,0,.037.137.106.106,0,0,0,.137-.038c.2-.322.882-1.465.882-1.465a.16.16,0,0,1,.244-.039.131.131,0,0,1,.006.2m-2.813,2.3-.4.6-.235-.476-.115.062a.613.613,0,0,1-.889-.314l-.874-2.257a.61.61,0,0,1,.258-.745.193.193,0,0,1,.259.063l1.209,1.864Zm.29,2,.433-.9,1.422,2.163a.536.536,0,0,1-.174.762l-.046.03a.528.528,0,0,1-.738-.23Zm15.708.807v-4.647c0-.9-.389-1.725-.894-1.725H197.325c-.467,0-.893.749-.893,1.725V346c.038.975.426,1.725.893,1.725h29.909c.466,0,.894-.75.894-1.725" transform="translate(674.949 -16956.945)" fill="#fff"/><path d="M225.991,359.358a2.3,2.3,0,0,1-2.214-1.567l-.116-.534-1.166-4.631h3.651l1.166,4.631.117.534c.233.866-.428,1.567-1.438,1.567m-5.011-1.567c.2.866-.544,1.567-1.553,1.567a2.12,2.12,0,0,1-2.1-1.567l-.077-.534-.778-4.631h3.652l.777,4.631Zm-6.874.033a1.847,1.847,0,0,1-3.652,0v-5.2h3.652v5.2Zm-5.983-5.2-.777,4.631-.077.534a2.12,2.12,0,0,1-2.1,1.567c-1.01,0-1.709-.7-1.554-1.567l.078-.534.777-4.631Zm-6.137,0-1.165,4.631-.117.534a2.3,2.3,0,0,1-2.214,1.567c-1.01,0-1.67-.7-1.437-1.567l.117-.534,1.164-4.631Zm-.911,11.406a.8.8,0,0,1,.79-.8h9.958a.8.8,0,0,1,.79.8V369.7a.8.8,0,0,1-.79.8h-9.958a.8.8,0,0,1-.79-.8Zm29.5-6.841-2.408-5.741a.487.487,0,0,1-.039-.191v-1.567a.846.846,0,0,0-.894-.767H197.325a.847.847,0,0,0-.893.767v1.7a.491.491,0,0,1-.039.188l-2.332,5.608a1.206,1.206,0,0,0,.971,1.5,1.91,1.91,0,0,0,.834.078.645.645,0,0,1,.8.549v14.741a.846.846,0,0,0,.893.766h18.376a.616.616,0,0,0,.657-.564V362.988a.615.615,0,0,1,.657-.563h5.833a.615.615,0,0,1,.657.563v11.273a.616.616,0,0,0,.657.564h2.878a.848.848,0,0,0,.894-.766V359.333a.636.636,0,0,1,.743-.557,1.915,1.915,0,0,0,.733-.085c.738-.233,1.2-.9.932-1.5" transform="translate(674.949 -16956.945)" fill="#fff"/><path d="M276.173,126.476h25.192a.751.751,0,0,0,.752-.733v-1.978a.751.751,0,0,0-.752-.734H276.173a.753.753,0,0,0-.753.734v1.978a.775.775,0,0,0,.753.733" transform="translate(674.949 -16956.945)" fill="#fff"/><path d="M300.318,137.609a1.976,1.976,0,0,1-1.865-1.5l-.1-.51-.981-4.434h3.075l.982,4.434.1.51a1.178,1.178,0,0,1-1.212,1.5m-4.22-1.5a1.254,1.254,0,0,1-1.309,1.5,1.837,1.837,0,0,1-1.767-1.5l-.065-.51-.654-4.434h3.075l.654,4.434Zm-5.79.032a1.539,1.539,0,0,1-3.077,0v-4.976h3.077v4.976Zm-5.04-4.976-.654,4.434-.065.51a1.837,1.837,0,0,1-1.768,1.5,1.268,1.268,0,0,1-1.308-1.5l.066-.51.654-4.434Zm-4.726,10.152h7.3a1.2,1.2,0,0,1,1.209,1.18v4.6a1.2,1.2,0,0,1-1.209,1.18h-7.3a1.2,1.2,0,0,1-1.21-1.18v-4.6a1.2,1.2,0,0,1,1.21-1.18m-.444-10.152-.98,4.434-.1.51a1.973,1.973,0,0,1-1.864,1.5,1.177,1.177,0,0,1-1.211-1.5l.1-.51.982-4.434Zm24.081,4.37-2.029-5.495a.529.529,0,0,1-.033-.182v-1.5a.751.751,0,0,0-.752-.734H276.173a.752.752,0,0,0-.753.734v1.629a.523.523,0,0,1-.032.181l-1.964,5.368a1.167,1.167,0,0,0,.818,1.436,1.44,1.44,0,0,0,.7.072.559.559,0,0,1,.673.526v14.108a.751.751,0,0,0,.752.733h15.478a.546.546,0,0,0,.553-.539V141.084a.548.548,0,0,1,.555-.54h4.912a.547.547,0,0,1,.554.54v10.788a.547.547,0,0,0,.552.539H301.4a.751.751,0,0,0,.752-.733V137.586a.552.552,0,0,1,.627-.532,1.508,1.508,0,0,0,.617-.082,1.147,1.147,0,0,0,.785-1.436" transform="translate(674.949 -16956.945)" fill="#fff"/><path d="M299,219.206a1.536,1.536,0,0,1-1.536,1.527h-3.505a1.535,1.535,0,0,1-1.535-1.527V215.35a1.536,1.536,0,0,1,1.535-1.527h3.505A1.536,1.536,0,0,1,299,215.35Zm-15.06,0a1.535,1.535,0,0,1-1.535,1.527h-3.5a1.535,1.535,0,0,1-1.536-1.527V215.35a1.536,1.536,0,0,1,1.536-1.527h3.5a1.536,1.536,0,0,1,1.535,1.527Zm18.049,6.361V210.253a1.131,1.131,0,0,0-1.134-1.129H275.659a1.131,1.131,0,0,0-1.134,1.129v15.314a1.13,1.13,0,0,0,1.134,1.127H284.9a1.129,1.129,0,0,0,1.134-1.127v-8.3a.358.358,0,0,1,.357-.356h3.49a.357.357,0,0,1,.356.356v8.3a1.131,1.131,0,0,0,1.135,1.127h9.484a1.13,1.13,0,0,0,1.134-1.127" transform="translate(674.949 -16956.945)" fill="#fff"/><path d="M275.8,203.065v-5.913a1.131,1.131,0,0,1,1.133-1.129h2.049a1.131,1.131,0,0,1,1.134,1.129v2.173a.358.358,0,0,0,.571.285l7.089-5.257a.789.789,0,0,1,.942-.013l15.547,11.537a.775.775,0,0,1-.442,1.413h-31.14a.774.774,0,0,1-.467-1.394l3.439-2.545a.355.355,0,0,0,.145-.286" transform="translate(674.949 -16956.945)" fill="#fff"/><text transform="translate(950.592 -16787.092)" fill="#fff" font-size="6.987" font-family="DaxOT, Dax OT"><tspan x="0" y="0" letter-spacing="-0.012em">W</tspan><tspan y="0" letter-spacing="-0.011em">inkel</tspan><tspan y="0">s</tspan></text><text transform="translate(950.772 -16713.732)" fill="#fff" font-size="7.233" font-family="DaxOT, Dax OT"><tspan x="0" y="0" letter-spacing="0.006em">Wone</tspan><tspan y="0">n</tspan></text><text transform="translate(949.113 -16645.475)" fill="#fff" font-size="7.233" font-family="DaxOT, Dax OT"><tspan x="0" y="0">Kantoren</tspan></text><path d="M288.808,399.214c18.66,0,33.786-15.531,33.786-34.692s-15.126-34.69-33.786-34.69-33.786,15.532-33.786,34.69,15.126,34.692,33.786,34.692" transform="translate(674.949 -16956.945)" fill="#3a5121"/><path d="M308.392,366.284a1.289,1.289,0,0,1-1.282,1.291h-2.92a1.289,1.289,0,0,1-1.282-1.291v-3.262a1.29,1.29,0,0,1,1.282-1.292h2.92a1.29,1.29,0,0,1,1.282,1.292Zm-12.559,0a1.289,1.289,0,0,1-1.28,1.291h-2.922a1.29,1.29,0,0,1-1.281-1.291v-3.262a1.29,1.29,0,0,1,1.281-1.292h2.922a1.29,1.29,0,0,1,1.28,1.292Zm15.051,5.382V358.707a.949.949,0,0,0-.946-.954H288.93a.95.95,0,0,0-.946.954v12.959a.951.951,0,0,0,.946.954h7.7a.95.95,0,0,0,.946-.954v-7.025a.3.3,0,0,1,.3-.3h2.91a.3.3,0,0,1,.3.3v7.025a.95.95,0,0,0,.946.954h7.908a.95.95,0,0,0,.946-.954" transform="translate(674.949 -16956.945)" fill="#fff"/><path d="M289.048,352.626v-5a.951.951,0,0,1,.947-.955H291.7a.95.95,0,0,1,.946.955v1.839a.3.3,0,0,0,.476.241l5.912-4.448a.649.649,0,0,1,.786-.011l12.965,9.762a.658.658,0,0,1-.368,1.2H288.261c-.622,0-1.768-1.5-1.268-1.881l1.936-1.453a.3.3,0,0,0,.119-.241" transform="translate(674.949 -16956.945)" fill="#fff"/><path d="M265.515,350.817h20.464a.622.622,0,0,0,.611-.621v-1.673a.623.623,0,0,0-.611-.621H265.515a.623.623,0,0,0-.611.621V350.2a.64.64,0,0,0,.611.621" transform="translate(674.949 -16956.945)" fill="#fff"/><path d="M285.128,360.236a1.621,1.621,0,0,1-1.515-1.269l-.079-.433-.8-3.75h2.5l.8,3.75.08.433a.986.986,0,0,1-.984,1.269m-3.429-1.269a1.046,1.046,0,0,1-1.062,1.269,1.512,1.512,0,0,1-1.436-1.269l-.053-.433-.532-3.75h2.5l.531,3.75Zm-4.7.027a1.25,1.25,0,1,1-2.5,0v-4.21H277v4.21Zm-4.093-4.21-.532,3.75-.053.433a1.509,1.509,0,0,1-1.434,1.269,1.059,1.059,0,0,1-1.064-1.269l.053-.433.532-3.75Zm-4.182,8.588h6.614a.646.646,0,0,1,.641.648v4.591a.646.646,0,0,1-.641.646h-6.614a.645.645,0,0,1-.64-.646V364.02a.646.646,0,0,1,.64-.648m-.017-8.588-.8,3.75-.079.433a1.62,1.62,0,0,1-1.515,1.269.985.985,0,0,1-.982-1.269l.079-.433.8-3.75Zm19.56,3.7-1.647-4.647a.452.452,0,0,1-.028-.155V352.41a.622.622,0,0,0-.609-.621H265.514a.623.623,0,0,0-.61.621v1.379a.448.448,0,0,1-.027.152l-1.6,4.54a.993.993,0,0,0,.665,1.215,1.121,1.121,0,0,0,.57.062.458.458,0,0,1,.547.444v11.934a.623.623,0,0,0,.611.621h12.572a.453.453,0,0,0,.449-.457v-9.126a.453.453,0,0,1,.45-.455h3.992a.452.452,0,0,1,.449.455V372.3a.453.453,0,0,0,.449.457h1.969a.623.623,0,0,0,.612-.621V360.215a.455.455,0,0,1,.509-.45,1.149,1.149,0,0,0,.5-.069.975.975,0,0,0,.638-1.215" transform="translate(674.949 -16956.945)" fill="#fff"/><text transform="translate(945.735 -16572.043)" fill="#fff" font-size="7.233" font-family="DaxOT, Dax OT"><tspan x="0" y="0">Combinatie</tspan></text><text transform="translate(1021.874 -16787.086)" fill="#fff" font-size="7.233" font-family="DaxOT, Dax OT"><tspan x="0" y="0">Gemengd</tspan></text><text transform="translate(1019.16 -16713.73)" fill="#fff" font-size="7.233" font-family="DaxOT, Dax OT"><tspan x="0" y="0">Gescheiden</tspan></text><text transform="translate(1107.201 -16787.092)" fill="#fff" font-size="7.233" font-family="DaxOT, Dax OT"><tspan x="0" y="0" letter-spacing="-0.027em">W</tspan><tspan y="0">el</tspan></text><text transform="translate(1253.885 -16787.092)" fill="#fff" font-size="7.233" font-family="DaxOT, Dax OT"><tspan x="0" y="0" letter-spacing="-0.028em">T</tspan><tspan y="0" letter-spacing="-0.005em">r</tspan><tspan y="0">am</tspan></text><text transform="translate(1325.259 -16713.734)" fill="#fff" font-size="7.233" font-family="DaxOT, Dax OT"><tspan x="0" y="0">Bomen</tspan></text><text transform="translate(1319.897 -16787.092)" fill="#fff" font-size="7.233" font-family="DaxOT, Dax OT"><tspan x="0" y="0">Bepla</tspan><tspan y="0" letter-spacing="-0.005em">n</tspan><tspan y="0">ting</tspan></text><text transform="translate(1390.565 -16787.092)" fill="#fff" font-size="7.233" font-family="DaxOT, Dax OT"><tspan x="0" y="0">Sha</tspan><tspan y="0" letter-spacing="-0.012em">r</tspan><tspan y="0">ed </tspan></text><text transform="translate(1413.503 -16787.092)" fill="#fff" font-size="7.233" font-family="DaxOT, Dax OT"><tspan x="0" y="0">spa</tspan><tspan y="0" letter-spacing="-0.015em">c</tspan><tspan y="0">e</tspan></text><path d="M375.892,143.342a.594.594,0,0,0-.6.593v8.741a.6.6,0,0,0,1.192,0v-8.741a.6.6,0,0,0-.6-.593" transform="translate(674.949 -16956.945)" fill="#fff"/><path d="M375.534,141.322h-1.887a8.451,8.451,0,0,0-.706,4.624c.017.536.036,1.088.028,1.667a.771.771,0,0,0,.761.781h.012a.772.772,0,0,0,.773-.757c.009-.617-.011-1.188-.028-1.742-.063-1.883-.11-3.272,1.047-4.573" transform="translate(674.949 -16956.945)" fill="#fff"/><path d="M378.171,141.322h-1.664c.382.8,1.137,3.252.794,7.783a.772.772,0,0,0,.713.825h.059a.773.773,0,0,0,.771-.711,24.126,24.126,0,0,0-.249-6.263,12.007,12.007,0,0,0-.424-1.635" transform="translate(674.949 -16956.945)" fill="#fff"/><path d="M378.757,139.608h-5.729a13.367,13.367,0,0,1,.569-4.624c.056-.16.114-.313.176-.46v4.4h.008v.227h4.183v-.227h.007v-4.463q.112.255.21.534a13.2,13.2,0,0,1,.576,4.613m1.974,0h-.515c.105-3.965-.941-6.975-2.832-8.1a2.867,2.867,0,0,0-3.006,0c-1.877,1.116-2.916,4.128-2.808,8.1h-.515a.593.593,0,1,0,0,1.186h9.676a.593.593,0,1,0,0-1.186" transform="translate(674.949 -16956.945)" fill="#fff"/><path d="M375.892,126.341a2.114,2.114,0,1,1-2.126,2.114,2.12,2.12,0,0,1,2.126-2.114" transform="translate(674.949 -16956.945)" fill="#fff"/><path d="M342.928,148.082c0,.034,0,.069,0,.1v3.194a1.357,1.357,0,0,0,1.357,1.348H345.4a1.358,1.358,0,0,0,1.359-1.348v-.992h-2.864c-.323,0-.691-1.018-.966-2.3" transform="translate(674.949 -16956.945)" fill="#fff"/><path d="M365.508,148.081c-.275,1.286-.643,2.306-.966,2.306h-2.864v.992a1.359,1.359,0,0,0,1.359,1.348h1.117a1.357,1.357,0,0,0,1.358-1.348v-3.193c0-.035,0-.07,0-.105" transform="translate(674.949 -16956.945)" fill="#fff"/><path d="M354.217,134.413h0c-4.266,0-5.793.081-6.882.752a13.661,13.661,0,0,0-2.493,3.536l-.036.037a.59.59,0,0,0-.552-.377h-2.015c-.752,0-.855.73-.855,1.13v0a1.989,1.989,0,0,0,.015.254.644.644,0,0,0,.618.535h.869l.091-.01v0c.407,0,.782.185.639.747a14.975,14.975,0,0,0-1,2.388,13.388,13.388,0,0,0,.308,4.673c.274,1.287.643,2.3.966,2.3h20.648c.323,0,.691-1.019.966-2.3a13.289,13.289,0,0,0,.307-4.673,14.729,14.729,0,0,0-.995-2.39c-.142-.56.232-.745.64-.745v0l.089.01h.872a.644.644,0,0,0,.617-.535,2.159,2.159,0,0,0,.014-.226v-.056c0-.4-.12-1.1-.856-1.1h-2.014a.589.589,0,0,0-.552.377l-.035-.035a13.641,13.641,0,0,0-2.494-3.538c-1.088-.671-2.616-.752-6.884-.752m-1,1.352q.47,0,1,0c.352,0,.684,0,1,0,3.213.015,4.476.12,5.169.546a17.916,17.916,0,0,1,2.269,3.473,55.563,55.563,0,0,1-16.87,0,17.647,17.647,0,0,1,2.3-3.5c.662-.4,1.92-.507,5.131-.522m8.168,9.072a2.612,2.612,0,0,1-1.2-.161c-.235-.26.207-1.7,1.685-2.632a3.43,3.43,0,0,1,1.438-.468.555.555,0,0,1,.431.149c.358.4.64,2.195.059,2.688a5.122,5.122,0,0,1-2.414.424m-14.329,0a5.127,5.127,0,0,1-2.415-.424c-.582-.493-.3-2.283.058-2.688a.559.559,0,0,1,.431-.149,3.42,3.42,0,0,1,1.439.468c1.478.936,1.92,2.372,1.686,2.632a2.621,2.621,0,0,1-1.2.161m4.645,3.192c-1.027,0-1.627-.3-1.748-.674s.149-.675.6-.675h7.327c.455,0,.727.3.6.675s-.694.674-1.748.674Z" transform="translate(674.949 -16956.945)" fill="#fff"/><text transform="translate(1394.676 -16713.734)" fill="#fff" font-size="7.233" font-family="DaxOT, Dax OT"><tspan x="0" y="0">Fi</tspan><tspan y="0" letter-spacing="-0.003em">e</tspan><tspan y="0">t</tspan><tspan y="0" letter-spacing="-0.009em">s</tspan><tspan y="0" letter-spacing="-0.005em">s</tspan><tspan y="0">t</tspan><tspan y="0" letter-spacing="-0.005em">r</tspan><tspan y="0">a</tspan><tspan y="0" letter-spacing="-0.005em">a</tspan><tspan y="0">t</tspan></text><path d="M377.742,215.248H376.05a7.592,7.592,0,0,0-.632,4.144c.016.479.033.975.025,1.495a.691.691,0,0,0,.683.7h.01a.69.69,0,0,0,.692-.677c.009-.553-.008-1.066-.025-1.563-.057-1.685-.1-2.931.939-4.1" transform="translate(674.949 -16956.945)" fill="#fff"/><path d="M380.105,215.248h-1.491c.343.718,1.019,2.914.71,6.974a.692.692,0,0,0,.64.739l.053,0a.692.692,0,0,0,.69-.637,21.573,21.573,0,0,0-.223-5.614,10.522,10.522,0,0,0-.379-1.464" transform="translate(674.949 -16956.945)" fill="#fff"/><path d="M345.823,221.306c0,.031,0,.061,0,.093v2.862a1.216,1.216,0,0,0,1.217,1.207h1a1.217,1.217,0,0,0,1.217-1.207v-.89h-2.565c-.29,0-.621-.911-.866-2.065" transform="translate(674.949 -16956.945)" fill="#fff"/><path d="M366.057,221.3c-.246,1.153-.576,2.066-.867,2.066h-2.565v.889a1.216,1.216,0,0,0,1.217,1.208h1a1.215,1.215,0,0,0,1.217-1.208V221.4c0-.032,0-.062,0-.093" transform="translate(674.949 -16956.945)" fill="#fff"/><path d="M355.939,209.058h0c-3.824,0-5.192.07-6.167.673a12.271,12.271,0,0,0-2.234,3.168l-.032.034a.53.53,0,0,0-.494-.338H345.2c-.673,0-.765.655-.765,1.014h0a1.786,1.786,0,0,0,.013.226.575.575,0,0,0,.554.48h.778l.081-.009v0c.364,0,.7.166.573.667a13.234,13.234,0,0,0-.891,2.143,11.91,11.91,0,0,0,.275,4.186c.246,1.153.576,2.066.865,2.066h18.5c.29,0,.62-.913.866-2.067a11.955,11.955,0,0,0,.275-4.185,13.388,13.388,0,0,0-.891-2.144c-.128-.5.207-.666.571-.666v0l.082.009h.78a.575.575,0,0,0,.553-.48,1.609,1.609,0,0,0,.013-.2v-.051c-.005-.363-.107-.989-.767-.989h-1.8a.529.529,0,0,0-.495.338l-.032-.032a12.227,12.227,0,0,0-2.235-3.17c-.975-.6-2.343-.673-6.168-.673m-.9,1.211c.282,0,.582,0,.9,0s.614,0,.9,0c2.879.013,4.011.107,4.632.49a16.054,16.054,0,0,1,2.034,3.11,49.674,49.674,0,0,1-15.118,0,15.876,15.876,0,0,1,2.061-3.134c.594-.363,1.723-.456,4.6-.469m7.32,8.129a2.324,2.324,0,0,1-1.074-.145c-.211-.233.185-1.519,1.51-2.358a3.062,3.062,0,0,1,1.29-.42.491.491,0,0,1,.385.136c.32.362.573,1.965.052,2.406a4.579,4.579,0,0,1-2.163.381m-12.84,0a4.586,4.586,0,0,1-2.164-.381c-.521-.441-.268-2.044.051-2.406a.5.5,0,0,1,.387-.136,3.067,3.067,0,0,1,1.29.42c1.324.839,1.719,2.125,1.51,2.358a2.328,2.328,0,0,1-1.074.145m4.162,2.86c-.921,0-1.457-.271-1.567-.6s.135-.6.541-.6h6.568c.406,0,.65.272.54.6s-.623.6-1.567.6Z" transform="translate(674.949 -16956.945)" fill="#fff"/><path d="M378.063,217.058a.533.533,0,0,0-.534.532v7.834a.534.534,0,0,0,1.068,0V217.59a.533.533,0,0,0-.534-.532" transform="translate(674.949 -16956.945)" fill="#fff"/><path d="M380.63,213.713H375.5a11.932,11.932,0,0,1,.51-4.143c.049-.143.1-.282.158-.414V213.1h.006v.2h3.75v-.2h.006v-4q.1.229.188.478a11.854,11.854,0,0,1,.516,4.135m1.769,0h-.462c.094-3.554-.843-6.252-2.537-7.259a2.563,2.563,0,0,0-2.694,0c-1.683,1-2.613,3.7-2.516,7.26h-.463a.531.531,0,1,0,0,1.062H382.4a.531.531,0,1,0,0-1.062" transform="translate(674.949 -16956.945)" fill="#fff"/><path d="M378.063,201.823a1.895,1.895,0,1,1-1.9,1.894,1.9,1.9,0,0,1,1.9-1.894" transform="translate(674.949 -16956.945)" fill="#fff"/><path d="M371.862,229.544v-.2H340.216V198.08h31.448v31.464h.2v0h.2V197.683H339.818v32.06H372.06v-.2Z" transform="translate(674.949 -16956.945)" fill="#fff"/><path d="M384.264,229.544v-.2h-12.2V198.08h12v31.464h.2v0h.2V197.683h-12.8v32.06h12.8v-.2Z" transform="translate(674.949 -16956.945)" fill="#fff"/><path d="M424.132,155.535c0,.04,0,.081,0,.123v3.833a1.631,1.631,0,0,0,1.633,1.617h1.345a1.632,1.632,0,0,0,1.634-1.617V158.3h-3.445c-.389,0-.832-1.222-1.162-2.764" transform="translate(674.949 -16956.945)" fill="#fff"/><path d="M451.292,155.533c-.331,1.544-.774,2.767-1.163,2.767h-3.444v1.19a1.634,1.634,0,0,0,1.635,1.619h1.343a1.632,1.632,0,0,0,1.634-1.619v-3.831c0-.044,0-.085-.005-.126" transform="translate(674.949 -16956.945)" fill="#fff"/><path d="M437.712,139.131h0c-5.134,0-6.969.1-8.279.9-.631.386-1.848,2.219-3,4.243l-.043.044a.714.714,0,0,0-.664-.453H423.3c-.9,0-1.028.877-1.028,1.357v0a2.455,2.455,0,0,0,.017.3.773.773,0,0,0,.744.643h1.045l.109-.012v0c.489,0,.941.223.769.9a17.939,17.939,0,0,0-1.2,2.867,15.963,15.963,0,0,0,.37,5.607c.33,1.544.773,2.766,1.162,2.766H450.13c.388,0,.832-1.223,1.162-2.767a15.933,15.933,0,0,0,.369-5.606,17.851,17.851,0,0,0-1.2-2.868c-.171-.671.279-.894.768-.894v0l.108.012h1.048a.775.775,0,0,0,.743-.643,2.4,2.4,0,0,0,.017-.27v-.068c-.006-.485-.145-1.325-1.029-1.325H449.7a.713.713,0,0,0-.666.453l-.042-.042c-1.151-2.026-2.368-3.859-3-4.245-1.31-.806-3.146-.9-8.279-.9m-1.208,1.623,1.207,0,1.2,0c3.866.019,5.384.144,6.218.657a21.436,21.436,0,0,1,2.729,4.166,66.978,66.978,0,0,1-20.293,0,21.228,21.228,0,0,1,2.769-4.2c.795-.487,2.31-.609,6.17-.628m9.826,10.886a3.17,3.17,0,0,1-1.443-.193c-.281-.312.251-2.035,2.028-3.159a4.137,4.137,0,0,1,1.731-.56.664.664,0,0,1,.518.179c.428.485.769,2.632.07,3.224a6.172,6.172,0,0,1-2.9.509m-17.236,0a6.172,6.172,0,0,1-2.9-.509c-.7-.592-.359-2.739.07-3.224a.666.666,0,0,1,.518-.179,4.142,4.142,0,0,1,1.732.56c1.776,1.124,2.308,2.847,2.027,3.159a3.17,3.17,0,0,1-1.443.193m5.588,3.83c-1.236,0-1.956-.363-2.1-.809s.181-.809.727-.809h8.814c.546,0,.873.364.726.809s-.836.809-2.1.809Z" transform="translate(674.949 -16956.945)" fill="#fff"/><text transform="translate(1108.474 -16822.336)" fill="#fff" font-size="17.468" font-family="DaxOT, Dax OT"><tspan x="0" y="0">P</tspan></text><text transform="translate(1165.225 -16788.111)" fill="#fff" font-size="7.233" font-family="DaxOT, Dax OT"><tspan x="0" y="0" letter-spacing="-0.027em">Ver</tspan><tspan y="0" letter-spacing="-0.028em">k</tspan><tspan y="0" letter-spacing="-0.027em">eersli</tspan><tspan y="0" letter-spacing="-0.028em">c</tspan><tspan y="0" letter-spacing="-0.027em">h</tspan><tspan y="0" letter-spacing="-0.028em">t</tspan><tspan y="0" letter-spacing="-0.027em">e</tspan><tspan y="0">n</tspan></text><path d="M579.036,150.193l-4.626,5.63c-.359.437-.194.792.368.792H577.1a2.255,2.255,0,0,0,1.622-.83l4.052-5.592Zm19.025-19.951a1.855,1.855,0,0,1-2.038,1.582H579.966a1.854,1.854,0,0,1-2.038-1.582v-4.614c0-1.308,1.371-2.372,3.057-2.372H595c1.687,0,3.057,1.064,3.057,2.372Zm-18.47,10.194a1.592,1.592,0,1,1,1.592,1.583,1.589,1.589,0,0,1-1.592-1.583m13.156,0a1.592,1.592,0,1,1,1.592,1.583,1.588,1.588,0,0,1-1.592-1.583m7.352,5.639V126.342A5.121,5.121,0,0,0,595,121.2H580.985a5.12,5.12,0,0,0-5.095,5.145v19.733a2.559,2.559,0,0,0,2.547,2.574h19.114a2.56,2.56,0,0,0,2.548-2.574m1.48,9.748-4.627-5.63h-3.738l4.054,5.592a2.253,2.253,0,0,0,1.62.83h2.322c.563,0,.728-.355.369-.792" transform="translate(674.949 -16956.945)" fill="#fff"/><text transform="translate(1255.837 -16713.732)" fill="#fff" font-size="7.233" font-family="DaxOT, Dax OT"><tspan x="0" y="0">Bus</tspan></text><path d="M568.1,207.336v6.349a.8.8,0,0,1-.8.795h-2.251a.8.8,0,0,1-.807-.795v-5.74c0-1.975,1.681-3.007,3.5-3.007h3.928v2.4Z" transform="translate(674.949 -16956.945)" fill="#fff"/><path d="M605.548,207.336v6.349a.8.8,0,0,0,.807.795h2.251a.8.8,0,0,0,.8-.795v-5.74c0-1.975-1.681-3.007-3.5-3.007h-3.929v2.4Z" transform="translate(674.949 -16956.945)" fill="#fff"/><path d="M602.522,225.4a.8.8,0,0,1-.807.8h-4.972a.8.8,0,0,1-.8-.8v-1.988a.8.8,0,0,1,.8-.8h4.972a.8.8,0,0,1,.807.8Zm-9.389-.2a1.694,1.694,0,0,1-1.554.993h-9.515a1.7,1.7,0,0,1-1.553-.993c-.179-.549.222-1,.894-1H592.24c.673,0,1.077.447.893,1m-15.426.2a.8.8,0,0,1-.8.8h-4.975a.8.8,0,0,1-.8-.8v-1.988a.8.8,0,0,1,.8-.8H576.9a.8.8,0,0,1,.8.8Zm-3.827-22.97c1.589-1.141,8.436-1.2,12.943-1.2s11.355.057,12.942,1.2c1.629,1.173,1.629,13.436,0,14.608-1.587,1.142-8.437,1.195-12.942,1.2s-11.354-.057-12.943-1.2c-1.63-1.172-1.63-13.435,0-14.608m9.99-6.069h5.9a1.119,1.119,0,1,1,0,2.238h-5.9a1.119,1.119,0,1,1,0-2.238m19.843,20.322V199.742a5.8,5.8,0,0,0-4.534-5.457,73,73,0,0,0-24.709,0,5.805,5.805,0,0,0-4.538,5.457v16.944a1.961,1.961,0,0,0-1.035,1.7v9.367a2.042,2.042,0,0,0,2.083,1.986h31.682a2.047,2.047,0,0,0,2.089-1.986v-9.367a1.963,1.963,0,0,0-1.038-1.7" transform="translate(674.949 -16956.945)" fill="#fff"/><path d="M571.084,227.672v4.459a2,2,0,0,0,2.009,1.985h1.655a2.005,2.005,0,0,0,2.008-1.985v-4.459Z" transform="translate(674.949 -16956.945)" fill="#fff"/><path d="M596.893,227.672v4.459a2,2,0,0,0,2.007,1.985h1.655a2,2,0,0,0,2.006-1.985v-4.459Z" transform="translate(674.949 -16956.945)" fill="#fff"/><path d="M663.9,149.578a4.467,4.467,0,0,0-1.62-.132c2.973-10.457,6.807-14.9,13.075-18.955-5.538,3.019-7.606,4.944-10.472,9.433-1.549-10.749,5.448-8.535,12.044-11.062-2.421,6.183-.108,15.483-9.788,12.135a16.108,16.108,0,0,0-3.239,8.581m-6.039-9.966c-11.833-.347-8.468-5.151-11.807-10.863,7.731-.982,14.972.874,13.139,10.149,1.137,2.932,2.485,4.688,2.986,10.561a3.7,3.7,0,0,0-1.431.042c-.132-6.408-2.1-9.572-2.887-9.889m-.125,12.745c-3.175.059-4.48.85-5.571,3.4h21.093c.444-2.73-2.917-4.166-4.656-1.148-.9-5.783-10.24-5.662-10.866-2.25" transform="translate(674.949 -16956.945)" fill="#fff"/><path d="M709.882,144.635a.8.8,0,1,1,.785-.795.788.788,0,0,1-.785.795m5.485-10.128a2.125,2.125,0,1,1,2.089-2.125,2.107,2.107,0,0,1-2.089,2.125m7.572,5.348h0a.8.8,0,0,1,0,1.59v0h-3.2a1.225,1.225,0,0,1-.845-.419l-1.632-2.084c-.181-.232-.327-.173-.327.117v3.183c0,.319,2.415,6.167,2.415,6.167a2.452,2.452,0,0,1,.14,1.009l-.467,4.548a.783.783,0,0,1-1.566-.033v-4.508a2.79,2.79,0,0,0-.232-1.011l-1.365-2.778c-.128-.26-.273-.243-.328.051l-.59,3.208a2.311,2.311,0,0,1-.441.92l-4,4.608-.064.072h0a.773.773,0,0,1-1.107,0,.806.806,0,0,1-.085-1.023h0l3.213-4.68a2.821,2.821,0,0,0,.383-.965,32.932,32.932,0,0,0,.438-4.786v-3.978c0-.3-.189-.385-.409-.206l-1.8,1.461a1.234,1.234,0,0,0-.407.86l.008,2.661H709.1v-3.73a1.406,1.406,0,0,1,.379-.879s2.9-2.725,3.275-3.1a2.657,2.657,0,0,1,2.351-1.063c2.35,0,2.507.692,2.872,1.063s2.314,3.279,2.314,3.279a1.107,1.107,0,0,0,.818.441Z" transform="translate(674.949 -16956.945)" fill="#fff"/><path d="M757.283,145.181a.573.573,0,0,0-.574.571v8.41a.574.574,0,0,0,1.148,0v-8.41a.573.573,0,0,0-.574-.571" transform="translate(674.949 -16956.945)" fill="#fff"/><path d="M756.938,143.237h-1.815a8.137,8.137,0,0,0-.679,4.45c.017.514.035,1.046.026,1.6a.744.744,0,0,0,.732.751h.012a.742.742,0,0,0,.744-.729c.009-.593-.01-1.144-.027-1.676-.061-1.811-.106-3.146,1.007-4.4" transform="translate(674.949 -16956.945)" fill="#fff"/><path d="M759.475,143.237h-1.6c.369.772,1.094,3.13.763,7.488a.742.742,0,0,0,.687.793l.056,0a.742.742,0,0,0,.741-.684,23.173,23.173,0,0,0-.238-6.026,11.512,11.512,0,0,0-.408-1.573" transform="translate(674.949 -16956.945)" fill="#fff"/><path d="M760.039,141.589h-5.511a12.829,12.829,0,0,1,.547-4.448c.053-.154.109-.3.17-.443v4.232h.006v.22h4.025v-.22h.006v-4.292q.108.244.2.514a12.73,12.73,0,0,1,.554,4.437m1.9,0h-.5c.1-3.815-.905-6.71-2.724-7.793a2.764,2.764,0,0,0-2.892,0c-1.807,1.075-2.8,3.973-2.7,7.794h-.5a.571.571,0,1,0,0,1.141h9.309a.571.571,0,1,0,0-1.141" transform="translate(674.949 -16956.945)" fill="#fff"/><path d="M757.283,128.825a2.034,2.034,0,1,1-2.045,2.034,2.04,2.04,0,0,1,2.045-2.034" transform="translate(674.949 -16956.945)" fill="#fff"/><path d="M724.911,149.491c0,.038,0,.075,0,.115v3.571a1.519,1.519,0,0,0,1.519,1.508h1.25a1.519,1.519,0,0,0,1.519-1.508v-1.109h-3.2c-.361,0-.773-1.14-1.08-2.577" transform="translate(674.949 -16956.945)" fill="#fff"/><path d="M750.166,149.489c-.307,1.44-.719,2.578-1.081,2.578h-3.2v1.11a1.519,1.519,0,0,0,1.52,1.507h1.25a1.518,1.518,0,0,0,1.519-1.507v-3.571c0-.039,0-.078-.005-.117" transform="translate(674.949 -16956.945)" fill="#fff"/><path d="M737.538,134.205h0c-4.773,0-6.479.09-7.7.841A15.33,15.33,0,0,0,727.053,139l-.042.042a.66.66,0,0,0-.617-.422h-2.252c-.841,0-.957.817-.957,1.264v0a2.136,2.136,0,0,0,.017.283.72.72,0,0,0,.691.6h.972l.1-.012v0c.456,0,.876.207.716.833a16.737,16.737,0,0,0-1.113,2.671,14.9,14.9,0,0,0,.344,5.227c.307,1.438.719,2.576,1.08,2.576h23.092c.362,0,.775-1.139,1.082-2.578a14.932,14.932,0,0,0,.343-5.225,16.738,16.738,0,0,0-1.113-2.673c-.159-.624.261-.831.714-.831v0l.1.012h.973a.723.723,0,0,0,.691-.6,2.163,2.163,0,0,0,.015-.252v-.062c-.006-.453-.134-1.235-.957-1.235h-2.252a.661.661,0,0,0-.618.422l-.039-.041a15.314,15.314,0,0,0-2.789-3.955c-1.218-.751-2.926-.841-7.7-.841m-1.122,1.512c.352,0,.725,0,1.121,0s.766,0,1.117,0c3.594.016,5.005.134,5.781.611a20.085,20.085,0,0,1,2.538,3.883,62.044,62.044,0,0,1-18.869,0,19.89,19.89,0,0,1,2.574-3.913c.74-.452,2.148-.568,5.738-.584m9.136,10.144a2.95,2.95,0,0,1-1.341-.179c-.262-.291.232-1.9,1.884-2.944a3.843,3.843,0,0,1,1.61-.525.627.627,0,0,1,.482.168c.4.454.715,2.456.065,3.006a5.73,5.73,0,0,1-2.7.474m-16.026,0a5.712,5.712,0,0,1-2.7-.474c-.65-.55-.336-2.552.065-3.006a.626.626,0,0,1,.482-.168,3.838,3.838,0,0,1,1.609.525c1.653,1.047,2.147,2.653,1.886,2.944a2.958,2.958,0,0,1-1.342.179m5.2,3.57c-1.149,0-1.819-.339-1.956-.754s.168-.754.676-.754h8.2c.509,0,.812.338.675.754s-.777.754-1.956.754Z" transform="translate(674.949 -16956.945)" fill="#fff"/><path d="M719.112,225.7c0,.05-.005.1-.005.149V230.5a1.974,1.974,0,0,0,1.975,1.961h1.626a1.974,1.974,0,0,0,1.977-1.961v-1.443h-4.168c-.47,0-1.005-1.481-1.405-3.353" transform="translate(674.949 -16956.945)" fill="#fff"/><path d="M751.971,225.7c-.4,1.873-.937,3.354-1.407,3.354H746.4V230.5a1.975,1.975,0,0,0,1.976,1.962H750a1.975,1.975,0,0,0,1.976-1.962v-4.647c0-.05,0-.1-.005-.151" transform="translate(674.949 -16956.945)" fill="#fff"/><path d="M735.541,205.815h0c-6.21,0-8.431.115-10.016,1.094-.763.468-2.235,2.693-3.626,5.144l-.054.056a.858.858,0,0,0-.8-.55H718.11c-1.094,0-1.244,1.063-1.244,1.644v0a2.935,2.935,0,0,0,.021.368.936.936,0,0,0,.9.779h1.265l.131-.014v0c.592,0,1.138.269.93,1.085a21.638,21.638,0,0,0-1.448,3.476c-.351,1.395-.062,4.414.448,6.8.4,1.872.935,3.353,1.4,3.353h30.047c.47,0,1.007-1.483,1.407-3.355.509-2.384.8-5.4.447-6.8a21.664,21.664,0,0,0-1.449-3.479c-.206-.813.338-1.082.93-1.082v0l.132.014H753.3a.936.936,0,0,0,.9-.779,2.706,2.706,0,0,0,.021-.328v-.081c-.007-.589-.174-1.607-1.244-1.607h-2.93a.858.858,0,0,0-.806.55l-.052-.053c-1.392-2.454-2.863-4.679-3.628-5.147-1.584-.979-3.807-1.094-10.016-1.094m-1.46,1.966c.458,0,.943,0,1.458,0s1,0,1.453,0c4.676.022,6.512.175,7.521.8a26,26,0,0,1,3.3,5.051,80.611,80.611,0,0,1-24.549.006,25.7,25.7,0,0,1,3.349-5.091c.963-.59,2.794-.74,7.466-.762m11.887,13.2a3.793,3.793,0,0,1-1.746-.235c-.34-.377.3-2.466,2.453-3.829a4.991,4.991,0,0,1,2.094-.681.806.806,0,0,1,.627.218c.519.59.93,3.193.085,3.909-.507.428-2.184.618-3.513.618m-20.854,0c-1.33,0-3.005-.188-3.513-.618-.844-.716-.434-3.319.085-3.909a.81.81,0,0,1,.628-.218,4.991,4.991,0,0,1,2.093.681c2.152,1.363,2.794,3.452,2.455,3.829a3.81,3.81,0,0,1-1.748.235m6.761,4.643c-1.494,0-2.367-.438-2.544-.98s.218-.982.879-.982h10.663c.66,0,1.056.442.877.982s-1.01.98-2.544.98Z" transform="translate(674.949 -16956.945)" fill="#fff"/><path d="M738.831,219.882a.941.941,0,0,0-.962.913v11.028a.963.963,0,0,0,1.924,0V220.795a.94.94,0,0,0-.962-.913" transform="translate(674.949 -16956.945)" fill="#fff"/><path d="M738.831,219.882a.941.941,0,0,0-.962.913v11.028a.963.963,0,0,0,1.924,0V220.795A.94.94,0,0,0,738.831,219.882Z" transform="translate(674.949 -16956.945)" fill="none" stroke="#d3d5d6" stroke-miterlimit="15" stroke-width="0.29"/><path d="M738.569,217.588h-2.508l-.047.081c-1.062,1.851-.994,3.776-.924,5.812.023.692.047,1.363.035,2.062a1.093,1.093,0,0,0,.326.795,1.172,1.172,0,0,0,.808.336,1.145,1.145,0,0,0,1.169-1.1c.011-.762-.013-1.467-.036-2.149-.081-2.331-.139-4,1.3-5.57l.248-.269Z" transform="translate(674.949 -16956.945)" fill="none" stroke="#d3d5d6" stroke-miterlimit="15" stroke-width="0.29"/><path d="M738.477,217.352h-2.561l-.049.084c-1.084,1.89-1.015,3.856-.944,5.936.024.708.048,1.391.036,2.106a1.116,1.116,0,0,0,.334.812,1.2,1.2,0,0,0,.825.344,1.168,1.168,0,0,0,1.193-1.122c.013-.778-.013-1.5-.037-2.195-.082-2.382-.141-4.091,1.325-5.689l.253-.276Z" transform="translate(674.949 -16956.945)" fill="#fff"/><path d="M738.477,217.352h-2.561l-.049.084c-1.084,1.89-1.015,3.856-.944,5.936.024.708.048,1.391.036,2.106a1.116,1.116,0,0,0,.334.812,1.2,1.2,0,0,0,.825.344,1.168,1.168,0,0,0,1.193-1.122c.013-.778-.013-1.5-.037-2.195-.082-2.382-.141-4.091,1.325-5.689l.253-.276Z" transform="translate(674.949 -16956.945)" fill="none" stroke="#d3d5d6" stroke-miterlimit="15" stroke-width="0.128"/><path d="M741.7,217.352h-2.432l.116.238c.256.52,1.511,3.433,1.018,9.745a1.1,1.1,0,0,0,.27.812,1.177,1.177,0,0,0,.81.4h.005l.079,0a1.162,1.162,0,0,0,1.173-1.049,29.646,29.646,0,0,0-.325-7.955,14.81,14.81,0,0,0-.558-2.089l-.039-.11Z" transform="translate(674.949 -16956.945)" fill="#fff"/><path d="M741.719,217.588h-2.381l.114.232c.25.509,1.479,3.361,1,9.539a1.085,1.085,0,0,0,.265.8,1.154,1.154,0,0,0,.794.4h0l.078,0a1.139,1.139,0,0,0,1.149-1.027,29.075,29.075,0,0,0-.319-7.788,14.645,14.645,0,0,0-.546-2.045l-.039-.107Z" transform="translate(674.949 -16956.945)" fill="none" stroke="#d3d5d6" stroke-miterlimit="15" stroke-width="0.29"/><path d="M742.443,215.625H735.06l-.005-.16a17.032,17.032,0,0,1,.725-5.893c.072-.205.147-.4.226-.592l.318-.752v6.2l.01.164v.123h4.945v-.286l.007-5.467v-.788l.317.722c.1.218.187.447.27.687a16.915,16.915,0,0,1,.736,5.879l-.005.16Zm2.489-.33h-.481c.1-4.968-1.261-8.772-3.654-10.2a3.768,3.768,0,0,0-3.961,0c-2.376,1.415-3.726,5.221-3.625,10.2h-.479a.913.913,0,1,0,0,1.826h12.2a.913.913,0,1,0,0-1.826" transform="translate(674.949 -16956.945)" fill="none" stroke="#d3d5d6" stroke-miterlimit="15" stroke-width="0.29"/><path d="M742.443,215.625H735.06l-.005-.16a17.032,17.032,0,0,1,.725-5.893c.072-.205.147-.4.226-.592l.318-.752v6.2l.01.164v.123h4.945v-.286l.007-5.466v-.788l.317.721c.1.218.187.447.27.687a16.9,16.9,0,0,1,.735,5.879l0,.16Zm2.489-.33h-.481c.1-4.968-1.261-8.772-3.654-10.2a3.768,3.768,0,0,0-3.961,0c-2.376,1.415-3.726,5.221-3.625,10.2h-.479a.913.913,0,1,0,0,1.826h12.2a.913.913,0,1,0,0-1.826" transform="translate(674.949 -16956.945)" fill="#fff"/><path d="M742.443,215.625H735.06l-.005-.16a17.032,17.032,0,0,1,.725-5.893c.072-.205.147-.4.226-.592l.318-.752v6.2l.01.164v.123h4.945v-.286l.007-5.467v-.788l.317.722c.1.218.187.447.27.687a16.915,16.915,0,0,1,.736,5.879l-.005.16Zm2.489-.33h-.481c.1-4.968-1.261-8.772-3.654-10.2a3.768,3.768,0,0,0-3.961,0c-2.376,1.415-3.726,5.221-3.625,10.2h-.479a.913.913,0,1,0,0,1.826h12.2a.913.913,0,1,0,0-1.826Z" transform="translate(674.949 -16956.945)" fill="none" stroke="#d3d5d6" stroke-miterlimit="15" stroke-width="0.128"/><path d="M738.831,204.321a2.86,2.86,0,1,0-2.876-2.86,2.871,2.871,0,0,0,2.876,2.86" transform="translate(674.949 -16956.945)" fill="none" stroke="#d3d5d6" stroke-miterlimit="15" stroke-width="0.29"/><path d="M738.831,204.321a2.86,2.86,0,1,0-2.876-2.86,2.871,2.871,0,0,0,2.876,2.86" transform="translate(674.949 -16956.945)" fill="#fff"/><path d="M738.831,204.321a2.86,2.86,0,1,0-2.876-2.86A2.871,2.871,0,0,0,738.831,204.321Z" transform="translate(674.949 -16956.945)" fill="none" stroke="#d3d5d6" stroke-miterlimit="15" stroke-width="0.128"/><text transform="translate(1117.893 -16469.063) rotate(90)" fill="#1a1818" font-size="15.913" font-family="CenturyGothic, Century Gothic"><tspan x="0" y="0" letter-spacing="-0.017em">P</tspan><tspan y="0">ar</tspan><tspan y="0" letter-spacing="-0.026em">k</tspan><tspan y="0">e</tspan><tspan y="0" letter-spacing="-0.016em">r</tspan><tspan y="0">en</tspan></text><path d="M506.627,126.225a1.522,1.522,0,0,0-1.526,1.518v26.1a1.521,1.521,0,0,0,1.526,1.517h10.55a1.521,1.521,0,0,0,1.526-1.517v-26.1a1.523,1.523,0,0,0-1.526-1.518Zm5.275,26.061a2.93,2.93,0,1,1,2.947-2.93,2.938,2.938,0,0,1-2.947,2.93m0-8.3a2.93,2.93,0,1,1,2.947-2.93,2.938,2.938,0,0,1-2.947,2.93m0-8.3a2.931,2.931,0,1,1,2.947-2.931,2.939,2.939,0,0,1-2.947,2.931m14.171-5.209a7.3,7.3,0,0,1-5.331,5.172v-6.312h4.4a.95.95,0,0,1,.951.949.914.914,0,0,1-.021.2Zm0,8.3a7.292,7.292,0,0,1-5.331,5.169V137.64h4.4a.949.949,0,0,1,.951.948.93.93,0,0,1-.021.2Zm0,8.3a7.294,7.294,0,0,1-5.331,5.17v-6.313h4.4a.95.95,0,0,1,.951.95.937.937,0,0,1-.021.2Zm-23.012-11.424a7.3,7.3,0,0,1-5.331-5.167.948.948,0,0,1,.732-1.125,1.016,1.016,0,0,1,.2-.02h4.4Zm0,8.3a7.307,7.307,0,0,1-5.331-5.167.948.948,0,0,1,.732-1.125,1.015,1.015,0,0,1,.2-.02h4.4Zm-4.4,1.982h4.4v6.313a7.3,7.3,0,0,1-5.331-5.166.955.955,0,0,1,.93-1.147" transform="translate(674.949 -16956.945)" fill="#fff"/><path d="M275.567,266.217a.4.4,0,0,0-.393.393v33.971a.394.394,0,0,0,.393.389h26.112a.392.392,0,0,0,.393-.389V266.61a.394.394,0,0,0-.393-.393Zm20.26,2.762a.393.393,0,0,1,.394-.39h3.265a.393.393,0,0,1,.4.39v2.444a.393.393,0,0,1-.4.391h-3.265a.393.393,0,0,1-.394-.391Zm-6.44,0a.392.392,0,0,1,.393-.39h3.27a.391.391,0,0,1,.392.39v2.444a.391.391,0,0,1-.392.391h-3.27a.392.392,0,0,1-.393-.391Zm-6.077,0a.392.392,0,0,1,.393-.39h3.267a.391.391,0,0,1,.392.39v2.444a.391.391,0,0,1-.392.391H283.7a.392.392,0,0,1-.393-.391Zm-6.207,14.9a.392.392,0,0,1,.394-.389h3.264a.392.392,0,0,1,.393.389v2.442a.392.392,0,0,1-.393.391H277.5a.393.393,0,0,1-.394-.391Zm.342-1.867a.393.393,0,0,1-.393-.388v-2.442a.394.394,0,0,1,.393-.392h3.267a.393.393,0,0,1,.393.392v2.442a.391.391,0,0,1-.393.388Zm-.368-13.037a.393.393,0,0,1,.394-.39h3.265a.392.392,0,0,1,.393.39v2.444a.392.392,0,0,1-.393.391h-3.265a.393.393,0,0,1-.394-.391Zm-.076,5.5a.393.393,0,0,1,.394-.389h3.267a.391.391,0,0,1,.391.389v2.449a.39.39,0,0,1-.391.389h-3.267a.392.392,0,0,1-.394-.389Zm4.027,22.145a.392.392,0,0,1-.392.389h-3.267a.393.393,0,0,1-.395-.389v-2.444a.4.4,0,0,1,.395-.39h3.267a.394.394,0,0,1,.392.39Zm.176-5.6a.39.39,0,0,1-.391.391h-3.265a.391.391,0,0,1-.393-.391v-2.443a.39.39,0,0,1,.393-.388h3.265a.39.39,0,0,1,.391.388Zm2.028-16.538a.394.394,0,0,1,.393-.391h3.269a.4.4,0,0,1,.395.391v2.445a.393.393,0,0,1-.395.389h-3.269a.392.392,0,0,1-.393-.389Zm.052,4.7a.392.392,0,0,1,.392-.392h3.272a.392.392,0,0,1,.392.392v2.442a.391.391,0,0,1-.392.388h-3.272a.391.391,0,0,1-.392-.388Zm.051,4.7a.392.392,0,0,1,.392-.389H287a.391.391,0,0,1,.391.389v2.442a.391.391,0,0,1-.391.391h-3.269a.392.392,0,0,1-.392-.391Zm4.1,16.665a.39.39,0,0,1-.391.388h-3.266a.392.392,0,0,1-.4-.388v-6.365a.4.4,0,0,1,.4-.39h3.266a.393.393,0,0,1,.391.39Zm0-9.524a.39.39,0,0,1-.391.391h-3.266a.393.393,0,0,1-.4-.391v-2.443a.392.392,0,0,1,.4-.388h3.266a.39.39,0,0,1,.391.388Zm1.876-16.538a.393.393,0,0,1,.393-.391h3.268a.392.392,0,0,1,.39.391v2.445a.39.39,0,0,1-.39.389h-3.268a.391.391,0,0,1-.393-.389Zm.05,4.7a.394.394,0,0,1,.394-.392h3.267a.394.394,0,0,1,.393.392v2.442a.393.393,0,0,1-.393.388h-3.267a.392.392,0,0,1-.394-.388Zm.055,4.7a.391.391,0,0,1,.39-.389h3.266a.394.394,0,0,1,.394.389v2.442a.394.394,0,0,1-.394.391h-3.266a.391.391,0,0,1-.39-.391Zm4.1,16.665a.391.391,0,0,1-.393.388h-3.269a.391.391,0,0,1-.393-.388v-6.365a.394.394,0,0,1,.393-.39h3.269a.394.394,0,0,1,.393.39Zm0-9.524a.391.391,0,0,1-.393.391h-3.269a.391.391,0,0,1-.393-.391v-2.443a.391.391,0,0,1,.393-.388h3.269a.391.391,0,0,1,.393.388Zm2.23-16.538a.394.394,0,0,1,.394-.391h3.268a.394.394,0,0,1,.392.391v2.445a.391.391,0,0,1-.392.389h-3.268a.392.392,0,0,1-.394-.389Zm.048,4.7a.393.393,0,0,1,.392-.392h3.272a.392.392,0,0,1,.391.392v2.442a.391.391,0,0,1-.391.388h-3.272a.392.392,0,0,1-.392-.388Zm.054,4.7a.392.392,0,0,1,.393-.389h3.265a.394.394,0,0,1,.4.389v2.442a.4.4,0,0,1-.4.391h-3.265a.392.392,0,0,1-.393-.391Zm.052,4.7a.392.392,0,0,1,.394-.388h3.262a.392.392,0,0,1,.394.388v2.443a.392.392,0,0,1-.394.391H296.3a.392.392,0,0,1-.394-.391Zm4.383,8.046a.391.391,0,0,1-.392.389h-3.269a.393.393,0,0,1-.395-.389v-2.444a.4.4,0,0,1,.395-.39h3.269a.393.393,0,0,1,.392.39Z" transform="translate(674.949 -16956.945)" fill="#fff" fill-rule="evenodd"/><path d="M512.964,252.353c18.66,0,33.786-15.531,33.786-34.69s-15.126-34.692-33.786-34.692-33.786,15.532-33.786,34.692,15.126,34.69,33.786,34.69" transform="translate(674.949 -16956.945)" fill="#3a5121"/><text transform="translate(1094.315 -16731.869)" fill="#fff" font-size="19.404" font-family="DaxOT, Dax OT"><tspan x="0" y="0">N.V.T</tspan></text><path d="M512.964,325.784c18.66,0,33.786-15.532,33.786-34.692s-15.126-34.69-33.786-34.69-33.786,15.531-33.786,34.69,15.126,34.692,33.786,34.692" transform="translate(674.949 -16956.945)" fill="#3a5121"/><text transform="translate(1166.658 -16713.732)" fill="#fff" font-size="7.233" font-family="DaxOT, Dax OT"><tspan x="0" y="0" letter-spacing="0.006em">Gelij</tspan><tspan y="0" letter-spacing="0.005em">k</tspan><tspan y="0" letter-spacing="0.006em">w</tspan><tspan y="0" letter-spacing="0.005em">aa</tspan><tspan y="0" letter-spacing="0.006em">rdi</tspan><tspan y="0">g</tspan></text><text transform="translate(1173.314 -16645.475)" fill="#fff" font-size="7.233" font-family="DaxOT, Dax OT"><tspan x="0" y="0">Voorrang</tspan></text><path d="M492.164,208.173h9.109s7.088.717,7.088-7.7v-8.413" transform="translate(674.949 -16956.945)" fill="none" stroke="#fff" stroke-miterlimit="10" stroke-width="1.451"/><path d="M533.764,208.173H524.5s-7.208.717-7.208-7.7v-8.413" transform="translate(674.949 -16956.945)" fill="none" stroke="#fff" stroke-miterlimit="10" stroke-width="1.451"/><path d="M492.164,217.522h9.109s7.088-.794,7.088,8.522v9.318" transform="translate(674.949 -16956.945)" fill="none" stroke="#fff" stroke-miterlimit="10" stroke-width="1.451"/><path d="M533.764,217.522H524.5s-7.208-.794-7.208,8.522v9.318" transform="translate(674.949 -16956.945)" fill="none" stroke="#fff" stroke-miterlimit="10" stroke-width="1.451"/><line x2="41.6" transform="translate(1167.335 -16676.33)" fill="none" stroke="#fff" stroke-miterlimit="10" stroke-width="1.451"/><line x2="41.6" transform="translate(1167.335 -16668.127)" fill="none" stroke="#fff" stroke-miterlimit="10" stroke-width="1.451"/><line y2="15.182" transform="translate(1183.533 -16691.857)" fill="none" stroke="#fff" stroke-miterlimit="10" stroke-width="1.451"/><line y2="15.182" transform="translate(1192.465 -16691.857)" fill="none" stroke="#fff" stroke-miterlimit="10" stroke-width="1.451"/><line y2="15.182" transform="translate(1183.533 -16668.266)" fill="none" stroke="#fff" stroke-miterlimit="10" stroke-width="1.451"/><line y2="15.182" transform="translate(1192.465 -16668.266)" fill="none" stroke="#fff" stroke-miterlimit="10" stroke-width="1.451"/><path d="M674.13,211.808c0-7.705-5.9-19.966-13.183-19.966s-13.184,12.261-13.184,19.966c0,7.154,5.089,13.04,11.641,13.848l-.4,9.927h3.965l-.482-9.927c6.554-.808,11.642-6.694,11.642-13.848" transform="translate(674.949 -16956.945)" fill="#fff"/><text transform="translate(1244.184 -16659.58)" fill="#fff" font-size="19.404" font-family="DaxOT, Dax OT"><tspan x="0" y="0">N.V.</tspan><tspan y="0" letter-spacing="1.617em">T</tspan><tspan y="0">N.V.T</tspan></text></g></svg>