<svg xmlns="http://www.w3.org/2000/svg" width="721.819" height="170.342" viewBox="0 0 721.819 170.342"><g transform="translate(-675 17246.852)"><path d="M778.687,410.022a7.2,7.2,0,0,1-7.213,7.14H443.08a7.14,7.14,0,1,1,0-14.28H771.474a7.2,7.2,0,0,1,7.213,7.14" transform="translate(618.132 -17516.447)" fill="#e0e1e2"/><path d="M778.687,410.022a7.2,7.2,0,0,1-7.213,7.14H443.08a7.14,7.14,0,1,1,0-14.28H771.474a7.2,7.2,0,0,1,7.213,7.14" transform="translate(618.132 -17574.447)" fill="#e0e1e2"/><path d="M589.064,410.022a7.2,7.2,0,0,1-7.212,7.14H443.079a7.14,7.14,0,1,1,0-14.28H581.852a7.2,7.2,0,0,1,7.212,7.14" transform="translate(617.811 -17574.447)" fill="#8fa028"/><path d="M370.217,492a19.393,19.393,0,0,1-7.859-15.547V457.607c0-.552.023-1.11.07-1.658a1.091,1.091,0,0,0-2.174-.183c-.052.608-.078,1.227-.078,1.841v18.845a21.46,21.46,0,0,0,8.746,17.3,1.078,1.078,0,0,0,.647.212,1.09,1.09,0,0,0,.648-1.968" transform="translate(617.811 -17574.447)" fill="#3a5121"/><path d="M375.307,494.687a19.15,19.15,0,0,1-1.979-.817,1.091,1.091,0,0,0-.944,1.967,21.483,21.483,0,0,0,2.2.91,1.075,1.075,0,0,0,.359.061,1.091,1.091,0,0,0,.359-2.121" transform="translate(617.811 -17574.447)" fill="#3a5121"/><path d="M402.058,471.495a1.091,1.091,0,0,0-1.091,1.091v3.867a19.326,19.326,0,0,1-19.3,19.3,19.679,19.679,0,0,1-2.255-.13,1.091,1.091,0,0,0-.252,2.167,21.508,21.508,0,0,0,23.993-21.341v-3.867a1.091,1.091,0,0,0-1.091-1.091" transform="translate(617.811 -17574.447)" fill="#3a5121"/><path d="M381.663,436.121a21.494,21.494,0,0,0-20.457,14.895,1.091,1.091,0,1,0,2.077.669,19.308,19.308,0,0,1,37.684,5.922v10.615a1.091,1.091,0,1,0,2.182,0V457.607a21.511,21.511,0,0,0-21.486-21.486" transform="translate(617.811 -17574.447)" fill="#3a5121"/><path d="M366.923,482.48a1.092,1.092,0,0,0-.5,1.461,17.069,17.069,0,0,0,6.152,6.849,16.956,16.956,0,0,0,16.092,1.125,1.09,1.09,0,0,0-.9-1.985,14.786,14.786,0,0,1-14.019-.98,14.884,14.884,0,0,1-5.365-5.974,1.091,1.091,0,0,0-1.461-.5" transform="translate(617.811 -17574.447)" fill="#3a5121"/><path d="M392.151,489.466a1.088,1.088,0,0,0,.721-.273,16.987,16.987,0,0,0,5.767-12.741V457.607a16.827,16.827,0,0,0-3.281-10.022,1.09,1.09,0,1,0-1.758,1.29,14.67,14.67,0,0,1,2.858,8.732v18.845a14.806,14.806,0,0,1-5.029,11.1,1.091,1.091,0,0,0,.722,1.91" transform="translate(617.811 -17574.447)" fill="#3a5121"/><path d="M390.069,445.438a1.09,1.09,0,1,0,1.243-1.792,17.068,17.068,0,0,0-2.618-1.491,1.091,1.091,0,0,0-.907,1.985,14.776,14.776,0,0,1,2.282,1.3" transform="translate(617.811 -17574.447)" fill="#3a5121"/><path d="M384.5,440.867a16.99,16.99,0,0,0-19.818,16.741v18.323a1.091,1.091,0,0,0,2.182,0V457.608a14.81,14.81,0,0,1,17.272-14.59,1.091,1.091,0,1,0,.364-2.151" transform="translate(617.811 -17574.447)" fill="#3a5121"/><path d="M371.326,450.639a1.091,1.091,0,1,0,1.807,1.222,10.285,10.285,0,0,1,18.816,5.747v12.215a1.091,1.091,0,0,0,2.182,0V457.608a12.467,12.467,0,0,0-22.805-6.969" transform="translate(617.811 -17574.447)" fill="#3a5121"/><path d="M370.285,461.314a1.091,1.091,0,0,0,1.091-1.091v-2.615a1.091,1.091,0,0,0-2.182,0v2.615a1.091,1.091,0,0,0,1.091,1.091" transform="translate(617.811 -17574.447)" fill="#3a5121"/><path d="M369.194,476.453a12.493,12.493,0,0,0,6.406,10.893,1.078,1.078,0,0,0,.531.139,1.09,1.09,0,0,0,.533-2.043,10.312,10.312,0,0,1-5.288-8.989V464.587a1.091,1.091,0,0,0-2.182,0Z" transform="translate(617.811 -17574.447)" fill="#3a5121"/><path d="M394.131,476.453v-1.976a1.091,1.091,0,1,0-2.182,0v1.976a10.292,10.292,0,0,1-12.738,9.992,1.091,1.091,0,1,0-.52,2.119,12.473,12.473,0,0,0,15.44-12.111" transform="translate(617.811 -17574.447)" fill="#3a5121"/><path d="M389.623,457.723a8.06,8.06,0,0,0-7.807-8.075,7.968,7.968,0,0,0-8.114,7.96v18.845a1.091,1.091,0,0,0,2.182,0V457.608a5.786,5.786,0,0,1,5.89-5.778,5.867,5.867,0,0,1,5.667,5.893v10.354a1.091,1.091,0,1,0,2.182,0Z" transform="translate(617.811 -17574.447)" fill="#3a5121"/><path d="M378.211,477.715a5.706,5.706,0,0,0,11.412,0V472.44a1.091,1.091,0,1,0-2.182,0v5.275a3.524,3.524,0,1,1-7.048,0v-9.347a1.091,1.091,0,0,0-2.182,0Z" transform="translate(617.811 -17574.447)" fill="#3a5121"/><path d="M384.023,478.386a1.091,1.091,0,0,0,1.091-1.091v-19.62a3.485,3.485,0,0,0-3.279-3.516,3.421,3.421,0,0,0-2.551.949,3.467,3.467,0,0,0-1.074,2.5v6.106a1.091,1.091,0,0,0,2.182,0v-6.106a1.273,1.273,0,0,1,1.335-1.269,1.322,1.322,0,0,1,1.205,1.337V477.3a1.09,1.09,0,0,0,1.091,1.091" transform="translate(617.811 -17574.447)" fill="#3a5121"/><rect width="55.101" height="4.958" transform="translate(971.923 -17161.561)" fill="#91a228"/><path d="M345.694,395.535h7.917v21.626H409.3v-22h8.736" transform="translate(617.811 -17574.447)" fill="none" stroke="#1a1818" stroke-width="1.018"/><line x2="44.072" transform="translate(977.642 -17171.564)" fill="none" stroke="#91a228" stroke-miterlimit="10" stroke-width="1.018"/><path d="M360.329,399.173v7.418l-3.708-3.709Z" transform="translate(617.811 -17574.447)" fill="#91a228"/><path d="M403.406,399.173v7.418l3.708-3.709Z" transform="translate(617.811 -17574.447)" fill="#91a228"/><path d="M363.815,344.89a5.393,5.393,0,1,0,5.393,5.393,5.392,5.392,0,0,0-5.393-5.393m0,7.9a2.507,2.507,0,1,1,2.507-2.507,2.506,2.506,0,0,1-2.507,2.507" transform="translate(617.811 -17574.447)" fill="#18988b"/><path d="M398.418,344.89a5.393,5.393,0,1,0,5.393,5.393,5.392,5.392,0,0,0-5.393-5.393m0,7.9a2.507,2.507,0,1,1,2.507-2.507,2.507,2.507,0,0,1-2.507,2.507" transform="translate(617.811 -17574.447)" fill="#18988b"/><path d="M409.518,344c0-.024-.008-.048-.011-.071a3.682,3.682,0,0,0-.258-.577h0c-.64-1.192-2.1-3.86-7.821-4.8-.1-.014-.433-.072-.907-.153,0,0-1.527-.177-4.239-.414a19.914,19.914,0,0,1-3.533-3.406,22.239,22.239,0,0,0-5.683-4.995,12.289,12.289,0,0,0-3.692-1.123c-.1-.018-9.878-1.657-15.046.4l-.006-.016-.144.078-.061.025,0,.007a18.684,18.684,0,0,0-1.745,1.158h0a26.843,26.843,0,0,0-3.076,2.7c-1.111,1.113-1.967,1.932-2.653,2.524h0a9.545,9.545,0,0,1-2.474,1.128,21.187,21.187,0,0,1-3.335.252h-.033a4.7,4.7,0,0,0-3.948,2.859c-1.558,2.921.454,9.152.843,9.8a5.224,5.224,0,0,0,4.958,3.377h.006c.122,0,.242.005.364,0h.382a6.159,6.159,0,0,1-.585-2.628,6.991,6.991,0,1,1,13.4,2.8h21.73a6.991,6.991,0,1,1,12.812,0h2.684a4.368,4.368,0,0,0,2.806-3.623v0c.452-1.819-.3-4.187-.737-5.312m-40.56-7.236-.41,0h0c-.05,0-.111,0-.178,0h-.011c-.721-.035-2.335-.295-2.812-1.422-.5-1.188,2.114-3.317,2.329-3.489.189-.149.377-.294.562-.432a5.282,5.282,0,0,1,.632-.382l0-.01c3.516-1.473,10.881-.854,13.914-.32a10.647,10.647,0,0,1,2.966.863l.051.028a20.335,20.335,0,0,1,5.034,4.478c.094.108.184.21.275.313l0,0s1.153,1.282-.779,1.156h-.014c-5.543-.375-13.031-.74-21.552-.777" transform="translate(617.811 -17574.447)" fill="#18988b"/><path d="M376.943,329.409l-.455,8.742,1.925-.517.41-8.36Z" transform="translate(617.811 -17574.447)" fill="#18988b"/><text transform="translate(818 -17091.891)" fill="#3a5121" font-size="27.986" font-family="CenturyGothic, Century Gothic"><tspan x="0" y="0">IDENTITEIT</tspan></text><path d="M459.359,486.015c9.249,0,16.747-7.743,16.747-17.3s-7.5-17.3-16.747-17.3-16.747,7.744-16.747,17.3,7.5,17.3,16.747,17.3" transform="translate(617.811 -17574.447)" fill="#3a5121"/><path d="M495.791,486.015c9.249,0,16.747-7.743,16.747-17.3s-7.5-17.3-16.747-17.3-16.747,7.744-16.747,17.3,7.5,17.3,16.747,17.3" transform="translate(617.811 -17574.447)" fill="#3a5121"/><path d="M533.49,486.015c9.249,0,16.747-7.743,16.747-17.3s-7.5-17.3-16.747-17.3-16.747,7.744-16.747,17.3,7.5,17.3,16.747,17.3" transform="translate(617.811 -17574.447)" fill="#3a5121"/><path d="M569.922,486.015c9.249,0,16.747-7.743,16.747-17.3s-7.5-17.3-16.747-17.3-16.747,7.744-16.747,17.3,7.5,17.3,16.747,17.3" transform="translate(617.811 -17574.447)" fill="#3a5121"/><path d="M607.657,486.015c9.249,0,16.747-7.743,16.747-17.3s-7.5-17.3-16.747-17.3-16.747,7.744-16.747,17.3,7.5,17.3,16.747,17.3" transform="translate(617.811 -17574.447)" fill="#3a5121"/><path d="M644.09,486.015c9.249,0,16.747-7.743,16.747-17.3s-7.5-17.3-16.747-17.3-16.747,7.744-16.747,17.3,7.5,17.3,16.747,17.3" transform="translate(617.811 -17574.447)" fill="#3a5121"/><path d="M681.789,486.015c9.249,0,16.747-7.743,16.747-17.3s-7.5-17.3-16.747-17.3-16.747,7.744-16.747,17.3,7.5,17.3,16.747,17.3" transform="translate(617.811 -17574.447)" fill="#3a5121"/><path d="M718.221,486.015c9.249,0,16.747-7.743,16.747-17.3s-7.5-17.3-16.747-17.3-16.747,7.744-16.747,17.3,7.5,17.3,16.747,17.3" transform="translate(617.811 -17574.447)" fill="#3a5121"/><path d="M754.654,486.015c9.248,0,16.746-7.743,16.746-17.3s-7.5-17.3-16.746-17.3-16.748,7.744-16.748,17.3,7.5,17.3,16.748,17.3" transform="translate(617.811 -17574.447)" fill="#3a5121"/><text transform="translate(675 -17219.852)" fill="#18988b" font-size="27.986" font-family="CenturyGothic, Century Gothic"><tspan x="0" y="0">VERKEERSINTENSITEIT</tspan></text><text transform="translate(850 -17159.428)" fill="#8fa028" font-size="27.986" font-family="CenturyGothic, Century Gothic"><tspan x="0" y="0">RUIMTE</tspan></text><path d="M469.781,473.31h-.515v-1.791h.515Zm-1.029,0h-.514v-1.791h.514Zm-7.976-7.675h-1.544V464.1h1.544Zm0,3.07h-1.544V467.17h1.544Zm-3.859-3.07h-1.544V464.1h1.544Zm0,3.07h-1.544V467.17h1.544Zm12.58-.668-2.546,2.546v-5.46h-3.859v4.094h-1.286v-6.141h-7.462v6.39l0-.05-3.167-3.858-4.033,4.01v5.277h2.829v-2.814h1.544v2.814h20.325V470.38Z" transform="translate(617.811 -17574.447)" fill="#fff"/><path d="M507.045,474.584H494.173v-6.033H496.8a3.516,3.516,0,0,0,3.567-3.454,3.356,3.356,0,0,0-.757-2.127,3.581,3.581,0,0,0-.649-.621l-.091-.068-.012-.112a3.465,3.465,0,0,0-2.164-2.836l-.158-.063-.006-.165a3.5,3.5,0,0,0-3.563-3.342,3.579,3.579,0,0,0-3.257,2.049l-.062.13-.146.02a3.5,3.5,0,0,0-3.083,3.422,3.338,3.338,0,0,0,.343,1.481l.067.134-.089.123a3.368,3.368,0,0,0-.641,1.975,3.516,3.516,0,0,0,3.567,3.454h2.378v6.033h-5.59a.344.344,0,1,0,0,.688h20.592a.344.344,0,1,0,0-.688" transform="translate(617.811 -17574.447)" fill="#fff"/><path d="M499.441,472.376h3.432v.236h-3.432Zm0-1.418h3.432v.236h-3.432Zm5.834,1.654h-1.716v-.236h1.03c.189,0,.343-.106.343-.236v-.709c0-.131-.154-.236-.343-.236h-1.03v-.237h1.03c.189,0,.343-.105.343-.235v-.709c0-.13-.154-.236-.343-.236h-1.03c0-.13-.154-.237-.343-.237s-.343.107-.343.237h-3.432c0-.13-.154-.237-.344-.237s-.343.107-.343.237h-1.029c-.19,0-.343.106-.343.236v.709c0,.13.153.235.343.235h1.029v.237h-1.029c-.19,0-.343.1-.343.236v.709c0,.13.153.236.343.236h1.029v.236h-1.716c-.19,0-.343.106-.343.236s.153.237.343.237h.344v.944c0,.13.153.237.343.237s.343-.107.343-.237v-.944h6.178v.944c0,.13.153.237.343.237s.343-.107.343-.237v-.944h.343c.189,0,.343-.107.343-.237s-.154-.236-.343-.236" transform="translate(617.811 -17574.447)" fill="#fff"/><path d="M538.54,473.331a.763.763,0,0,1-.761.761h-1.737a.763.763,0,0,1-.761-.761v-1.923a.764.764,0,0,1,.761-.761h1.737a.763.763,0,0,1,.761.761Zm-7.464,0a.763.763,0,0,1-.761.761h-1.737a.763.763,0,0,1-.761-.761v-1.923a.764.764,0,0,1,.761-.761h1.737a.764.764,0,0,1,.761.761Zm8.946,3.17v-7.633a.562.562,0,0,0-.562-.563H526.972a.563.563,0,0,0-.562.563V476.5a.562.562,0,0,0,.562.563h4.579a.561.561,0,0,0,.562-.563v-4.137a.178.178,0,0,1,.177-.178h1.73a.177.177,0,0,1,.176.178V476.5a.563.563,0,0,0,.563.563h4.7a.561.561,0,0,0,.562-.563" transform="translate(617.811 -17574.447)" fill="#fff"/><path d="M527.043,465.283v-2.948a.563.563,0,0,1,.562-.563h1.015a.563.563,0,0,1,.562.563v1.083a.177.177,0,0,0,.283.142l3.514-2.621a.388.388,0,0,1,.467-.005l7.707,5.751a.387.387,0,0,1-.22.7H525.5a.386.386,0,0,1-.231-.7l1.7-1.268a.179.179,0,0,0,.072-.143" transform="translate(617.811 -17574.447)" fill="#fff"/><path d="M576.656,468.32a.3.3,0,0,0-.295.3v4.357a.3.3,0,1,0,.591,0v-4.357a.3.3,0,0,0-.3-.3" transform="translate(617.811 -17574.447)" fill="#fff"/><path d="M576.478,467.312h-.935a4.236,4.236,0,0,0-.35,2.306c.008.266.018.542.014.831a.383.383,0,0,0,.377.389h.006a.384.384,0,0,0,.383-.378c.005-.307-.005-.592-.014-.868a2.9,2.9,0,0,1,.519-2.28" transform="translate(617.811 -17574.447)" fill="#fff"/><path d="M577.785,467.312h-.825a8.29,8.29,0,0,1,.394,3.88.385.385,0,0,0,.353.412h.029a.384.384,0,0,0,.382-.354,12.061,12.061,0,0,0-.123-3.123,5.919,5.919,0,0,0-.21-.815" transform="translate(617.811 -17574.447)" fill="#fff"/><path d="M578.075,466.459h-2.839a6.714,6.714,0,0,1,.282-2.306c.028-.079.057-.156.087-.229v2.194h0v.113h2.073v-.113h0v-2.225c.037.085.072.173.1.266a6.613,6.613,0,0,1,.285,2.3m.979,0H578.8c.052-1.977-.467-3.478-1.4-4.039a1.455,1.455,0,0,0-.746-.212,1.436,1.436,0,0,0-.744.212c-.931.556-1.445,2.058-1.392,4.039h-.255a.3.3,0,1,0,0,.591h4.8a.3.3,0,0,0,0-.591" transform="translate(617.811 -17574.447)" fill="#fff"/><path d="M576.656,459.844A1.054,1.054,0,1,1,575.6,460.9a1.054,1.054,0,0,1,1.054-1.054" transform="translate(617.811 -17574.447)" fill="#fff"/><path d="M560.316,470.683c0,.017,0,.034,0,.051v1.593a.675.675,0,0,0,.673.671h.554a.675.675,0,0,0,.673-.671v-.495h-1.419c-.16,0-.343-.508-.479-1.149" transform="translate(617.811 -17574.447)" fill="#fff"/><path d="M571.509,470.682c-.136.641-.319,1.149-.479,1.149h-1.419v.495a.676.676,0,0,0,.673.673h.554a.676.676,0,0,0,.673-.673v-1.592c0-.017,0-.035,0-.052" transform="translate(617.811 -17574.447)" fill="#fff"/><path d="M565.912,463.868h0c-2.115,0-2.871.041-3.411.375a6.843,6.843,0,0,0-1.236,1.764l-.018.018a.291.291,0,0,0-.273-.188h-1c-.373,0-.424.364-.424.564h0a1.043,1.043,0,0,0,.007.125.32.32,0,0,0,.307.267h.431l.045,0h0c.2,0,.387.093.317.373a7.5,7.5,0,0,0-.494,1.191,6.69,6.69,0,0,0,.153,2.33c.135.641.318,1.149.478,1.149H571.03c.16,0,.343-.508.479-1.151a6.65,6.65,0,0,0,.152-2.328,7.482,7.482,0,0,0-.493-1.193c-.071-.278.115-.371.317-.371h0l.044,0h.432a.319.319,0,0,0,.306-.267,1.029,1.029,0,0,0,.007-.112v-.028c0-.2-.06-.55-.424-.55h-1a.293.293,0,0,0-.274.188l-.018-.017a6.809,6.809,0,0,0-1.236-1.765c-.539-.334-1.3-.375-3.412-.375m-.5.675h.992a5.859,5.859,0,0,1,2.562.272,8.95,8.95,0,0,1,1.125,1.732,27.43,27.43,0,0,1-8.362,0,8.788,8.788,0,0,1,1.14-1.745,5.944,5.944,0,0,1,2.543-.26m4.049,4.523a1.276,1.276,0,0,1-.594-.082c-.116-.129.1-.845.835-1.311a1.7,1.7,0,0,1,.713-.233.277.277,0,0,1,.214.074c.177.2.317,1.1.029,1.34a2.522,2.522,0,0,1-1.2.212m-7.1,0a2.525,2.525,0,0,1-1.2-.212c-.288-.245-.148-1.138.029-1.34a.278.278,0,0,1,.214-.074,1.688,1.688,0,0,1,.713.233c.733.466.952,1.182.836,1.311a1.282,1.282,0,0,1-.595.082m2.3,1.59c-.509,0-.806-.15-.867-.336s.075-.336.3-.336h3.632c.225,0,.36.151.3.336s-.344.336-.867.336Z" transform="translate(617.811 -17574.447)" fill="#fff"/><path d="M600.567,474.4c0,.02,0,.041,0,.062v1.91a.811.811,0,0,0,.809.807h.667a.812.812,0,0,0,.81-.807v-.594h-1.708c-.193,0-.412-.609-.576-1.378" transform="translate(617.811 -17574.447)" fill="#fff"/><path d="M614.029,474.4c-.164.771-.384,1.38-.577,1.38h-1.706v.594a.811.811,0,0,0,.81.807h.665a.812.812,0,0,0,.811-.807v-1.91c0-.022,0-.042,0-.064" transform="translate(617.811 -17574.447)" fill="#fff"/><path d="M607.3,466.22h0c-2.545,0-3.454.049-4.1.451a8.185,8.185,0,0,0-1.486,2.115l-.021.022a.354.354,0,0,0-.329-.226h-1.2c-.448,0-.509.438-.509.677h0a1.275,1.275,0,0,0,.008.151.385.385,0,0,0,.369.321h.518l.054-.006h0c.243,0,.466.111.381.446a9.063,9.063,0,0,0-.594,1.429,8.018,8.018,0,0,0,.184,2.8c.163.77.383,1.379.576,1.379h12.31c.192,0,.413-.61.576-1.38a7.985,7.985,0,0,0,.183-2.8,8.861,8.861,0,0,0-.593-1.429c-.085-.335.138-.446.381-.446h0l.054.006h.519a.385.385,0,0,0,.368-.321,1.11,1.11,0,0,0,.009-.134v-.034c0-.242-.072-.661-.51-.661h-1.2a.354.354,0,0,0-.33.226l-.021-.021a8.148,8.148,0,0,0-1.487-2.116c-.649-.4-1.559-.451-4.1-.451m-.6.809h1.193c1.917.01,2.669.072,3.082.328a10.683,10.683,0,0,1,1.353,2.077,33.044,33.044,0,0,1-10.059,0,10.639,10.639,0,0,1,1.373-2.094c.394-.242,1.145-.3,3.058-.313m4.871,5.428a1.553,1.553,0,0,1-.715-.1c-.14-.156.124-1.014,1.005-1.574a2.036,2.036,0,0,1,.858-.28.329.329,0,0,1,.256.089c.213.242.382,1.313.035,1.608a3.044,3.044,0,0,1-1.439.254m-8.544,0a3.042,3.042,0,0,1-1.439-.254c-.347-.3-.178-1.366.035-1.608a.329.329,0,0,1,.256-.089,2.046,2.046,0,0,1,.859.28c.88.56,1.144,1.418,1,1.574a1.553,1.553,0,0,1-.715.1m2.77,1.909c-.612,0-.97-.181-1.043-.4s.09-.4.361-.4h4.369c.27,0,.432.182.359.4s-.414.4-1.043.4Z" transform="translate(617.811 -17574.447)" fill="#fff"/><text transform="translate(1223.034 -17110.48)" fill="#fff" font-size="8.709" font-family="DaxOT, Dax OT"><tspan x="0" y="0">P</tspan></text><path d="M671.927,466.632V469.8a.4.4,0,0,1-.4.4h-1.116a.4.4,0,0,1-.4-.4v-2.861a1.564,1.564,0,0,1,1.735-1.5H673.7v1.2Z" transform="translate(617.811 -17574.447)" fill="#fff"/><path d="M690.49,466.632V469.8a.4.4,0,0,0,.4.4h1.116a.4.4,0,0,0,.4-.4v-2.861a1.564,1.564,0,0,0-1.735-1.5h-1.947v1.2Z" transform="translate(617.811 -17574.447)" fill="#fff"/><path d="M688.99,475.64a.4.4,0,0,1-.4.4h-2.465a.4.4,0,0,1-.4-.4v-.991a.4.4,0,0,1,.4-.4h2.465a.4.4,0,0,1,.4.4Zm-4.654-.1a.84.84,0,0,1-.77.494h-4.717a.843.843,0,0,1-.77-.494c-.088-.274.11-.5.443-.5h5.371c.334,0,.534.223.443.5m-7.647.1a.4.4,0,0,1-.4.4h-2.466a.4.4,0,0,1-.4-.4v-.991a.4.4,0,0,1,.4-.4h2.466a.4.4,0,0,1,.4.4Zm-1.9-11.452c.787-.569,4.181-.6,6.415-.6s5.628.028,6.415.6c.807.585.807,6.7,0,7.283-.787.569-4.182.6-6.415.6s-5.628-.028-6.415-.6c-.808-.584-.808-6.7,0-7.283m4.951-3.026h2.925a.558.558,0,1,1,0,1.116h-2.925a.558.558,0,1,1,0-1.116m9.836,10.132v-8.447a2.888,2.888,0,0,0-2.247-2.721,35.979,35.979,0,0,0-12.248,0,2.889,2.889,0,0,0-2.249,2.721v8.447a.979.979,0,0,0-.514.847v4.67a1.015,1.015,0,0,0,1.033.99h15.7a1.017,1.017,0,0,0,1.035-.99v-4.67a.979.979,0,0,0-.514-.847" transform="translate(617.811 -17574.447)" fill="#fff"/><path d="M673.407,476.771v2.223a1,1,0,0,0,1,.989h.82a1,1,0,0,0,.995-.989v-2.223Z" transform="translate(617.811 -17574.447)" fill="#fff"/><path d="M686.2,476.771v2.223a.994.994,0,0,0,.995.989h.82a.994.994,0,0,0,.994-.989v-2.223Z" transform="translate(617.811 -17574.447)" fill="#fff"/><path d="M719.416,471.429a2.206,2.206,0,0,0-.8-.065c1.473-5.214,3.374-7.429,6.481-9.451a11.664,11.664,0,0,0-5.191,4.7c-.768-5.358,2.7-4.255,5.97-5.515-1.2,3.083-.054,7.72-4.852,6.05a8.056,8.056,0,0,0-1.6,4.278m-2.994-4.968c-5.865-.173-4.2-2.568-5.852-5.416,3.832-.489,7.421.436,6.512,5.06a13.908,13.908,0,0,1,1.481,5.265,1.83,1.83,0,0,0-.71.021c-.066-3.195-1.038-4.772-1.431-4.93m-.062,6.354c-1.573.029-2.22.423-2.761,1.694h10.455c.22-1.362-1.446-2.077-2.308-.573-.444-2.882-5.075-2.823-5.386-1.121" transform="translate(617.811 -17574.447)" fill="#fff"/><path d="M742.205,468.965a.4.4,0,1,1,.389-.4.392.392,0,0,1-.389.4m2.719-5.05a1.059,1.059,0,1,1,1.035-1.06,1.048,1.048,0,0,1-1.035,1.06m3.753,2.666h0a.4.4,0,0,1,0,.794H747.09a.608.608,0,0,1-.418-.208l-.809-1.039c-.09-.116-.163-.086-.163.057v1.587c0,.159,1.2,3.075,1.2,3.075a1.222,1.222,0,0,1,.069.5l-.232,2.268a.388.388,0,1,1-.776-.016v-2.248a1.386,1.386,0,0,0-.115-.5l-.676-1.385c-.063-.129-.135-.121-.163.026l-.292,1.6a1.152,1.152,0,0,1-.219.458l-1.982,2.3-.032.037a.382.382,0,0,1-.548,0,.406.406,0,0,1-.043-.511l1.592-2.333a1.371,1.371,0,0,0,.19-.482,16.505,16.505,0,0,0,.217-2.384v-1.984c0-.149-.093-.193-.2-.1l-.894.728a.613.613,0,0,0-.2.427l0,1.328h-.776V466.71a.7.7,0,0,1,.188-.439s1.439-1.358,1.623-1.543a1.313,1.313,0,0,1,1.165-.53c1.165,0,1.243.344,1.424.53s1.147,1.634,1.147,1.634a.55.55,0,0,0,.405.219Z" transform="translate(617.811 -17574.447)" fill="#fff"/><path d="M765.7,469.237a.284.284,0,0,0-.284.284v4.193a.284.284,0,1,0,.568,0v-4.193a.284.284,0,0,0-.284-.284" transform="translate(617.811 -17574.447)" fill="#fff"/><path d="M765.53,468.268h-.9a4.089,4.089,0,0,0-.337,2.218c.009.257.018.522.013.8a.37.37,0,0,0,.363.374h.006a.369.369,0,0,0,.369-.363c.005-.295-.005-.57-.014-.836a2.8,2.8,0,0,1,.5-2.193" transform="translate(617.811 -17574.447)" fill="#fff"/><path d="M766.787,468.268h-.794a7.965,7.965,0,0,1,.379,3.733.37.37,0,0,0,.34.4h.028a.369.369,0,0,0,.367-.342,11.622,11.622,0,0,0-.118-3,5.875,5.875,0,0,0-.2-.784" transform="translate(617.811 -17574.447)" fill="#fff"/><path d="M767.067,467.446h-2.732a6.435,6.435,0,0,1,.271-2.218c.026-.076.054-.15.085-.22v2.109h0v.11h2v-.11h0v-2.14c.035.082.069.167.1.257a6.377,6.377,0,0,1,.275,2.212m.941,0h-.246c.05-1.9-.448-3.346-1.35-3.885a1.357,1.357,0,0,0-1.433,0c-.9.536-1.391,1.981-1.339,3.886h-.246a.285.285,0,0,0,0,.569h4.614a.285.285,0,0,0,0-.569" transform="translate(617.811 -17574.447)" fill="#fff"/><path d="M765.7,461.083a1.014,1.014,0,1,1-1.014,1.014,1.014,1.014,0,0,1,1.014-1.014" transform="translate(617.811 -17574.447)" fill="#fff"/><path d="M749.655,471.385a.539.539,0,0,0,0,.057v1.78a.756.756,0,0,0,.753.753h.619a.756.756,0,0,0,.753-.753v-.552H750.19c-.179,0-.383-.568-.535-1.285" transform="translate(617.811 -17574.447)" fill="#fff"/><path d="M762.173,471.384c-.152.718-.357,1.285-.536,1.285H760.05v.554a.754.754,0,0,0,.753.751h.619a.754.754,0,0,0,.753-.751v-1.781c0-.019,0-.039,0-.058" transform="translate(617.811 -17574.447)" fill="#fff"/><path d="M755.914,463.765h0c-2.366,0-3.211.044-3.815.419a7.634,7.634,0,0,0-1.382,1.971l-.02.021a.328.328,0,0,0-.306-.21h-1.117c-.416,0-.474.407-.474.63h0a1.143,1.143,0,0,0,.008.141.359.359,0,0,0,.343.3h.482l.049-.006h0c.226,0,.434.1.355.416a8.441,8.441,0,0,0-.552,1.331,7.475,7.475,0,0,0,.171,2.606c.152.717.356,1.285.535,1.285h11.447c.179,0,.383-.568.536-1.286a7.491,7.491,0,0,0,.17-2.605,8.4,8.4,0,0,0-.552-1.332c-.079-.312.129-.415.354-.415h0l.051.006h.482a.36.36,0,0,0,.343-.3,1.022,1.022,0,0,0,.007-.126v-.031c0-.226-.066-.615-.474-.615h-1.116a.327.327,0,0,0-.307.21l-.019-.02a7.622,7.622,0,0,0-1.383-1.972c-.6-.375-1.45-.419-3.816-.419m-.556.753h1.11c1.781.008,2.48.067,2.865.3a10.033,10.033,0,0,1,1.258,1.936,30.6,30.6,0,0,1-9.353,0,9.974,9.974,0,0,1,1.276-1.951c.367-.225,1.065-.283,2.844-.291m4.529,5.058a1.439,1.439,0,0,1-.665-.09c-.13-.145.115-.946.934-1.467a1.9,1.9,0,0,1,.8-.262.308.308,0,0,1,.239.084c.2.226.354,1.224.032,1.5a2.823,2.823,0,0,1-1.338.237m-7.944,0a2.815,2.815,0,0,1-1.339-.237c-.322-.274-.166-1.272.033-1.5a.306.306,0,0,1,.239-.084,1.89,1.89,0,0,1,.8.262c.819.521,1.065,1.322.935,1.467a1.445,1.445,0,0,1-.665.09m2.575,1.779c-.569,0-.9-.169-.97-.376s.084-.376.335-.376h4.063c.252,0,.4.169.334.376s-.385.376-.969.376Z" transform="translate(617.811 -17574.447)" fill="#fff"/><path d="M778.687,348.078a7.2,7.2,0,0,1-7.213,7.14H443.08a7.14,7.14,0,1,1,0-14.28H771.474a7.2,7.2,0,0,1,7.213,7.14" transform="translate(618.132 -17574.447)" fill="#e0e1e2"/><path d="M542.838,348.078a7.2,7.2,0,0,1-7.212,7.14H443.079a7.14,7.14,0,1,1,0-14.28h92.547a7.2,7.2,0,0,1,7.212,7.14" transform="translate(617.811 -17574.447)" fill="#18988b"/><text transform="translate(1206 -17143.586)" fill="#8fa028" font-size="9.159" font-family="CenturyGothic, Century Gothic"><tspan x="0" y="0">24 meter</tspan></text><text transform="translate(1157 -17205.961)" fill="#18988b" font-size="9.159" font-family="CenturyGothic, Century Gothic"><tspan x="0" y="0">5.000 motorvoertuigen/etmaal</tspan></text><path d="M641.457,463.923a.756.756,0,0,0-.756.757v13.013a.755.755,0,0,0,.756.756h5.229a.755.755,0,0,0,.756-.756V464.68a.756.756,0,0,0-.756-.757Zm2.614,12.993a1.461,1.461,0,1,1,1.461-1.461,1.461,1.461,0,0,1-1.461,1.461m0-4.138a1.461,1.461,0,1,1,1.461-1.46,1.46,1.46,0,0,1-1.461,1.46m0-4.137a1.46,1.46,0,1,1,1.461-1.46,1.46,1.46,0,0,1-1.461,1.46m7.025-2.6a3.627,3.627,0,0,1-2.642,2.578v-3.147h2.181a.472.472,0,0,1,.471.474.458.458,0,0,1-.01.1Zm0,4.137a3.626,3.626,0,0,1-2.642,2.577v-3.145h2.181a.471.471,0,0,1,.471.473.464.464,0,0,1-.01.1Zm0,4.137a3.626,3.626,0,0,1-2.642,2.577v-3.147h2.181a.471.471,0,0,1,.471.473.458.458,0,0,1-.01.1Zm-11.407-5.7a3.629,3.629,0,0,1-2.642-2.575.473.473,0,0,1,.363-.561.461.461,0,0,1,.1-.011h2.181Zm0,4.138a3.633,3.633,0,0,1-2.642-2.576.473.473,0,0,1,.363-.561.46.46,0,0,1,.1-.01h2.181Zm-2.181.988h2.181V476.9a3.627,3.627,0,0,1-2.642-2.576.471.471,0,0,1,.363-.56.459.459,0,0,1,.1-.011" transform="translate(617.811 -17574.447)" fill="#fff"/></g></svg>