<svg xmlns="http://www.w3.org/2000/svg" width="4239.999" height="616.985" viewBox="0 0 4239.999 616.985"><g transform="translate(1634 -113.797)"><path d="M392.776,3930.211,280.961,3826.2H-1352v-87H279.993l112.07-98.991L391.672,3481l620.852.005.4,160.974,109.638,97.224H2888v87H1125.8l-112.165,105.162.411,166.572-620.859.047Z" transform="translate(-282 -3367.203)" fill="#fff"/><rect width="343.991" height="114.099" transform="translate(289.675 329.019)" fill="#8fa028"/><rect width="343.991" height="108.536" transform="translate(289.675 449.62)" fill="#18988b"/><text transform="translate(308.798 427.912)" fill="#fff" font-size="113.559" font-family="CenturyGothic-Bold, Century Gothic" font-weight="700"><tspan x="0" y="0">straat</tspan></text><text transform="translate(308.798 427.912)" fill="#fff" font-size="113.559" font-family="CenturyGothic, Century Gothic"><tspan x="0" y="0"> </tspan></text><text transform="translate(322.312 543.06)" fill="#fff" font-size="113.559" font-family="CenturyGothic-Bold, Century Gothic" font-weight="700"><tspan x="0" y="0">maat</tspan></text><rect width="86.064" height="108.537" transform="translate(203.61 449.619)" fill="#1a1818"/><rect width="86.064" height="114.099" transform="translate(203.61 329.019)" fill="#1a1818"/><text transform="translate(201.464 592.709)" fill="#1a1818" font-size="33.8" font-family="CenturyGothic, Century Gothic"><tspan x="0" y="0">inspiratie atlas: van shared </tspan></text><text transform="translate(246.606 633.269)" fill="#1a1818" font-size="33.8" font-family="CenturyGothic, Century Gothic"><tspan x="0" y="0">space tot stadsstraat</tspan></text><path d="M281.415,301.893a3.546,3.546,0,0,0,.381,5l4.631-4.924a3.541,3.541,0,0,0-5.012-.078" fill="#8fa028"/><path d="M301.658,291.484a21.458,21.458,0,0,0-3.749-.292,2.819,2.819,0,0,0-1.5.814c-.646.689-23.974,25.528-25.042,26.695a6.536,6.536,0,0,0-1.519,2.627,3.774,3.774,0,1,0,1.45.031c.258-1.326,2.945-3.656,4.887-5.711l10.677,1.945,1.3,3.884a3.775,3.775,0,1,0,1.484-.312.605.605,0,0,0-.122.005l-1.258-3.754,4.284-19.25c2.871-3.074,4.248-4.55,4.694-5.035a1.892,1.892,0,0,1,.858-.565,22.44,22.44,0,0,1,3.457.274Zm-29.667,33.55a1.494,1.494,0,0,1-2.987.019,1.494,1.494,0,1,1,2.987-.019m17.668-1.6a1.493,1.493,0,1,1-1.486,1.5,1.492,1.492,0,0,1,1.486-1.5" fill="#8fa028"/><path d="M278.13,310.849s-5.787,6.343-6.445,6.856a1.5,1.5,0,0,1-1.929-.158c-.312-.391-.808-1.075.208-2.143s3.646-4.248,4.522-4.713c1.036-.555,3.644.158,3.644.158" fill="#8fa028"/><path d="M328.651,325.694l-7.469-8.808-1.72-5.042,1.949-.14-5.089-16.845s.075-2.79.078-4.76c.023-4.578-.089-7.44-2.279-7.984-1.089-.271-4.043-.581-5.271,1.013-1,1.3-3.218,7.6-3.218,7.6-1.366-.26-4.657-.874-5.377-1a2.006,2.006,0,0,0-2.4,1.591,1.974,1.974,0,0,0,1.681,2.372c1.773.336,5.219,1.008,6.756,1.25a4.672,4.672,0,0,0,2.1-.091l.128.547L305.628,311.9l1.448.3-4.486,14.047a2.314,2.314,0,0,0,1.526,2.913,2.431,2.431,0,0,0,.887.107,2.342,2.342,0,0,0,2.063-1.6l4.925-15.363,2.73-.117,2.005,6.115a4.566,4.566,0,0,0,.825,1.489l7.492,8.844a2.395,2.395,0,0,0,3.313.308,2.294,2.294,0,0,0,.3-3.255" fill="#8fa028"/><path d="M308.619,275.086a4.563,4.563,0,0,1,5.277-2.443,3.167,3.167,0,0,1,2.646-.678c3.735.887,1.861,7.81,3.344,8.513a.643.643,0,0,0,.214.058c.806.068,1.037-1.05.753-1.428-.421-.539-1.147-.009-1.147-.009a1.085,1.085,0,0,1,.76-.669c.314-.038.97.036,1.208,1.041a3.338,3.338,0,0,1-2.687,3.708c-1.906.206-2.931-.828-3.318-2.659a4.552,4.552,0,0,1-7.05-5.434" fill="#8fa028"/><path d="M416.617,240.483c0-28.369-17.973-73.514-40.142-73.514s-40.148,45.145-40.148,73.514c0,26.34,15.5,48.013,35.45,50.988l-1.216,36.553h12.073l-1.467-36.553c19.956-2.975,35.45-24.648,35.45-50.988" fill="#8fa028"/><path d="M582.294,307.482a9.578,9.578,0,1,0,9.253,9.573,9.415,9.415,0,0,0-9.253-9.573m.046-2.444a11.83,11.83,0,1,0,11.372,11.821,11.6,11.6,0,0,0-11.372-11.821" fill="#8fa028" fill-rule="evenodd"/><path d="M546.662,307.453A9.459,9.459,0,1,0,555.8,316.9a9.3,9.3,0,0,0-9.137-9.452m.044-2.415a11.683,11.683,0,1,0,11.232,11.675,11.46,11.46,0,0,0-11.232-11.675" fill="#8fa028" fill-rule="evenodd"/><path d="M581.856,301.677a2.251,2.251,0,0,0,.138-2.291,18.163,18.163,0,0,0-3.266-5.347c-.44-.436-.978-1.036-.978-1.036l-.306.313a4.361,4.361,0,0,1,1.564,4.38c-.554,2.123-3.371,3.515-3.38,3.519l.076.164c1.362-.67,3.071-2.089,3.475-3.637a4.471,4.471,0,0,0-1.47-4.44l.035-.038c.145.159.515.561.861.9a18.011,18.011,0,0,1,3.223,5.279,2.439,2.439,0,0,1-.018,1.987.841.841,0,0,1-.082.117Z" fill="#8fa028" fill-rule="evenodd"/><path d="M576.963,293.569c.037.01,4.779,1.118,3.985,4.6-.473,2.072-3.862,3.315-5.6,3.693l.026.417a20.479,20.479,0,0,0,3.143-1.076c1.529-.684,3.165-1.718,3.359-3.089a4.64,4.64,0,0,0-1.636-4.408,6.31,6.31,0,0,0-2.085-1.164l-.048.173a4.945,4.945,0,0,1,.643.255,4.7,4.7,0,0,1,2.951,5.118c-.3,2.106-4.4,3.51-6.163,3.964l0-.046c1.854-.439,5.1-1.67,5.587-3.8.561-2.455-1.466-3.893-3.359-4.581a7.34,7.34,0,0,0-.758-.234Z" fill="#8fa028" fill-rule="evenodd"/><path d="M573.161,294.479l1.16-.495v-.271c0-.121-.063-.252-.192-.205s-.648.364-.959.2-.529-.28-.576-.251.019.112.047.2-.084.176-.238.139a.861.861,0,0,1-.393-.279c-.155-.15-.293-.5-.529-.505s-.6-.093-.669-.347a1.992,1.992,0,0,0-.41-.644.616.616,0,0,1-.129-.27,2.475,2.475,0,0,0-.566.019c-.237.046-.548.12-.611.232s-.2.225-.339.159a2.978,2.978,0,0,0-.511-.3,2.5,2.5,0,0,0-.622-.083.692.692,0,0,1-.557-.168,1.145,1.145,0,0,0-.714-.216,1.285,1.285,0,0,1-.7-.27c-.274-.177-.382-.008-.985-.337-.7-.383-1.984-.972-1.984-.972a4.323,4.323,0,0,1-.466.552.92.92,0,0,0-.347.719c0,.252,0,.505-.156.617s-.227.121-.146.336.219.075.045.495-.145.832-.274,1.019a.618.618,0,0,0-.145.682,1.4,1.4,0,0,1,0,1.187c-.229.542-.028.952-.274,1.13a.948.948,0,0,0-.311.542s.138.384.9.9,3.8,1.943,4.668,2.625,1.837,1.589,1.69,2.457a4.173,4.173,0,0,1-.529,1.459s1.516-.654,1.79-.785a7.474,7.474,0,0,0,1.507-1.29c.843-.822,2.944-2.775,2.944-2.775a.5.5,0,0,0,.136-.384,2.583,2.583,0,0,0-.11-.4.245.245,0,0,1-.287-.161c-.071-.211.184-.372.184-.372a.309.309,0,0,1-.193-.224.372.372,0,0,1,.125-.315s-.612-1.85-.859-2.478c-.351-.886-.325-.977.015-1.1.29-.1.4-.03.428.028a.925.925,0,0,0,.076.2c.021.027.064.012.064.012m5.406,10.416s-.486.028-.358.408.772,2.017.772,2.017.242.19.287-.16-.015-.41.156-.468l.171-.059-.241-.643s-.33.1-.459-.16a8.983,8.983,0,0,1-.328-.935m-1.187-.775a.847.847,0,0,0,.086.438c.116.234.872,2.572.872,2.572a1.122,1.122,0,0,1-.313.1,7.467,7.467,0,0,1-.672-1.768c-.272-.848-.386-1.213-.386-1.213a.283.283,0,0,1,.413-.132m3.143,2.528s-.542-1.593-.642-1.842-.243-.248-.343-.2-.17.2.03.73l.557,1.463s.111.315.311.264c.218-.055.087-.411.087-.411m-21.734,11.808-.24.014a.9.9,0,0,1-.253.764.764.764,0,0,1-.9,0,2.344,2.344,0,0,1-.632-.793l-8.324.171s.03.237.06.4.05.23-.03.252l-.08.022a.21.21,0,0,1,.095.157.3.3,0,0,1-.059.169,1.351,1.351,0,0,1,.624.7,1.844,1.844,0,0,1-.1,1.065s4.054-.447,7.37-.868c2.3-.293,4.246-.608,4.246-.608a5.272,5.272,0,0,1-1.116-.651,2.914,2.914,0,0,1-.66-.794m-10.351-1.329s.388.181.373.447a.68.68,0,0,1-.421.555s-.08.015-.065.075l.013.059,8.506-.141s.038-.163.14-.163.129,0,.136-.119-.03-.134-.093-.171-.037-.185-.037-.185Zm15.026-9.78s.279.02.285.1-.006.451-.006.451-.007,0-.136.03-.138.026-.138.133v.148a2.877,2.877,0,0,1-.376.069c-.1,0-.194-.1-.311-.184s-.255-.159-.255-.159.609-.4.726-.47.211-.12.211-.12m-3.313,2.751a11.969,11.969,0,0,0-.717,1.5c.011.152.259,1.062.259,1.062a2.186,2.186,0,0,0,.432.115c.248.037.4.05.4.189s.013.265.013.265a4.917,4.917,0,0,1,.755-.05,6.812,6.812,0,0,1,.827.077s.581-.924.89-1.367.347-.506.347-.506.2-1.024.235-1.555.011-.8-.088-.746-.272.127-.283.241a.549.549,0,0,1-.253.385.7.7,0,0,1-.589.1.157.157,0,0,0-.238.044.259.259,0,0,1-.271.1.137.137,0,0,0-.179.047.291.291,0,0,1-.283.1c-.132-.028-.155-.023-.2.033a.289.289,0,0,1-.259.112.2.2,0,0,0-.244.06.288.288,0,0,1-.309.07c-.067-.037-.1-.179-.138-.231a.114.114,0,0,0-.1-.046m-1.533-.81.112.342,1.371-.53s-.285-.027-.557-.064a.967.967,0,0,0-.63.064c-.149.087-.3.188-.3.188m-1.472.974.582-.19-.1-.391s-.075-.014-.235.177a1.731,1.731,0,0,0-.248.4m.121-7.214s.012.276.215.309l2.122.364a3.683,3.683,0,0,0-1.077-.639,2.681,2.681,0,0,0-.807-.143,1.133,1.133,0,0,0-.453.109m.356,2.182-.141-.694a.32.32,0,0,1,.355-.122c.271.045,1.251.177,1.251.177a4,4,0,0,0-.755.264c-.259.144-.71.375-.71.375m.429,8.529.9-.043-.89-2.7a.23.23,0,0,0-.306-.13c-.22.087-.615.238-.615.238s.24.7.311.964.312.5.36.774.149.557.171.68a.95.95,0,0,0,.064.217m.052.228.909-.053.035.186s-.139.213-.285.42a3.269,3.269,0,0,1-.218.286,1.379,1.379,0,0,1-.2-.117,1.787,1.787,0,0,0-.166-.106s-.011-.207-.017-.345a.821.821,0,0,0-.061-.271m-2.213.133a8.485,8.485,0,0,1-1.262-1.3c-.328-.446-.393-.542-.393-.542l-5.138,2.139s6.828-.265,6.793-.3m-8.183.848a.992.992,0,0,1,.231.322,2.186,2.186,0,0,1,.067.481l9.649.184s-.225-.272-.513-.642a6.467,6.467,0,0,0-.5-.636,4.623,4.623,0,0,0-.493-.371l-7.633.347Zm5.187-2.854-.749.287s-.054.016-.106-.1a2.073,2.073,0,0,1-.08-.226s.1-.021.059-.145-.089-.277.036-.261l.2.025s-.015.185.2.154.276-.02.351.073a.445.445,0,0,1,.091.2m29.035-10.533s.069.051-.034.174-.558.712-.558.712l-.155.034-1.316,1.642s.12-.044.213.252.322.877.322.877.594,2,.781,2.344.339.678.17.8a.818.818,0,0,1-.476.087s.153.13-.1.226a1.955,1.955,0,0,1-.671.208c-.229,0-.313-.043-.143.3s2.7,6.748,2.7,6.748a.992.992,0,0,1,.514.792.81.81,0,0,1-.393.745,1.517,1.517,0,0,1-.7.5.865.865,0,0,1-1.015-.83.828.828,0,0,0-.11-.5c-.127-.287-3.685-8.459-3.685-8.459s-.256-.486-.162-.583.1-.077.1-.077l-.587-1.355s-.2-.034-.184.164a.779.779,0,0,1-.336.8,2.145,2.145,0,0,1-1.331.354,1.564,1.564,0,0,0-1.374.7c-1.255,1.574-3.4,5.129-3.4,5.129s-.074.158-.063-.223a10.6,10.6,0,0,1,.782-2.991,14.728,14.728,0,0,1,4.476-5.744l-.069-.237a.326.326,0,0,1-.283-.186.368.368,0,0,1,.1-.349.126.126,0,0,1,.065-.2c.054-.019.049-.025.049-.025s-.054-.143.024-.18a.638.638,0,0,0,.142-.093.375.375,0,0,1-.032-.081c-.018-.063-.078-.012-.169-.05s-.129-.122-.183-.285c-.1-.311-.175-.658-.5-.347s-2.133,2-3.2,3.124-2.835,3.346-2.835,3.346a20.577,20.577,0,0,1-.463,2.085,13.384,13.384,0,0,0-.633,3.022,17.758,17.758,0,0,0,.125,2.2c.054.337.071.419-.071.465s-.527.228-.723.291-.224.11-.224.11-.053.082.135.321a2.823,2.823,0,0,0,.713.674c.179.074.509.293.635.348a6.385,6.385,0,0,0,1.58.465c.8.037.82.383.82.383s.118.019.127.211a.524.524,0,0,1-.108.547,2.726,2.726,0,0,1-1.724.539,4.776,4.776,0,0,1-.75.018l.009.356s.117.2-.009.284-.58.391-.58.391-.205.138-.322.056-.123-.11-.123-.11l-.652.046a.576.576,0,0,1-1.062.008s-.283.108-.352-.049c-.059-.131.11-.216.11-.216l-.554-.7s-.348.028-.821.082a4.252,4.252,0,0,1-1.338-.091c-.313-.1-.162-.53-.162-.53s-.739.058-1.6.176c-.086.011-2.322.394-4.786.693-3.22.387-6.8.729-6.8.729a1.969,1.969,0,0,1-.58.109c-.205-.018-.357-.063-.482.037s-.384.2-.447.073.024-.225,0-.375c-.052-.327-.177-.317-.218-.53a.744.744,0,0,1,.041-.4,1.4,1.4,0,0,1,.078-.651.963.963,0,0,1,.438-.445s-.026-.146-.036-.256-.124-.209-.214-.145-.179.192-.223.091-.017-.119-.088-.119a.573.573,0,0,1-.348-.2.455.455,0,0,1-.091-.307s-.552.014-.792.014-.228-.173-.228-.173a1.279,1.279,0,0,0-.339-.03c-.354.03-.424-.115-.424-.115s-.569-.017-.61-.391a1.278,1.278,0,0,1,.185-.839.8.8,0,0,1-.136-.523,1.027,1.027,0,0,1,.348-.476,1.7,1.7,0,0,1,.957-1.76,1.872,1.872,0,0,1,1.86.284l4.4-1.925s-.031-.09-.072-.18-.025-.172-.1-.172-.128.015-.216-.223c-.181-.482-.231-.476-.193-.547.024-.048.12-.087.12-.087a.156.156,0,0,1,.075-.239.178.178,0,0,1,.254.067,2.074,2.074,0,0,0,.523-.214,1.434,1.434,0,0,1,.572-.272,4.228,4.228,0,0,0,.4-.132s-.642-.9-.909-1.291-.464-.706-.281-.931a1.274,1.274,0,0,1,.594-.452,7.068,7.068,0,0,0-2.413-2.964,34.79,34.79,0,0,0-6.118-3.02s-.281-.173.034-.214a6.981,6.981,0,0,1,2.051-.016,17.071,17.071,0,0,1,8.6,4.889.544.544,0,0,0,.449.128c.235-.022.3-.03.3-.03a.161.161,0,0,1,.11-.127,1.376,1.376,0,0,0,.87-.545c.213-.405.255-.361.255-.361l-.322-1.8s-.421-.041-.628-.041c-.581,0-.388-.409-.473-.411a9.917,9.917,0,0,1-2.1-.425c-3.108-.911-.841-2.814-.841-2.814a2.537,2.537,0,0,1-.376-2.209,11.25,11.25,0,0,0,.487-1.917.932.932,0,0,1-.088-.347.371.371,0,0,1-.177-.536c.184-.445.87-1.455,1.127-2.059s.635-1.388.723-1.675.624-1.73.82-2.178.722-2.23,1.022-3.245a5.4,5.4,0,0,1,1.159-2.431c.557-.509.663-.462.812-.769s.287-.34.527-.463.269-.073.4-.329a.705.705,0,0,1,.561-.345.343.343,0,0,0,.132-.352c-.028-.265-.114-.645-.108-.821l.006-.176s-.111-.158-.235-.317c-.14-.177-.121-.307-.239-.423a.3.3,0,0,0-.38-.085.244.244,0,0,0-.028.3,2.517,2.517,0,0,1,.261,1.111,3.133,3.133,0,0,1-.678,1.549,4.663,4.663,0,0,0,.574-1.469c.028-.444-.069-.618-.068-.568a3.028,3.028,0,0,1-.484,1.867,5.974,5.974,0,0,1-1.136,1.243,4.315,4.315,0,0,1-1.262.73,3.173,3.173,0,0,1-1.371.187,4.718,4.718,0,0,0,1.258-.22,1.983,1.983,0,0,0,.771-.411,4.579,4.579,0,0,1-2.586.548,2.145,2.145,0,0,0,.68-.27,1.9,1.9,0,0,0,.719-.736,4.474,4.474,0,0,1-.782.68,1.962,1.962,0,0,1-.945.232,2.646,2.646,0,0,0,1.744-1.133c.485-.783-.147.2-.456.437a.7.7,0,0,1-.867-.1.7.7,0,0,0,.954-.065,4.729,4.729,0,0,0,.883-2.366,1.622,1.622,0,0,1,.217-.495c.033-.044-.025-.148-.215.261-.223.481-.2,1.321-.46,1.9a.4.4,0,0,1-.719.132c.008-.007.462.452.684-.225.19-.576.246-1.545.436-1.924a3.323,3.323,0,0,1,.469-.675c.022-.025-.249.071-.451.478a5.542,5.542,0,0,0-.367,1.464,4.557,4.557,0,0,1,.366-1.654c.262-.528.974-.817.961-.846-.028-.06-.468.195-.565.27a2.365,2.365,0,0,0-.775,1.779,2.225,2.225,0,0,1,.637-1.777,2.074,2.074,0,0,1,1.349-.546c.749.019.164,0,.445-.346a.357.357,0,0,1,.241-.093s-.233-2.7,1.686-3.971c1.611-1.071,3.78.012,3.78.012a.23.23,0,0,1,.249.025c.1.1.069.155.069.155a5.583,5.583,0,0,1,.641.515,5.222,5.222,0,0,1,.526.6s.24.09.24.3a2.843,2.843,0,0,1-.032.4,1.112,1.112,0,0,1,.194.751,4.824,4.824,0,0,0-.052.775.239.239,0,0,1-.063.3.554.554,0,0,0-.159.571,6.248,6.248,0,0,0,.306.831c.3.6-.36.657-.36.657s-.087.019-.1.165c-.019.235.068.3-.021.423a.268.268,0,0,1-.188.1.128.128,0,0,1,.054.111c0,.162-.207.16-.256.367-.042.182.045.542-.227.727a1.014,1.014,0,0,1-.713.121c-.293-.035-.815-.125-1.042.184a1.817,1.817,0,0,0-.279.472,2.284,2.284,0,0,1,.982.369c.326.281.6.579.978.9s.637.369.821.543.148.311.269.311a.677.677,0,0,1,.614.42,1.478,1.478,0,0,0,.559.724,2.157,2.157,0,0,0,.787.369c.275.065.73.115.907.376a2.311,2.311,0,0,0,1,.637,4.282,4.282,0,0,1,.955.376,6.739,6.739,0,0,0,1.174.543c.341.115.594.238.85.311s.354.015.545.159.155.159.388.167a.935.935,0,0,1,.538.108.769.769,0,0,0,.5.072c.274-.01.231.013.587,0,.425-.014.63.015.729.2a.309.309,0,0,1,.014.311,4.832,4.832,0,0,0,.991.224,4.208,4.208,0,0,1,1.422.413c.319.173.156.194.46.209s.313.145.313.354.021.558.183.652a4.494,4.494,0,0,1,.406.894.386.386,0,0,1,.021.184c-.006.094-.04.121.139.146.147.019.2.058.2.18s.019.336-.132.277-.3-.206-.443-.189-.406.074-.474-.05-.089-.295-.186-.314a.772.772,0,0,0-.255,0s-.025.15-.246.22-.481.16-.54.321c-.068.184-.263.785-.263.785a.11.11,0,0,1-.116.1c-.114,0-.38-.021-.38-.021s-.091.279-.35.224a4.877,4.877,0,0,1-.768-.3l-1.512,1.005a.339.339,0,0,0-.136.447c.106.338.534,1.571.534,1.571a.327.327,0,0,1,.274.141.466.466,0,0,1,.043.3s.281-.066.4.124-.125.366-.125.366l1.243,3.386s.069.108.033.181a.268.268,0,0,1-.047.08s.244.008.328.135,0,.365,0,.365a2.025,2.025,0,0,1,.361.21.553.553,0,0,0,.42.151c.141-.022.341-.048.425.156s.173.434.2.5a.982.982,0,0,1,.058.289c0,.128-.042.1.031.123a1.121,1.121,0,0,0,.277,0,7.245,7.245,0,0,1,.733-1.6.544.544,0,0,1,.451-.187.16.16,0,0,0,.042-.155c-.016-.113-.3-1.163-.3-1.163s-.006-.107.067-.117.451-.049.451-.049.078-.022.1.112.274.933.274.933.078.192-.006.214a2.411,2.411,0,0,1-.3.032s-.114-.011-.125.065-.047.138-.012.166a.276.276,0,0,1-.014.347.38.38,0,0,1-.324.15.382.382,0,0,0-.425.226c-.133.263-.425.991-.425.991s.527-.044.641.147.253.189.386.043a.4.4,0,0,1,.385-.131l1.273-1.623a.283.283,0,0,1,.071-.307c.143-.146.614-.7.614-.7a.327.327,0,0,1,.175,0c.064.036.058.134.058.134" fill="#8fa028" fill-rule="evenodd"/><path d="M431.448,307.492a10.431,10.431,0,1,0,10.429,10.429,10.429,10.429,0,0,0-10.429-10.429m0,15.279a4.848,4.848,0,1,1,4.849-4.85,4.85,4.85,0,0,1-4.849,4.85" fill="#8fa028"/><path d="M498.377,307.492a10.431,10.431,0,1,0,10.43,10.429,10.427,10.427,0,0,0-10.43-10.429m0,15.279a4.848,4.848,0,1,1,4.849-4.85,4.848,4.848,0,0,1-4.849,4.85" fill="#8fa028"/><path d="M519.845,305.769l-.022-.137a7.109,7.109,0,0,0-.5-1.117v0c-1.237-2.3-4.059-7.465-15.127-9.275-.193-.028-.838-.141-1.755-.3,0,0-2.953-.344-8.2-.8a38.454,38.454,0,0,1-6.834-6.589c-5.954-6.854-10.434-9.362-10.991-9.659a23.761,23.761,0,0,0-7.141-2.172c-.193-.034-19.107-3.207-29.1.778l-.013-.032c-.093.048-.185.1-.278.151l-.117.049,0,.015a36.015,36.015,0,0,0-3.374,2.237h0a51.746,51.746,0,0,0-5.949,5.225c-2.149,2.149-3.8,3.736-5.131,4.881-.921.827-3.367,1.681-4.786,2.183-1.093.407-6.117.477-6.45.488h-.064c-2.242.145-5.293,1.138-7.637,5.529-3.013,5.65.879,17.7,1.632,18.958.73,1.215,2.39,6.3,9.59,6.532h.01c.237.007.469.01.7,0h.739a11.936,11.936,0,0,1-1.131-5.084,13.521,13.521,0,1,1,25.911,5.412H485.87a13.521,13.521,0,1,1,24.779,0h5.192s4.4-1.211,5.427-7.008v.005c.875-3.519-.59-8.1-1.424-10.275m-78.451-14-.793.005h0c-.094,0-.213,0-.341-.009h-.022c-1.4-.067-4.517-.573-5.438-2.753-.971-2.3,4.087-6.414,4.5-6.747.364-.289.729-.569,1.087-.836a10.775,10.775,0,0,1,1.222-.74l-.007-.018c6.8-2.849,21.047-1.652,26.912-.619a20.648,20.648,0,0,1,5.738,1.67l.1.055c.041.021,4.128,2.2,9.736,8.66.181.208.356.407.532.6l0,0s2.231,2.479-1.506,2.235h-.028c-10.722-.727-25.2-1.434-41.685-1.505" fill="#8fa028"/><path d="M456.839,277.547l-.879,16.909,3.722-1,.794-16.168Z" fill="#8fa028"/><text transform="translate(215.702 406.3)" fill="#fff" font-size="45.603" font-family="CenturyGothic, Century Gothic"><tspan x="0" y="0">de</tspan></text><text transform="translate(214.289 517.206)" fill="#fff" font-size="45.603" font-family="CenturyGothic, Century Gothic"><tspan x="0" y="0">op</tspan></text><rect width="15.493" height="149.352" transform="translate(588.293 344.332)" fill="#fff"/><rect width="15.493" height="45.829" transform="translate(368.252 329.019)" fill="#fff"/><path d="M368.252,329.019V287.1l15.493.262v41.656Z" fill="#8fa028"/><path d="M554.7,197.883a13.667,13.667,0,0,0-13.661-13.293c-.221,0-.446.005-.67.018a19.96,19.96,0,0,0-33.483-10.549,16.772,16.772,0,0,0-30.305,9.908c0,.336.01.664.035.99a13.847,13.847,0,0,0-3.139-.367,13.666,13.666,0,0,0-13.663,13.293Z" fill="#e1f0fb"/><path d="M583.636,206.806a11.262,11.262,0,0,0-11.257-10.952c-.182,0-.367,0-.552.013a16.445,16.445,0,0,0-27.588-8.69,13.818,13.818,0,0,0-24.969,8.164c0,.276,0,.547.026.815a11.378,11.378,0,0,0-2.585-.3,11.261,11.261,0,0,0-11.258,10.952Z" fill="#ade1f2"/><path d="M231.688,325.425l1.469,0a1.31,1.31,0,1,0,.727-.007l13.685-.063a1.321,1.321,0,1,0,.728,0l1.511-.009a1.548,1.548,0,1,0-.012-3.062l-17.512.079-.053-15.671,1.487-.009a.13.13,0,0,0,.126-.13l0-.763a.124.124,0,0,0-.127-.126l-3.776.012a.135.135,0,0,0-.128.132l0,.765a.127.127,0,0,0,.129.128l1.484-.007.053,15.681a1.64,1.64,0,0,0-1.564,1.53,1.665,1.665,0,0,0,1.775,1.523m16.248.639a.55.55,0,0,1,.006,1.1.55.55,0,0,1-.006-1.1m-14.414.063a.552.552,0,0,1,.553.547.545.545,0,0,1-.545.55.549.549,0,1,1-.008-1.1" fill="#8fa028"/><path d="M231.069,303.807c.944-.41,3.081-1.242,3.292-1.43.182-.164,1.7-2.882,2.371-3.934a1.649,1.649,0,0,1,1.268-.807c.915-.155,1.572-.222,2.469-.408,1.082-.222,2.133.891,2.29,2.068.206,1.553.751,5.171.751,5.171l3.544,6.788a9.658,9.658,0,0,1-1.692.852c.584,1.179,1.529,3.061,1.529,3.061s2.764,2.522,3.754,3.377a1.423,1.423,0,0,1,.216,2.114,1.512,1.512,0,0,1-2.157-.146c-.834-.742-2.814-2.512-3.7-3.324a2.227,2.227,0,0,1-.5-.617c-.341-.674-1.271-2.554-1.822-3.664-.389.079-.8.154-1.236.211-.7,2.656-1.879,7.318-2.267,8.769a1.384,1.384,0,0,1-1.469.992.643.643,0,0,1-.193-.03,1.256,1.256,0,0,1-.987-1.542c.351-1.314,1.356-5.485,1.983-8.182-.9-.068-1.545-.187-1.545-.187l1.331-7.607-.816-3.287s-.466.791-1.071,1.757a2.136,2.136,0,0,1-1.33,1.087c-.893.409-1.857.867-2.933,1.255-.939.338-1.657.062-1.9-.557a1.327,1.327,0,0,1,.821-1.78" fill="#8fa028"/><path d="M235.71,292.82a3.4,3.4,0,0,1,4.066-2.565,3.444,3.444,0,0,1,1.112.475c.7-1.647,3.832-2.174,4.228.934.352,2.752,1.123,3.675,2.606,3.181,0,0-.93,2.869-3.438,2.065-2.327-.74-1.18-4.653-1.821-5.483a.639.639,0,0,0-.9-.116,3.4,3.4,0,1,1-5.849,1.509" fill="#8fa028"/></g></svg>