<svg xmlns="http://www.w3.org/2000/svg" width="127.958" height="68.177" viewBox="0 0 127.958 68.177"><g transform="translate(-203.61 -329.019)"><g transform="translate(203.61 329.019)"><rect width="102.351" height="33.949" transform="translate(25.608 0)" fill="#8fa028"/><path d="M15.29-73.44,12.5-70.652a4.716,4.716,0,0,0-3.085-1.683,1.942,1.942,0,0,0-1.188.322.967.967,0,0,0-.429.8.984.984,0,0,0,.272.668,5.08,5.08,0,0,0,1.345.833l1.65.825a9.722,9.722,0,0,1,3.58,2.623,5.181,5.181,0,0,1,.973,3.135,5.178,5.178,0,0,1-1.757,3.993,6.726,6.726,0,0,1-4.71,1.6A7.487,7.487,0,0,1,2.883-60.6l2.772-3.019A6.4,6.4,0,0,0,7.511-62.13a4.109,4.109,0,0,0,1.889.569,2.253,2.253,0,0,0,1.435-.429,1.243,1.243,0,0,0,.544-.99q0-1.039-1.963-2.029L7.9-65.768q-4.356-2.194-4.356-5.494A4.767,4.767,0,0,1,5.185-74.9a5.961,5.961,0,0,1,4.2-1.51,7.292,7.292,0,0,1,3.291.767A7.281,7.281,0,0,1,15.29-73.44Zm4.422-9.124h4.5v6.616h2.673v3.877H24.216V-58h-4.5V-72.071H17.4v-3.877h2.31Zm8.53,6.616H32.1v2.26a4.823,4.823,0,0,1,1.666-2.029,4.02,4.02,0,0,1,2.277-.693,4.212,4.212,0,0,1,1.831.462l-1.4,3.877a3.1,3.1,0,0,0-1.3-.4,2.063,2.063,0,0,0-1.757,1.287q-.718,1.287-.718,5.048l.016.874V-58H28.241Zm25.11,0h4.5V-58h-4.5v-1.9a8.83,8.83,0,0,1-2.645,1.807,7.4,7.4,0,0,1-2.876.553,7.988,7.988,0,0,1-6.015-2.7,9.41,9.41,0,0,1-2.538-6.707,9.643,9.643,0,0,1,2.455-6.814A7.823,7.823,0,0,1,47.7-76.41a7.582,7.582,0,0,1,3.032.61,8.274,8.274,0,0,1,2.62,1.831Zm-4.735,3.7a4.551,4.551,0,0,0-3.47,1.477,5.321,5.321,0,0,0-1.381,3.786,5.377,5.377,0,0,0,1.406,3.828,4.555,4.555,0,0,0,3.461,1.5,4.64,4.64,0,0,0,3.519-1.477,5.4,5.4,0,0,0,1.4-3.869,5.242,5.242,0,0,0-1.4-3.795A4.7,4.7,0,0,0,48.617-72.252Zm27.04-3.7h4.5V-58h-4.5v-1.9a8.83,8.83,0,0,1-2.645,1.807,7.4,7.4,0,0,1-2.876.553,7.988,7.988,0,0,1-6.015-2.7,9.41,9.41,0,0,1-2.538-6.707,9.643,9.643,0,0,1,2.455-6.814A7.823,7.823,0,0,1,70-76.41a7.582,7.582,0,0,1,3.032.61,8.274,8.274,0,0,1,2.62,1.831Zm-4.735,3.7a4.551,4.551,0,0,0-3.47,1.477,5.321,5.321,0,0,0-1.381,3.786,5.377,5.377,0,0,0,1.406,3.828,4.555,4.555,0,0,0,3.461,1.5,4.64,4.64,0,0,0,3.519-1.477,5.4,5.4,0,0,0,1.4-3.869,5.243,5.243,0,0,0-1.4-3.795A4.7,4.7,0,0,0,70.922-72.252ZM85.259-82.563h4.5v6.616h2.673v3.877H89.763V-58h-4.5V-72.071h-2.31v-3.877h2.31Z" transform="translate(29.272 87.422)" fill="#fff"/><rect width="25.607" height="33.949" transform="translate(0 0)" fill="#1a1818"/><path d="M9.934-33.578v9.991H9.019v-1.239A3.976,3.976,0,0,1,7.711-23.76a3.538,3.538,0,0,1-1.587.358,3.52,3.52,0,0,1-2.614-1.11,3.721,3.721,0,0,1-1.083-2.7A3.653,3.653,0,0,1,3.52-29.875a3.564,3.564,0,0,1,2.63-1.106,3.4,3.4,0,0,1,1.607.378,3.656,3.656,0,0,1,1.262,1.133v-4.108ZM6.227-30.087a2.8,2.8,0,0,0-1.429.381,2.79,2.79,0,0,0-1.042,1.069,2.925,2.925,0,0,0-.387,1.456,2.93,2.93,0,0,0,.39,1.456,2.843,2.843,0,0,0,1.049,1.082,2.741,2.741,0,0,0,1.413.387,2.9,2.9,0,0,0,1.443-.384A2.684,2.684,0,0,0,8.712-25.68a2.965,2.965,0,0,0,.367-1.476,2.869,2.869,0,0,0-.824-2.091A2.729,2.729,0,0,0,6.227-30.087ZM18.1-25.979l.782.411A4.263,4.263,0,0,1,18-24.349a3.529,3.529,0,0,1-1.134.706,3.955,3.955,0,0,1-1.426.242,3.445,3.445,0,0,1-2.759-1.156,3.9,3.9,0,0,1-.995-2.614,3.854,3.854,0,0,1,.842-2.445,3.443,3.443,0,0,1,2.858-1.365,3.556,3.556,0,0,1,2.944,1.4,3.9,3.9,0,0,1,.8,2.465H12.637a2.935,2.935,0,0,0,.8,2.059,2.56,2.56,0,0,0,1.917.8,3.081,3.081,0,0,0,1.071-.191,2.818,2.818,0,0,0,.886-.508A4.325,4.325,0,0,0,18.1-25.979Zm0-1.941a3.076,3.076,0,0,0-.541-1.186,2.558,2.558,0,0,0-.939-.716,2.875,2.875,0,0,0-1.227-.272,2.643,2.643,0,0,0-1.824.682,3.084,3.084,0,0,0-.842,1.491Z" transform="translate(1.893 46.582)" fill="#fff"/></g><g transform="translate(203.61 364.902)"><rect width="102.351" height="32.294" transform="translate(25.608 0)" fill="#18988b"/><path d="M7.541-75.948h4.5v2.062a7.688,7.688,0,0,1,2.567-1.9,7.5,7.5,0,0,1,3.079-.627,5.722,5.722,0,0,1,3.038.825,5.962,5.962,0,0,1,2.179,2.409,7.274,7.274,0,0,1,2.633-2.409,7.181,7.181,0,0,1,3.409-.825,6.312,6.312,0,0,1,3.368.891,5.148,5.148,0,0,1,2.089,2.326,12.429,12.429,0,0,1,.636,4.669V-58H30.507V-67.1q0-3.052-.759-4.133a2.6,2.6,0,0,0-2.277-1.081,3.454,3.454,0,0,0-2.071.66,3.9,3.9,0,0,0-1.361,1.823,11.331,11.331,0,0,0-.445,3.737V-58H19.057v-8.695a12.24,12.24,0,0,0-.355-3.489,3.156,3.156,0,0,0-1.067-1.609,2.8,2.8,0,0,0-1.72-.528,3.389,3.389,0,0,0-2.042.668A3.985,3.985,0,0,0,12.5-69.777a11.575,11.575,0,0,0-.455,3.795V-58h-4.5Zm45.04,0h4.5V-58h-4.5v-1.9a8.83,8.83,0,0,1-2.645,1.807,7.4,7.4,0,0,1-2.876.553,7.988,7.988,0,0,1-6.015-2.7,9.41,9.41,0,0,1-2.538-6.707,9.643,9.643,0,0,1,2.455-6.814,7.823,7.823,0,0,1,5.965-2.656,7.582,7.582,0,0,1,3.032.61,8.274,8.274,0,0,1,2.62,1.831Zm-4.735,3.7a4.551,4.551,0,0,0-3.47,1.477A5.321,5.321,0,0,0,43-66.989,5.377,5.377,0,0,0,44.4-63.161a4.555,4.555,0,0,0,3.461,1.5,4.64,4.64,0,0,0,3.519-1.477,5.4,5.4,0,0,0,1.4-3.869,5.242,5.242,0,0,0-1.4-3.795A4.7,4.7,0,0,0,47.846-72.252Zm27.04-3.7h4.5V-58h-4.5v-1.9a8.83,8.83,0,0,1-2.645,1.807,7.4,7.4,0,0,1-2.876.553,7.988,7.988,0,0,1-6.015-2.7,9.41,9.41,0,0,1-2.538-6.707,9.643,9.643,0,0,1,2.455-6.814,7.823,7.823,0,0,1,5.965-2.656,7.582,7.582,0,0,1,3.032.61,8.274,8.274,0,0,1,2.62,1.831Zm-4.735,3.7a4.551,4.551,0,0,0-3.47,1.477A5.321,5.321,0,0,0,65.3-66.989a5.377,5.377,0,0,0,1.406,3.828,4.555,4.555,0,0,0,3.461,1.5,4.64,4.64,0,0,0,3.519-1.477,5.4,5.4,0,0,0,1.4-3.869,5.243,5.243,0,0,0-1.4-3.795A4.7,4.7,0,0,0,70.152-72.252ZM84.489-82.563h4.5v6.616h2.673v3.877H88.993V-58h-4.5V-72.071h-2.31v-3.877h2.31Z" transform="translate(30.021 85.8)" fill="#fff"/><rect width="25.607" height="32.294" transform="translate(0)" fill="#1a1818"/><path d="M6.057-24.85a3.57,3.57,0,0,1,2.761,1.206,3.751,3.751,0,0,1,1,2.6A3.751,3.751,0,0,1,8.761-18.4a3.53,3.53,0,0,1-2.7,1.13A3.538,3.538,0,0,1,3.345-18.4a3.751,3.751,0,0,1-1.052-2.64,3.743,3.743,0,0,1,1-2.6A3.569,3.569,0,0,1,6.057-24.85Zm0,.908a2.676,2.676,0,0,0-1.988.855,2.857,2.857,0,0,0-.831,2.067,2.931,2.931,0,0,0,.379,1.458,2.685,2.685,0,0,0,1.024,1.043,2.809,2.809,0,0,0,1.416.368,2.809,2.809,0,0,0,1.416-.368,2.685,2.685,0,0,0,1.024-1.043,2.931,2.931,0,0,0,.379-1.458,2.851,2.851,0,0,0-.834-2.067A2.679,2.679,0,0,0,6.053-23.942Zm5.489-.722h.928v1.325a3.723,3.723,0,0,1,1.264-1.133,3.361,3.361,0,0,1,1.6-.378,3.559,3.559,0,0,1,2.628,1.106,3.655,3.655,0,0,1,1.092,2.663,3.723,3.723,0,0,1-1.082,2.7,3.514,3.514,0,0,1-2.611,1.11,3.511,3.511,0,0,1-1.582-.358,3.984,3.984,0,0,1-1.3-1.067v3.876h-.928Zm3.71.709a2.724,2.724,0,0,0-2.026.84,2.87,2.87,0,0,0-.823,2.091,2.968,2.968,0,0,0,.367,1.476,2.677,2.677,0,0,0,1.051,1.039,2.908,2.908,0,0,0,1.444.384,2.723,2.723,0,0,0,1.4-.387,2.841,2.841,0,0,0,1.048-1.082,2.933,2.933,0,0,0,.39-1.456,2.928,2.928,0,0,0-.387-1.456,2.789,2.789,0,0,0-1.041-1.069A2.79,2.79,0,0,0,15.253-23.955Z" transform="translate(1.566 37.566)" fill="#fff"/></g></g></svg>