<svg xmlns="http://www.w3.org/2000/svg" width="352.497" height="481.957" viewBox="0 0 352.497 481.957"><g transform="translate(358.519 16048)"><path d="M-205.285,802.745h-215.14c-37.9,0-68.665,30-68.665,66.962v30.125h352.494V869.707c0-36.966-30.717-66.962-68.69-66.962" transform="translate(130.573 -16465.881)" fill="#f7d5c3"/><path d="M-293.687,813.539V774.965c0-12.37-14.219-22.384-31.813-22.384h-33.391c-17.582,0-31.826,10.014-31.826,22.384v38.574s-9.512,53.137-78.69,57.066c7.934,29.624,93.83,44.129,127.209,40.771,33.407,3.357,119.273-13.693,127.248-43.332-69.18-3.906-78.738-54.505-78.738-54.505" transform="translate(155.532 -16529.496)" fill="#f7d5c3"/><path d="M-259.131,868.078v-.041c-.082,0-.17,0-.277,0a70.876,70.876,0,0,0-14.055-1.619c-56.14-9.517-64.365-52.877-64.365-52.877V774.96c0-12.37-14.266-22.377-31.8-22.377h-33.389a43.812,43.812,0,0,0-12.629,1.839L-434.706,773a2.616,2.616,0,0,0-.016.354l195.006,190.093h34.042V933.322c0-31.853-22.883-58.477-53.457-65.245" transform="translate(199.516 -16529.492)" fill="#d6b9aa"/><path d="M-359.744,654.219c-52.768,0-95.528,58.681-95.528,131.072s42.761,131.077,95.528,131.077c52.8,0,95.576-58.685,95.576-131.077s-42.777-131.072-95.576-131.072" transform="translate(173.456 -16654.23)" fill="#f7d5c3"/><path d="M-413.154,654.219V916.367c52.8,0,95.576-58.685,95.576-131.077s-42.777-131.072-95.576-131.072" transform="translate(226.867 -16654.23)" fill="#eac9b7"/><path d="M-189.991,821.919v-.041c-.1,0-.2,0-.293,0a71.337,71.337,0,0,0-14.053-1.619c-.612-.1-1.211-.191-1.812-.3-.86-.168-1.771-.318-2.626-.522-1.052-.211-2.059-.442-3.08-.694-.63-.156-1.252-.286-1.835-.465-1.363-.336-2.715-.717-4.039-1.127-.184-.046-.436-.114-.653-.191-20.474-6.412-32.779-17.732-40.107-27.968l-58.37,7.36-58.345-7.36c-7.594,11.468-20.86,24.559-43.847,31.214h-1.372a69.848,69.848,0,0,0-23.727,4.214c-.093,0-.19.027-.3.027l.025.036c-26.083,9.544-44.666,33.954-44.666,62.688v30.121h352.494V887.163c0-31.853-22.854-58.476-53.4-65.244" transform="translate(130.573 -16483.332)" fill="#fff"/><path d="M-396.877,792.228l-29.112,33.839,17.961,27.05-12.742,60.055h47.827L-385.7,853.118l18.621-27.05Z" transform="translate(210.59 -16479.217)" fill="#18988b"/><path d="M-444.445,806.983l.02.043c-26.081,9.544-44.666,33.949-44.666,62.684v30.127h68.669V802.744a69.823,69.823,0,0,0-23.731,4.216c-.089,0-.188.023-.293.023" transform="translate(130.571 -16465.881)" fill="#18988b"/><path d="M-342.414,805.974v-.041c-.1,0-.2,0-.293,0a71.336,71.336,0,0,0-14.053-1.619c-.612-.1-1.211-.191-1.812-.3-.86-.168-1.771-.318-2.626-.522-1.052-.211-2.059-.442-3.08-.694-.63-.156-1.252-.286-1.835-.465-.937-.229-1.833-.488-2.778-.767v99.781h79.874V871.218c0-31.853-22.854-58.477-53.4-65.245" transform="translate(282.996 -16467.387)" fill="#18988b"/><path d="M-291.765,647.707c-61.019-15.645-146.448-23.064-162.5,0-13.407,19.3-7.687,65.8,16.43,106.62,0,0,85.417-57.259,173.874,6.768,6.571-32.355,33.269-97.763-27.8-113.388" transform="translate(165.755 -16681.061)" fill="#18988b"/><path d="M-307.85,694.976c-21.685,0-39.6,15.834-42.241,36.276h-17.741c-2.654-20.443-20.565-36.276-42.23-36.276-23.582,0-42.659,18.6-42.659,41.543s19.077,41.556,42.659,41.556c21.665,0,39.576-15.829,42.23-36.3h17.741c2.642,20.474,20.556,36.3,42.241,36.3,23.57,0,42.62-18.6,42.62-41.556s-19.05-41.543-42.62-41.543" transform="translate(176.691 -16602.543)" fill="#18988b"/></g></svg>