<svg xmlns="http://www.w3.org/2000/svg" width="409.353" height="480.866" viewBox="0 0 409.353 480.866"><g transform="translate(386.899 15465.551)"><path d="M119.4,955.766c-11.068-46.655,29.746-48.476,21.366-96.359-8.58-49.152-56.367-32.815-43.516-79.844,9.3-34.1,17.508-74.718-22.2-113.413C48.1,635.822,15.39,648.539,6.149,653.052c-14.316-12.32-62.051-44.172-121.8,13.1-39.708,38.694-31.5,79.314-22.182,113.413,12.842,47.03-34.938,30.692-43.53,79.844-8.369,47.882,32.434,49.7,21.361,96.359-5.852,27.861-27.784,23.119-50.556,49.867-16.931,19.891-26.9,66.19,16.693,100.135H153.266c43.591-33.945,33.618-80.244,16.693-100.135-22.772-26.748-44.711-22.005-50.563-49.867" transform="translate(-161.923 -16098.611)" fill="#18988b"/><path d="M77.329,801.423H-142.145c-38.689,0-70.055,30.57-70.055,68.268v30.726H147.357V869.691c0-37.7-31.348-68.268-70.028-68.268" transform="translate(-145.722 -15885.106)" fill="#f7d5c3"/><path d="M-46.911,812.265V773c0-12.561-10.463-22.749-23.346-22.749H-94.777c-12.887,0-23.346,10.188-23.346,22.749v39.268s-7.008,50.071-57.787,54.056c5.843,30.15,68.876,48.925,93.392,45.505,24.518,3.42,87.563-15.355,93.39-45.505-50.774-3.985-57.782-54.056-57.782-54.056" transform="translate(-99.702 -15950.002)" fill="#f7d5c3"/><path d="M-1,865.652H-21.439c-50.776-3.987-57.782-54.042-57.782-54.042V772.337c0-12.561-10.465-22.751-23.348-22.751h-24.516c-12.89,0-23.346,10.191-23.346,22.751v11.62l186.915,182.2H69.027V933.929c0-37.71-31.348-68.277-70.028-68.277" transform="translate(-67.392 -15950.844)" fill="#d0b3a5"/><path d="M-80.231,649.914c-53.836,0-97.484,59.86-97.484,133.692S-134.066,917.32-80.231,917.32s97.486-59.869,97.486-133.714S-26.4,649.914-80.231,649.914" transform="translate(-101.99 -16077.237)" fill="#f7d5c3"/><path d="M-134.734,649.914V917.32c53.834,0,97.486-59.869,97.486-133.714S-80.9,649.914-134.734,649.914" transform="translate(-47.486 -16077.237)" fill="#e1c3b2"/><path d="M-81,644.175c-103.694-3.032-92.809,103.172-98.25,125.17-.538,2.225,12.45-29.581,65.383-37.165,36.8-5.285,69.336-32.284,67.715-53.117,14.777,27.308,52.062,38.669,63.382,84.957C31.68,742.04,22.687,647.2-81,644.175" transform="translate(-103.958 -16084.597)" fill="#18988b"/><path d="M77.329,800.829H58.211c-1.1-.082-3.057-.141-4.119-.274C32.969,827.543-.748,846.586-38.256,846.586a116.411,116.411,0,0,1-91.654-44.063h-12.234c-38.689,0-70.055,30.574-70.055,68.27v30.731H147.38V870.793c0-37.7-26.274-70.239-70.051-69.964" transform="translate(-145.722 -15886.209)" fill="#fff"/><rect width="359.582" height="18.96" transform="translate(-357.927 -15003.661)" fill="#18988b"/><path d="M-4.653,818.643c-10.789,3.234-57.388,3.234-68.157,0H-205.882a66.527,66.527,0,0,0-5.929,18.946H146.32c-1.021-6.677-2.275-13.053-5.174-18.946Z" transform="translate(-145.229 -15863.271)" fill="#18988b"/><path d="M-81.794,800.568c-1.091-.089-3.014.129-4.06,0a110.3,110.3,0,0,1-16.3,17.41h87.7c-12.354-10.588-23.709-17.129-47.776-17.14Z" transform="translate(-6.166 -15886.22)" fill="#18988b"/><path d="M-143.228,801.411h-12.234A70.81,70.81,0,0,0-201.7,818.479h75.156a114.482,114.482,0,0,1-16.686-17.067" transform="translate(-132.404 -15885.122)" fill="#18988b"/></g></svg>