<svg xmlns="http://www.w3.org/2000/svg" width="498.711" height="600.404" viewBox="0 0 498.711 600.404"><path d="M473.911,623.256C460.425,565,510.152,562.733,499.937,502.94c-10.45-61.367-68.668-40.974-53.007-99.689,11.321-42.576,21.33-93.3-27.057-141.6-32.82-37.872-72.669-22-83.925-16.363-17.451-15.389-75.6-55.153-148.394,16.363-48.368,48.3-38.368,99.023-27.019,141.6,15.642,58.715-42.567,38.322-53.035,99.689C97.3,562.733,147.012,565,133.526,623.256c-7.132,34.788-33.851,28.875-61.592,62.266-20.627,24.836-32.773,82.641,20.337,125.03h422.9c53.1-42.389,40.955-100.194,20.337-125.03-27.741-33.392-54.479-27.478-61.6-62.266" transform="translate(-54.364 -220.326)" fill="#19a89c"/><path d="M225.988,333.178V284.144a28.432,28.432,0,0,0-28.444-28.406H167.676a28.432,28.432,0,0,0-28.443,28.406v49.033s-8.538,62.51-70.4,67.487c7.113,37.647,83.906,61.1,113.774,56.822,29.877,4.274,106.68-19.175,113.784-56.822-61.863-4.977-70.4-67.487-70.4-67.487" transform="translate(62.374 76.134)" fill="#fff"/><path d="M187.059,225.419c-65.584,0-118.76,74.741-118.76,166.922,0,92.21,53.176,166.969,118.76,166.969s118.779-74.759,118.779-166.969c0-92.182-53.185-166.922-118.779-166.922" transform="translate(62.908 -177.692)" fill="#fff"/><path d="M187.567,223.745C61.234,219.959,74.5,352.571,67.86,380.039c-.656,2.774,15.173-36.934,79.661-46.409,44.826-6.589,84.478-40.308,82.491-66.325,18.013,34.1,63.438,48.293,77.224,106.08,17.6-27.441,6.654-145.854-119.669-149.641" transform="translate(63.366 -183)" fill="#19a89c"/><path d="M410.859,271.278H387.57c-1.34-.1-3.721-.178-5.014-.338-25.735,33.692-66.812,57.468-112.509,57.468A140.58,140.58,0,0,1,158.391,273.4H143.48a85.3,85.3,0,0,0-85.349,85.237V397H496.209V358.633c0-47.056-32.014-87.693-85.349-87.355" transform="translate(-30.014 203.403)" fill="#fff"/><g transform="translate(28.117 474.315)"><rect width="438.081" height="23.674" transform="translate(0 102.391)" fill="#19a89c"/><path d="M310.621,276.4c-13.139,4.039-69.9,4.039-83.025,0H65.462a84.46,84.46,0,0,0-7.216,23.655H494.553c-1.237-8.332-2.774-16.3-6.307-23.655Z" transform="translate(-57.163 -225.16)" fill="#19a89c"/><path d="M115.385,270.965c-1.331-.112-3.674.159-4.948,0-6.082,7.966-12.23,15.239-19.859,21.743H197.426c-15.051-13.224-28.884-21.387-58.208-21.405Z" transform="translate(213.515 -270.937)" fill="#19a89c"/><path d="M132.462,271.2H117.552A85.054,85.054,0,0,0,61.227,292.51H152.8A142.558,142.558,0,0,1,132.462,271.2" transform="translate(-32.207 -268.744)" fill="#19a89c"/></g></svg>